<svg xmlns="http://www.w3.org/2000/svg" version="1.1" xmlns:xlink="http://www.w3.org/1999/xlink"
  xmlns:svgjs="http://svgjs.dev/svgjs" viewBox="0 0 800 800" opacity="1">
  <defs>
    <linearGradient x1="50%" y1="0%" x2="50%" y2="100%" id="uundulate-grad">
      <stop stop-color="hsl(37, 99%, 67%)" stop-opacity="1" offset="45%"></stop>
      <stop stop-color="hsl(316, 73%, 52%)" stop-opacity="1" offset="100%"></stop>
    </linearGradient>
  </defs>
  <g stroke-width="3" stroke="url(#uundulate-grad)" fill="none">
    <path
      d="M1545.0921380348682 106.907239212906C1570.4017013182997 460.28311316493 1434.8083604217559 804.8885696630523 968.1671069635113 1063.8903964210494C501.5258535052669 1322.8922231790461 -475.52878177005823 1618.2122409114813 -694.7858785647086 1350.1160076512924C-914.0429753593588 1082.019774391103 -405.40593301908723 190.03468639713037 -84.26695765080717 -222.97152322786133C236.87201771747277 -635.9777328528529 507.2313916018529 -701.0385407238296 846.6812032030359 -632.3137985486701C1186.1310148042185 -563.5890563735106 1519.7825747514366 -246.46863473911822 1545.0921380348682 106.907239212906C1570.4017013182997 460.28311316493 1434.8083604217559 804.8885696630523 968.1671069635113 1063.8903964210494 "></path>
    <path
      d="M1504.1959913378223 117.37484108218541C1528.6016416468456 458.1301481073515 1397.850920068035 790.4282668733979 947.8754256618711 1040.180028390038C497.89993125570663 1289.9317899066777 -444.25989561692836 1574.7046641486686 -655.6863818117697 1316.1832963620582C-867.112868006611 1057.6619285754468 -376.64143432134915 197.53345086697323 -66.97170807336488 -200.72253698569716C242.6980181746194 -598.9785248383677 503.4017001345576 -661.715732428238 830.7283041785554 -595.4454453307628C1158.0549082225534 -529.1751582332876 1479.7903410287986 -223.38046594298066 1504.1959913378223 117.37484108218541C1528.6016416468456 458.1301481073515 1397.850920068035 790.4282668733979 947.8754256618711 1040.180028390038 "></path>
    <path
      d="M1463.299844640776 127.84247346904294C1486.8015819753914 455.9772135673513 1360.8934797143147 775.9679946013218 927.5837443602304 1016.4696908766048C494.27400900614634 1256.9713871518875 -412.9910094637985 1531.1971179034344 -616.586885058831 1282.2506155904016C-820.1827606538633 1033.304113277369 -347.8769356236111 205.0322458543942 -49.676458495922475 -178.47352022595487C248.524018631766 -561.9792863063042 499.572008667262 -622.3928936150683 814.7754051540746 -558.5770615952774C1129.9788016408875 -494.7612295754864 1439.798107306161 -200.292266629265 1463.299844640776 127.84247346904294C1486.8015819753914 455.9772135673513 1360.8934797143147 775.9679946013218 927.5837443602304 1016.4696908766048 "></path>
    <path
      d="M1422.4036979437296 138.3100753383228C1445.0015223039368 453.8242485097728 1323.936039360594 761.5076918116674 907.29206305859 992.7593228455935C490.64808675658605 1224.0109538795195 -381.7221233106686 1487.6895411406222 -577.4873883058922 1248.3179043011678C-773.2526533011155 1008.946267461713 -319.112436925873 212.5310103242373 -32.38120891848018 -156.22453398379082C254.35001908891263 -524.9800782918189 495.74231719996646 -583.0700853194767 798.8225061295939 -521.70870837737C1101.9026950592215 -460.34733143526336 1399.805873583523 -177.20409783312732 1422.4036979437296 138.3100753383228C1445.0015223039368 453.8242485097728 1323.936039360594 761.5076918116674 907.29206305859 992.7593228455935 "></path>
    <path
      d="M1381.5075512466842 148.77767720760232C1403.2014626324826 451.6712834521943 1286.9785990068735 747.0473890220132 887.0003817569495 969.0489548145822C487.02216450702576 1191.0505206071512 -350.45323715753887 1444.1819643778094 -538.3878915529533 1214.3851930119336C-726.3225459483679 984.588421646057 -290.34793822813504 220.02977479408037 -15.085959341037892 -133.97554774162677C260.17601954605925 -487.98087027733374 491.9126257326709 -543.7472770238851 782.8696071051133 -484.8403551594628C1073.8265884775558 -425.93343329504035 1359.813639860885 -154.11592903698977 1381.5075512466842 148.77767720760232C1403.2014626324826 451.6712834521943 1286.9785990068735 747.0473890220132 887.0003817569495 969.0489548145822 "></path>
    <path
      d="M1340.6114045496379 159.24537062961633C1361.4014029610285 449.5184099473504 1250.0211586531527 732.5871777850934 866.7087004553091 945.3386783363055C483.39624225746525 1158.0901788875174 -319.1843510044089 1400.674479167732 -499.28839480001454 1180.4525732754335C-679.3924385956201 960.2306673831354 -261.58343953039696 227.52863081665782 2.209290236404513 -111.72646994672823C266.00202000320587 -450.9815707101141 488.08293426537534 -504.42437717555924 766.9167080806326 -447.9719103888211C1045.75048189589 -391.5194436020829 1319.8214061382478 -131.02766868811773 1340.6114045496379 159.24537062961633C1361.4014029610285 449.5184099473504 1250.0211586531527 732.5871777850934 866.7087004553091 945.3386783363055 "></path>
    <path
      d="M1299.715257852592 169.71285042858335C1319.6013432895738 447.3653228194594 1213.0637182994324 718.1267529251268 846.4170191536684 921.6281882349815C479.77032000790496 1125.1296235448365 -287.915464851279 1357.1667803346068 -460.1888980470757 1146.5197399158867C-632.4623312428723 935.8726994971666 -232.81894083265888 235.02727321618818 19.504539813846804 -89.47760577487657C271.8280204603525 -413.9824847659413 484.25324279808 -465.10169095028016 750.9638090561521 -411.1036792412263C1017.6743753142243 -357.1056675321724 1279.8291724156097 -107.93962196229268 1299.715257852592 169.71285042858335C1319.6013432895738 447.3653228194594 1213.0637182994324 718.1267529251268 846.4170191536684 921.6281882349815 "></path>
    <path
      d="M1258.8191111555461 180.1804828154411C1277.8012836181197 445.2123882794592 1176.1062779457116 703.6664806530507 826.1253378520282 897.9178507215486C476.1443977583449 1092.1692207900464 -256.64657869814914 1313.6592340893721 -421.0894012941369 1112.5870591442308C-585.5322238901246 911.514884199089 -204.05444213492092 242.52606820360938 36.799789391289096 -67.22858901513428C277.6540209174991 -376.98324623387794 480.42355133078445 -425.77885213711045 735.0109100316715 -374.23529550574085C989.5982687325586 -322.69173887437125 1239.8369386929717 -84.851422648577 1258.8191111555461 180.1804828154411C1277.8012836181197 445.2123882794592 1176.1062779457116 703.6664806530507 826.1253378520282 897.9178507215486 "></path>
    <path
      d="M1217.9229644584998 190.6480541671425C1236.0012239466653 443.0593927043026 1139.148837591991 689.2061473458184 805.8336565503876 874.2074521729592C472.5184755087844 1059.2087570001 -225.37769254501927 1270.151626808982 -381.9899045411981 1078.6543173374184C-538.6021165373768 887.1570078658549 -175.28994343718284 250.02480215587423 54.0950389687315 -44.979633290548236C283.48002137464573 -339.9840687369708 476.5938598634889 -386.456074359097 719.0580110071908 -337.36697280541165C961.5221621508929 -288.2778712517263 1199.844704970334 -61.76328437001757 1217.9229644584998 190.6480541671425C1236.0012239466653 443.0593927043026 1139.148837591991 689.2061473458184 805.8336565503876 874.2074521729592 "></path>
    <path
      d="M1177.0268177614535 201.11565603642214C1194.2011642752109 440.9064276467243 1102.1913972382702 674.7458445561642 785.5419752487471 850.4970841419479C468.8925532592241 1026.2483237277318 -194.1088063918894 1226.6440500461697 -342.89040778825927 1044.7216060481842C-491.6720091846291 862.7991620501987 -146.52544473944477 257.5235666257173 71.3902885461739 -22.73064704838407C289.30602183179235 -302.98486072248556 472.7641683961933 -347.13326606350546 703.1051119827102 -300.4986195875044C933.4460555692272 -253.8639731115033 1159.8524712476963 -38.67511557387979 1177.0268177614535 201.11565603642214C1194.2011642752109 440.9064276467243 1102.1913972382702 674.7458445561642 785.5419752487471 850.4970841419479 "></path>
    <path
      d="M1136.1306710644076 211.58328842327978C1152.4011046037565 438.7534931067239 1065.2339568845496 660.2855722840882 765.2502939471067 826.7867466285147C465.2666310096638 993.2879209729415 -162.83992023875953 1183.136503800935 -303.79091103532045 1010.7889252765281C-444.74190183188136 838.4413467521208 -117.7609460417068 265.0223616131383 88.6855381236162 -0.4816302886418953C295.1320222889391 -265.9856221904222 468.93447692889777 -307.81042725033575 687.1522129582295 -263.6302358520189C905.3699489875614 -219.45004445370216 1119.8602375250584 -15.58691626016423 1136.1306710644076 211.58328842327978C1152.4011046037565 438.7534931067239 1065.2339568845496 660.2855722840882 765.2502939471067 826.7867466285147 "></path>
    <path
      d="M1095.2345243673615 222.0508597749814C1110.6010449323023 436.60049753156727 1028.276516530829 645.8252389768559 744.9586126454662 803.0763480799255C461.6407087601033 960.327457182995 -131.57103408562966 1139.628896520545 -264.69141428238163 976.8561834697157C-397.8117944791336 814.0834704188867 -88.99644734396861 272.52109556540324 105.98078770105849 21.767325435944144C300.9580227460857 -228.986444693515 465.1047854616022 -268.4876494723223 671.199313933749 -226.76191315168978C877.2938424058957 -185.03617683105722 1079.8680038024206 7.50122201839531 1095.2345243673615 222.0508597749814C1110.6010449323023 436.60049753156727 1028.276516530829 645.8252389768559 744.9586126454662 803.0763480799255 "></path>
    <path
      d="M1054.3383776703154 232.51846164426092C1068.800985260848 434.447532473989 991.3190761771084 631.3649361872017 724.6669313438256 779.3659800489145C458.0147865105432 927.3670239106268 -100.30214793249979 1096.1213197577324 -225.59191752944287 942.9234721804817C-350.8816871263858 789.7256246032307 -60.23194864623065 280.0198600352462 123.27603727850078 44.01631167810831C306.7840232032322 -191.98723667902976 461.27509399430664 -229.16484117673076 655.2464149092682 -189.89355993378246C849.21773582423 -150.62227869083415 1039.8757700797828 30.589390814532862 1054.3383776703154 232.51846164426092C1068.800985260848 434.447532473989 991.3190761771084 631.3649361872017 724.6669313438256 779.3659800489145 "></path>
    <path
      d="M1013.4422309732693 242.98606351354056C1027.0009255893935 432.2945674164105 954.3616358233878 616.9046333975475 704.3752500421851 755.655612017903C454.3888642609828 894.4065906382584 -69.03326177936998 1052.6137429949201 -186.49242077650405 908.9907608912474C-303.95157977363806 765.3677787875747 -31.467449948492572 287.5186245050893 140.57128685594307 66.26529792027236C312.61002366037883 -154.98802866454452 457.4454025270111 -189.84203288113918 639.2935158847877 -153.02520671587519C821.1416292425642 -116.20838055061114 999.883536357145 53.677559610670414 1013.4422309732693 242.98606351354056C1027.0009255893935 432.2945674164105 954.3616358233878 616.9046333975475 704.3752500421851 755.655612017903 "></path>
    <path
      d="M972.5460232410669 253.4536653828202C985.2008048827827 430.1416023588322 917.4041344345108 602.4443306078933 684.0835077053885 731.9452439868919C450.7628809762663 861.4461573658903 -37.7644366613963 1009.1061662321079 -147.39298505872148 875.0580496020134C-257.0215334560466 741.0099329719187 -2.703012285910745 295.0173889749324 157.86647539822923 88.51428416243652C318.4359630823692 -117.98882065005927 453.6156500245593 -150.5192245855476 623.3405558251507 -116.15685349796786C793.065461625742 -81.79448241038813 959.8912415993511 76.76572840680808 972.5460232410669 253.4536653828202C985.2008048827827 430.1416023588322 917.4041344345108 602.4443306078933 684.0835077053885 731.9452439868919 "></path>
    <path
      d="M931.6498765440208 263.9212672520996C943.4007452113285 427.9886373012538 880.4466940807902 587.9840278182392 663.791826403748 708.2348759558804C447.136958726706 828.4857240935219 -6.495550508266433 965.5985894692953 -108.29348830578266 841.1253383127789C-210.09142610329883 716.6520871562625 26.061486411827275 302.5161534447752 175.16172497567163 110.76327040460069C324.2619635395158 -80.98961263557402 449.7859585572638 -111.196416289956 607.3876568006701 -79.28850028006053C764.9893550440765 -47.38058427016506 919.8990078767133 99.85389720294563 931.6498765440208 263.9212672520996C943.4007452113285 427.9886373012538 880.4466940807902 587.9840278182392 663.791826403748 708.2348759558804 "></path>
    <path
      d="M890.7537908821312 274.3888386038011C901.6007465750304 425.83564172609715 843.4893147622258 573.5236945110066 643.5002061372638 684.5244774072912C443.51109751230194 795.5252603035756 24.77339668001963 922.0909821889047 -69.19393051768759 807.1925965059668C-163.16125771539487 692.2942108230286 54.826046144721545 310.0148873970402 192.45703558827017 133.01222612918662C330.0880250318187 -43.99043513866684 445.9563281251245 -71.8736385119426 591.4348188113458 -42.42017757973139C736.9133094975668 -12.966716647520173 879.9068351892315 122.94203548150517 890.7537908821312 274.3888386038011C901.6007465750304 425.83564172609715 843.4893147622258 573.5236945110066 643.5002061372638 684.5244774072912 "></path>
    <path
      d="M849.8576441850851 284.8564099555026C859.800686903576 423.6826461509406 806.5318744085052 559.0633612037743 623.2085248356234 660.8140788587016C439.88517526274154 762.5647965136291 56.04228283314956 878.5833749085143 -30.09443376474877 773.2598546991544C-116.2311503626471 667.9363344897943 83.59054484245962 317.513621349305 209.75228516571246 155.26118185377265C335.9140254889653 -6.9912576417597165 442.12663665782907 -32.55086073392914 575.4819197868651 -5.551854879402185C708.8372029159013 21.447150975124714 839.9146014665939 146.0301737600646 849.8576441850851 284.8564099555026C859.800686903576 423.6826461509406 806.5318744085052 559.0633612037743 623.2085248356234 660.8140788587016 "></path>
    <path
      d="M808.961497488039 295.32404234236037C818.0006272321216 421.52971161094035 769.5744340547844 544.6030889316983 602.9168435339828 637.1037413452686C436.25925301318125 729.604393758839 87.31116898627943 835.0758286632799 9.005062988190048 739.3271739274983C-69.30104300989933 643.5785191917165 112.35504354019764 325.0124163367261 227.04753474315476 177.51019861351494C341.7400259461119 30.007980890303656 438.2969451905335 6.771978079240569 559.5290207623844 31.31652885608321C680.7610963342354 55.86107963292591 799.9223677439561 169.11837307378028 808.961497488039 295.32404234236037C818.0006272321216 421.52971161094035 769.5744340547844 544.6030889316983 602.9168435339828 637.1037413452686 "></path>
    <path
      d="M768.0652897558366 305.7916442116399C776.2005065255112 419.37674655336195 732.6169326659076 530.1427861420441 582.6251011971862 613.3933733142574C432.6332697284647 696.6439604864707 118.57999410425305 791.5682519004677 48.10449870597256 705.394462638264C-22.37099669230787 619.2206733760604 141.1194812027794 332.5111808065692 244.3427232854409 199.75918485567905C347.5659653681023 67.0071889047889 434.4671926880817 46.0947863748321 543.5760607027476 68.18488207399054C652.6849287174135 90.27497777314892 759.930072986162 192.20654186991788 768.0652897558366 305.7916442116399C776.2005065255112 419.37674655336195 732.6169326659076 530.1427861420441 582.6251011971862 613.3933733142574 "></path>
    <path
      d="M727.1691735763686 316.2592155633414C734.4004773716349 417.22375097820543 695.6595228297651 515.6824528348118 562.3334504131237 589.6829747656682C429.00737799648255 663.6834966965243 149.84891077496104 748.0606446200771 87.2040259764895 671.4617208314518C24.559141178018024 594.8627970428263 169.8840104180956 340.00991475883404 261.6380033804613 222.0081405802651C353.39199634282704 104.00636640169603 430.63753173836426 85.41756415284556 527.623192195845 105.05320477431968C624.6088526533259 124.68884539579386 719.9378697811023 215.29468014847737 727.1691735763686 316.2592155633414C734.4004773716349 417.22375097820543 695.6595228297651 515.6824528348118 562.3334504131237 589.6829747656682 "></path>
    <path
      d="M686.2730268793225 326.72681743262103C692.6004177001804 415.07078592062703 658.7020824760444 501.2221500451576 542.0417691114833 565.9726067346569C425.38145574692226 630.7230634241561 181.1177969280909 704.5530678572649 126.30352272942832 637.5290095422176C71.48924853076574 570.5049512271703 198.6485091158337 347.5086792286771 278.93325295790373 244.2571268224292C359.21799679997366 141.00557441618133 426.8078402710687 124.74037244843714 511.6702931713644 141.921557992227C596.5327460716601 159.10274353601687 679.9456360584646 238.38284894461498 686.2730268793225 326.72681743262103C692.6004177001804 415.07078592062703 658.7020824760444 501.2221500451576 542.0417691114833 565.9726067346569 "></path>
    <path
      d="M645.3768954410656 337.1944040431115C650.8003732875152 412.91780560425946 621.7446573811129 486.76183199671425 521.7501030686319 542.2622234448565C421.75554875615103 597.7626148929987 212.38669834000984 661.0454758356633 165.4030347411562 603.5962829941943C118.41937114230257 546.1470901527252 227.41302307236077 355.00742843973103 296.2285177941351 266.50609780580425C365.04401251590934 178.00476717187752 422.9781640625622 164.06316548523967 495.7174094056729 178.78989595134527C568.4566547487834 193.51662641745082 639.9534175946158 261.4710024819635 645.3768954410656 337.1944040431115C650.8003732875152 412.91780560425946 621.7446573811129 486.76183199671425 521.7501030686319 542.2622234448565 "></path>
    <path
      d="M604.4807487440195 347.6620211711802C609.0003136160608 410.76485580547023 584.7872170273922 472.30154446584913 501.4584217669915 518.5518706726343C418.1296265065906 564.8021968794195 243.6555844931397 617.53791433164 204.50253149409502 569.6635869637491C165.34947849505033 521.7892595958583 256.1775217700988 362.50620816836306 313.5237673715774 288.7550993067575C370.87001297305596 215.00399044515183 419.14847259526675 203.38598903962026 479.76451038119217 215.6582644280416C540.3805481671177 227.93053981646295 599.961183871978 284.55918653689014 604.4807487440195 347.6620211711802C609.0003136160608 410.76485580547023 584.7872170273922 472.30154446584913 501.4584217669915 518.5518706726343 "></path>
    <path
      d="M563.5845867881843 358.1296382992488C567.2002386858175 408.6119060066808 547.8297614148826 457.841256934984 481.16672520656186 494.8415179004122C414.5036889982413 531.8417788658403 274.9244553874805 574.0303528276168 243.60201298824478 535.730890933304C212.27957058900898 497.43142903899127 284.9420052090478 370.00498789699515 330.81900169023066 311.00410080771064C376.6959981714135 252.00321371842614 415.31876586918213 242.7088125940009 463.8115960979226 252.526632904738C512.3044263266629 262.344453215475 559.9689348905512 307.6473705918168 563.5845867881843 358.1296382992488C567.2002386858175 408.6119060066808 547.8297614148826 457.841256934984 481.16672520656186 494.8415179004122 "></path>
    <path
      d="M522.6884400911383 368.5972096509503C525.4001790143631 406.45891043152426 510.872321061162 443.3809236277516 460.8750439049214 471.1311193518228C410.877766748681 498.8813150758939 306.1933415406104 530.5227455472261 282.70150974118354 501.7981491264917C259.20967794175675 473.07355270575715 313.7065039067859 377.50372184926005 348.114251267673 333.2530565322967C382.52199862856014 289.00239121533326 411.48907440188657 282.03159037201436 447.85869707344193 289.39495560506714C484.2283197449972 296.75832083811997 519.9767011679133 330.7355088703763 522.6884400911383 368.5972096509503C525.4001790143631 406.45891043152426 510.872321061162 443.3809236277516 460.8750439049214 471.1311193518228 "></path>
    <path
      d="M481.7922933940922 379.06479626144085C483.6001193429088 404.3059301151568 473.9148807074413 428.9206055793084 440.58336260328093 447.4207360620225C407.25184449912064 465.92086654473655 337.46222769374026 487.0151535256248 321.80100649412236 467.8654225784684C306.1397852945045 448.71569163131204 342.4710026045239 385.002471060314 365.4095008451153 355.5020275156717C388.34799908570676 326.0015839710295 407.65938293459106 321.3543834088169 431.9057980489613 326.2632935641854C456.15221316333145 331.1722037195539 479.98446744527564 353.82366240772484 481.7922933940922 379.06479626144085C483.6001193429088 404.3059301151568 473.9148807074413 428.9206055793084 440.58336260328093 447.4207360620225 "></path>
    <path
      d="M440.8961466970461 389.5323981307204C441.8000596714544 402.1529650575784 436.95744035372064 414.4603027896542 420.2916813016405 423.7103680310112C403.6259222495603 432.9604332723683 368.73111384687013 443.5075767628124 360.9005032470612 433.9327112892342C353.06989264725223 424.35784581565605 371.2355013022619 392.501235530157 382.70475042255765 377.7510137578359C394.1739995428534 363.00079198551475 403.82969146729556 360.6771917044084 415.95289902448064 363.1316467820927C428.0761065816657 365.586101859777 439.9922337226378 376.9118312038624 440.8961466970461 389.5323981307204C441.8000596714544 402.1529650575784 436.95744035372064 414.4603027896542 420.2916813016405 423.7103680310112 "></path>
  </g>
</svg>