<svg xmlns="http://www.w3.org/2000/svg" version="1.1" xmlns:xlink="http://www.w3.org/1999/xlink"
  xmlns:svgjs="http://svgjs.dev/svgjs" viewBox="0 0 800 800">
  <defs>
    <linearGradient x1="50%" y1="0%" x2="50%" y2="100%" id="ssscribble-grad">
      <stop stop-color="hsl(206, 75%, 49%)" stop-opacity="1" offset="0%"></stop>
      <stop stop-color="hsl(331, 90%, 56%)" stop-opacity="1" offset="100%"></stop>
    </linearGradient>
  </defs>
  <g fill="none" stroke-width="1.5" stroke="url(#ssscribble-grad)" stroke-linecap="round">
    <path
      d="M1027.26 193.9C879.39 226.76 729.49 265.35 644.53 310.98 656.47 359.35 749.43 419.34 874.06 492.95 985.53 571.49 1033.98 662.6 1008.41 759.76 919.7 846.87 795.09 920.22 668.51 963.48 556.59 968.38 480.2 929.11 439.13 849.5 433.85 713.37 484.67 672.64 492.17 840.87 492.41 978.2 476.55 1078.35 443.69 1100.02 410.83 1035.17 362.52 908.86 300.31 770.51 238.18 665.18 163.72 623.77 82.92 649.1 11.1 729.83 -52.51 830 -93.13 916.66 -102.71 974.97 -73.5 984.65 -4.64 949.71 78.86 878.74 164.5 786.25 219 689.21 210.35 589.68 132.43 502.83 -3.11 431.85 -151.83 369.07 -263.49 319.38 -288.11 278.74 -215.84 241.33 -72.6 207.2 75.26 174.34 149.16 141.48 118.4 111.44 6.55 86.88 -189.17 60.49 -144.17 91.67 57.39 156.92 182.38 203.32 260.29 248.64 286.23 276.55 264.22 268.43 214.75 219.79 159.91 127.28 101.51 6.41 62.37 -123.23 45.83 -228.06 40.79 -277.49 54.1 -254.79 78.94 -162.16 108.05 -36.49 140.88 83.16 173.74 148.03 206.6 126.37 237.94 32.9 270.8 -91.73 307.93 -207.62 354.41 -268.29 416.38 -257.98 489.87 -183.52 583.13 -66.48 692.18 60.08 797.67 173.9 894.31 252.14 959.39 290.32 976.52 290.14 937.57 263.97 846.8 227.51 740.63 181 647.72 144.01 611.81 122.41 660.04 105.74 782.84 105.53 939.2 119.13 1063.73 135.47 1101.16 161.04 1027.26 193.9Q1027.26 193.9 1027.26 193.9"
      opacity="0.68"></path>
    <path
      d="M993.26 294.29C856.97 324.8 714.19 366.72 620.86 419.46 607.86 473.09 671.24 538.46 777.65 613.49 893.58 686.6 972.19 763.11 992.96 834.02 955.83 887.63 870.42 919.25 761.66 918.43 643.76 887.54 540.63 824.28 461.79 738.94 404.84 659.14 371.56 598.37 353.28 580.25 347.86 619.57 344.54 711.61 335.9 837.43 329.77 961.92 312.74 1048.78 282.23 1066.02 251.72 1008.31 209.16 894.92 157.75 765.07 108.84 655.5 56.65 595.09 9.19 592.4 -25.4 644.06 -42.36 726.11 -32.44 811.97 -0.64 888.69 58.68 932.2 136.59 938.12 205.36 911.1 254.58 855.21 259.94 783.41 207.4 698.99 101.42 615.58 -36.86 540.44 -165.64 466.75 -246.39 404.71 -245.17 354.42 -163.61 305.86 -27.02 266.45 109.26 235.93 181.4 205.42 163.53 185.24 70.96 176.26 -60.97 169 -173.67 175.53 -227.59 196.33 -210.7 218.59 -127.39 251.75 -7.53 289.15 122.81 313.93 231.19 326.01 302.17 313.05 333.22 267.14 328.84 187.46 303.9 78.97 261.13 -38.65 220.81 -148.06 192.24 -222.1 165.76 -241.79 155.88 -198.77 161.6 -100.98 169.77 17.08 189.83 124.3 220.34 182.03 250.86 164.81 290.38 84.15 339.75 -28.56 391.57 -142.61 456.97 -217.29 536.33 -234.26 617.78 -193.79 708.35 -105.66 798.15 5.9 870.11 123.01 918.3 222.46 927.25 293.35 896.25 334.16 824.06 346.36 725.48 339.79 637.39 315.91 581.45 289.65 586.93 269.42 663.21 247.27 793.28 237.41 937 241.32 1041.34 246.12 1065.4 263.78 993.26 294.29Q993.26 294.29 993.26 294.29"
      opacity="0.46"></path>
    <path
      d="M959.26 438.28C834.49 466.45 700.15 506.16 601.88 555.54 567.75 604.11 601.74 660.23 683.7 719.43 791.01 772.31 884.2 820.15 939.39 854.68 950.64 871.3 913.4 864.51 841.68 830.16 745.62 778.14 644.48 707.81 551.92 632.03 467.03 574.5 400.48 544.08 350.69 555.94 311.33 615.37 281.8 714.39 256.5 833.89 234.34 944.66 210.4 1018.79 182.23 1032.02 154.06 981.11 123.01 880.53 92.04 760.8 53.37 613.87 44.13 599.82 95.68 701.28 144.83 780.59 205.54 842.94 264.68 879.17 299.49 891.63 303.33 875.62 262.75 838.52 178.23 784.81 59.79 722.62 -68.17 660.15 -170.77 593.69 -220.79 533.72 -197.53 483.49 -110.13 433.24 18.5 393.37 143.26 365.2 213.06 337.03 206.6 321.89 133.05 319.02 16.47 316.14 -96.99 324.86 -171.71 342.5 -192.61 356.17 -151.75 371.97 -65.53 382.28 48.48 375.97 163.69 351.56 260.79 302.19 334.17 229.05 376.27 133.3 392.9 24.67 379.17 -118.74 325.87 -166.66 319.18 -38.63 318.98 70.22 332.54 165.1 360.71 216.03 388.87 202.82 430.31 134.41 483.64 34.51 536.95 -74.12 601.19 -157.12 672.2 -195.92 737.52 -187.14 800.07 -131.46 849.13 -44.6 875.92 60.49 874.26 164.22 837.79 253.16 777.6 324.43 695.79 371.66 611.1 398.45 554.21 407.33 538.61 405.88 580.15 401.8 675.52 391.42 805.02 386.54 932.48 391.08 1016.89 394.83 1029.06 410.11 959.26 438.28Q959.26 438.28 959.26 438.28"
      opacity="0.09"></path>
    <path
      d="M925.26 566.47C811.96 592.29 687.18 625.05 587.28 662.54 536.4 698.32 543.12 735.3 597.3 768.81 685.65 794.94 778.05 810.61 851.96 810.35 899.74 796.71 907.96 763.65 880.81 712.13 824.72 655.6 750.12 593.83 669.78 539.15 584.3 509.2 506.68 508.75 440.95 545.79 379.63 619.07 330.01 719.6 290.36 829.77 252.88 926.3 221.7 988.38 195.88 998.02 170.06 953.56 150.83 865.54 139.61 757.22 130.57 650.86 133.22 568.07 149.79 521.27 170.78 515.19 205.88 544.06 251.57 595.48 292.11 663.48 329.64 728.61 351.89 780.19 345.2 819.62 306.38 836.63 231.7 833.28 130.91 815.04 15.35 783.15 -91.91 744.16 -165.02 698.62 -186.43 653.09 -145.51 612.04 -55.57 569.72 63.96 534.63 177.26 508.81 244.14 482.99 247.52 467.66 192.22 461.28 93.51 453.64 -13.76 452.19 -99.75 453 -149.75 447.25 -148.65 436.62 -102.13 415.07 -20.24 378.63 79.62 324.56 179.56 251.29 273.61 165.88 348.2 70.13 401.45 -24.75 446.47 -129.07 468.32 -106.04 476.02 24.38 481.2 122.75 495.71 205.54 521.52 250.02 547.34 240.39 583.26 183.56 626.77 97 668.51 -3.2 713.99 -89.04 757.46 -143.41 792 -161.54 815.27 -137.93 819.67 -81.1 806.21 0.45 768.69 92.83 708.48 183.21 642.38 268.57 573.12 338.7 518.12 392.13 498.48 432.19 520.54 459.04 589.47 477.65 694.37 488.89 816.35 498.87 925.02 511.79 990.29 523 992.14 540.65 925.26 566.47Q925.26 566.47 925.26 566.47"
      opacity="0.52"></path>
    <path
      d="M891.23 626C789.29 649.47 675.04 673.12 576.63 695.34 513.75 715.84 496.94 731.67 523.03 739.58 585.71 741.84 664.39 732.08 740.67 708.29 807.98 678.01 849.37 635.26 862.18 584.09 850.41 537.81 815.28 496.12 765.53 468.88 703.47 467.15 638.74 492.8 577.85 548.47 515.37 629.02 461.14 726.1 417.02 824.57 373.41 906.71 339.48 957.54 316.01 964.03 292.54 925.66 280.63 849.82 279.98 753.8 279.83 654.08 291.36 568 313.16 507.4 333.38 477.89 359.45 479.25 385.34 504.82 398.92 551.61 400.35 605.56 381.34 656.9 337.78 706.8 268.56 743.03 176.81 763.75 76.09 774.93 -23.64 771.91 -103.52 758.27 -146.82 738.46 -143.37 713.26 -89.54 686.41 -0.19 657.92 109.29 631.02 211.23 607.55 274.64 584.08 286.22 565.14 247.89 549.37 168.46 531.95 73.02 514.46 -14.99 493.59 -83.44 466.55 -114.43 430.91 -106.4 383.56 -64.11 326.66 4.66 256.73 86.54 176.07 176.5 93.97 260.9 12.19 333.34 -59.03 397.11 -109.05 446.37 -131.46 483.52 -119.15 513.15 -75.75 536.3 -3.03 556.94 87.62 575.39 174.58 595.51 245.66 618.98 284.03 642.45 277.53 668.17 231.47 693.98 158.38 717.61 68.97 737.16 -14.74 748.22 -78.09 751.74 -116.55 741.14 -121.15 713.55 -94.98 677.3 -43.3 626.59 26.21 567.39 103.25 516.28 185.19 475.32 261.63 457.46 328.1 473.86 388.06 525.89 436.47 611.54 474.89 716.75 507.65 825.56 534.52 914.06 558.29 961.46 580.34 954.66 602.52 891.26 625.99Q891.23 626 891.23 626"
      opacity="0.40"></path>
    <path
      d="M857.63 592.18C767.04 613.31 664.09 628.8 569.9 638.09 481.89 646.35 526.39 614.55 618.96 572.22 687.85 540.82 744.92 504.32 783.98 467.76 807.98 441.67 811.2 425.76 797.49 426.65 770.89 449.6 734.71 494.88 694.82 561.64 649.96 643.15 607.17 732.54 570.03 817.65 532.03 885.66 501.62 926.13 480.5 929.92 459.37 897.25 448.53 833.08 446.69 749.91 444 659.45 448.35 574.94 456.61 506.67 459.89 459.89 461.28 437.62 455.32 437.46 436.47 458.31 402.92 491.67 351.24 530.03 284.48 574.47 202.37 613.84 111.48 644.3 24.9 671.48 -50.01 687.42 -99.66 692.71 -115.3 694.16 -91.72 687.35 -29.66 674.29 56.37 659.92 155.04 641.67 245.63 620.55 304.8 599.42 322.6 576.42 299.27 550.95 239.19 524.18 159.54 492.56 77.56 454.5 1.91 412.61 -50.08 361.88 -73.02 302.14 -68.78 239.13 -37.31 169.43 13.39 97.3 79.41 31.25 151.06 -27.15 220.83 -70 291.06 -91.84 352.94 -88.53 404.85 -57.24 453.26 -4.47 492.88 68 524.97 150.31 555.59 225.34 581.22 285.23 602.34 317.92 623.47 314.14 639.09 277.96 648.31 218.11 656.06 141.15 654.87 63.78 643.07 -2.24 627.77 -53.53 600.68 -79.86 563 -80.83 525.79 -59.72 484.47 -18.76 446.14 35.01 423.12 99.26 416.7 166.08 434.45 230.04 479.38 293.95 550.34 350.7 641.47 399.05 738.93 444.79 830.61 483.11 898.84 514.75 930.32 545.3 916.8 571.06 857.63 592.18Q857.63 592.18 857.63 592.18"
      opacity="0.36"></path>
    <path
      d="M823.22 479.22C743.59 498 652.48 508.5 565.16 511.03 468.54 510.27 445.69 470 504.05 435.99 559.57 416.05 614.36 396.86 661.66 382.83 704.03 380.48 732.5 389.91 746.96 414.63 752.65 455.59 746.83 512.52 732.86 582.79 713.82 659.65 691.13 738.1 667.93 808.93 643.42 863.4 620.99 894.5 602.21 896.03 583.44 868.65 569.19 815.51 558.3 745.32 546.08 666.08 534.61 587.34 521.11 517.41 502.53 460.42 477.44 420.82 442.8 398.89 399.4 394.39 343.97 403.53 276.99 421.51 205.08 449.02 128.03 477.92 52.96 504.07 -33.37 542.51 -51.8 580.26 32.22 578.07 112.28 573.33 199.59 561.55 279.22 542.77 333.99 524 356.75 499.11 346.74 468.43 305.53 437.15 244.17 399.11 174.45 354.49 101.63 308.81 40.44 256.69 -2.47 199.91 -28.02 144.82 -31.09 88.96 -14.9 36.85 17.11 -5.74 60.91 -37.14 110.38 -52.2 166.04 -49.82 220.52 -27.06 270.17 16.16 320.35 72.33 363.65 140.38 398.87 212.37 433.77 275.31 460.96 324.65 479.74 352.03 498.52 350.5 508 323.2 508.53 275.98 508.72 212.39 499.58 144.63 481.94 81.53 464.84 25.02 441.28 -15.06 414.56 -36.46 394.03 -41.63 377.18 -28.79 369.76 -1.83 378.17 36.8 403.51 82.95 448.6 131.83 511.06 184.8 589.09 235.67 675.68 281.74 759.15 328.03 831.21 368.23 879.68 401.38 896.95 434.26 878.01 460.43 823.25 479.21Q823.22 479.22 823.22 479.22"
      opacity="0.94"></path>
    <path
      d="M789.25 333.48C641.38 366.34 491.14 370.47 401.51 353.99 392.7 344.91 446.99 333.28 520.43 341.79 604.17 388.59 655.68 479.72 669.93 608.18 672.11 739.89 651.76 840.36 618.89 862.02 586.03 797.15 543.77 670.85 484.65 536.65 413.45 426.62 310.66 365.62 183.85 348.71 67.33 368.92 -21.8 399.58 -37.07 418.36 28.46 441.11 165.38 438.84 313.25 405.98 387.15 373.12 361.76 312.78 268.74 233.08 143.05 157.35 50.83 75.41 16.55 12.13 28.57 -14.02 82.15 12.11 146.65 98.06 222.1 208.16 282.94 321.15 315.8 386.02 348.66 364.36 350.44 277.21 331.93 169.59 324.38 65.21 322.08 8.93 353.13 5.2 430.48 39.77 557.56 102.68 707.34 168.71 824.44 242.14 863.15 300.62 789.25 333.48Q789.25 333.48 789.25 333.48"
      opacity="0.08"></path>
    <path
      d="M755.23 215.22C630.46 243.38 496.2 256.88 397.31 263.32 350.85 278.25 356.81 302.22 392.04 348.3 451.45 418.81 501.79 518.43 527.95 634.28 551.67 740.11 549.52 814.81 521.35 828.03 493.19 777.12 441.67 676.42 369.14 561.25 294.16 451.85 199.87 370.47 103.54 322.04 31.39 301.3 -4.43 298.08 21.38 296.63 99.61 302.36 222.46 294.86 347.23 266.69 417.05 238.53 414.63 192.37 355.86 137.82 257.54 90.45 165.41 49.72 105.48 33.54 69.42 45.05 70.85 96.55 94.79 185.3 130.05 279.82 167.57 369.1 195.73 420.03 223.91 406.81 240.05 343.54 253.6 258.36 278.47 163.15 320.99 93.4 393.96 59.8 490.8 50.64 612.8 70.62 731.77 104.51 811.2 146.88 825.06 187.04 755.26 215.21Q755.23 215.22 755.23 215.22"
      opacity="0.66"></path>
    <path
      d="M721.23 173.13C619.29 196.6 505.31 220.61 408.79 248.7 340.7 282.74 308.63 330.59 304.25 395.96 323.78 472.12 348.67 563.66 364.27 657.41 383.42 735.95 383.93 787.54 360.46 794.03 336.99 755.66 291.76 679.54 231.93 587.54 175.65 490.87 114.13 406.14 63.83 342.02 37.46 293.38 44.63 261.51 95.51 239.28 174.82 223.25 279.29 205.9 381.23 182.43 444.64 158.96 459.04 131.59 431.11 106.94 367.06 88.49 294.65 83.73 234.52 101.6 179.4 134.96 149.73 194.78 143.7 274.24 144.29 349.04 158.84 415.64 182.31 454.03 205.78 447.54 235.95 405.47 276.03 344.14 322.73 267.59 389.03 200.94 474.91 155.54 565.8 120.94 663.12 109.72 744.37 116.36 789.52 128.94 784.66 149.65 721.26 173.12Q721.23 173.13 721.23 173.13"
      opacity="0.74"></path>
    <path
      d="M687.41 224.57C607.83 243.34 517.02 272.24 432.62 310.61 359.7 351.46 306.9 405.22 274.17 469.64 257.23 535.54 250.64 607.1 245.96 673.99 245.89 726.44 238.82 758.45 220.04 759.98 201.26 732.62 172.55 679.06 140.08 611.77 112.22 536.09 89.5 462.5 81.83 399.36 89.96 341.61 122.84 295.88 182 261.78 252.63 231.01 335.83 206.64 415.41 187.86 482.35 163.38 438.92 165.68 375.41 207.03 328.22 245.56 293.9 299.23 277.2 361.15 262.06 414.67 263.51 460.62 282.29 487.98 301.06 486.45 335.39 462.05 383.08 423.36 432.32 370.24 495.95 318.6 567.74 277.31 634.44 237.49 697.2 213.05 741.47 204.73 758.97 198.91 742.1 205.79 687.41 224.57Q687.41 224.57 687.41 224.57"
      opacity="0.37"></path>
    <path
      d="M653.23 348.45C528.46 376.62 394.4 451.5 303.27 548.99 238.96 636.89 201.93 712.81 173.77 726.03 145.6 675.12 131.63 574.15 159.02 477.12 213.23 379.48 324.46 309.04 449.23 280.88 519.05 252.71 524.52 272.15 497.58 332.87 443.68 392.98 415.83 471.12 444 522.03 472.16 508.81 551.01 455.73 641.83 404.74 705.69 344.17 723.05 320.28 653.23 348.45Q653.23 348.45 653.23 348.45"
      opacity="0.26"></path>
    <path
      d="M619.26 493.54C448.23 531.1 282.99 660.26 245.44 692.02 207.88 611.92 312.23 460.53 483.26 422.97 558.92 385.42 544.94 475.92 582.5 556.02 620.05 524.26 694.92 455.99 619.26 493.54Q619.26 493.54 619.26 493.54"
      opacity="0.94"></path>
  </g>
</svg>