<svg xmlns="http://www.w3.org/2000/svg" version="1.1" xmlns:xlink="http://www.w3.org/1999/xlink"
  xmlns:svgjs="http://svgjs.dev/svgjs" viewBox="0 0 800 800">
  <defs>
    <linearGradient gradientTransform="rotate(270)" x1="50%" y1="0%" x2="50%" y2="100%"
      id="sssquiggly-grad">
      <stop stop-color="hsl(206, 75%, 49%)" stop-opacity="1" offset="0%"></stop>
      <stop stop-color="hsl(331, 90%, 56%)" stop-opacity="1" offset="100%"></stop>
    </linearGradient>
  </defs>
  <g stroke-width="2" stroke="url(#sssquiggly-grad)" fill="none" stroke-linecap="round"
    transform="matrix(1,0,0,1,-5,0.7457962036132812)">
    <path
      d="M10,10C24.583333333333332,10.833333333333334,48.75,20.458333333333336,80,14C111.25,7.541666666666666,126.66666666666666,-27.041666666666664,160,-21C193.33333333333334,-14.958333333333334,206.66666666666666,39.25,240,43C273.3333333333333,46.75,286.6666666666667,-0.08333333333333304,320,-3C353.3333333333333,-5.916666666666667,366.6666666666667,32.125,400,29C433.3333333333333,25.875,446.6666666666667,-19.666666666666668,480,-18C513.3333333333334,-16.333333333333332,526.6666666666666,33.875,560,37C593.3333333333334,40.125,606.6666666666666,-2.166666666666667,640,-3C673.3333333333334,-3.833333333333333,686.6666666666666,30.916666666666668,720,33C753.3333333333334,35.083333333333336,783.3333333333334,12.416666666666666,800,7"></path>
    <path
      d="M10,10C24.583333333333332,10.833333333333334,48.75,20.458333333333336,80,14C111.25,7.541666666666666,126.66666666666666,-27.041666666666664,160,-21C193.33333333333334,-14.958333333333334,206.66666666666666,39.25,240,43C273.3333333333333,46.75,286.6666666666667,-0.08333333333333304,320,-3C353.3333333333333,-5.916666666666667,366.6666666666667,32.125,400,29C433.3333333333333,25.875,446.6666666666667,-19.666666666666668,480,-18C513.3333333333334,-16.333333333333332,526.6666666666666,33.875,560,37C593.3333333333334,40.125,606.6666666666666,-2.166666666666667,640,-3C673.3333333333334,-3.833333333333333,686.6666666666666,30.916666666666668,720,33C753.3333333333334,35.083333333333336,783.3333333333334,12.416666666666666,800,7"
      transform="matrix(1,0,0,1,0,777)"></path>
    <path
      d="M10,10C24.583333333333332,10.833333333333334,48.75,20.458333333333336,80,14C111.25,7.541666666666666,126.66666666666666,-27.041666666666664,160,-21C193.33333333333334,-14.958333333333334,206.66666666666666,39.25,240,43C273.3333333333333,46.75,286.6666666666667,-0.08333333333333304,320,-3C353.3333333333333,-5.916666666666667,366.6666666666667,32.125,400,29C433.3333333333333,25.875,446.6666666666667,-19.666666666666668,480,-18C513.3333333333334,-16.333333333333332,526.6666666666666,33.875,560,37C593.3333333333334,40.125,606.6666666666666,-2.166666666666667,640,-3C673.3333333333334,-3.833333333333333,686.6666666666666,30.916666666666668,720,33C753.3333333333334,35.083333333333336,783.3333333333334,12.416666666666666,800,7"
      transform="matrix(1,0,0,1,0,740)"></path>
    <path
      d="M10,10C24.583333333333332,10.833333333333334,48.75,20.458333333333336,80,14C111.25,7.541666666666666,126.66666666666666,-27.041666666666664,160,-21C193.33333333333334,-14.958333333333334,206.66666666666666,39.25,240,43C273.3333333333333,46.75,286.6666666666667,-0.08333333333333304,320,-3C353.3333333333333,-5.916666666666667,366.6666666666667,32.125,400,29C433.3333333333333,25.875,446.6666666666667,-19.666666666666668,480,-18C513.3333333333334,-16.333333333333332,526.6666666666666,33.875,560,37C593.3333333333334,40.125,606.6666666666666,-2.166666666666667,640,-3C673.3333333333334,-3.833333333333333,686.6666666666666,30.916666666666668,720,33C753.3333333333334,35.083333333333336,783.3333333333334,12.416666666666666,800,7"
      transform="matrix(1,0,0,1,0,703)"></path>
    <path
      d="M10,10C24.583333333333332,10.833333333333334,48.75,20.458333333333336,80,14C111.25,7.541666666666666,126.66666666666666,-27.041666666666664,160,-21C193.33333333333334,-14.958333333333334,206.66666666666666,39.25,240,43C273.3333333333333,46.75,286.6666666666667,-0.08333333333333304,320,-3C353.3333333333333,-5.916666666666667,366.6666666666667,32.125,400,29C433.3333333333333,25.875,446.6666666666667,-19.666666666666668,480,-18C513.3333333333334,-16.333333333333332,526.6666666666666,33.875,560,37C593.3333333333334,40.125,606.6666666666666,-2.166666666666667,640,-3C673.3333333333334,-3.833333333333333,686.6666666666666,30.916666666666668,720,33C753.3333333333334,35.083333333333336,783.3333333333334,12.416666666666666,800,7"
      transform="matrix(1,0,0,1,0,666)"></path>
    <path
      d="M10,10C24.583333333333332,10.833333333333334,48.75,20.458333333333336,80,14C111.25,7.541666666666666,126.66666666666666,-27.041666666666664,160,-21C193.33333333333334,-14.958333333333334,206.66666666666666,39.25,240,43C273.3333333333333,46.75,286.6666666666667,-0.08333333333333304,320,-3C353.3333333333333,-5.916666666666667,366.6666666666667,32.125,400,29C433.3333333333333,25.875,446.6666666666667,-19.666666666666668,480,-18C513.3333333333334,-16.333333333333332,526.6666666666666,33.875,560,37C593.3333333333334,40.125,606.6666666666666,-2.166666666666667,640,-3C673.3333333333334,-3.833333333333333,686.6666666666666,30.916666666666668,720,33C753.3333333333334,35.083333333333336,783.3333333333334,12.416666666666666,800,7"
      transform="matrix(1,0,0,1,0,629)"></path>
    <path
      d="M10,10C24.583333333333332,10.833333333333334,48.75,20.458333333333336,80,14C111.25,7.541666666666666,126.66666666666666,-27.041666666666664,160,-21C193.33333333333334,-14.958333333333334,206.66666666666666,39.25,240,43C273.3333333333333,46.75,286.6666666666667,-0.08333333333333304,320,-3C353.3333333333333,-5.916666666666667,366.6666666666667,32.125,400,29C433.3333333333333,25.875,446.6666666666667,-19.666666666666668,480,-18C513.3333333333334,-16.333333333333332,526.6666666666666,33.875,560,37C593.3333333333334,40.125,606.6666666666666,-2.166666666666667,640,-3C673.3333333333334,-3.833333333333333,686.6666666666666,30.916666666666668,720,33C753.3333333333334,35.083333333333336,783.3333333333334,12.416666666666666,800,7"
      transform="matrix(1,0,0,1,0,592)"></path>
    <path
      d="M10,10C24.583333333333332,10.833333333333334,48.75,20.458333333333336,80,14C111.25,7.541666666666666,126.66666666666666,-27.041666666666664,160,-21C193.33333333333334,-14.958333333333334,206.66666666666666,39.25,240,43C273.3333333333333,46.75,286.6666666666667,-0.08333333333333304,320,-3C353.3333333333333,-5.916666666666667,366.6666666666667,32.125,400,29C433.3333333333333,25.875,446.6666666666667,-19.666666666666668,480,-18C513.3333333333334,-16.333333333333332,526.6666666666666,33.875,560,37C593.3333333333334,40.125,606.6666666666666,-2.166666666666667,640,-3C673.3333333333334,-3.833333333333333,686.6666666666666,30.916666666666668,720,33C753.3333333333334,35.083333333333336,783.3333333333334,12.416666666666666,800,7"
      transform="matrix(1,0,0,1,0,555)"></path>
    <path
      d="M10,10C24.583333333333332,10.833333333333334,48.75,20.458333333333336,80,14C111.25,7.541666666666666,126.66666666666666,-27.041666666666664,160,-21C193.33333333333334,-14.958333333333334,206.66666666666666,39.25,240,43C273.3333333333333,46.75,286.6666666666667,-0.08333333333333304,320,-3C353.3333333333333,-5.916666666666667,366.6666666666667,32.125,400,29C433.3333333333333,25.875,446.6666666666667,-19.666666666666668,480,-18C513.3333333333334,-16.333333333333332,526.6666666666666,33.875,560,37C593.3333333333334,40.125,606.6666666666666,-2.166666666666667,640,-3C673.3333333333334,-3.833333333333333,686.6666666666666,30.916666666666668,720,33C753.3333333333334,35.083333333333336,783.3333333333334,12.416666666666666,800,7"
      transform="matrix(1,0,0,1,0,518)"></path>
    <path
      d="M10,10C24.583333333333332,10.833333333333334,48.75,20.458333333333336,80,14C111.25,7.541666666666666,126.66666666666666,-27.041666666666664,160,-21C193.33333333333334,-14.958333333333334,206.66666666666666,39.25,240,43C273.3333333333333,46.75,286.6666666666667,-0.08333333333333304,320,-3C353.3333333333333,-5.916666666666667,366.6666666666667,32.125,400,29C433.3333333333333,25.875,446.6666666666667,-19.666666666666668,480,-18C513.3333333333334,-16.333333333333332,526.6666666666666,33.875,560,37C593.3333333333334,40.125,606.6666666666666,-2.166666666666667,640,-3C673.3333333333334,-3.833333333333333,686.6666666666666,30.916666666666668,720,33C753.3333333333334,35.083333333333336,783.3333333333334,12.416666666666666,800,7"
      transform="matrix(1,0,0,1,0,481)"></path>
    <path
      d="M10,10C24.583333333333332,10.833333333333334,48.75,20.458333333333336,80,14C111.25,7.541666666666666,126.66666666666666,-27.041666666666664,160,-21C193.33333333333334,-14.958333333333334,206.66666666666666,39.25,240,43C273.3333333333333,46.75,286.6666666666667,-0.08333333333333304,320,-3C353.3333333333333,-5.916666666666667,366.6666666666667,32.125,400,29C433.3333333333333,25.875,446.6666666666667,-19.666666666666668,480,-18C513.3333333333334,-16.333333333333332,526.6666666666666,33.875,560,37C593.3333333333334,40.125,606.6666666666666,-2.166666666666667,640,-3C673.3333333333334,-3.833333333333333,686.6666666666666,30.916666666666668,720,33C753.3333333333334,35.083333333333336,783.3333333333334,12.416666666666666,800,7"
      transform="matrix(1,0,0,1,0,444)"></path>
    <path
      d="M10,10C24.583333333333332,10.833333333333334,48.75,20.458333333333336,80,14C111.25,7.541666666666666,126.66666666666666,-27.041666666666664,160,-21C193.33333333333334,-14.958333333333334,206.66666666666666,39.25,240,43C273.3333333333333,46.75,286.6666666666667,-0.08333333333333304,320,-3C353.3333333333333,-5.916666666666667,366.6666666666667,32.125,400,29C433.3333333333333,25.875,446.6666666666667,-19.666666666666668,480,-18C513.3333333333334,-16.333333333333332,526.6666666666666,33.875,560,37C593.3333333333334,40.125,606.6666666666666,-2.166666666666667,640,-3C673.3333333333334,-3.833333333333333,686.6666666666666,30.916666666666668,720,33C753.3333333333334,35.083333333333336,783.3333333333334,12.416666666666666,800,7"
      transform="matrix(1,0,0,1,0,407)"></path>
    <path
      d="M10,10C24.583333333333332,10.833333333333334,48.75,20.458333333333336,80,14C111.25,7.541666666666666,126.66666666666666,-27.041666666666664,160,-21C193.33333333333334,-14.958333333333334,206.66666666666666,39.25,240,43C273.3333333333333,46.75,286.6666666666667,-0.08333333333333304,320,-3C353.3333333333333,-5.916666666666667,366.6666666666667,32.125,400,29C433.3333333333333,25.875,446.6666666666667,-19.666666666666668,480,-18C513.3333333333334,-16.333333333333332,526.6666666666666,33.875,560,37C593.3333333333334,40.125,606.6666666666666,-2.166666666666667,640,-3C673.3333333333334,-3.833333333333333,686.6666666666666,30.916666666666668,720,33C753.3333333333334,35.083333333333336,783.3333333333334,12.416666666666666,800,7"
      transform="matrix(1,0,0,1,0,370)"></path>
    <path
      d="M10,10C24.583333333333332,10.833333333333334,48.75,20.458333333333336,80,14C111.25,7.541666666666666,126.66666666666666,-27.041666666666664,160,-21C193.33333333333334,-14.958333333333334,206.66666666666666,39.25,240,43C273.3333333333333,46.75,286.6666666666667,-0.08333333333333304,320,-3C353.3333333333333,-5.916666666666667,366.6666666666667,32.125,400,29C433.3333333333333,25.875,446.6666666666667,-19.666666666666668,480,-18C513.3333333333334,-16.333333333333332,526.6666666666666,33.875,560,37C593.3333333333334,40.125,606.6666666666666,-2.166666666666667,640,-3C673.3333333333334,-3.833333333333333,686.6666666666666,30.916666666666668,720,33C753.3333333333334,35.083333333333336,783.3333333333334,12.416666666666666,800,7"
      transform="matrix(1,0,0,1,0,333)"></path>
    <path
      d="M10,10C24.583333333333332,10.833333333333334,48.75,20.458333333333336,80,14C111.25,7.541666666666666,126.66666666666666,-27.041666666666664,160,-21C193.33333333333334,-14.958333333333334,206.66666666666666,39.25,240,43C273.3333333333333,46.75,286.6666666666667,-0.08333333333333304,320,-3C353.3333333333333,-5.916666666666667,366.6666666666667,32.125,400,29C433.3333333333333,25.875,446.6666666666667,-19.666666666666668,480,-18C513.3333333333334,-16.333333333333332,526.6666666666666,33.875,560,37C593.3333333333334,40.125,606.6666666666666,-2.166666666666667,640,-3C673.3333333333334,-3.833333333333333,686.6666666666666,30.916666666666668,720,33C753.3333333333334,35.083333333333336,783.3333333333334,12.416666666666666,800,7"
      transform="matrix(1,0,0,1,0,296)"></path>
    <path
      d="M10,10C24.583333333333332,10.833333333333334,48.75,20.458333333333336,80,14C111.25,7.541666666666666,126.66666666666666,-27.041666666666664,160,-21C193.33333333333334,-14.958333333333334,206.66666666666666,39.25,240,43C273.3333333333333,46.75,286.6666666666667,-0.08333333333333304,320,-3C353.3333333333333,-5.916666666666667,366.6666666666667,32.125,400,29C433.3333333333333,25.875,446.6666666666667,-19.666666666666668,480,-18C513.3333333333334,-16.333333333333332,526.6666666666666,33.875,560,37C593.3333333333334,40.125,606.6666666666666,-2.166666666666667,640,-3C673.3333333333334,-3.833333333333333,686.6666666666666,30.916666666666668,720,33C753.3333333333334,35.083333333333336,783.3333333333334,12.416666666666666,800,7"
      transform="matrix(1,0,0,1,0,259)"></path>
    <path
      d="M10,10C24.583333333333332,10.833333333333334,48.75,20.458333333333336,80,14C111.25,7.541666666666666,126.66666666666666,-27.041666666666664,160,-21C193.33333333333334,-14.958333333333334,206.66666666666666,39.25,240,43C273.3333333333333,46.75,286.6666666666667,-0.08333333333333304,320,-3C353.3333333333333,-5.916666666666667,366.6666666666667,32.125,400,29C433.3333333333333,25.875,446.6666666666667,-19.666666666666668,480,-18C513.3333333333334,-16.333333333333332,526.6666666666666,33.875,560,37C593.3333333333334,40.125,606.6666666666666,-2.166666666666667,640,-3C673.3333333333334,-3.833333333333333,686.6666666666666,30.916666666666668,720,33C753.3333333333334,35.083333333333336,783.3333333333334,12.416666666666666,800,7"
      transform="matrix(1,0,0,1,0,222)"></path>
    <path
      d="M10,10C24.583333333333332,10.833333333333334,48.75,20.458333333333336,80,14C111.25,7.541666666666666,126.66666666666666,-27.041666666666664,160,-21C193.33333333333334,-14.958333333333334,206.66666666666666,39.25,240,43C273.3333333333333,46.75,286.6666666666667,-0.08333333333333304,320,-3C353.3333333333333,-5.916666666666667,366.6666666666667,32.125,400,29C433.3333333333333,25.875,446.6666666666667,-19.666666666666668,480,-18C513.3333333333334,-16.333333333333332,526.6666666666666,33.875,560,37C593.3333333333334,40.125,606.6666666666666,-2.166666666666667,640,-3C673.3333333333334,-3.833333333333333,686.6666666666666,30.916666666666668,720,33C753.3333333333334,35.083333333333336,783.3333333333334,12.416666666666666,800,7"
      transform="matrix(1,0,0,1,0,185)"></path>
    <path
      d="M10,10C24.583333333333332,10.833333333333334,48.75,20.458333333333336,80,14C111.25,7.541666666666666,126.66666666666666,-27.041666666666664,160,-21C193.33333333333334,-14.958333333333334,206.66666666666666,39.25,240,43C273.3333333333333,46.75,286.6666666666667,-0.08333333333333304,320,-3C353.3333333333333,-5.916666666666667,366.6666666666667,32.125,400,29C433.3333333333333,25.875,446.6666666666667,-19.666666666666668,480,-18C513.3333333333334,-16.333333333333332,526.6666666666666,33.875,560,37C593.3333333333334,40.125,606.6666666666666,-2.166666666666667,640,-3C673.3333333333334,-3.833333333333333,686.6666666666666,30.916666666666668,720,33C753.3333333333334,35.083333333333336,783.3333333333334,12.416666666666666,800,7"
      transform="matrix(1,0,0,1,0,148)"></path>
    <path
      d="M10,10C24.583333333333332,10.833333333333334,48.75,20.458333333333336,80,14C111.25,7.541666666666666,126.66666666666666,-27.041666666666664,160,-21C193.33333333333334,-14.958333333333334,206.66666666666666,39.25,240,43C273.3333333333333,46.75,286.6666666666667,-0.08333333333333304,320,-3C353.3333333333333,-5.916666666666667,366.6666666666667,32.125,400,29C433.3333333333333,25.875,446.6666666666667,-19.666666666666668,480,-18C513.3333333333334,-16.333333333333332,526.6666666666666,33.875,560,37C593.3333333333334,40.125,606.6666666666666,-2.166666666666667,640,-3C673.3333333333334,-3.833333333333333,686.6666666666666,30.916666666666668,720,33C753.3333333333334,35.083333333333336,783.3333333333334,12.416666666666666,800,7"
      transform="matrix(1,0,0,1,0,111)"></path>
    <path
      d="M10,10C24.583333333333332,10.833333333333334,48.75,20.458333333333336,80,14C111.25,7.541666666666666,126.66666666666666,-27.041666666666664,160,-21C193.33333333333334,-14.958333333333334,206.66666666666666,39.25,240,43C273.3333333333333,46.75,286.6666666666667,-0.08333333333333304,320,-3C353.3333333333333,-5.916666666666667,366.6666666666667,32.125,400,29C433.3333333333333,25.875,446.6666666666667,-19.666666666666668,480,-18C513.3333333333334,-16.333333333333332,526.6666666666666,33.875,560,37C593.3333333333334,40.125,606.6666666666666,-2.166666666666667,640,-3C673.3333333333334,-3.833333333333333,686.6666666666666,30.916666666666668,720,33C753.3333333333334,35.083333333333336,783.3333333333334,12.416666666666666,800,7"
      transform="matrix(1,0,0,1,0,74)"></path>
    <path
      d="M10,10C24.583333333333332,10.833333333333334,48.75,20.458333333333336,80,14C111.25,7.541666666666666,126.66666666666666,-27.041666666666664,160,-21C193.33333333333334,-14.958333333333334,206.66666666666666,39.25,240,43C273.3333333333333,46.75,286.6666666666667,-0.08333333333333304,320,-3C353.3333333333333,-5.916666666666667,366.6666666666667,32.125,400,29C433.3333333333333,25.875,446.6666666666667,-19.666666666666668,480,-18C513.3333333333334,-16.333333333333332,526.6666666666666,33.875,560,37C593.3333333333334,40.125,606.6666666666666,-2.166666666666667,640,-3C673.3333333333334,-3.833333333333333,686.6666666666666,30.916666666666668,720,33C753.3333333333334,35.083333333333336,783.3333333333334,12.416666666666666,800,7"
      transform="matrix(1,0,0,1,0,37)"></path>
  </g>
</svg>