<svg xmlns="http://www.w3.org/2000/svg" version="1.1" xmlns:xlink="http://www.w3.org/1999/xlink"
  xmlns:svgjs="http://svgjs.dev/svgjs" viewBox="0 0 800 800">
  <defs>
    <linearGradient x1="50%" y1="0%" x2="50%" y2="100%" id="rrreflection-grad">
      <stop stop-color="hsl(185, 53%, 55%)" stop-opacity="1" offset="45%"></stop>
      <stop stop-color="hsl(0, 73%, 55%)" stop-opacity="1" offset="100%"></stop>
    </linearGradient>
    <linearGradient x1="50%" y1="0%" x2="50%" y2="100%" id="rrreflection-grad-2">
      <stop stop-color="hsl(0, 73%, 55%)" stop-opacity="1" offset="0%"></stop>
      <stop stop-color="hsl(185, 53%, 55%)" stop-opacity="1" offset="45%"></stop>
    </linearGradient>
    <linearGradient gradientTransform="rotate(270)" x1="50%" y1="0%" x2="50%" y2="100%"
      id="rrreflection-grad-3">
      <stop stop-color="hsl(185, 53%, 55%)" stop-opacity="1" offset="45%"></stop>
      <stop stop-color="hsl(0, 73%, 55%)" stop-opacity="1" offset="100%"></stop>
    </linearGradient>
    <linearGradient gradientTransform="rotate(270)" x1="50%" y1="0%" x2="50%" y2="100%"
      id="rrreflection-grad-4">
      <stop stop-color="hsl(0, 73%, 55%)" stop-opacity="1" offset="0%"></stop>
      <stop stop-color="hsl(185, 53%, 55%)" stop-opacity="1" offset="45%"></stop>
    </linearGradient>
  </defs>
  <g stroke-width="1" stroke="url(#rrreflection-grad)" fill="none">
    <circle r="392" cx="50%" cy="0"></circle>
    <circle r="378" cx="50%" cy="0"></circle>
    <circle r="364" cx="50%" cy="0"></circle>
    <circle r="350" cx="50%" cy="0"></circle>
    <circle r="336" cx="50%" cy="0"></circle>
    <circle r="322" cx="50%" cy="0"></circle>
    <circle r="308" cx="50%" cy="0"></circle>
    <circle r="294" cx="50%" cy="0"></circle>
    <circle r="280" cx="50%" cy="0"></circle>
    <circle r="266" cx="50%" cy="0"></circle>
    <circle r="252" cx="50%" cy="0"></circle>
    <circle r="238" cx="50%" cy="0"></circle>
    <circle r="224" cx="50%" cy="0"></circle>
    <circle r="210" cx="50%" cy="0"></circle>
    <circle r="196" cx="50%" cy="0"></circle>
    <circle r="182" cx="50%" cy="0"></circle>
    <circle r="168" cx="50%" cy="0"></circle>
    <circle r="154" cx="50%" cy="0"></circle>
    <circle r="140" cx="50%" cy="0"></circle>
    <circle r="126" cx="50%" cy="0"></circle>
    <circle r="112" cx="50%" cy="0"></circle>
    <circle r="98" cx="50%" cy="0"></circle>
    <circle r="84" cx="50%" cy="0"></circle>
    <circle r="70" cx="50%" cy="0"></circle>
    <circle r="56" cx="50%" cy="0"></circle>
    <circle r="42" cx="50%" cy="0"></circle>
    <circle r="28" cx="50%" cy="0"></circle>
    <circle r="14" cx="50%" cy="0"></circle>
  </g>
  <g stroke-width="1" stroke="url(#rrreflection-grad-2)" fill="none">
    <circle r="392" cx="50%" cy="100%"></circle>
    <circle r="378" cx="50%" cy="100%"></circle>
    <circle r="364" cx="50%" cy="100%"></circle>
    <circle r="350" cx="50%" cy="100%"></circle>
    <circle r="336" cx="50%" cy="100%"></circle>
    <circle r="322" cx="50%" cy="100%"></circle>
    <circle r="308" cx="50%" cy="100%"></circle>
    <circle r="294" cx="50%" cy="100%"></circle>
    <circle r="280" cx="50%" cy="100%"></circle>
    <circle r="266" cx="50%" cy="100%"></circle>
    <circle r="252" cx="50%" cy="100%"></circle>
    <circle r="238" cx="50%" cy="100%"></circle>
    <circle r="224" cx="50%" cy="100%"></circle>
    <circle r="210" cx="50%" cy="100%"></circle>
    <circle r="196" cx="50%" cy="100%"></circle>
    <circle r="182" cx="50%" cy="100%"></circle>
    <circle r="168" cx="50%" cy="100%"></circle>
    <circle r="154" cx="50%" cy="100%"></circle>
    <circle r="140" cx="50%" cy="100%"></circle>
    <circle r="126" cx="50%" cy="100%"></circle>
    <circle r="112" cx="50%" cy="100%"></circle>
    <circle r="98" cx="50%" cy="100%"></circle>
    <circle r="84" cx="50%" cy="100%"></circle>
    <circle r="70" cx="50%" cy="100%"></circle>
    <circle r="56" cx="50%" cy="100%"></circle>
    <circle r="42" cx="50%" cy="100%"></circle>
    <circle r="28" cx="50%" cy="100%"></circle>
    <circle r="14" cx="50%" cy="100%"></circle>
  </g>
  <g stroke-width="1" stroke="url(#rrreflection-grad-3)" fill="none">
    <circle r="392" cx="0" cy="50%"></circle>
    <circle r="378" cx="0" cy="50%"></circle>
    <circle r="364" cx="0" cy="50%"></circle>
    <circle r="350" cx="0" cy="50%"></circle>
    <circle r="336" cx="0" cy="50%"></circle>
    <circle r="322" cx="0" cy="50%"></circle>
    <circle r="308" cx="0" cy="50%"></circle>
    <circle r="294" cx="0" cy="50%"></circle>
    <circle r="280" cx="0" cy="50%"></circle>
    <circle r="266" cx="0" cy="50%"></circle>
    <circle r="252" cx="0" cy="50%"></circle>
    <circle r="238" cx="0" cy="50%"></circle>
    <circle r="224" cx="0" cy="50%"></circle>
    <circle r="210" cx="0" cy="50%"></circle>
    <circle r="196" cx="0" cy="50%"></circle>
    <circle r="182" cx="0" cy="50%"></circle>
    <circle r="168" cx="0" cy="50%"></circle>
    <circle r="154" cx="0" cy="50%"></circle>
    <circle r="140" cx="0" cy="50%"></circle>
    <circle r="126" cx="0" cy="50%"></circle>
    <circle r="112" cx="0" cy="50%"></circle>
    <circle r="98" cx="0" cy="50%"></circle>
    <circle r="84" cx="0" cy="50%"></circle>
    <circle r="70" cx="0" cy="50%"></circle>
    <circle r="56" cx="0" cy="50%"></circle>
    <circle r="42" cx="0" cy="50%"></circle>
    <circle r="28" cx="0" cy="50%"></circle>
    <circle r="14" cx="0" cy="50%"></circle>
  </g>
  <g stroke-width="1" stroke="url(#rrreflection-grad-4)" fill="none">
    <circle r="392" cx="100%" cy="50%"></circle>
    <circle r="378" cx="100%" cy="50%"></circle>
    <circle r="364" cx="100%" cy="50%"></circle>
    <circle r="350" cx="100%" cy="50%"></circle>
    <circle r="336" cx="100%" cy="50%"></circle>
    <circle r="322" cx="100%" cy="50%"></circle>
    <circle r="308" cx="100%" cy="50%"></circle>
    <circle r="294" cx="100%" cy="50%"></circle>
    <circle r="280" cx="100%" cy="50%"></circle>
    <circle r="266" cx="100%" cy="50%"></circle>
    <circle r="252" cx="100%" cy="50%"></circle>
    <circle r="238" cx="100%" cy="50%"></circle>
    <circle r="224" cx="100%" cy="50%"></circle>
    <circle r="210" cx="100%" cy="50%"></circle>
    <circle r="196" cx="100%" cy="50%"></circle>
    <circle r="182" cx="100%" cy="50%"></circle>
    <circle r="168" cx="100%" cy="50%"></circle>
    <circle r="154" cx="100%" cy="50%"></circle>
    <circle r="140" cx="100%" cy="50%"></circle>
    <circle r="126" cx="100%" cy="50%"></circle>
    <circle r="112" cx="100%" cy="50%"></circle>
    <circle r="98" cx="100%" cy="50%"></circle>
    <circle r="84" cx="100%" cy="50%"></circle>
    <circle r="70" cx="100%" cy="50%"></circle>
    <circle r="56" cx="100%" cy="50%"></circle>
    <circle r="42" cx="100%" cy="50%"></circle>
    <circle r="28" cx="100%" cy="50%"></circle>
    <circle r="14" cx="100%" cy="50%"></circle>
  </g>
</svg>