<svg xmlns="http://www.w3.org/2000/svg" version="1.1" xmlns:xlink="http://www.w3.org/1999/xlink"
  xmlns:svgjs="http://svgjs.dev/svgjs" viewBox="0 0 800 800">
  <defs>
    <linearGradient x1="50%" y1="0%" x2="50%" y2="100%" id="ccchaos-grad">
      <stop stop-color="hsl(206, 75%, 49%)" stop-opacity="1" offset="0%"></stop>
      <stop stop-color="hsl(331, 90%, 56%)" stop-opacity="1" offset="100%"></stop>
    </linearGradient>
  </defs>
  <g stroke-width="2" stroke="url(#ccchaos-grad)" fill="none" stroke-linecap="round">
    <path
      d="M386.37 65.74Q398.6 75.17 411.34 84.7 424.47 93.81 437.86 102.01 451.35 108.92 464.78 114.29 477.99 118.04 490.82 120.31 503.12 121.39 514.74 121.74 525.57 121.92 535.51 122.51 551.99 127.9 565.54 138.26 570.72 146.48 575.11 156.07 578.87 166.56 582.15 177.32 585.15 187.69 588.05 197.05 601.58 213.44 615.03 216.44 622.76 215.4 631.71 214.69 641.93 215.03 653.4 217.01 662.54 226.96 674.82 236.91 688.61 246.86 702.05 256.82 713.33 266.77 720.94 276.72 723.85 286.67 721.68 296.63 714.72 306.58 703.9 316.53 690.67 326.48 676.82 336.44 664.2 346.39 654.5 356.34 649.04 366.3 648.54 376.25 653.07 386.2 662.02 396.15 674.2 406.11 687.96 416.06 701.45 426.01 712.87 435.97 720.68 445.92 723.83 455.87 721.9 465.82 715.14 475.78 704.47 485.73 691.32 495.68 677.45 505.64 664.73 515.59 654.87 525.54 649.19 535.5 639.72 545.53 631.52 558.54 624.55 573.64 618.69 589.68 613.81 605.39 609.76 619.52 593.22 634.37 582.59 623.56 569.93 618.78 554.29 624.18 544.71 633.74 534.19 646.82 522.81 662.51 510.68 679.61 497.94 696.72 484.74 712.45 471.25 725.52 457.63 734.99 444.04 740.29 430.65 741.38 417.61 738.69 405.04 733.09 393.05 725.83 381.73 718.36 375.84 702.06 370.34 688.57 351.9 677.54 337.88 686.51 324.14 697.95 308.7 702.16 299.94 697.91 290.61 689.61 280.77 677.66 270.46 662.89 259.77 646.46 248.78 629.7 237.59 613.97 226.3 600.47 215 590.16 203.78 583.6 192.72 580.92 181.9 581.77 171.36 585.41 161.15 590.8 151.3 596.67 141.8 601.74 132.66 604.82 123.85 604.99 111.74 592.81 109.99 573.27 112.39 562.59 115 551.9 117.47 541.21 119.48 530.52 120.75 519.84 121.12 509.15 120.52 498.46 119.05 487.78 116.9 477.09 114.36 466.4 111.77 455.72 109.48 445.03 107.8 434.34 106.95 423.66 107.04 412.97 108.07 402.28 109.89 391.6 112.27 380.91 114.88 370.22 117.36 359.54 119.4 348.85 120.71 338.16 121.12 327.48 120.57 316.79 119.14 306.1 117.02 295.42 114.49 284.73 111.89 274.04 112.68 255.84 123.89 241.79 132.24 233.28 140.88 223.24 149.86 212.26 159.2 201.03 168.92 190.26 179.03 180.6 189.49 172.55 200.28 166.4 211.34 162.23 222.61 159.88 234.02 158.97 245.46 158.99 256.84 159.31 268.06 159.28 279.03 158.32 289.64 155.96 299.82 151.91 309.48 146.08 318.57 138.61 327.06 129.79 334.93 120.09 342.18 110.06 348.85 100.27 354.99 91.26 365.91 77.89 376.13 69.05 383.76 66.36 386.37 65.74"
      stroke-dasharray="11 10" transform="rotate(0, 400, 400)"></path>
    <path
      d="M395.59 78.29Q408.14 87.5 420.86 96.83 433.62 105.79 446.3 113.93 458.74 120.87 470.81 126.37 482.39 130.32 493.35 132.81 503.6 134.05 513.05 134.44 528.94 134.97 542.22 137.5 551.61 147.13 559.25 161.71 562.39 171.38 565.39 181.75 568.44 192.22 571.71 202.21 580.01 217.65 590.49 227.84 605.79 229.51 624.41 228.17 635.68 227.24 648 227.18 658.6 236.82 671.24 246.47 684.34 256.12 696.29 265.77 705.58 275.42 711.08 285.07 712.09 294.72 708.49 304.37 700.73 314.02 689.77 323.67 676.97 333.31 663.93 342.96 652.26 352.61 643.42 362.26 638.5 371.91 638.12 381.56 642.33 391.21 650.59 400.86 661.89 410.51 674.81 420.16 687.76 429.81 699.12 439.45 707.49 449.1 711.81 458.75 711.56 468.4 706.76 478.05 698.02 487.7 686.41 497.35 673.38 507 660.56 516.65 649.53 526.3 641.66 535.95 631.09 548.84 621.67 563.46 613.4 578.76 606.24 593.62 600.12 606.97 594.93 617.86 576.97 619.38 567.96 607.73 558.54 607.06 546.8 616.59 539.41 627.54 531.11 641.33 521.92 657.03 511.9 673.49 501.11 689.47 489.65 703.75 477.63 715.32 465.19 723.41 452.45 727.66 439.57 728.09 426.68 725.17 413.93 719.72 401.44 712.84 389.33 705.81 384.54 690.24 379.81 677.18 361.4 664.58 346.25 671.71 339.01 678.37 331.18 684.32 322.77 688.39 313.79 689.62 304.3 687.37 294.35 681.4 284 671.85 273.33 659.25 262.45 644.47 251.42 628.57 240.35 612.76 229.33 598.2 218.43 585.91 207.72 576.66 197.28 570.87 187.14 568.6 177.33 569.51 167.89 572.94 158.81 577.95 150.09 583.45 126.72 584.74 122.01 568.99 124.66 558.7 127.36 548.4 129.76 538.11 131.57 527.81 132.57 517.52 132.62 507.23 131.72 496.93 129.99 486.64 127.64 476.34 124.96 466.05 122.28 455.76 119.94 445.46 118.23 435.17 117.36 424.87 117.44 414.58 118.46 404.29 120.29 393.99 122.7 383.7 125.4 373.4 128.05 363.11 130.32 352.82 131.93 342.52 132.68 332.23 132.47 321.94 131.33 311.64 129.4 301.35 126.93 291.06 124.22 280.76 121.6 270.47 119.41 260.17 126.76 253.43 134.24 244.87 141.91 234.93 149.82 224.17 158.01 213.22 166.54 202.73 175.43 193.29 184.7 185.37 194.36 179.24 204.38 174.99 214.75 172.51 225.41 171.49 236.33 171.48 247.41 171.93 258.59 172.23 269.78 171.83 280.89 170.25 291.81 167.16 302.46 162.39 312.75 155.96 322.6 148.07 331.94 139.06 340.72 129.4 348.91 119.61 356.49 110.22 363.46 101.68 375.51 89.25 386.19 81.15 393.28 78.81 395.59 78.29"
      stroke-dasharray="3 8" transform="rotate(4.04, 400, 400)"></path>
    <path
      d="M405.71 90.83Q417.74 99.83 429.64 108.94 441.28 117.73 452.56 125.78 463.35 132.74 473.58 138.36 491.64 144.61 507.44 147.19 526.36 149.1 536.8 154.94 543.13 168.48 549.48 185.99 553.06 196.16 557.1 206.33 561.75 215.97 567.13 224.57 573.35 231.72 580.48 237.15 588.6 240.76 597.72 242.63 607.84 243.01 618.94 242.33 630.96 241.11 643.8 239.95 655.18 249.34 667.57 258.73 679.55 268.11 689.75 277.5 696.99 286.88 700.45 296.27 699.74 305.65 694.92 315.04 686.56 324.43 675.61 333.81 663.33 343.2 651.13 352.58 640.4 361.97 632.38 371.35 627.98 380.74 627.71 390.13 631.6 399.51 639.2 408.9 649.65 418.28 661.74 427.67 674.09 437.05 685.28 446.44 694.04 455.82 699.34 465.21 700.6 474.59 697.66 483.98 690.86 493.37 680.98 502.75 669.15 512.14 656.73 521.52 645.15 530.91 635.72 540.29 624.31 554.45 613.87 568.99 604.46 582.94 596.08 595.36 582.74 611.12 572.01 617.72 559.86 603.79 552.13 593.18 544.87 596.75 536.09 610.02 530.56 622 524.28 636.15 517.2 651.56 509.32 667.17 500.65 681.89 491.23 694.71 481.12 704.81 470.4 711.61 459.15 714.89 447.5 714.75 435.54 711.65 423.41 706.36 411.22 699.85 399.09 693.26 394.6 678.4 389.88 665.8 379.14 651.86 366.98 648.24 359.95 651.71 352.36 657.06 344.2 663.27 335.49 669.24 326.27 673.9 316.61 676.33 306.55 675.84 296.18 672.03 285.58 664.85 274.83 654.56 264.02 641.76 253.23 627.26 242.54 612.06 232.01 597.19 221.72 583.67 211.72 572.34 202.03 563.83 192.7 558.49 175.29 558.24 158.91 564.71 137.5 560.57 139.84 539.75 142.08 529.91 143.62 520.08 144.29 510.24 144 500.4 142.8 490.57 140.82 480.73 138.28 470.89 135.49 461.06 132.75 451.22 130.38 441.38 128.66 431.54 127.78 421.71 127.84 411.87 128.83 402.03 130.65 392.2 133.08 382.36 135.84 372.52 138.63 362.69 141.11 352.85 143 343.01 144.09 333.18 144.25 323.34 143.47 313.5 141.83 303.66 139.52 293.83 136.8 283.99 134 274.15 131.42 264.32 138.26 255.62 145.16 245.72 152.18 235.16 159.38 224.52 166.82 214.39 174.53 205.29 182.57 197.63 190.95 191.67 199.71 187.5 208.86 185.02 218.38 183.97 228.25 183.95 238.46 184.47 248.94 185.01 259.64 185.02 270.5 184.05 281.43 181.74 292.35 177.87 303.18 172.41 313.83 165.43 324.2 157.21 334.22 148.11 343.82 138.58 352.93 129.11 361.49 120.16 369.49 112.13 383.41 100.63 395.64 93.28 403.29 91.26 405.71 90.83"
      stroke-dasharray="1 10" transform="rotate(8.08, 400, 400)"></path>
    <path
      d="M414.67 103.39Q425.48 112.15 435.9 121.03 445.87 129.63 455.3 137.59 464.13 144.55 472.31 150.28 486.3 156.97 498.26 159.98 518.6 164.65 527.77 174.51 531.32 181.83 535.26 190.39 539.71 199.85 544.79 209.76 550.59 219.63 557.18 228.98 564.62 237.35 572.94 244.36 582.17 249.76 592.28 253.44 603.23 255.46 614.97 256.03 627.4 255.47 640.42 254.26 651.92 263.4 663.53 272.53 674.04 281.67 682.32 290.8 687.52 299.94 689.08 309.08 686.83 318.21 681.03 327.35 672.26 336.48 661.47 345.62 649.78 354.75 638.44 363.89 628.62 373.02 621.38 382.16 617.46 391.29 617.29 400.43 620.88 409.56 627.86 418.7 637.48 427.83 648.74 436.97 660.44 446.1 671.36 455.24 680.35 464.37 686.45 473.51 689.03 482.64 687.81 491.78 682.93 500.91 674.89 510.05 664.54 519.18 652.98 528.31 641.41 537.45 631.07 546.58 619.11 560.3 607.93 573.23 597.61 584.59 588.18 593.72 572.51 602.39 559.45 602.88 538.87 584.76 529.99 586.36 526.64 593.96 522.94 604.33 518.8 616.97 514.11 631.15 508.82 645.99 502.87 660.57 496.22 673.95 488.86 685.3 480.81 693.98 472.08 699.58 462.73 701.98 452.8 701.34 442.38 698.12 431.55 693 420.4 686.87 409.04 680.7 404.13 666.55 398.78 654.42 386.3 640.23 372.19 635.47 364.17 638.06 355.64 642.6 346.62 648.25 337.18 654.04 327.36 659.04 317.25 662.39 306.92 663.36 296.44 661.49 285.89 656.55 275.36 648.61 264.92 638.01 254.63 625.32 244.56 611.32 234.76 596.87 225.26 582.89 216.1 570.23 207.29 559.62 198.84 551.58 183.15 545.47 168.38 547.06 149.64 545.62 152.38 526.68 154.36 517.35 155.57 508.02 155.87 498.69 155.23 489.36 153.73 480.03 151.51 470.7 148.82 461.37 145.94 452.04 143.16 442.71 140.79 433.38 139.07 424.05 138.18 414.72 138.22 405.38 139.19 396.05 140.98 386.72 143.4 377.39 146.19 368.06 149.07 358.73 151.74 349.4 153.9 340.07 155.33 330.74 155.88 321.41 155.5 312.08 154.22 302.75 152.17 293.42 149.58 284.08 146.72 274.75 143.88 265.42 150.27 255.55 156.65 245.21 163.09 234.93 169.65 225.24 176.36 216.59 183.29 209.33 198.16 200.54 214.02 196.4 222.59 196.42 231.54 197.02 240.86 197.71 250.52 198.02 260.49 197.5 270.72 195.8 281.17 192.69 291.76 188.06 302.42 181.94 313.07 174.52 323.64 166.07 334.03 156.98 344.18 147.67 353.99 138.57 363.41 130.11 372.37 122.61 388.44 112.06 402.82 105.44 411.84 103.73 414.67 103.39"
      stroke-dasharray="11 9" transform="rotate(12.12, 400, 400)"></path>
    <path
      d="M420.66 115.94Q438.33 133.08 453.8 149.32 466.9 162.08 477.67 169.86 493.26 172.42 506.65 174.51 514.13 182.03 523.4 195.25 535.14 212.88 549.85 232.09 567.7 249.42 588.58 261.91 612.06 268.12 637.42 268.7 658.85 286.44 673.93 304.19 676.98 321.93 666.86 339.68 647.37 357.42 625.86 375.16 610.42 392.91 606.88 410.65 616.56 428.39 635.82 446.14 657.4 463.88 673.19 481.62 677.22 499.37 668 517.11 648.98 534.85 627.33 552.6 603.54 574.52 582.36 588.05 564.27 591.41 549.41 586.17 537.59 576.8 528.34 569.24 520.98 568.95 514.64 579.07 508.43 599.36 501.48 626.18 493.03 653.63 482.53 675.51 469.64 687.34 454.29 687.89 436.67 679.67 417.15 668.15 404.92 643.05 390.55 627.26 374.14 622.92 355.96 628.38 336.45 638.82 316.15 647.9 295.65 649.83 275.49 641.28 256.16 622.38 238 596.67 221.21 569.81 205.81 547.73 191.69 534.7 178.6 531.92 163.02 532.77 164.94 510.71 167.4 493.11 166.32 475.52 162.1 457.92 156.33 440.32 151.19 422.72 148.6 405.12 149.55 387.52 153.67 369.92 159.42 352.33 164.63 334.73 167.34 317.13 166.52 299.53 162.49 281.93 156.76 264.33 168.71 244.42 180.64 227.19 192.93 215.31 205.98 209.61 220.15 208.9 235.68 210.41 252.67 210.72 271.08 206.96 290.69 197.66 311.11 183.22 331.85 165.68 352.33 148.02 371.94 133.13 390.13 122.9 413.56 116.78 420.66 115.94"
      stroke-dasharray="4 8" transform="rotate(16.16, 400, 400)"></path>
    <path
      d="M422.47 128.49Q436.34 145.11 448.13 160.99 457.95 173.78 466.12 181.98 479.67 185.01 493.78 185.43 502.96 190.48 514.32 200.86 528.27 216.13 544.99 234.35 564.41 252.57 586.19 267.77 609.77 277.75 634.4 281.83 653.3 298.97 664.53 316.12 664.21 333.27 652.47 350.41 633.33 367.56 613.39 384.7 599.51 401.85 596.46 419 605.3 436.14 622.98 453.29 643.42 470.43 659.58 487.58 665.91 504.72 660.22 521.87 644.47 539.01 624.09 556.16 600.29 571.66 578.32 578.2 558.76 576.14 541.95 568.48 527.98 559.95 516.67 555.66 507.62 559.54 500.22 573.1 493.79 594.94 487.56 621.11 480.79 646.3 472.83 665.35 463.17 674.9 451.5 674.41 437.68 666.36 421.8 655.6 407.26 631.68 390.83 616 372.82 610.6 353.67 614.41 333.87 623.66 313.98 632.99 294.49 637.15 275.82 632.5 258.31 618.11 242.12 595.98 227.31 570.36 213.76 546.47 201.28 528.91 189.56 520.31 175.56 515.46 177.42 493.84 179.07 477.3 177.24 460.77 172.57 444.23 166.67 427.7 161.57 411.16 159.01 394.62 159.89 378.09 163.9 361.55 169.66 345.01 175.19 328.48 178.58 311.94 178.67 295.4 175.43 278.87 169.97 262.33 181.27 244.56 192.31 231.15 203.43 223.47 215.02 221.15 227.44 222.21 240.97 223.78 255.85 222.88 272.17 217.41 289.86 206.67 308.74 191.56 328.46 174.24 348.58 157.46 368.58 143.7 387.89 134.45 406 129.8 422.47 128.49 422.47 128.49 422.47 128.49"
      stroke-dasharray="6 2" transform="rotate(20.200000000000003, 400, 400)"></path>
    <path
      d="M419.74 141.04Q430.2 157.11 439.06 172.6 446.63 185.37 453.37 193.97 467.08 197.73 483.54 197.09 494.71 199.94 508.17 207.48 524.04 219.97 542.28 236.32 562.62 254.29 584.61 271.15 607.62 284.38 630.94 292.4 646.7 308.85 654.1 325.3 650.83 341.75 637.9 358.2 619.37 374.64 601.04 391.09 588.63 407.54 586.05 423.99 594.09 440.44 610.24 456.89 629.44 473.33 645.69 489.78 653.89 506.23 651.49 522.68 639.23 539.13 620.95 555.57 597.75 564.11 575.63 564.6 555.21 558.95 536.95 550.79 521.12 544.52 507.76 544.09 496.74 551.94 487.72 568.23 480.22 590.84 473.66 615.81 467.42 638.5 460.87 654.79 453.45 662.26 444.7 660.88 434.28 653.07 422.03 643.05 405.47 620.32 387.57 604.83 368.76 598.49 349.5 600.73 330.29 608.62 311.57 617.77 293.7 623.54 276.98 622.26 261.56 612.26 247.46 594.25 234.6 571.13 222.8 547.09 211.78 526.51 201.24 512.77 190.85 507.28 180.28 509.24 185.97 493.72 189.78 478.2 190.53 462.68 187.97 447.16 182.92 431.64 176.95 416.12 171.93 400.59 169.43 385.07 170.23 369.55 174.09 354.03 179.79 338.51 185.55 322.99 189.57 307.46 190.59 291.94 188.29 276.42 183.39 260.9 194.2 246.69 204.57 237.61 214.76 233.82 225.12 234.04 235.97 235.94 247.66 236.82 260.45 234.32 274.54 227.1 290.01 215.1 306.83 199.59 324.84 182.72 343.75 166.94 363.16 154.34 382.63 146.05 401.65 142.02 419.74 141.04 419.74 141.04 419.74 141.04"
      stroke-dasharray="8 7" transform="rotate(24.24, 400, 400)"></path>
    <path
      d="M413.01 153.59Q420.96 169.09 427.98 184.14 434.5 196.84 440.99 205.79 447.96 210.52 455.9 211.59 465.26 210.52 476.39 209.41 489.54 210.43 504.8 215.3 522.1 224.81 541.22 238.6 561.78 255.22 583.28 272.49 605.12 287.96 626.66 299.6 638.9 315.25 642.67 330.89 636.9 346.53 623.23 362.18 605.52 377.82 588.8 393.46 577.8 409.11 575.63 424.75 582.92 440.4 597.59 456.04 615.49 471.68 631.55 487.32 641.22 502.97 641.77 518.61 633.03 534.25 617.49 549.9 595.44 552.08 573.81 548.2 553.18 540.99 534.08 534.08 516.86 531.07 501.74 534.68 488.79 546.01 477.89 564.26 468.79 586.87 461.11 610.16 454.39 630.22 448.11 643.85 434.38 644.62 417.81 630.51 400.02 608.96 381.59 593.74 362.95 586.61 344.53 587.35 326.7 593.78 309.8 602.39 294.02 609.16 279.51 610.63 266.27 604.67 254.22 591.03 243.18 571.35 232.92 548.7 223.14 526.84 213.56 509.28 203.87 498.39 193.82 494.86 199.01 480.27 201.93 465.68 201.75 451.1 198.52 436.51 193.15 421.92 187.18 407.33 182.28 392.74 179.84 378.15 180.57 363.56 184.24 348.97 189.82 334.38 195.74 319.8 200.3 305.21 202.23 290.62 200.97 276.03 196.89 261.44 207.38 251.59 217.27 246.74 226.78 246.08 236.17 247.82 245.75 249.62 255.82 249.19 266.69 244.87 278.61 235.98 291.76 222.99 306.23 207.35 322.01 191.14 338.99 176.47 356.93 165.05 375.51 157.71 394.35 154.27 413.01 153.59 413.01 153.59 413.01 153.59"
      stroke-dasharray="3 8" transform="rotate(28.28, 400, 400)"></path>
    <path
      d="M403.65 166.14Q410.24 181.04 416.64 195.62 423.24 208.18 430.47 217.43 438.71 222.79 448.3 224.54 459.5 223.8 472.48 222.27 487.27 221.9 503.81 224.42 521.88 230.96 541.17 241.77 561.26 256.14 581.66 272.53 601.84 288.92 621.26 303.2 629.82 317.94 630.28 332.69 622.51 347.43 608.49 362.17 591.8 376.91 576.68 391.66 567 406.4 565.22 421.14 571.78 435.89 585.03 450.63 601.58 465.37 617.22 480.11 627.96 494.86 631.06 509.6 625.73 524.34 613.34 539.09 592.9 536.46 572.32 530.29 552.14 523.5 532.84 519.2 514.84 520.01 498.46 527.45 483.88 541.56 471.18 560.9 460.27 582.82 450.99 604.05 443.06 621.41 436.11 632.55 423.41 631.5 409.98 617.96 392.06 597.6 374.18 582.73 356.7 574.95 339.94 574.3 324.15 579.22 309.49 586.96 296.05 594.19 283.81 597.74 272.68 595.31 262.49 585.97 253.03 570.31 244.03 550.34 235.23 528.94 226.35 509.29 217.17 494.12 207.47 485.12 211.91 471.37 213.81 457.61 212.7 443.86 208.86 430.1 203.27 416.35 197.35 402.59 192.61 388.83 190.26 375.08 190.9 361.32 194.36 347.57 199.77 333.81 205.74 320.06 210.76 306.3 213.54 292.55 213.37 278.79 210.31 265.04 220.61 259.63 230.22 258.32 239.28 259.74 248 261.92 256.61 262.78 265.4 260.61 274.64 254.39 284.61 244.04 295.54 230.36 307.61 214.91 320.92 199.54 335.49 186.08 351.25 175.84 368.04 169.42 385.61 166.53 403.65 166.14 403.65 166.14 403.65 166.14"
      stroke-dasharray="4 0" transform="rotate(32.32, 400, 400)"></path>
    <path
      d="M393.55 178.69Q399.96 192.97 406.79 207.04 414.36 219.41 422.97 228.89 432.86 234.85 444.21 237.34 457.11 237.14 471.55 235.57 487.44 234.27 504.58 234.88 522.71 238.68 541.47 246.36 560.46 257.83 579.25 272.23 597.39 288.09 614.47 303.61 619.43 317.38 617 331.16 607.74 344.93 593.74 358.71 578.21 372.48 564.69 386.26 556.24 400.03 554.8 413.81 560.7 427.58 572.59 441.36 587.76 455.14 602.76 468.91 614.16 482.69 619.38 496.46 617.22 510.24 608.17 524.01 589.68 518.68 570.64 512.34 551.48 507.6 532.64 506.8 514.54 511.5 497.51 522.23 481.82 538.28 467.65 557.87 455.07 578.49 444.08 597.36 434.54 612.04 426.28 620.86 412.67 618.31 400.13 605.4 383.21 586.24 366.88 571.79 351.38 563.5 336.89 561.59 323.52 564.99 311.29 571.62 300.18 578.79 290.08 583.75 280.82 584.21 272.2 578.83 263.99 567.44 255.95 551.05 247.84 531.64 239.43 511.77 230.56 494.03 221.08 480.55 224.54 467.53 225.37 454.51 223.37 441.49 219.01 428.48 213.28 415.46 207.47 402.44 202.93 389.42 200.67 376.4 201.22 363.38 204.45 350.37 209.63 337.35 215.57 324.33 220.92 311.31 224.46 298.29 229.55 277.97 243.2 271.83 260.18 274.56 276.19 270.86 284.18 262.85 292.55 251.33 301.55 237.32 311.39 222.33 322.25 207.99 334.24 195.79 347.43 186.74 361.79 181.2 385.38 178.76 393.55 178.69"
      stroke-dasharray="5 7" transform="rotate(36.36, 400, 400)"></path>
    <path
      d="M384.75 191.24Q391.93 204.87 399.94 218.38 408.98 230.49 419.21 240.12 430.73 246.63 443.58 249.9 457.71 250.4 473.01 249.11 489.3 247.36 506.33 246.57 523.82 248.06 541.43 252.75 558.8 261.01 575.6 272.59 591.47 286.63 606.13 301.81 607.75 314.59 602.94 327.36 592.68 340.14 579.04 352.92 564.79 365.7 552.81 378.48 545.51 391.26 544.39 404.04 549.65 416.82 560.25 429.6 574.03 442.37 588.21 455.15 599.92 467.93 606.78 480.71 607.43 493.49 601.71 506.27 585.4 500.48 568.24 495.81 550.59 494.26 532.81 497.27 515.26 505.52 498.25 518.75 482.1 535.82 467.01 554.88 453.18 573.7 440.68 590.05 429.54 602.13 419.71 608.84 403.82 605.07 390.26 592.85 375.31 574.88 361.28 560.92 348.26 552.27 336.32 549.23 325.45 551.15 315.57 556.51 298.56 567.36 283.13 569.57 275.82 562.31 268.41 550 260.71 533.75 252.57 515.37 243.85 497 234.48 480.74 236.81 468.38 236.55 456.03 233.74 443.67 228.97 431.31 223.18 418.96 217.56 406.6 213.24 394.24 211.09 381.88 211.55 369.53 214.52 357.17 219.41 344.81 225.23 332.46 230.79 320.1 234.98 307.74 241.71 289.75 255.97 286.43 272.64 287.16 287.85 279.78 295 270.24 302.21 257.92 309.69 243.94 317.68 229.68 326.36 216.52 335.92 205.62 346.49 197.73 358.14 193.03 377.83 191.2 384.75 191.24"
      stroke-dasharray="2 10" transform="rotate(40.400000000000006, 400, 400)"></path>
    <path
      d="M379.04 203.79Q387.55 216.74 397.04 229.66 407.61 241.44 419.29 251.15 432.07 258.13 445.88 262.16 460.58 263.48 476.02 262.75 491.98 260.97 508.21 259.35 524.44 259.07 540.39 261.15 555.79 266.26 570.36 274.58 583.88 285.82 596.17 299.21 594.84 311 588.2 322.79 577.42 334.59 564.43 346.38 551.54 358.17 541.05 369.97 534.82 381.76 533.97 393.55 538.65 405.34 548.02 417.14 560.41 428.93 573.62 440.72 585.3 452.52 593.36 464.31 588.05 479.86 564.69 481.94 548.92 484.09 532.67 490.72 516.25 501.8 499.93 516.6 483.98 533.78 468.66 551.62 454.16 568.27 440.65 582.04 428.22 591.65 416.93 596.48 406.78 596.64 397.71 592.96 389.62 586.9 382.35 580.3 369.99 563.51 358.61 550.12 348.23 541.23 338.79 537.23 322.64 542.66 308.21 553.44 294.86 556.11 281.09 546.53 273.57 534.16 265.51 518.64 256.83 501.49 247.49 484.48 248.61 472.74 247.31 461 243.81 449.26 238.73 437.52 232.99 425.78 227.61 414.04 223.54 402.3 221.5 390.56 221.87 378.82 224.58 367.08 229.14 355.34 234.74 343.6 240.39 331.86 245.07 320.12 253.35 303.68 268.27 301.11 284.99 298.53 299.94 287.33 306.65 276.62 313.15 263.92 319.61 250.33 326.24 237.04 333.22 225.17 340.73 215.6 348.94 208.83 358.01 204.93 373.53 203.64 379.04 203.79"
      stroke-dasharray="1 9" transform="rotate(44.44, 400, 400)"></path>
    <path
      d="M377.57 216.34Q387.49 228.59 398.34 240.87 410.11 252.27 422.74 261.95 436.14 269.31 450.2 274.05 464.74 276.24 479.59 276.27 494.54 274.86 509.38 272.94 523.88 271.53 537.83 271.58 551.03 273.89 563.31 278.94 574.52 286.87 584.57 297.39 580.84 308.24 572.93 319.1 562.07 329.95 549.96 340.8 538.48 351.65 529.41 362.5 524.16 373.35 523.56 384.2 527.68 395.05 535.9 405.9 546.93 416.75 559.06 427.61 570.4 438.46 579.19 449.31 578.26 464.91 559.64 471.58 545.95 477.33 531.58 486.95 516.75 499.93 501.68 515.3 486.6 531.76 471.73 547.83 457.26 562.07 443.37 573.28 430.22 580.63 417.91 583.82 406.53 583.13 396.09 579.36 386.61 573.73 378.02 567.75 368.39 552.15 359.63 539.38 344.66 527.6 331.35 527.38 319.33 537.28 307.14 545.12 300.6 544.6 293.61 540.26 286.1 531.97 278 520.17 269.29 505.75 259.97 489.94 259.88 478.81 257.63 467.68 253.57 456.55 248.32 445.42 242.72 434.29 237.62 423.16 233.83 412.03 231.92 400.9 232.2 389.77 234.63 378.64 238.82 367.51 244.12 356.38 249.72 345.25 254.73 334.12 264.34 318.5 279.89 314.86 288.85 313.58 297.16 309.65 304.85 302.89 311.96 293.52 318.57 282.11 324.78 269.48 330.71 256.62 336.52 244.5 342.36 234 348.39 225.75 369.79 217.15 377.57 216.34"
      stroke-dasharray="2 9" transform="rotate(48.48, 400, 400)"></path>
    <path
      d="M380.63 228.89Q391.63 240.41 403.34 252.02 415.67 262.95 428.54 272.51 441.82 280.14 455.37 285.51 469.04 288.56 482.66 289.49 496.06 288.76 509.08 287.03 521.54 285.11 533.32 283.83 544.29 283.96 554.33 286.12 564.64 299.26 557.27 317.79 546.72 327.76 535.68 337.74 525.62 347.71 517.89 357.68 513.54 367.66 513.14 377.63 516.75 387.61 523.89 397.58 533.59 407.56 544.56 417.53 555.32 427.51 564.42 437.48 567.06 453.54 552.82 465.1 541.29 473.85 529 485.49 516.08 499.31 502.69 514.32 489 529.36 475.2 543.27 461.44 555 447.89 563.76 434.71 569.08 422.03 570.89 409.96 569.54 398.59 565.77 387.97 560.59 378.13 555.2 370.97 540.77 364.41 528.69 344.7 516.56 331.11 521.82 319.02 529.46 305.61 531.07 298 526.62 289.81 518.84 281.07 508.07 271.78 495.01 270.55 484.52 267.5 474.03 263.03 463.54 257.75 453.04 252.37 442.55 247.61 432.06 244.11 421.57 242.33 411.07 242.53 400.58 244.67 390.09 248.46 379.6 253.4 369.11 258.82 358.61 263.99 348.12 274.62 332.76 290.63 326.72 299.69 323.2 308.18 317.18 316.07 308.82 323.38 298.51 330.14 286.9 336.4 274.76 342.22 262.92 347.72 252.13 358.19 237.23 368.78 228.92 377.56 228.58 380.63 228.89"
      stroke-dasharray="3 10" transform="rotate(52.52, 400, 400)"></path>
    <path
      d="M387.61 241.44Q399.04 252.21 410.87 263.11 423.02 273.51 435.36 282.84 447.78 290.61 460.16 296.5 472.37 300.36 484.28 302.23 495.76 302.39 506.72 301.26 517.04 299.42 526.64 297.52 546.62 303.94 541.37 319.99 531.46 329.16 521.62 338.33 512.96 347.5 506.49 356.67 502.94 365.84 502.73 375.01 505.86 384.18 512 393.35 520.43 402.52 530.18 411.69 540.14 420.86 549.17 430.03 554.49 446.6 544.13 462.34 534.71 473.08 524.52 485.65 513.66 499.29 502.21 513.11 490.31 526.2 478.05 537.72 465.58 546.97 453.03 553.48 440.53 557.02 428.19 557.69 416.14 555.87 404.48 552.19 393.3 547.47 382.66 542.66 377.37 529.4 372.39 518.05 355.53 503.69 342.76 506.23 330.47 514.29 316.75 519.14 308.99 517.91 300.74 513.9 292 507.1 282.83 497.72 280.6 487.92 276.92 478.12 272.23 468.31 267.04 458.51 261.96 448.71 257.58 438.91 254.38 429.1 252.75 419.3 252.86 409.5 254.71 399.7 258.08 389.89 262.58 380.09 267.71 370.29 272.86 360.48 277.46 350.68 280.97 340.88 290.84 339.48 300.36 336 309.44 330.35 318.06 322.64 326.16 313.2 333.73 302.53 340.77 291.23 347.29 279.96 353.32 269.37 358.9 260.02 381.75 242.8 387.61 241.44"
      stroke-dasharray="3 5" transform="rotate(56.56, 400, 400)"></path>
    <path
      d="M397.1 254Q419.36 274.14 441.7 292.94 463.37 306.99 483.66 314.33 501.92 315.24 517.72 312.12 528.11 317.52 507.81 343.08 495.21 359.94 492.31 376.79 500.22 393.65 515.95 410.51 533.58 427.36 546.47 444.22 533.57 462.63 517.91 486.59 499.69 511.15 479.35 531.04 457.54 542.44 434.99 544.27 412.47 538.62 390.7 530.1 382.4 507.45 373.85 492.76 364.4 487.8 353.58 491.13 341.06 498.63 326.72 504.92 310.63 505.14 293.03 496.5 285.92 478.4 276.2 460.31 267.53 442.21 263.17 424.12 264.76 406.02 271.71 387.93 281.41 369.83 290.18 351.73 308.99 342.36 326.6 326.2 342.61 305.88 356.8 285.27 369.1 268.25 379.65 257.4 392.95 253.6 397.1 254"
      stroke-dasharray="2 5" transform="rotate(60.599999999999994, 400, 400)"></path>
    <path
      d="M407.17 266.54Q427.02 285.1 446.15 302.81 464.05 316.93 480.29 325.63 494.56 328.56 506.69 326.94 513.1 329.79 494.3 351.74 484.04 367.2 481.9 382.66 488.55 398.13 501.92 413.59 517.81 429.05 531.26 444.52 521.26 464.94 509.09 487.42 494.73 508 478.35 523.13 460.27 530.71 440.93 530.67 420.86 525.08 400.62 517.55 392.91 496.89 384.27 482.48 374.35 475.97 362.92 476.79 349.89 482.43 335.33 489.1 319.4 492.84 302.4 490.54 294.55 474.07 285.27 457.61 277.47 441.15 273.58 424.68 274.83 408.22 280.82 391.75 289.68 375.29 298.64 358.82 316.55 345.81 333.71 328.26 349.77 308.91 364.41 290.88 377.45 276.86 388.85 268.39 402.92 266 407.17 266.54"
      stroke-dasharray="8 3" transform="rotate(64.64, 400, 400)"></path>
    <path
      d="M415.79 279.09Q432.27 296.01 447.63 312.46 461.61 326.33 474 336.04 493.44 344.53 481.1 363.37 472.98 377.48 471.48 391.59 476.99 405.69 488.11 419.8 502.01 433.91 515.13 448.02 507.45 467.93 498.19 487.27 487.25 503.3 474.6 513.94 460.34 518.31 444.69 516.92 427.93 511.57 410.41 505 402.28 486.36 392.96 472.51 382.3 464.85 370.28 463.38 356.95 466.72 342.47 472.48 327.04 477.76 310.95 479.83 302.84 465.1 294.27 450.36 287.4 435.62 284 420.89 284.92 406.15 289.94 391.41 297.77 376.68 306.42 361.94 323.1 346.79 339.42 329.39 355.09 312.04 369.81 297 383.36 285.94 395.57 279.64 411.08 278.44 415.79 279.09"
      stroke-dasharray="10 3" transform="rotate(68.68, 400, 400)"></path>
    <path
      d="M421.21 291.64Q433.94 306.86 445.52 321.89 455.87 335.19 464.95 345.47 478.79 358.34 468.24 376.52 462.02 389.25 461.06 401.99 465.55 414.73 474.58 427.47 486.32 440.21 498.4 452.95 492.45 470.24 485.49 485.39 477.36 496.8 467.95 503.49 457.24 505.34 445.29 503.05 432.18 498.1 418.1 492.45 409.09 475.85 398.95 462.82 387.69 454.46 375.39 451.06 362.15 452 348.17 455.95 333.64 461.03 318.77 465.24 310.89 452.28 303.23 439.32 297.34 426.37 294.41 413.41 295.04 400.45 299.09 387.5 305.75 374.54 313.68 361.58 328.8 346.11 343.88 330.24 358.67 315.67 372.96 303.79 386.52 295.53 399.17 291.13 415.99 290.91 421.21 291.64"
      stroke-dasharray="10 9" transform="rotate(72.72, 400, 400)"></path>
    <path
      d="M422.35 304.19Q431.52 317.66 439.77 331.13 447.11 343.54 453.61 353.91 464.23 364.63 473.5 366.79 463.57 378.1 455.72 389.42 451.18 400.73 450.65 412.05 454.22 423.36 461.33 434.68 470.88 445.99 481.38 457.31 476.66 470.61 471.39 481.21 458.16 490.12 442.24 489.1 432.63 484.66 422.12 479.9 412.35 465.37 401.71 453.38 390.3 444.78 378.21 439.92 365.59 438.65 352.57 440.34 339.33 443.97 326.01 448.26 318.77 437.09 312.19 425.91 307.29 414.74 304.83 403.57 305.19 392.39 308.32 381.22 313.73 370.05 320.58 358.88 333.87 344.78 347.32 331.54 360.77 320.17 374.05 311.42 387 305.66 399.46 302.88 416.82 303.42 422.35 304.19"
      stroke-dasharray="5 2" transform="rotate(76.76, 400, 400)"></path>
    <path
      d="M418.96 316.74Q425.22 328.41 430.88 340.2 436.01 351.4 440.68 361.37 448.97 374.41 456.86 380.73 449.24 390.54 443.55 400.36 440.42 410.17 440.23 419.98 443 429.79 448.39 439.6 455.81 449.41 464.39 459.23 448.95 475.52 435.64 475.1 428.99 471.27 421.67 467.35 411.68 454.89 401.19 444.18 390.26 435.77 379.01 430.01 367.54 426.96 355.94 426.41 344.34 427.91 332.82 430.81 326.57 421.38 321.18 411.95 317.25 402.53 315.24 393.1 315.38 383.67 317.65 374.24 321.8 364.81 327.34 355.38 338.61 343.98 350.13 333.97 361.81 325.88 373.55 319.98 385.24 316.37 396.78 314.9 413.51 315.97 418.96 316.74"
      stroke-dasharray="9 6" transform="rotate(80.80000000000001, 400, 400)"></path>
    <path
      d="M411.73 329.3Q419.84 349.1 427.06 367.91 433.91 382.7 440.94 391.46 431.74 407.92 429.82 424.38 435.78 440.84 447.76 457.3 433.63 463.01 416.83 454.79 397.84 435.17 378.27 421.32 358.64 414.71 339.43 414.82 330.23 399.33 325.66 383.84 327.13 368.35 334.19 352.85 352.71 338.13 372.11 329.56 391.95 327.17 411.73 329.3 411.73 329.3 411.73 329.3"
      stroke-dasharray="2 5" transform="rotate(84.84, 400, 400)"></path>
    <path
      d="M402.14 341.85Q407.97 357.86 413.69 373.65 419.59 387.54 425.95 398.14 420.28 411.32 419.4 424.48 419.8 446.21 408.59 442.25 392.59 426.33 376.68 413.76 361.09 405.56 346.07 401.97 339.39 389.7 336.07 377.43 336.78 365.16 341.38 352.88 355.54 344.43 370.51 340.18 394.13 340.77 402.14 341.85"
      stroke-dasharray="10 1" transform="rotate(88.88, 400, 400)"></path>
    <path
      d="M392.11 354.4Q396.68 366.51 401.45 378.74 406.55 390.35 412.08 400.63 409.17 410.45 408.99 420.26 407.34 433.86 398.61 429.7 386.67 417.64 375.04 407.24 363.78 399.03 352.98 393.34 348.68 384.16 346.49 374.99 352.86 359.47 369.59 351.83 386.36 353.42 392.11 354.4"
      stroke-dasharray="9 0" transform="rotate(92.92, 400, 400)"></path>
    <path
      d="M383.67 366.94Q391.1 383.35 399.41 399.53 396.98 417.04 388.91 417.15 374.18 401.58 360.42 389.24 373.59 368.82 383.67 366.94"
      stroke-dasharray="5 2" transform="rotate(96.96, 400, 400)"></path>
  </g>
</svg>