<svg t="1678175855133" class="icon" viewBox="0 0 1024 1024" version="1.1"
  xmlns="http://www.w3.org/2000/svg" p-id="4539" width="128" height="128">
  <path
    fill="#ffffff"
    d="M512 64C264.7 64 64 264.7 64 512c0 247.29 200.7 448 448 448 247.29 0 448-200.7 448-448S759.3 64 512 64z m0 71.68c207.87 0 376.32 168.45 376.32 376.32S719.87 888.32 512 888.32 135.68 719.87 135.68 512 304.13 135.68 512 135.68z m0 71.68c-69.89 0-125.44 53.76-125.44 118.28 0 62.72 59.14 136.19 114.69 182.78C504.83 512 508.42 512 512 512s8.96-1.79 10.75-3.59c55.55-46.59 114.69-118.27 114.69-180.99 0-66.3-55.55-120.06-125.44-120.06zM339.97 512c-28.67 0-53.76 5.37-75.26 17.92-26.88 16.13-46.59 41.22-53.76 69.89-8.96 34.05-3.59 68.09 14.34 98.56 23.29 41.22 66.3 64.51 109.31 64.51 19.71 0 39.42-5.38 57.35-14.34 55.55-32.25 89.6-118.27 102.14-189.95 1.79-8.96-3.58-17.92-10.75-19.71-43.02-16.13-96.78-28.67-143.37-26.88z m344.06 0c-46.59-1.79-98.56 10.75-141.57 25.09-8.96 3.58-12.54 10.75-10.75 19.71 12.54 71.68 46.6 157.7 102.15 189.95 17.92 10.75 37.63 14.33 57.34 14.33 43.01 0 86.01-23.29 109.31-64.51 17.92-30.46 21.5-64.51 14.33-96.77-8.96-30.47-26.88-55.55-53.76-69.89-23.29-12.53-50.17-17.91-77.05-17.91z m0 0"
    p-id="4540"></path>
</svg>