<svg width="300" height="300" xmlns="http://www.w3.org/2000/svg">

 <g>
  <title>Layer 1</title>
  <g stroke="null">
   <title stroke="null">The Vaulters</title>
   <path stroke="null" d="m152.88906,60.17529l49.30294,-36.04869l48.84093,36.04869l-18.64236,57.6251l-60.55315,0l-18.94836,-57.6251zm-51.76899,158.07902l49.30294,-36.05469l48.84093,36.05469l-18.64236,57.6191l-60.54715,0l-18.95436,-57.6191zm82.73558,-60.06115l49.30294,-36.05469l48.84093,36.05469l-18.64236,57.6191l-60.54715,0l-18.95436,-57.6191zm-165.85516,0l49.30294,-36.05469l48.84093,36.05469l-18.64236,57.6191l-60.55315,0l-18.94836,-57.6191zm32.50862,-98.01787l49.30294,-36.04869l48.84093,36.04869l-18.64236,57.6251l-60.55315,0l-18.94836,-57.6251z"/>
  </g>
 </g>
</svg>