<svg xmlns="http://www.w3.org/2000/svg" version="1.1" xmlns:xlink="http://www.w3.org/1999/xlink"
  xmlns:svgjs="http://svgjs.dev/svgjs" viewBox="0 0 800 800" opacity="1">
  <defs>
    <linearGradient x1="50%" y1="0%" x2="50%" y2="100%" id="gggyrate-grad">
      <stop stop-color="hsl(184, 74%, 44%)" stop-opacity="1" offset="0%"></stop>
      <stop stop-color="hsl(332, 87%, 70%)" stop-opacity="1" offset="100%"></stop>
    </linearGradient>
  </defs>
  <g stroke-width="5.5" stroke="url(#gggyrate-grad)" fill="none">
    <path
      d="M355.9674503490287 -235.06782292669214C383.21477318877237 -250.7962387611402 416.7851657760714 -250.7962387611402 444.03248861581505 -235.0634196747788L927.9674868994596 44.33612398234095C955.2148097392032 60.064539816788965 972.0000060328528 89.13921220056864 972.0000060328528 120.60044712137824V679.3995344356176C972.0000060328528 710.8607693564272 955.2148097392032 739.9354417402067 927.9674868994596 755.668260826568L444.03248861581505 1035.0678044836877C416.7851657760714 1050.7962203181357 383.21477318877237 1050.7962203181357 355.9674503490287 1035.0634012317744L-127.96754793461582 755.6638575746547C-155.2148707743595 739.9354417402067 -172.000067068009 710.8607693564272 -172.000067068009 679.3995344356176V120.60044712137824C-172.000067068009 89.13921220056864 -155.2148707743595 60.064539816788965 -127.96754793461582 44.33172073042772L355.9674503490287 -235.06782292669214Z "
      transform="rotate(52, 400, 400)" opacity="0.05"></path>
    <path
      d="M357.66100877723613 -210.64211043319256C383.860357661605 -225.76558719708493 416.13958130323874 -225.76558719708493 442.3389301876076 -210.637876537122L907.6610439218814 58.01553082549299C933.8603928062503 73.13900758938541 950.000004627067 101.09542334301955 950.000004627067 131.34661076687507V668.653425492105C950.000004627067 698.9046129159606 933.8603928062503 726.8610286695948 907.6610439218814 741.9887393295576L442.3389301876076 1010.6421466921724C416.13958130323874 1025.7656234560648 383.860357661605 1025.7656234560648 357.66100877723613 1010.6379127961022L-107.66110495703748 741.9845054334869C-133.86045384140635 726.8610286695948 -150.00006566222322 698.9046129159606 -150.00006566222322 668.653425492105V131.34661076687507C-150.00006566222322 101.09542334301955 -133.86045384140635 73.13900758938541 -107.66110495703748 58.011296929422656L357.66100877723613 -210.64211043319256Z "
      transform="rotate(50, 400, 400)" opacity="0.09"></path>
    <path
      d="M359.3545672054436 -186.21645897484922C384.50594213443765 -200.73499666818591 415.4939968304061 -200.73499666818591 440.6453717594002 -186.2123944346215L887.354600944303 71.694876633489C912.5059758732971 86.21341432682561 928.0000032212813 113.05157345031444 928.0000032212813 142.09271337721566V657.9072555134367C928.0000032212813 686.9483954403377 912.5059758732971 713.7865545638265 887.354600944303 728.3091567973906L440.6453717594002 986.2164278655014C415.4939968304061 1000.734965558838 384.50594213443765 1000.734965558838 359.3545672054436 986.2123633252738L-87.35466197945908 728.3050922571633C-112.50603690845321 713.7865545638265 -128.00006425643744 686.9483954403377 -128.00006425643744 657.9072555134367V142.09271337721566C-128.00006425643744 113.05157345031444 -112.50603690845321 86.21341432682561 -87.35466197945908 71.69081209326134L359.3545672054436 -186.21645897484922Z "
      transform="rotate(48, 400, 400)" opacity="0.13"></path>
    <path
      d="M361.0481256336509 -161.79074648134963C385.1515266072704 -175.70434510413062 414.84841235757335 -175.70434510413062 438.95181333119274 -161.78685129696476L867.0481579667244 85.3742834766411C891.1515589403439 99.28788209942218 906.0000018154954 125.00778459276557 906.0000018154954 152.8388770227125V647.1611465699243C906.0000018154954 674.9922389998712 891.1515589403439 700.7121414932146 867.0481579667244 714.6296353003804L438.95181333119274 961.7907700739863C414.84841235757335 975.7043686967672 385.1515266072704 975.7043686967672 361.0481256336509 961.7868748896014L-67.04821900188074 714.6257401159955C-91.15161997550013 700.7121414932146 -106.0000628506516 674.9922389998712 -106.0000628506516 647.1611465699243V152.8388770227125C-106.0000628506516 125.00778459276557 -91.15161997550013 99.28788209942218 -67.04821900188074 85.37038829225634L361.0481256336509 -161.79074648134963Z "
      transform="rotate(46, 400, 400)" opacity="0.16"></path>
    <path
      d="M362.74168406185845 -137.36504924663916C385.79711108010304 -150.67370879886442 414.2028278847407 -150.67370879886442 437.2582549029853 -137.36132341809707L846.7417149891462 99.05367506100424C869.7971420073907 112.36233461322945 884.0000004097096 136.96398047642754 884.0000004097096 163.58502540942027V636.4150223676229C884.0000004097096 663.0360673006157 869.7971420073907 687.6377131638137 846.7417149891462 700.9500985445811L437.2582549029853 937.3650970236822C414.2028278847407 950.6737565759076 385.79711108010304 950.6737565759076 362.74168406185845 937.3613711951402L-46.74177602430234 700.9463727160391C-69.79720304254698 687.6377131638137 -84.00006144486582 663.0360673006157 -84.00006144486582 636.4150223676229V163.58502540942027C-84.00006144486582 136.96398047642754 -69.79720304254698 112.36233461322945 -46.74177602430234 99.04994923246227L362.74168406185845 -137.36504924663916Z "
      transform="rotate(44, 400, 400)" opacity="0.20"></path>
    <path
      d="M364.4352424900658 -112.93939778829582C386.4426955529357 -125.64311826996541 413.5572434119081 -125.64311826996541 435.564696474778 -112.93584131559658L826.4352720115676 112.73302086900014C848.4427250744375 125.4367413506697 861.9999990039237 148.92013058372243 861.9999990039237 174.33112801976097V625.6688523889543C861.9999990039237 651.0798498249928 848.4427250744375 674.5632390580456 826.4352720115676 687.2705160124142L435.564696474778 912.9393781970109C413.5572434119081 925.6430986786806 386.4426955529357 925.6430986786806 364.4352424900658 912.9358217243118L-26.43533304672394 687.2669595397151C-48.44278610959384 674.5632390580456 -62.00006003907998 651.0798498249928 -62.00006003907998 625.6688523889543V174.33112801976097C-62.00006003907998 148.92013058372243 -48.44278610959384 125.4367413506697 -26.43533304672394 112.72946439630095L364.4352424900658 -112.93939778829582Z "
      transform="rotate(42, 400, 400)" opacity="0.24"></path>
    <path
      d="M366.1288009182733 -88.51368529479623C387.0882800257684 -100.61246670591012 412.9116589390753 -100.61246670591012 433.8711380465704 -88.51029817793983L806.1288290339894 126.4124277121523C827.0883081414845 138.5112091232661 839.999997598138 160.8763417261735 839.999997598138 185.0772916652578V614.9227434454419C839.999997598138 639.1236933845262 827.0883081414845 661.4888259874335 806.1288290339894 673.590994515404L433.8711380465704 888.5137204054959C412.9116589390753 900.6125018166099 387.0882800257684 900.6125018166099 366.1288009182733 888.5103332886397L-6.128890069145598 673.5876073985473C-27.088369176640697 661.4888259874335 -40.0000586332942 639.1236933845262 -40.0000586332942 614.9227434454419V185.0772916652578C-40.0000586332942 160.8763417261735 -27.088369176640697 138.5112091232661 -6.128890069145598 126.40904059529589L366.1288009182733 -88.51368529479623Z "
      transform="rotate(40, 400, 400)" opacity="0.28"></path>
    <path
      d="M367.82235934648065 -64.08797280129664C387.73386449860106 -75.58181514185486 412.2660744662427 -75.58181514185486 432.1775796183631 -64.08475504028303L785.822386056411 140.09183455530444C805.7338912085313 151.5856768958626 817.9999961923522 172.8325528686246 817.9999961923522 195.82345531075475V604.1766345019296C817.9999961923522 627.1675369440597 805.7338912085313 648.4144129168218 785.822386056411 659.9114730183935L432.1775796183631 864.0880626139808C412.2660744662427 875.5819049545389 387.73386449860106 875.5819049545389 367.82235934648065 864.0848448529673L14.177552908432801 659.9082552573799C-5.733952243687611 648.4144129168218 -18.00005722750842 627.1675369440597 -18.00005722750842 604.1766345019296V195.82345531075475C-18.00005722750842 172.8325528686246 -5.733952243687611 151.5856768958626 14.177552908432801 140.08861679429089L367.82235934648065 -64.08797280129664Z "
      transform="rotate(38, 400, 400)" opacity="0.32"></path>
    <path
      d="M369.5159177746882 -39.662321342953305C388.3794489714337 -50.55122461295582 411.62048999341005 -50.55122461295582 430.48402119015554 -39.65927293778253L765.5159430788326 153.77118036330035C784.3794742755781 164.6600836333028 795.9999947865663 184.78870297591948 795.9999947865663 206.56955792109528V593.430464523261C795.9999947865663 615.2113194684368 784.3794742755781 635.3399388110535 765.5159430788326 646.2318904862267L430.48402119015554 839.6623437873095C411.62048999341005 850.5512470573121 388.3794489714337 850.5512470573121 369.5159177746882 839.6592953821389L34.483995886011144 646.228842081056C15.620464689265532 635.3399388110535 3.999944178277417 615.2113194684368 3.999944178277417 593.430464523261V206.56955792109528C3.999944178277417 184.78870297591948 15.620464689265532 164.6600836333028 34.483995886011144 153.76813195812963L369.5159177746882 -39.662321342953305Z "
      transform="rotate(36, 400, 400)" opacity="0.35"></path>
    <path
      d="M371.2095372380518 -15.236669884610023C389.0250944794227 -25.52063408405681 410.97496655573354 -25.52063408405681 428.79052379710447 -15.233790835282036L745.2095611364106 167.45052617129625C763.0251183777814 177.73449037074306 774.0000544159368 196.74485308321425 774.0000544159368 217.31566053143592V582.6842945445925C774.0000544159368 603.2551019928142 763.0251183777814 622.2654647052855 745.2095611364106 632.55230795406L428.79052379710447 815.2366249606384C410.97496655573354 825.5205891600851 389.0250944794227 825.5205891600851 371.2095372380518 815.2337459113105L54.79049989874579 632.5494289047322C36.974942657374925 622.2654647052855 26.000006619219448 603.2551019928142 26.000006619219448 582.6842945445925V217.31566053143592C26.000006619219448 196.74485308321425 36.974942657374925 177.73449037074306 54.79049989874579 167.44764712196832L371.2095372380518 -15.236669884610023Z "
      transform="rotate(34, 400, 400)" opacity="0.39"></path>
    <path
      d="M372.9030956662592 9.189042608889565C389.67067895225523 -0.4899825200015471 410.329382082901 -0.4899825200015471 427.09696536889703 9.19175230237471L724.9031181588321 181.1299330144484C741.6707014448282 190.8089581433395 752.000053010151 208.7010642256654 752.000053010151 228.06182417693287V571.9381856010801C752.000053010151 591.2989455523475 741.6707014448282 609.1910516346735 724.9031181588321 618.8727864570496L427.09696536889703 790.8109671691234C410.329382082901 800.4899922980144 389.67067895225523 800.4899922980144 372.9030956662592 790.8082574756381L75.09694287632414 618.8700767635646C58.32935959032807 609.1910516346735 48.000008025005286 591.2989455523475 48.000008025005286 571.9381856010801V228.06182417693287C48.000008025005286 208.7010642256654 58.32935959032807 190.8089581433395 75.09694287632414 181.1272233209633L372.9030956662592 9.189042608889565Z "
      transform="rotate(32, 400, 400)" opacity="0.43"></path>
    <path
      d="M374.59665409446666 33.61472458481103C390.316263425088 24.540638526475618 409.68379761006827 24.540638526475618 425.4034069406896 33.61726492245333L704.5966751812537 194.80930934002242C720.3162845118751 203.88339539835783 730.0000516043651 220.6572448505383 730.0000516043651 238.80795730485158V561.1920461399895C730.0000516043651 579.3427585943028 720.3162845118751 596.1166080464833 704.5966751812537 605.1932344424611L425.4034069406896 766.3852788600301C409.68379761006827 775.4593649183655 390.316263425088 775.4593649183655 374.59665409446666 766.3827385223879L95.40338585390253 605.1906941048188C79.68377652328115 596.1166080464833 70.00000943079107 579.3427585943028 70.00000943079107 561.1920461399895V238.80795730485158C70.00000943079107 220.6572448505383 79.68377652328115 203.88339539835783 95.40338585390253 194.80676900238012L374.59665409446666 33.61472458481103Z "
      transform="rotate(30, 400, 400)" opacity="0.47"></path>
    <path
      d="M376.2902125226741 58.04040656073249C390.96184789792073 49.571259572952755 409.0382131372355 49.571259572952755 423.70984851248215 58.04277754253201L684.2902322036754 208.48868566559645C698.9618675789219 216.95783265337616 708.0000501985794 232.6134254754113 708.0000501985794 249.5540904327703V550.4459066788993C708.0000501985794 567.3865716362582 698.9618675789219 583.0421644582934 684.2902322036754 591.5136824278725L423.70984851248215 741.959590550937C409.0382131372355 750.4287375387166 390.96184789792073 750.4287375387166 376.2902125226741 741.9572195691376L115.70982883148088 591.5113114460731C101.0381934562343 583.0421644582934 92.00001083657685 567.3865716362582 92.00001083657685 550.4459066788993V249.5540904327703C92.00001083657685 232.6134254754113 101.0381934562343 216.95783265337616 115.70982883148088 208.486314683797L376.2902125226741 58.04040656073249Z "
      transform="rotate(28, 400, 400)" opacity="0.51"></path>
    <path
      d="M377.98377095088154 82.46608853665396C391.6074323707534 74.60188061942989 408.3926286644029 74.60188061942989 422.0162900842747 82.46829016261063L663.983789226097 222.16806199117048C677.6074506459688 230.03226990839448 686.0000487927936 244.56960610028432 686.0000487927936 260.3002235606891V539.6997672178088C686.0000487927936 555.4303846782136 677.6074506459688 569.9677208701033 663.983789226097 577.834130413284L422.0162900842747 717.5339022418439C408.3926286644029 725.3981101590679 391.6074323707534 725.3981101590679 377.98377095088154 717.5317006158872L136.01627180905928 577.8319287873273C122.39261038918744 569.9677208701033 114.00001224236269 555.4303846782136 114.00001224236269 539.6997672178088V260.3002235606891C114.00001224236269 244.56960610028432 122.39261038918744 230.03226990839448 136.01627180905928 222.16586036521386L377.98377095088154 82.46608853665396Z "
      transform="rotate(26, 400, 400)" opacity="0.54"></path>
    <path
      d="M379.677329379089 106.89177051257536C392.253016843586 99.63250166590706 407.74704419157024 99.63250166590706 420.3227316560673 106.89380278268925L643.6773462485187 235.8474383167445C656.2530337130157 243.1067071634128 664.0000473870078 256.5257867251572 664.0000473870078 271.04635668860783V528.9536277567183C664.0000473870078 543.4741977201688 656.2530337130157 556.8932772819132 643.6773462485187 564.1545783986953L420.3227316560673 693.1082139327507C407.74704419157024 700.367482779419 392.253016843586 700.367482779419 379.677329379089 693.1061816626369L156.32271478663762 564.1525461285817C143.74702732214058 556.8932772819132 136.00001364814847 543.4741977201688 136.00001364814847 528.9536277567183V271.04635668860783C136.00001364814847 256.5257867251572 143.74702732214058 243.1067071634128 156.32271478663762 235.84540604663067L379.677329379089 106.89177051257536Z "
      transform="rotate(24, 400, 400)" opacity="0.58"></path>
    <path
      d="M381.37087254850735 131.31745248849683C392.89858605762964 124.6631227123842 407.1014444599484 124.6631227123842 418.6291579690708 131.31931540276787L623.3708880121512 249.52681464231853C634.8986015212735 256.18114441843113 642.0000307224329 268.4819673500302 642.0000307224329 281.79248981652654V518.2074882956279C642.0000307224329 531.5180107621243 634.8986015212735 543.8188336937233 623.3708880121512 550.475026384107L418.6291579690708 668.6825256236575C407.1014444599484 675.3368553997702 392.89858605762964 675.3368553997702 381.37087254850735 668.6806627093865L176.62914250542696 550.473163469836C165.10142899630466 543.8188336937233 157.99999979514524 531.5180107621243 157.99999979514524 518.2074882956279V281.79248981652654C157.99999979514524 268.4819673500302 165.10142899630466 256.18114441843113 176.62914250542696 249.52495172804754L381.37087254850735 131.31745248849683Z "
      transform="rotate(22, 400, 400)" opacity="0.62"></path>
    <path
      d="M383.0644157179257 155.74316498199642C393.5441552716733 149.69377427643946 406.4558447283267 149.69377427643946 416.9355842820743 155.74485854042462L603.0644297757838 263.2062214854707C613.5441693295313 269.2556121910276 620.000014057858 280.43817849248126 620.000014057858 292.53865346202343V507.4613793521155C620.000014057858 519.5618543216576 613.5441693295313 530.7444206231113 603.0644297757838 536.7955048870965L416.9355842820743 644.2568678321425C406.4558447283267 650.3062585376995 393.5441552716733 650.3062585376995 383.0644157179257 644.2551742737144L196.93557022421624 536.7938113286682C186.45583067046869 530.7444206231113 179.99998594214196 519.5618543216576 179.99998594214196 507.4613793521155V292.53865346202343C179.99998594214196 280.43817849248126 186.45583067046869 269.2556121910276 196.93557022421624 263.2045279270425L383.0644157179257 155.74316498199642Z "
      transform="rotate(20, 400, 400)" opacity="0.66"></path>
    <path
      d="M384.75797414613317 180.16884695791788C394.1897397445059 174.72439532291662 405.8102602554941 174.72439532291662 415.24202585386683 180.17037116050324L582.7579867982054 276.8855978110447C592.1897523965781 282.3300494460459 598.0000126520722 292.39435911735427 598.0000126520722 303.2847865899422V496.715239891025C598.0000126520722 507.60566736361295 592.1897523965781 517.6699770349212 582.7579867982054 523.1159528725079L415.24202585386683 619.8311795230493C405.8102602554941 625.2756311580506 394.1897397445059 625.2756311580506 384.75797414613317 619.829655320464L217.24201320179463 523.1144286699225C207.81024760342183 517.6699770349212 201.99998734792774 507.60566736361295 201.99998734792774 496.715239891025V303.2847865899422C201.99998734792774 292.39435911735427 207.81024760342183 282.3300494460459 217.24201320179463 276.88407360845935L384.75797414613317 180.16884695791788Z "
      transform="rotate(18, 400, 400)" opacity="0.70"></path>
    <path
      d="M386.45153257434055 204.59448315747215C394.83532421733855 199.75497059302657 405.16467578266145 199.75497059302657 413.54846742565945 204.59583800421473L562.451543820627 290.56492836025154C570.835335463625 295.4044409246971 576.0000112462865 304.35049396586004 576.0000112462865 314.0308739414938V485.96905465356735C576.0000112462865 495.6494346292011 570.835335463625 504.59548767036404 562.451543820627 509.43635508155216L413.54846742565945 595.405445437589C405.16467578266145 600.2449580020345 394.83532421733855 600.2449580020345 386.45153257434055 595.4040905908464L237.54845617937303 509.43500023480965C229.16466453637497 504.59548767036404 223.99998875371358 495.6494346292011 223.99998875371358 485.96905465356735V314.0308739414938C223.99998875371358 304.35049396586004 229.16466453637497 295.4044409246971 237.54845617937303 290.563573513509L386.45153257434055 204.59448315747215Z "
      transform="rotate(16, 400, 400)" opacity="0.73"></path>
    <path
      d="M388.145091002548 229.0201956509717C395.4809086901713 224.78562215708183 404.5190913098287 224.78562215708183 411.854908997452 229.02138114187147L542.1451008430486 304.2443352034037C549.4809185306719 308.47890869729355 554.0000098405006 316.3067051083111 554.0000098405006 324.7770375869906V475.2229457100551C554.0000098405006 483.69327818873455 549.4809185306719 491.5210745997522 542.1451008430486 495.7568335845417L411.854908997452 570.979787646074C404.5190913098287 575.2143611399638 395.4809086901713 575.2143611399638 388.145091002548 570.9786021551743L257.8548991569514 495.7556480936421C250.5190814693281 491.5210745997522 245.99999015949936 483.69327818873455 245.99999015949936 475.2229457100551V324.7770375869906C245.99999015949936 316.3067051083111 250.5190814693281 308.47890869729355 257.8548991569514 304.24314971250396L388.145091002548 229.0201956509717Z "
      transform="rotate(14, 400, 400)" opacity="0.77"></path>
    <path
      d="M389.8386494307554 253.4458928856822C396.12649316300394 249.81625846234806 403.87350683699606 249.81625846234806 410.1613505692446 253.44690902073916L521.8386578654703 317.9237267877668C528.1265015977187 321.55336121110093 532.0000084347148 328.26290099197314 532.0000084347148 335.52318597369845V464.4768215077537C532.0000084347148 471.73710648947895 528.1265015977187 478.44664627035115 521.8386578654703 482.0772968287422L410.1613505692446 546.5541145957699C403.87350683699606 550.183749019104 396.12649316300394 550.183749019104 389.8386494307554 546.553098460713L278.1613421345298 482.07628069368536C271.8734984022812 478.44664627035115 267.9999915652852 471.73710648947895 267.9999915652852 464.4768215077537V335.52318597369845C267.9999915652852 328.26290099197314 271.8734984022812 321.55336121110093 278.1613421345298 317.92271065270984L389.8386494307554 253.4458928856822Z "
      transform="rotate(12, 400, 400)" opacity="0.81"></path>
    <path
      d="M391.53220785896286 277.8715824909982C396.77207763583664 274.8468871382197 403.22792236416336 274.8468871382197 408.46779214103714 277.8724292702123L501.5322148878919 331.60311074273534C506.77208466476566 334.6278060955138 510.000007028929 340.2190892462406 510.000007028929 346.2693267310117V453.73068967605775C510.000007028929 459.7809271608288 506.77208466476566 465.37221031155565 501.5322148878919 468.39775244354826L408.46779214103714 522.1284339160712C403.22792236416336 525.1531292688497 396.77207763583664 525.1531292688497 391.53220785896286 522.1275871368572L298.4677851121081 468.3969056643341C293.22791533523434 465.37221031155565 289.999992971071 459.7809271608288 289.999992971071 453.73068967605775V346.2693267310117C289.999992971071 340.2190892462406 293.22791533523434 334.6278060955138 298.4677851121081 331.60226396352124L391.53220785896286 277.8715824909982Z "
      transform="rotate(10, 400, 400)" opacity="0.85"></path>
    <path
      d="M393.22576628717025 302.2972492081306C397.4176621086693 299.87749292590786 402.5823378913307 299.87749292590786 406.77423371282975 302.2979266315019L481.2257719103135 345.2824718095203C485.4176677318125 347.70222809174305 488.00000562314324 352.1752546123245 488.00000562314324 357.0154446001414V442.9845349561782C488.00000562314324 447.8247249439951 485.4176677318125 452.29775146457655 481.2257719103135 454.7181851701706L406.77423371282975 497.70273034818905C402.5823378913307 500.1224866304118 397.4176621086693 500.1224866304118 393.22576628717025 497.70205292481774L318.7742280896865 454.71750774679936C314.5823322681875 452.29775146457655 311.99999437685676 447.8247249439951 311.99999437685676 442.9845349561782V357.0154446001414C311.99999437685676 352.1752546123245 314.5823322681875 347.70222809174305 318.7742280896865 345.28179438614904L393.22576628717025 302.2972492081306Z "
      transform="rotate(8, 400, 400)" opacity="0.89"></path>
    <path
      d="M394.9193247153777 326.72294644284113C398.06324658150197 324.90812923117403 401.93675341849803 324.90812923117403 405.0806752846223 326.7234545103696L460.91932893273514 358.9618633938834C464.06325079885937 360.7766806055505 466.0000042173574 364.13145049598654 466.0000042173574 367.7615929868492V432.23841075387685C466.0000042173574 435.8685532447395 464.06325079885937 439.2233231351756 460.91932893273514 441.0386484143711L405.0806752846223 473.27705729788494C401.93675341849803 475.091874509552 398.06324658150197 475.091874509552 394.9193247153777 473.2765492303565L339.08067106726486 441.0381403468427C335.93674920114063 439.2233231351756 333.9999957826426 435.8685532447395 333.9999957826426 432.23841075387685V367.7615929868492C333.9999957826426 364.13145049598654 335.93674920114063 360.7766806055505 339.08067106726486 358.9613553263549L394.9193247153777 326.72294644284113Z "
      transform="rotate(6, 400, 400)" opacity="0.92"></path>
    <path
      d="M396.6128831435851 351.1486360481571C398.70883105433467 349.93875790704567 401.29116894566533 349.93875790704567 403.3871168564149 351.14897475984276L440.61288595515674 372.64124734885195C442.7088338659063 373.85112548996335 444.0000028115716 376.0876387502541 444.0000028115716 378.5077337441625V421.4922789221809C444.0000028115716 423.91237391608934 442.7088338659063 426.1488871763801 440.61288595515674 427.3591040291771L403.3871168564149 448.85137661818635C401.29116894566533 450.0612547592977 398.70883105433467 450.0612547592977 396.6128831435851 448.85103790650066L359.38711404484326 427.3587653174915C357.2911661340937 426.1488871763801 355.9999971884284 423.91237391608934 355.9999971884284 421.4922789221809V378.5077337441625C355.9999971884284 376.0876387502541 357.2911661340937 373.85112548996335 359.38711404484326 372.6409086371663L396.6128831435851 351.1486360481571Z "
      transform="rotate(4, 400, 400)" opacity="0.96"></path>
    <path
      d="M398.30644157179256 375.574310394684C399.3544155271673 374.96937132412836 400.6455844728327 374.96937132412836 401.69355842820744 375.57447975052685L420.3064429775784 386.32061604503144C421.35441693295314 386.92555511558714 422.0000014057858 388.0438117457325 422.0000014057858 389.2538592426867V410.74613183169595C422.0000014057858 411.95617932865014 421.35441693295314 413.0744359587955 420.3064429775784 413.67954438519405L401.69355842820744 424.42568067969864C400.6455844728327 425.03061975025435 399.3544155271673 425.03061975025435 398.30644157179256 424.4255113238558L379.6935570224216 413.6793750293512C378.64558306704686 413.0744359587955 377.9999985942142 411.95617932865014 377.9999985942142 410.74613183169595V389.2538592426867C377.9999985942142 388.0438117457325 378.64558306704686 386.92555511558714 379.6935570224216 386.3204466891886L398.30644157179256 375.574310394684Z "
      transform="rotate(2, 400, 400)" opacity="1.00"></path>
  </g>
</svg>