<svg xmlns="http://www.w3.org/2000/svg" version="1.1" xmlns:xlink="http://www.w3.org/1999/xlink"
  xmlns:svgjs="http://svgjs.dev/svgjs" viewBox="0 0 800 800" opacity="1">
  <defs>
    <filter id="bbburst-blur-1" x="-100%" y="-100%" width="400%" height="400%">
      <feGaussianBlur in="SourceGraphic" stdDeviation="1"></feGaussianBlur>
    </filter>
    <filter id="bbburst-blur-2" x="-100%" y="-100%" width="400%" height="400%">
      <feGaussianBlur in="SourceGraphic" stdDeviation="2"></feGaussianBlur>
    </filter>
    <filter id="bbburst-blur-3" x="-100%" y="-100%" width="400%" height="400%">
      <feGaussianBlur in="SourceGraphic" stdDeviation="4"></feGaussianBlur>
    </filter>
    <filter id="bbburst-blur-4" x="-100%" y="-100%" width="400%" height="400%">
      <feGaussianBlur in="SourceGraphic" stdDeviation="12"></feGaussianBlur>
    </filter>
    <symbol id="bbburst-shape-3" viewBox="0 0 131 127">
      <path d="m66 0 66 63.5L66 127 0 63.5 66 0Z"></path>
    </symbol>
    <symbol id="bbburst-shape-6" viewBox="0 0 133 116">
      <path
        d="M59.7487 10.2513c-13.6683-13.66839-35.8291-13.66839-49.4974 0-13.66839 13.6683-13.66839 35.8291 0 49.4974l49.4974-49.4974ZM66.5 66.5 41.7513 91.2487 66.5 115.997l24.7487-24.7483L66.5 66.5Zm56.249-6.7513c13.668-13.6683 13.668-35.8291 0-49.4974-13.669-13.66839-35.8294-13.66839-49.4977 0l49.4977 49.4974Zm-112.4977 0 31.5 31.5 49.4974-49.4974-31.5-31.5-49.4974 49.4974Zm80.9974 31.5 31.5003-31.5-49.4977-49.4974-31.5 31.5 49.4974 49.4974Z"></path>
    </symbol>
    <symbol id="bbburst-shape-8" viewBox="0 0 87 168">
      <path
        d="m12 12 31.2546 18.0749c16.4102 9.4902 20.014 31.6325 7.4603 45.8369L36.3296 92.1884c-12.5684 14.2206-8.9394 36.3916 7.5068 45.8636L75 156"
        stroke-width="14" stroke-linecap="round" stroke-linejoin="round"></path>
    </symbol>
    <symbol id="bbburst-shape-10" viewBox="0 0 145 145">
      <circle cx="72.5" cy="72.5" r="61.5" fill="none" stroke-width="22"></circle>
    </symbol>
    <symbol id="bbburst-shape-11" viewBox="0 0 194 167">
      <path d="M10.398 161 97 11l86.603 150H10.397Z" stroke-width="11"></path>
    </symbol>
    <symbol id="bbburst-shape-12" viewBox="0 0 170 151">
      <path
        d="M69.3728 54.2122 85 10.0031l15.627 44.2091c1.413 3.9958 5.19 6.6672 9.428 6.6673h49.312l-39.149 26.1447c-3.803 2.5401-5.399 7.3367-3.875 11.6488l15.179 42.94-40.9683-27.36c-3.3621-2.245-7.7453-2.245-11.1074 0l-40.9682 27.36 15.1785-42.94c1.5243-4.3121-.0712-9.1087-3.8746-11.6488L10.6333 60.8795h49.3112c4.2381-.0001 8.0159-2.6715 9.4283-6.6673Z"
        stroke-width="12"></path>
    </symbol>
  </defs>
  <use xlink:href="#bbburst-shape-10" width="44.43375822777533" opacity="0.1641195855031381"
    transform="matrix(1.229577169150826,-0.2250332977651118,0.2250332977651118,1.229577169150826,534.5166262669946,192.55885144044112)"
    fill="none" stroke="#ff5c58" filter="url(#bbburst-blur-3)"></use>
  <use xlink:href="#bbburst-shape-10" width="39.18083267655517" opacity="0.07237998638726595"
    transform="matrix(1.4872213097823679,0.9223192374277022,-0.9223192374277022,1.4872213097823679,525.6497948731787,-571.2725005508966)"
    fill="none" stroke="#ffa6d5" filter="url(#bbburst-blur-4)"></use>
  <use xlink:href="#bbburst-shape-3" width="19.491322242955818" opacity="0.6745935933012843"
    transform="matrix(0.9181835567804216,0.39615521712840573,-0.39615521712840573,0.9181835567804216,678.3708442075332,-40.595957919603336)"
    fill="#ffa6d5" filter="url(#bbburst-blur-1)"></use>
  <use xlink:href="#bbburst-shape-6" width="42.98609546113732" opacity="0.2839108059493607"
    transform="matrix(1.1463570564843708,-0.4983628186858335,0.4983628186858335,1.1463570564843708,330.1409960955075,-330.8226515752392)"
    fill="#ffbd9b" filter="url(#bbburst-blur-3)"></use>
  <use xlink:href="#bbburst-shape-12" width="44.5185123339701" opacity="0.41336458383168173"
    transform="matrix(0.709291129926058,-0.7049156637557544,0.7049156637557544,0.709291129926058,-49.347297244959634,348.0779851999918)"
    fill="none" stroke="#ffbd9b" filter="url(#bbburst-blur-2)"></use>
  <use xlink:href="#bbburst-shape-12" width="31.947234650090863" opacity="0.5919207411542374"
    transform="matrix(0.9872212977432604,0.1593552926077852,-0.1593552926077852,0.9872212977432604,629.4560129662534,-25.583523033350332)"
    fill="none" stroke="#ffa6d5" filter="url(#bbburst-blur-1)"></use>
  <use xlink:href="#bbburst-shape-6" width="36.464244932108684" opacity="0.29654085612432035"
    transform="matrix(1.061985407876986,0.6593079655641604,-0.6593079655641604,1.061985407876986,897.2275897866705,153.62315407969152)"
    fill="#ffbd9b" filter="url(#bbburst-blur-3)"></use>
  <use xlink:href="#bbburst-shape-12" width="29.757033975592925" opacity="0.5211353859435632"
    transform="matrix(0.9819744661114569,-0.18901361830598146,0.18901361830598146,0.9819744661114569,210.53716858808218,-181.3093174406287)"
    fill="none" stroke="#2c2891" filter="url(#bbburst-blur-2)"></use>
  <use xlink:href="#bbburst-shape-11" width="35.0235743816904" opacity="0.24263007645034096"
    transform="matrix(1.2494898563159065,-0.03570852788418664,0.03570852788418664,1.2494898563159065,225.80403044604424,211.88627761475465)"
    fill="none" stroke="#2c2891" filter="url(#bbburst-blur-3)"></use>
  <use xlink:href="#bbburst-shape-11" width="19.630228480804483" opacity="0.7990887989817286"
    transform="matrix(0.9937316662644508,0.11179166097378801,-0.11179166097378801,0.9937316662644508,523.2301881596637,20.853535458511146)"
    fill="none" stroke="#2c2891"></use>
  <use xlink:href="#bbburst-shape-3" width="24.04325722588376" opacity="0.7534159176069055"
    transform="matrix(0.9999923327777434,-0.003915914417726816,0.003915914417726816,0.9999923327777434,431.44139266488787,-101.3242432711051)"
    fill="#ffbd9b" filter="url(#bbburst-blur-1)"></use>
  <use xlink:href="#bbburst-shape-12" width="21.244456737161812" opacity="0.8540258761037847"
    transform="matrix(0.8316398973792892,-0.555315298805071,0.555315298805071,0.8316398973792892,192.48169225952543,134.56579253970722)"
    fill="none" stroke="#ffa6d5"></use>
  <use xlink:href="#bbburst-shape-10" width="52.9854854454324" opacity="-0.07393562103613927"
    transform="matrix(1.5818552561765358,0.7484877744537091,-0.7484877744537091,1.5818552561765358,997.9277793609132,90.43166766789557)"
    fill="none" stroke="#ffa6d5" filter="url(#bbburst-blur-4)"></use>
  <use xlink:href="#bbburst-shape-10" width="37.34093171343864" opacity="0.18092947112510294"
    transform="matrix(1.1581780469837788,0.47023782438766015,-0.47023782438766015,1.1581780469837788,925.9939212243214,-153.2669786249278)"
    fill="none" stroke="#2c2891" filter="url(#bbburst-blur-3)"></use>
  <use xlink:href="#bbburst-shape-11" width="40.938170101862255" opacity="0.18118029459789053"
    transform="matrix(1.2479594415248654,-0.07139490394241124,0.07139490394241124,1.2479594415248654,94.74782295566983,171.27105207149918)"
    fill="none" stroke="#ff5c58" filter="url(#bbburst-blur-3)"></use>
  <use xlink:href="#bbburst-shape-12" width="29.301982970036835" opacity="0.42491700148717504"
    transform="matrix(0.9791111872376216,0.2033255592052682,-0.2033255592052682,0.9791111872376216,208.2102046996139,4.4373857646918395)"
    fill="none" stroke="#2c2891" filter="url(#bbburst-blur-2)"></use>
  <use xlink:href="#bbburst-shape-6" width="45.71153968745116" opacity="0.08090147159904759"
    transform="matrix(1.5552119500924044,0.8023813247389179,-0.8023813247389179,1.5552119500924044,1038.8544811474794,-25.632742570219648)"
    fill="#2c2891" filter="url(#bbburst-blur-4)"></use>
  <use xlink:href="#bbburst-shape-11" width="29.83200704325087" opacity="0.16394731248811467"
    transform="matrix(1.1876950578623782,-0.389718423389609,0.389718423389609,1.1876950578623782,330.51564729358734,-431.2078892294494)"
    fill="none" stroke="#2c2891" filter="url(#bbburst-blur-3)"></use>
  <use xlink:href="#bbburst-shape-12" width="20.436151959059927" opacity="0.860129278950279"
    transform="matrix(0.8581092872550052,0.51346708865,-0.51346708865,0.8581092872550052,569.3386523102342,108.1915179553298)"
    fill="none" stroke="#ffa6d5"></use>
  <use xlink:href="#bbburst-shape-11" width="42.29116807601553" opacity="0.31122528553212536"
    transform="matrix(1.2499858524874512,0.005947148999313462,-0.005947148999313462,1.2499858524874512,370.1044864479488,209.0921499502531)"
    fill="none" stroke="#00a19d" filter="url(#bbburst-blur-3)"></use>
  <use xlink:href="#bbburst-shape-11" width="48.45350479016896" opacity="-0.07497150434344624"
    transform="matrix(1.7371295864234026,0.21185089089370815,-0.21185089089370815,1.7371295864234026,787.726414061067,-640.2132945706843)"
    fill="none" stroke="#00a19d" filter="url(#bbburst-blur-4)"></use>
  <use xlink:href="#bbburst-shape-10" width="19.535090357850585" opacity="0.8496187617379848"
    transform="matrix(0.998316038385154,-0.05800937426805741,0.05800937426805741,0.998316038385154,304.9080999406955,28.043679984386586)"
    fill="none" stroke="#ffa6d5"></use>
  <use xlink:href="#bbburst-shape-11" width="18.47467416413788" opacity="0.796409155042973"
    transform="matrix(0.993039849559346,-0.1177788486407958,0.1177788486407958,0.993039849559346,334.3466925063209,-87.5028748640238)"
    fill="none" stroke="#ffbd9b"></use>
  <use xlink:href="#bbburst-shape-8" width="22.5553909818033" opacity="0.7911125936021236"
    transform="matrix(0.9857229214183125,0.1683755391692843,-0.1683755391692843,0.9857229214183125,369.5689411913158,-32.59031012720868)"
    fill="none" stroke="#ffa6d5"></use>
  <use xlink:href="#bbburst-shape-11" width="37.25600375145524" opacity="0.36604777801522403"
    transform="matrix(0.9521152514893886,-0.3057393463087445,0.3057393463087445,0.9521152514893886,65.29743448332033,-184.2804216101667)"
    fill="none" stroke="#2c2891" filter="url(#bbburst-blur-2)"></use>
  <use xlink:href="#bbburst-shape-6" width="27.961560142936403" opacity="0.6022240006817482"
    transform="matrix(0.9798298064166138,0.19983380709374798,-0.19983380709374798,0.9798298064166138,468.7305595678789,184.25635265541285)"
    fill="#00a19d" filter="url(#bbburst-blur-1)"></use>
  <use xlink:href="#bbburst-shape-12" width="42.03787712243105" opacity="-0.07953965822995168"
    transform="matrix(1.561820758599281,-0.789440256136186,0.789440256136186,1.561820758599281,-290.6156919557382,-553.3102863456454)"
    fill="none" stroke="#00a19d" filter="url(#bbburst-blur-4)"></use>
  <use xlink:href="#bbburst-shape-6" width="32.784323631144346" opacity="0.5278664267912989"
    transform="matrix(0.8386884082637489,0.5446115623488168,-0.5446115623488168,0.8386884082637489,439.33973328561444,-78.54599073432348)"
    fill="#ffa6d5" filter="url(#bbburst-blur-2)"></use>
  <use xlink:href="#bbburst-shape-12" width="19.88294869309518" opacity="0.7195564366280126"
    transform="matrix(0.7666344877321455,-0.6420837657344024,0.6420837657344024,0.7666344877321455,261.4338884232358,91.18664628203089)"
    fill="none" stroke="#ffa6d5" filter="url(#bbburst-blur-1)"></use>
  <use xlink:href="#bbburst-shape-10" width="42.21428928693886" opacity="0.30338215595953755"
    transform="matrix(1.1326485845616503,-0.5287789556047879,0.5287789556047879,1.1326485845616503,441.77538182241597,-188.29511105986603)"
    fill="none" stroke="#00a19d" filter="url(#bbburst-blur-3)"></use>
  <use xlink:href="#bbburst-shape-6" width="33.318000208212496" opacity="0.30978642707993853"
    transform="matrix(1.234131397769219,-0.19854393226738004,0.19854393226738004,1.234131397769219,36.82623830431089,-255.2607366139116)"
    fill="#ffa6d5" filter="url(#bbburst-blur-3)"></use>
  <use xlink:href="#bbburst-shape-6" width="29.03473895127243" opacity="0.4170446383439709"
    transform="matrix(0.957046449116421,-0.2899346378645533,0.2899346378645533,0.957046449116421,445.6789972911647,-173.54609240680443)"
    fill="#2c2891" filter="url(#bbburst-blur-2)"></use>
  <use xlink:href="#bbburst-shape-6" width="25.91832238411021" opacity="0.6393612580959203"
    transform="matrix(0.9977969655532902,0.06634165759646218,-0.06634165759646218,0.9977969655532902,565.6953404825472,56.64382198942525)"
    fill="#ffa6d5" filter="url(#bbburst-blur-1)"></use>
  <use xlink:href="#bbburst-shape-12" width="43.35948895152033" opacity="0.0806579385448587"
    transform="matrix(1.7296919896024063,-0.2658300605749266,0.2658300605749266,1.7296919896024063,612.4070774096338,-496.55937212750365)"
    fill="none" stroke="#ff5c58" filter="url(#bbburst-blur-4)"></use>
  <use xlink:href="#bbburst-shape-6" width="24.641842853591797" opacity="0.756557806060355"
    transform="matrix(0.8430227192831401,-0.5378779552765292,0.5378779552765292,0.8430227192831401,65.37650920815864,79.4830724073924)"
    fill="#2c2891" filter="url(#bbburst-blur-1)"></use>
  <use xlink:href="#bbburst-shape-11" width="19.246193721031865" opacity="0.7945199231773931"
    transform="matrix(0.9964575830257617,0.08409688002807908,-0.08409688002807908,0.9964575830257617,371.1358224523913,-75.45419837882736)"
    fill="none" stroke="#ffa6d5"></use>
  <use xlink:href="#bbburst-shape-12" width="52.63584612313128" opacity="0.09977366697213952"
    transform="matrix(1.5663949956581593,0.7803247513548925,-0.7803247513548925,1.5663949956581593,321.8539934745341,-41.772495492022244)"
    fill="none" stroke="#ffa6d5" filter="url(#bbburst-blur-4)"></use>
  <use xlink:href="#bbburst-shape-6" width="35.84884154628766" opacity="0.4870261135037173"
    transform="matrix(0.9820715933233194,0.18850831702446674,-0.18850831702446674,0.9820715933233194,686.1515714323893,37.58563030884443)"
    fill="#2c2891" filter="url(#bbburst-blur-2)"></use>
  <use xlink:href="#bbburst-shape-11" width="44.615029581540476" opacity="0.19625662279701883"
    transform="matrix(1.1900321873767397,-0.3825224085035184,0.3825224085035184,1.1900321873767397,305.1399216695353,283.41116079737424)"
    fill="none" stroke="#ffa6d5" filter="url(#bbburst-blur-3)"></use>
  <use xlink:href="#bbburst-shape-6" width="55.868661482153634" opacity="0.07457147992475865"
    transform="matrix(1.4859698479638115,0.9243341446373209,-0.9243341446373209,1.4859698479638115,378.79113572286707,-446.7505551136993)"
    fill="#ffbd9b" filter="url(#bbburst-blur-4)"></use>
  <use xlink:href="#bbburst-shape-6" width="26.571249951647033" opacity="0.195126982518823"
    transform="matrix(1.2340739756437142,0.19890053453653048,-0.19890053453653048,1.2340739756437142,445.3275716798753,-458.02511674295454)"
    fill="#ffa6d5" filter="url(#bbburst-blur-3)"></use>
  <use xlink:href="#bbburst-shape-6" width="14.467084018158953" opacity="0.8913766823988973"
    transform="matrix(0.9569658324476514,-0.2902006125558206,0.2902006125558206,0.9569658324476514,278.80893297399825,-29.53391017184083)"
    fill="#ff5c58"></use>
  <use xlink:href="#bbburst-shape-3" width="37.60211288004922" opacity="0.22133689940079726"
    transform="matrix(1.1228562718019872,-0.5492665954479132,0.5492665954479132,1.1228562718019872,-191.30424232576473,-45.88023555304943)"
    fill="#ffbd9b" filter="url(#bbburst-blur-3)"></use>
  <use xlink:href="#bbburst-shape-8" width="28.12675010582209" opacity="0.5788500142914229"
    transform="matrix(0.9851297530984432,-0.17181201809012206,0.17181201809012206,0.9851297530984432,403.4678523511814,177.22171262870245)"
    fill="none" stroke="#ffbd9b" filter="url(#bbburst-blur-1)"></use>
  <use xlink:href="#bbburst-shape-3" width="17.07441079375195" opacity="0.6909357871738715"
    transform="matrix(0.9999963838187211,0.0026893027871663926,-0.0026893027871663926,0.9999963838187211,385.44898482369354,-138.92308127479805)"
    fill="#2c2891" filter="url(#bbburst-blur-1)"></use>
  <use xlink:href="#bbburst-shape-12" width="38.280171305068095" opacity="0.32611603085188157"
    transform="matrix(0.9968241285551828,0.7542159218222593,-0.7542159218222593,0.9968241285551828,719.1875626795352,-314.2743040118713)"
    fill="none" stroke="#ffbd9b" filter="url(#bbburst-blur-3)"></use>
  <use xlink:href="#bbburst-shape-6" width="32.63213342091392" opacity="0.6495001349285949"
    transform="matrix(0.7270527463711767,0.6865816076724817,-0.6865816076724817,0.7270527463711767,507.62245440240935,69.57845961795363)"
    fill="#ff5c58" filter="url(#bbburst-blur-1)"></use>
  <use xlink:href="#bbburst-shape-8" width="26.26148432596517" opacity="0.5633946670255339"
    transform="matrix(0.8262309122355946,-0.56333158944474,0.56333158944474,0.8262309122355946,160.59517240262807,-119.54135888863328)"
    fill="none" stroke="#2c2891" filter="url(#bbburst-blur-1)"></use>
  <use xlink:href="#bbburst-shape-3" width="18.060120364826787" opacity="0.8997984660661966"
    transform="matrix(0.9999935626333191,-0.0035881320937523726,0.0035881320937523726,0.9999935626333191,349.44547703708423,-20.73837022422066)"
    fill="#00a19d"></use>
  <use xlink:href="#bbburst-shape-6" width="35.041400693880334" opacity="0.3345013881808281"
    transform="matrix(0.9858116326222157,-0.1678553692519893,0.1678553692519893,0.9858116326222157,177.94814365778933,-257.35469775782747)"
    fill="#ffa6d5" filter="url(#bbburst-blur-2)"></use>
  <use xlink:href="#bbburst-shape-6" width="16.95244055890143" opacity="0.8865048410299401"
    transform="matrix(0.8360102500898826,-0.5487138249986525,0.5487138249986525,0.8360102500898826,219.14007295933607,93.0258727227444)"
    fill="#ffbd9b"></use>
  <use xlink:href="#bbburst-shape-11" width="25.338564775053047" opacity="0.5924082528488359"
    transform="matrix(0.7940906018546018,0.6077994044470563,-0.6077994044470563,0.7940906018546018,707.0395730025818,-93.5178146700986)"
    fill="none" stroke="#ffbd9b" filter="url(#bbburst-blur-1)"></use>
  <use xlink:href="#bbburst-shape-11" width="48.265804388016115" opacity="0.1905128888526998"
    transform="matrix(1.0783732982201584,-0.6321479492063367,0.6321479492063367,1.0783732982201584,381.8548029129162,-270.73775217881683)"
    fill="none" stroke="#ffa6d5" filter="url(#bbburst-blur-3)"></use>
  <use xlink:href="#bbburst-shape-3" width="33.028510028772345" opacity="0.3621469621340657"
    transform="matrix(0.9795389101660881,0.20125487191775615,-0.20125487191775615,0.9795389101660881,192.87265785228064,98.47718276574301)"
    fill="#ffa6d5" filter="url(#bbburst-blur-2)"></use>
  <use xlink:href="#bbburst-shape-12" width="26.36519975424138" opacity="0.7239549985765695"
    transform="matrix(0.9968773014546216,-0.07896610566915116,0.07896610566915116,0.9968773014546216,446.2088186457844,86.86215760772455)"
    fill="none" stroke="#2c2891" filter="url(#bbburst-blur-1)"></use>
  <use xlink:href="#bbburst-shape-12" width="26.231982266334043" opacity="0.5092259100993377"
    transform="matrix(0.7605932492621373,0.6492287032909622,-0.6492287032909622,0.7605932492621373,837.5816362648314,-28.9434162251859)"
    fill="none" stroke="#ffbd9b" filter="url(#bbburst-blur-2)"></use>
  <use xlink:href="#bbburst-shape-11" width="25.254658002643858" opacity="0.8007326262741692"
    transform="matrix(0.7556938112568984,0.654925082454492,-0.654925082454492,0.7556938112568984,727.0802627723966,39.211282697563604)"
    fill="none" stroke="#ffa6d5"></use>
  <use xlink:href="#bbburst-shape-11" width="25.25345158077576" opacity="0.5573073079321105"
    transform="matrix(0.9874398196293775,0.15799557781881848,-0.15799557781881848,0.9874398196293775,255.53233767332688,42.2434983774898)"
    fill="none" stroke="#ff5c58" filter="url(#bbburst-blur-1)"></use>
  <use xlink:href="#bbburst-shape-8" width="27.909529848068367" opacity="0.6746662083131301"
    transform="matrix(0.969031473715523,-0.24693724496058025,0.24693724496058025,0.969031473715523,154.66847350784542,76.94772181757634)"
    fill="none" stroke="#2c2891" filter="url(#bbburst-blur-1)"></use>
  <use xlink:href="#bbburst-shape-10" width="23.541997495293238" opacity="0.9782936560548796"
    transform="matrix(0.9460732372512887,0.3239528202637952,-0.3239528202637952,0.9460732372512887,514.472587910662,26.681117395287174)"
    fill="none" stroke="#ffbd9b"></use>
  <use xlink:href="#bbburst-shape-6" width="24.108167411090317" opacity="0.1713500786916653"
    transform="matrix(1.2221286244723752,0.2624911907955392,-0.2624911907955392,1.2221286244723752,424.29446376424517,274.9952785379085)"
    fill="#ff5c58" filter="url(#bbburst-blur-3)"></use>
  <use xlink:href="#bbburst-shape-12" width="53.32050525995934" opacity="-0.07269685073429577"
    transform="matrix(1.7429704737132967,0.15669692965609025,-0.15669692965609025,1.7429704737132967,69.1664845983258,33.968751557672476)"
    fill="none" stroke="#00a19d" filter="url(#bbburst-blur-4)"></use>
  <use xlink:href="#bbburst-shape-8" width="30.569615078249534" opacity="0.17817907757479012"
    transform="matrix(1.1415691748009704,-0.5092345423714218,0.5092345423714218,1.1415691748009704,-179.3060672144653,43.27124272021922)"
    fill="none" stroke="#ffa6d5" filter="url(#bbburst-blur-3)"></use>
  <use xlink:href="#bbburst-shape-3" width="14.043366406606163" opacity="0.9028938889065481"
    transform="matrix(0.8951558609976109,-0.4457532776341929,0.4457532776341929,0.8951558609976109,251.72161417996207,20.84888849830554)"
    fill="#2c2891"></use>
  <use xlink:href="#bbburst-shape-6" width="30.32396555879714" opacity="0.7423211006450948"
    transform="matrix(0.9997278053057005,0.023330565759267657,-0.023330565759267657,0.9997278053057005,369.32013144342136,113.0160031572201)"
    fill="#ffa6d5" filter="url(#bbburst-blur-1)"></use>
  <use xlink:href="#bbburst-shape-12" width="30.661767900586838" opacity="0.2973930591451356"
    transform="matrix(1.2467188147129515,0.09051075649188388,-0.09051075649188388,1.2467188147129515,715.0735631839931,5.566528288724385)"
    fill="none" stroke="#ffa6d5" filter="url(#bbburst-blur-3)"></use>
  <use xlink:href="#bbburst-shape-6" width="27.750107960404815" opacity="0.15304060477313497"
    transform="matrix(1.0333419037501166,0.7033523369934053,-0.7033523369934053,1.0333419037501166,303.77777540104876,-138.5458929562853)"
    fill="#ffa6d5" filter="url(#bbburst-blur-3)"></use>
  <use xlink:href="#bbburst-shape-8" width="29.301888644679217" opacity="0.41002848237999645"
    transform="matrix(0.7166085389196117,0.6974755923668579,-0.6974755923668579,0.7166085389196117,626.0113539025892,-158.92869757723048)"
    fill="none" stroke="#ff5c58" filter="url(#bbburst-blur-2)"></use>
  <use xlink:href="#bbburst-shape-11" width="42.67826565707654" opacity="0.08887637420753136"
    transform="matrix(1.746626594002537,-0.10860727932830583,0.10860727932830583,1.746626594002537,521.709795725356,59.22404251685748)"
    fill="none" stroke="#ff5c58" filter="url(#bbburst-blur-4)"></use>
  <use xlink:href="#bbburst-shape-11" width="35.05311647748033" opacity="0.5073135513920666"
    transform="matrix(0.9042738332499087,-0.4269529652075462,0.4269529652075462,0.9042738332499087,3.387862053013947,-26.351749059019824)"
    fill="none" stroke="#2c2891" filter="url(#bbburst-blur-2)"></use>
  <use xlink:href="#bbburst-shape-3" width="38.42215199498761" opacity="0.42792065744191576"
    transform="matrix(0.8388142183499884,0.544417768899857,-0.544417768899857,0.8388142183499884,852.0473970200277,-5.342977872017286)"
    fill="#ff5c58" filter="url(#bbburst-blur-2)"></use>
  <use xlink:href="#bbburst-shape-12" width="39.2751427237438" opacity="0.3244377637941007"
    transform="matrix(0.905787609732404,0.8614225479143545,-0.8614225479143545,0.905787609732404,481.5514017869251,200.286909876344)"
    fill="none" stroke="#00a19d" filter="url(#bbburst-blur-3)"></use>
  <use xlink:href="#bbburst-shape-10" width="38.19183873913789" opacity="0.35579843918556364"
    transform="matrix(0.9931250927999017,-0.11705789187913265,0.11705789187913265,0.9931250927999017,487.827046127326,250.82895094354353)"
    fill="none" stroke="#ffa6d5" filter="url(#bbburst-blur-2)"></use>
  <use xlink:href="#bbburst-shape-10" width="36.347948195438605" opacity="0.45975102600496354"
    transform="matrix(0.993127573127206,-0.11703684673839303,0.11703684673839303,0.993127573127206,278.373117934099,241.26849345976342)"
    fill="none" stroke="#ffa6d5" filter="url(#bbburst-blur-2)"></use>
  <use xlink:href="#bbburst-shape-11" width="38.19313648965459" opacity="0.5259665215513354"
    transform="matrix(0.7226218505964934,-0.6912435613012965,0.6912435613012965,0.7226218505964934,-64.01838819452723,248.06297259886583)"
    fill="none" stroke="#ffbd9b" filter="url(#bbburst-blur-2)"></use>
  <use xlink:href="#bbburst-shape-3" width="22.105699478838197" opacity="0.1630376461205808"
    transform="matrix(1.2157635292536888,0.2905495498819696,-0.2905495498819696,1.2157635292536888,871.3884625860209,-12.689329034427374)"
    fill="#2c2891" filter="url(#bbburst-blur-3)"></use>
  <use xlink:href="#bbburst-shape-8" width="26.19745434988954" opacity="0.6283292752913099"
    transform="matrix(0.8151820523341592,-0.5792048183089192,0.5792048183089192,0.8151820523341592,269.2049175460134,-43.09129415047937)"
    fill="none" stroke="#ffbd9b" filter="url(#bbburst-blur-1)"></use>
  <use xlink:href="#bbburst-shape-3" width="22.505446915177426" opacity="0.7306269810470258"
    transform="matrix(0.9876370322860062,-0.15675806983147772,0.15675806983147772,0.9876370322860062,242.67625773130302,94.66874262903593)"
    fill="#00a19d" filter="url(#bbburst-blur-1)"></use>
  <use xlink:href="#bbburst-shape-6" width="32.041482173320674" opacity="0.5316024977718112"
    transform="matrix(0.8395979294772069,-0.5432083548856618,0.5432083548856618,0.8395979294772069,322.28863660008955,217.8181020515915)"
    fill="#ffbd9b" filter="url(#bbburst-blur-2)"></use>
  <use xlink:href="#bbburst-shape-8" width="33.38991250617817" opacity="0.1868366143608946"
    transform="matrix(1.2498683100720163,-0.018144075554354964,0.018144075554354964,1.2498683100720163,261.02002147786095,-448.37210232622044)"
    fill="none" stroke="#00a19d" filter="url(#bbburst-blur-3)"></use>
  <use xlink:href="#bbburst-shape-10" width="38.02685942458421" opacity="0.16500602430249067"
    transform="matrix(0.9984155021883067,0.7521080274734949,-0.7521080274734949,0.9984155021883067,428.20542206239304,-290.8764653965782)"
    fill="none" stroke="#2c2891" filter="url(#bbburst-blur-3)"></use>
  <use xlink:href="#bbburst-shape-10" width="30.781548519851462" opacity="0.0516283786186994"
    transform="matrix(1.7499858664928976,-0.007033283379932589,0.007033283379932589,1.7499858664928976,143.0750312154466,61.38996910633341)"
    fill="none" stroke="#ff5c58" filter="url(#bbburst-blur-4)"></use>
  <use xlink:href="#bbburst-shape-11" width="21.69615953400683" opacity="0.6605282697033319"
    transform="matrix(0.8701216112032877,-0.492837074211138,0.492837074211138,0.8701216112032877,120.29932755020556,-77.14295137090039)"
    fill="none" stroke="#ffbd9b" filter="url(#bbburst-blur-1)"></use>
  <use xlink:href="#bbburst-shape-12" width="41.18048364858413" opacity="0.06392029415271461"
    transform="matrix(1.490202680010037,-0.9174943991605091,0.9174943991605091,1.490202680010037,229.3936660573017,-532.0478228029948)"
    fill="none" stroke="#ffbd9b" filter="url(#bbburst-blur-4)"></use>
  <use xlink:href="#bbburst-shape-8" width="27.889510696322695" opacity="0.4567898552341424"
    transform="matrix(0.962772796389111,-0.27031193560975364,0.27031193560975364,0.962772796389111,494.2647973648939,133.45119466060373)"
    fill="none" stroke="#2c2891" filter="url(#bbburst-blur-2)"></use>
  <use xlink:href="#bbburst-shape-12" width="25.522903293458548" opacity="0.6779919959582615"
    transform="matrix(0.9410492892281362,-0.3382694713438083,0.3382694713438083,0.9410492892281362,135.84292251227438,-57.87329691052912)"
    fill="none" stroke="#00a19d" filter="url(#bbburst-blur-1)"></use>
  <use xlink:href="#bbburst-shape-12" width="38.00120265311525" opacity="0.29744371894157995"
    transform="matrix(1.1527875872446907,-0.4833019539527689,0.4833019539527689,1.1527875872446907,500.89250539125294,-52.21973978930839)"
    fill="none" stroke="#2c2891" filter="url(#bbburst-blur-3)"></use>
  <use xlink:href="#bbburst-shape-12" width="30.19068345071367" opacity="0.7296976554141532"
    transform="matrix(0.7425363667799246,-0.6698057509526693,0.6698057509526693,0.7425363667799246,159.1378922840297,228.5027767496892)"
    fill="none" stroke="#ffbd9b" filter="url(#bbburst-blur-1)"></use>
  <use xlink:href="#bbburst-shape-6" width="30.61229360025351" opacity="0.6038627531660671"
    transform="matrix(0.838216127696145,0.5453381733109098,-0.5453381733109098,0.838216127696145,517.4871634768106,211.49658366097214)"
    fill="#00a19d" filter="url(#bbburst-blur-1)"></use>
  <use xlink:href="#bbburst-shape-6" width="38.659029139152004" opacity="0.327935567438009"
    transform="matrix(1.1769791510694423,0.42097515122374507,-0.42097515122374507,1.1769791510694423,255.67316459124825,-164.85187132862325)"
    fill="#2c2891" filter="url(#bbburst-blur-3)"></use>
  <use xlink:href="#bbburst-shape-10" width="34.6157444354817" opacity="0.4313342838345108"
    transform="matrix(0.7337798557136479,0.6793873146805569,-0.6793873146805569,0.7337798557136479,718.8174530277429,343.5525812503432)"
    fill="none" stroke="#00a19d" filter="url(#bbburst-blur-2)"></use>
  <use xlink:href="#bbburst-shape-3" width="36.411427261810545" opacity="0.4505693308477835"
    transform="matrix(0.8428236661738086,-0.5381898064227346,0.5381898064227346,0.8428236661738086,247.33869231813694,-161.8490569018582)"
    fill="#00a19d" filter="url(#bbburst-blur-2)"></use>
</svg>