<svg xmlns="http://www.w3.org/2000/svg" viewBox="0 0 1087.05 1072.49"><defs><style>.cls-1{fill:#e7eaf5;}.cls-2{fill:#94c384;}.cls-3{fill:#78b066;}.cls-4{fill:#5b8b77;}.cls-5{fill:#364d4d;}.cls-6{fill:#b4bfd3;}.cls-7{fill:#3c455d;}.cls-8{fill:#fff;}.cls-9{fill:#312b65;}.cls-10{fill:#1f253f;}.cls-11{fill:#e19b84;}.cls-12{fill:#a94151;}.cls-13{fill:#d8796e;}.cls-14{fill:#273045;}.cls-15{fill:#5f73b3;}.cls-16{fill:#8b9bc3;}.cls-17{fill:#5e6aa0;}.cls-18{fill:#e7ac65;}</style></defs><g id="OBJECTS"><rect class="cls-1" x="83.06" y="612.18" width="21.44" height="209.63"/><rect class="cls-1" x="172.91" y="612.18" width="21.44" height="209.63"/><rect class="cls-1" x="262.76" y="612.18" width="21.44" height="209.63"/><rect class="cls-1" x="352.6" y="612.18" width="21.44" height="209.63"/><rect class="cls-1" x="442.45" y="612.18" width="21.44" height="209.63"/><rect class="cls-1" x="528.13" y="612.18" width="21.44" height="209.63"/><rect class="cls-1" x="622.14" y="612.18" width="21.44" height="209.63"/><rect class="cls-1" x="711.99" y="612.18" width="21.44" height="209.63"/><rect class="cls-1" x="801.83" y="612.18" width="21.44" height="209.63"/><rect class="cls-1" x="891.68" y="612.18" width="21.44" height="209.63"/><rect class="cls-1" x="981.53" y="612.18" width="21.44" height="209.63"/><rect class="cls-1" x="83.06" y="601.18" width="919.9" height="18.44" rx="4"/><path class="cls-2" d="M596.91,568.7a36.68,36.68,0,0,1-34.4-21.34c-11.28-23.22-16-37.15-10-35.69s24.24,5.87,34.94,20.19S596.91,568.7,596.91,568.7Z"/><path class="cls-3" d="M606.64,622c-.2-2.85-5-48.79-15-59s-14.17-5.5-15,0-1.58-4.72-18.1-12.32-27.55.52-23.35,5.24,9.18,8.92,3.41,9.71S503,579,497.19,588.15s1.05,16,8.13,16,8.66-1.58,3,4.2-22.69,48.09-3.28,45.94,40.92-29.16,45.77-32.57,11.42-1.29,7.22,4.74S555.17,639,563.56,633s21-17,28.85-14.42,14.51,11.88,14.51,11.88Zm-84.79-1.83S522.64,605.2,535,606,520,631.17,521.85,620.15Zm34.36-41.45c-2.82,16.25-47.21,15-32.79,2.63C523.42,581.33,559,562.46,556.21,578.7ZM567,606s10.23-12.82,17-3.11S560.41,616.42,567,606Z"/><path class="cls-4" d="M633.6,501.06c-3.41,14.42-4.72-1.31-3.4-14.11s-24.41,10.44-23.28,30.63.18,22-6.11,8.92-9.44-1-12.86,17.91S600.81,601,600.81,601l5.48,17.63s36.27-22,45.15-30.43,8.91-18.89-3.68-16,11.81-13.87,23.61-51.12S637,486.63,633.6,501.06ZM606.92,566s-4.54-31.36,7.79-35.55S605.69,586.32,606.92,566Zm11.64,27.93s8.36-25.45,11.83-19.41S620.31,604.67,618.56,593.92Zm9.53-60.51s-4.16-16.35,2.11-18.45S633.86,546.87,628.09,533.41Z"/><path class="cls-4" d="M594.39,647.05s-13.2-10.46-28.35-7.66-29.85,14.34-21.46,17.48,8,5.25-2.44,10.15S520.6,695.6,530,694.77s-2.18,8.18-6.72,19.94,6,17.71,18.54,4.07,20.43-23.08,14.58-9.79,8.5,17.49,15.85-3.85,9.09-36,9.09-28,.7,14,7.34,7.35S600.81,653.32,594.39,647.05Zm-55,34.48c.44-1.14,11-16.26,12.77-10S535.66,691,539.34,681.53Zm20.15-31.48s14.47-8.91,10.63,1.4S555.17,656.52,559.49,650.05Zm-.74,42c-3.68-6.47,11.89-14.52,11.89-14.52C584.19,677.33,562.44,698.49,558.75,692Z"/><path class="cls-5" d="M665.33,596.6c-.49-.26-12.4-6.24-33.34,13.73a66.12,66.12,0,0,0-18.21,32.17A58,58,0,0,0,612,658c-.74-6.42-1.58-12.93-2.57-19.25-.51-4-4.62-38.86,6.21-60.81,11.42-23.13,27-29.41,27.16-29.47a.52.52,0,1,0-.38-1c-.16.06-16.11,6.45-27.72,30-5.55,11.25-7.23,25.8-7.47,38-1.19-13.53-3.77-32.83-9.29-47.07-9.41-24.27-33.07-36.29-33.31-36.41a.53.53,0,0,0-.47.94c.24.12,23.54,12,32.8,35.85,6.89,17.78,9.17,43.55,9.89,55.86-3.47-16.27-8.41-29.56-15.95-34.24-15.32-9.5-38.4,5.15-39.38,5.78a.54.54,0,0,0-.16.73.53.53,0,0,0,.73.15c.23-.15,23.51-14.92,38.26-5.76,8.28,5.13,13.36,21.27,16.81,40.29v.1a.54.54,0,0,0,0,.22q.6,3.31,1.14,6.74c.05.4.08.63.08.65l0,.1c1.44,9.26,2.55,18.92,3.51,28.13-2.16-6.13-6.58-16.07-13.58-20a12.23,12.23,0,0,0-10-1c-16.79,5.24-36.2,39.19-37,40.63a.52.52,0,0,0,.2.72.47.47,0,0,0,.25.07.53.53,0,0,0,.46-.27c.2-.35,20-35,36.43-40.15a11.27,11.27,0,0,1,9.2,1c9.69,5.44,14.46,23.74,14.64,24.42.22,2.26.45,4.49.66,6.66,3.24,32.72.05,46.43,0,46.56a.54.54,0,0,0,.39.64h.12a.52.52,0,0,0,.51-.4c0-.14,3.27-14,0-46.92-.59-6-1.22-12.37-1.95-18.87a2.65,2.65,0,0,0,.34.92.52.52,0,0,0,.42.22.51.51,0,0,0,.31-.11.52.52,0,0,0,.12-.73c-1.23-1.68-1.36-30,19.3-49.67,20.32-19.39,32-13.62,32.12-13.56a.53.53,0,0,0,.49-.93Z"/><path class="cls-6" d="M559.58,703.32l23,115.11a4.19,4.19,0,0,0,4.12,3.38h74.13a4.2,4.2,0,0,0,4.15-3.52L683.7,703.17a4.2,4.2,0,0,0-4.15-4.87H563.69A4.2,4.2,0,0,0,559.58,703.32Z"/><path class="cls-6" d="M948.72,246.81V814.07a7.75,7.75,0,0,1-7.74,7.74H663.73a7.75,7.75,0,0,1-7.74-7.74v-11a7.7,7.7,0,0,0,5,1.84H916.85a7.74,7.74,0,0,0,7.75-7.74V269.63a7.75,7.75,0,0,0-7.75-7.75H661a7.7,7.7,0,0,0-5,1.84V246.81a7.75,7.75,0,0,1,7.74-7.75H941A7.75,7.75,0,0,1,948.72,246.81Z"/><path class="cls-7" d="M927.55,239.06H650.3a7.74,7.74,0,0,0-7.74,7.75V814.07a7.74,7.74,0,0,0,7.74,7.74H927.55a7.75,7.75,0,0,0,7.74-7.74V246.81A7.75,7.75,0,0,0,927.55,239.06ZM924.6,797.19a7.74,7.74,0,0,1-7.75,7.74H661a7.7,7.7,0,0,1-5-1.84V263.72a7.7,7.7,0,0,1,5-1.84H916.85a7.75,7.75,0,0,1,7.75,7.75Z"/><path class="cls-8" d="M924.6,269.63V797.19a7.74,7.74,0,0,1-7.75,7.74H661a7.7,7.7,0,0,1-5-1.84V263.72a7.7,7.7,0,0,1,5-1.84H916.85A7.75,7.75,0,0,1,924.6,269.63Z"/><path class="cls-6" d="M820.35,252.9H747.8a2.1,2.1,0,0,1-2.1-2.09h0a2.1,2.1,0,0,1,2.1-2.1h72.55a2.1,2.1,0,0,1,2.1,2.1h0A2.1,2.1,0,0,1,820.35,252.9Z"/><path class="cls-6" d="M666.55,261.88V804.93H661a7.7,7.7,0,0,1-5-1.84V263.72a7.7,7.7,0,0,1,5-1.84Z"/><path class="cls-1" d="M789.11,372.26H684a3.87,3.87,0,0,0-3.87,3.87V504.79a3.87,3.87,0,0,0,3.87,3.87H789.11a3.88,3.88,0,0,0,3.88-3.87V376.13A3.88,3.88,0,0,0,789.11,372.26Zm-1.76,125.19a3.87,3.87,0,0,1-3.87,3.87H689.6a3.87,3.87,0,0,1-3.87-3.87v-114a3.87,3.87,0,0,1,3.87-3.87h93.88a3.87,3.87,0,0,1,3.87,3.87Z"/><rect class="cls-1" x="696.35" y="396.13" width="16.26" height="16.26" rx="4"/><path class="cls-1" d="M771.55,402.16H724.16a1.57,1.57,0,0,1-1.57-1.57h0a1.57,1.57,0,0,1,1.57-1.57h47.39a1.57,1.57,0,0,1,1.58,1.57h0A1.57,1.57,0,0,1,771.55,402.16Z"/><path class="cls-1" d="M747.24,410.67H724.16a1.57,1.57,0,0,1-1.57-1.58h0a1.57,1.57,0,0,1,1.57-1.57h23.08a1.58,1.58,0,0,1,1.58,1.57h0A1.58,1.58,0,0,1,747.24,410.67Z"/><rect class="cls-1" x="696.35" y="426.45" width="16.26" height="16.26" rx="4"/><path class="cls-1" d="M771.55,432.48H724.16a1.57,1.57,0,0,1-1.57-1.57h0a1.57,1.57,0,0,1,1.57-1.58h47.39a1.58,1.58,0,0,1,1.58,1.58h0A1.57,1.57,0,0,1,771.55,432.48Z"/><path class="cls-1" d="M747.24,441H724.16a1.57,1.57,0,0,1-1.57-1.58h0a1.57,1.57,0,0,1,1.57-1.57h23.08a1.57,1.57,0,0,1,1.58,1.57h0A1.58,1.58,0,0,1,747.24,441Z"/><rect class="cls-1" x="696.35" y="456.77" width="16.26" height="16.26" rx="4"/><path class="cls-1" d="M771.55,462.8H724.16a1.57,1.57,0,0,1-1.57-1.58h0a1.57,1.57,0,0,1,1.57-1.57h47.39a1.58,1.58,0,0,1,1.58,1.57h0A1.58,1.58,0,0,1,771.55,462.8Z"/><path class="cls-1" d="M747.24,471.3H724.16a1.57,1.57,0,0,1-1.57-1.57h0a1.57,1.57,0,0,1,1.57-1.57h23.08a1.57,1.57,0,0,1,1.58,1.57h0A1.57,1.57,0,0,1,747.24,471.3Z"/><path class="cls-1" d="M740,367.14h-8.92a5,5,0,0,1-5-5h0a5,5,0,0,1,5-5H740a5,5,0,0,1,5,5h0A5,5,0,0,1,740,367.14Z"/><rect class="cls-6" x="707.63" y="362.29" width="57.45" height="17.31" rx="7"/><polygon class="cls-1" points="125.27 509.63 219.66 509.63 270.72 643.97 172.44 654.78 125.27 509.63"/><path class="cls-9" d="M289.83,545.86c-.39,0-.76,0-1.14,0a18,18,0,0,1-14.58-8.36c-2.51-3.82-3.95-8.31-5.35-12.66-.39-1.24-.8-2.52-1.23-3.73a.79.79,0,0,1,.49-1,.78.78,0,0,1,1,.48c.43,1.24.84,2.53,1.24,3.77,1.36,4.25,2.77,8.64,5.16,12.27a16.45,16.45,0,0,0,13.35,7.66c9.41.49,19.47-5.53,24.54-11.72,9.73-11.91,14.48-27.45,18.87-43.66a.78.78,0,0,1,1-.55.8.8,0,0,1,.56,1c-4.44,16.38-9.25,32.09-19.18,44.23C308.49,540.91,298.49,545.86,289.83,545.86Z"/><path class="cls-9" d="M270.72,498.7S270,529.91,284,534.81s32.05-8.74,35.79-22.38S270.72,498.7,270.72,498.7Z"/><path class="cls-10" d="M377.89,516.12c-14.08-3.93-32.25-21.68-26.56-47.3,2.3-10.33-.48-19.48-7.8-25.79-9.48-8.14-24.95-9.79-39.42-4.19-10.54,4.07-19.8,3.86-26.78-.61a21.46,21.46,0,0,1-7.47-8.1.53.53,0,0,0-.7-.26l-.05,0c-5.55-8.73-4.44-16.23-1.53-30.19,3.84-18.45-3.25-40-23.31-41.63a41.56,41.56,0,0,0-35.63-5.77c-7.22,2.11-13.49,7.66-18.39,14.89a.53.53,0,0,0-.61,0c-.2.15-19.82,15.6-19.47,45.56C170.35,428.54,180,438,188,443.18a59.37,59.37,0,0,0,17.54,7.5h.06a49.66,49.66,0,0,0,18,8.13c18.89,3.94,55.09.37,50.89,27S292.41,525,313.4,515.92c14.13-6.12,19.38-17,19.75-30.2,3.7-6,10.29-19.93.42-31.15-8-9.05-25.45-11.64-37.86-12.28a45.11,45.11,0,0,0,8.78-2.48c14.12-5.45,29.17-3.88,38.35,4,7,6,9.67,14.83,7.47,24.76-5.84,26.28,12.84,44.5,27.3,48.54l.14,0a.54.54,0,0,0,.51-.39A.52.52,0,0,0,377.89,516.12ZM188.6,442.3c-11.39-7.32-17.24-17.25-17.38-29.53-.29-24.84,13.36-39.51,17.73-43.56-8.26,13.38-12.09,31.59-9.16,44.76,3,13.54,12.3,26.43,23.54,35A59.68,59.68,0,0,1,188.6,442.3Zm88.3-3.11a22.8,22.8,0,0,0,7.29,3c-1.21,0-2,.08-2.17.1a.51.51,0,0,0-.43.28A20.62,20.62,0,0,1,276.9,439.19Zm55.88,16.08c8.67,9.84,4,22,.39,28.35a86.84,86.84,0,0,0-2.46-18.41c-4.41-19.15-31.66-14.53-47.67-21.94C289,443,321.46,442.4,332.78,455.27Z"/><path class="cls-11" d="M404.94,470.9a15.1,15.1,0,0,1-4.32,10.43,32.83,32.83,0,0,1-5,4.48,17.76,17.76,0,0,1-9.45,3.15c-.78-.63-1.63-.65-3.31-.6a13.46,13.46,0,0,0-2.25.37,19.45,19.45,0,0,1-2.3-.43s0,.38,0,1.07c-5.74,1.73-14.56,5.46-18.24,9.33-5,5.24-47.48,30.69-53,34.36s-12.59,4.19-14.69,3.67-19.15-16.87-22-24.3S258,451,265.3,455.15c0,0,8.66,7.08,11.55,12.59s21.77,40.14,23.87,40.14c1.49,0,8.81-3.85,17.45-9.18h.05c1.41-.67,31.65-14.92,36.06-17.13s18.72-7.42,23.15-7.74c3.46-.25,5.7-4.52,8.23-7.31a8.81,8.81,0,0,1,2.18-1.85c3.56-2,3.55-1.82,3.77,1.41s5.26-.64,9.47-1.29S404.94,466.06,404.94,470.9Z"/><path class="cls-11" d="M256.41,431.45c-.46,3.66-3.24,6.5-5.91,8.5-2.33,1.73-4.57,2.81-5.13,3.22h0a29.25,29.25,0,0,1-3.69.87,32.66,32.66,0,0,1-11.64,0,29.56,29.56,0,0,1-3.36-.91A34.58,34.58,0,0,1,215.94,437a6.64,6.64,0,0,0-1.18-2.42c-1.75-2.27-1.39-7-1.57-8.56s-.52-2.1-4.2-3.33-8-8.57-4.19-14.34,8.39-.87,8.39-.87a90,90,0,0,0,22.56-8.92c10.31-6.12,14.17-19.59,14.17-19.59s5.77,13.3,6.65,18.89-1.41,10.84-1.76,13.82S257.26,424.63,256.41,431.45Z"/><path class="cls-10" d="M230,409.7c0,1.7-.85,3.08-1.9,3.08s-1.91-1.38-1.91-3.08.85-3.08,1.91-3.08S230,408,230,409.7Z"/><ellipse class="cls-10" cx="248.19" cy="408.19" rx="1.91" ry="3.08"/><path class="cls-12" d="M241.24,422.69a.52.52,0,0,1-.36-.91,10.55,10.55,0,0,0,2.34-2.72,9.15,9.15,0,0,0-1.34-1.23,15.27,15.27,0,0,1-2.37-2.23c-1.36-1.75.9-4.54,1-4.66a.52.52,0,0,1,.74-.07.51.51,0,0,1,.07.73c-.47.59-1.67,2.45-1,3.36a15.09,15.09,0,0,0,2.2,2.06,6.13,6.13,0,0,1,1.67,1.65c.32.71-.56,2-2.62,3.88A.49.49,0,0,1,241.24,422.69Z"/><path class="cls-12" d="M237.1,432.92a.49.49,0,0,1-.3-.1.52.52,0,0,1-.12-.73,12.49,12.49,0,0,1,4.79-3.72,4.51,4.51,0,0,1,3.31-.43,1.41,1.41,0,0,1,.81.71.53.53,0,0,1-.28.69.53.53,0,0,1-.69-.28c-.11-.18-.84-.54-2.74.28a11.64,11.64,0,0,0-4.35,3.36A.5.5,0,0,1,237.1,432.92Z"/><path class="cls-10" d="M246.76,401.62a3.9,3.9,0,0,1,3.62.26c.86.53,1.66-.83.79-1.36a5.42,5.42,0,0,0-4.83-.42c-.93.37-.52,1.9.42,1.52Z"/><path class="cls-10" d="M223.6,405.83a4.88,4.88,0,0,1,3.55-2.26c1-.15.57-1.66-.42-1.52a6.37,6.37,0,0,0-4.49,3c-.54.86.82,1.65,1.36.8Z"/><path class="cls-13" d="M244.84,484.27c-7.69,4.2-4.37-.7-23.78-8.57s-17-20.81-11.37-21.34,5.95-9.79,6.3-12.23a13.13,13.13,0,0,0-.05-5.11,30.27,30.27,0,0,0,29.42,6.16c-1.22.89-1.73,4.38-.34,7.86s6.79,1.85,6.79,1.85,4.22,7.94,4.57,14.24S252.54,480.07,244.84,484.27Z"/><path class="cls-13" d="M379.67,734.26s-7.17,31-2.27,39.78-.09,13.21,6.73,20.29,5.25,16.26,12.07,18.89,8.18,5.24,4.88,6.55-32.42,5.78-36.1-5,.79-15.21-4.72-22.82-11.54-13.9-6-23.35,7.34-13.64,6.82-25.44S379.67,734.26,379.67,734.26Z"/><path class="cls-11" d="M441.58,760.49s14.17,23.64,17.58,34.08-.53,21.72,9.18,26.39,13.38-11.54,24.66-9.89,36.2-5,40.39-11.27,1.58-7.68-1.31-8.24-5.51,2.19-8.13,2.74-21.51-1.35-27-2.74-15.74-3.31-19.41-7.71S461,749,461,749Z"/><path class="cls-14" d="M281.83,561.51s18.89,4.1,26.76,2.78,66.36-8.93,75.54-4.21,15,7.7,16.79,14.61S387.79,667.94,385.31,697s-2,45.88-4.06,46.41-21,9.44-23.09,0-6.82-59.38-5.77-90.29,4.72-41.39,1.05-41.92-102.83-8.39-111.75-32.53S253.24,553.24,281.83,561.51Z"/><path class="cls-7" d="M196.91,574.68s-1.38,44.77,15.06,60.86,142.7,2.45,150.39,11.89.35,10.14,19.24,43.37S439,765.3,444.55,765s21-7,19.94-15S416.22,656.52,405.38,638s-20.63-38.83-28-44.42S292.74,579,287.49,576.9s-34.27-2.77-38.81-9.14S198.65,563.84,196.91,574.68Z"/><path class="cls-11" d="M380.57,488.73c-.69.17-1.48.38-2.33.64,0-.69,0-1.07,0-1.07A19.45,19.45,0,0,0,380.57,488.73Z"/><path class="cls-15" d="M186.35,460.92s18.62-10,23.34-6.56,23.35,20.47,35.94,19.15-.33-21.42,2.54-21.42,16.35,1.75,17.13,3.06S282.35,482.44,280,498.7s-7.87,28.59-6.82,38,6.3,18.89,8.4,22-3.15,7.6-6.82,8.13-30.43.79-39.09,1.31-40.2,8.92-40.95,5.77.65-32-2.15-42.23S181,463.56,186.35,460.92Z"/><path class="cls-11" d="M378.27,488.3a19.45,19.45,0,0,0,2.3.43c-.69.17-1.48.38-2.33.64C378.26,488.68,378.27,488.3,378.27,488.3Z"/><path class="cls-12" d="M229.25,457.19c-7.91-8.23-13.15-19.32-13.15-19.32l-.16-.85a33.62,33.62,0,0,0,14.09,7,32.66,32.66,0,0,0,11.64,0l1.94.52s3.22,17.3,5.07,21S237.15,465.42,229.25,457.19Z"/><path class="cls-13" d="M250.9,437a23.58,23.58,0,0,1-.4,2.93c-2.33,1.73-4.57,2.81-5.13,3.22h0a29.25,29.25,0,0,1-3.69.87,32.66,32.66,0,0,1-11.64,0,29.56,29.56,0,0,1-3.36-.91c.08-.49,1.56-9.41,5.73-10.22S251,434.3,250.9,437Z"/><path class="cls-11" d="M247.73,444.13c-.53,5.25-2.62,2.1-4.2,5.78s-2.1,6.82-4.72,24.65-16.26,71.88-18.89,77.12-6.29,5.78-11.54,5.78-13.64-.53-22-8.92-23.61-35.68-22-56.66,22-31,22-31c5.83,5.84,7.53,21,8,32.83v.08c0,.3,0,.59,0,.88,0,.13,0,.26,0,.38s0,.38,0,.54c.24,7,.09,12.4.24,13.41v0a.86.86,0,0,0,0,.13c.52,1.05,7.87,17.31,9.44,17.84s1.58-5.77,7.35-18.37,10.49-28.85,11.54-31.47,0-7.87,2.62-14.69-3.14-22.56.53-24.66,20.46-3.15,23.61,0S248.25,438.89,247.73,444.13Z"/><path class="cls-13" d="M194.71,509c-.32-1.38-2.77-12.14-4.08-19-1.36-7.14,3.91,11.12,3.84,5.59C194.71,502.59,194.56,508,194.71,509Z"/><path class="cls-6" d="M106.05,538.19l34.64,138.06c2.63,10.48,12.41,17.87,23.64,17.87H353.11c13.43,0,24.32-10.45,24.32-23.34h0c0-12.9-10.89-23.35-24.32-23.35H207.65c-11.49,0-21.42-7.72-23.79-18.52L161.39,526.76c-2.66-12.08-14.66-20.08-27.38-18.26l-7.91,1.13C112,511.65,102.7,524.86,106.05,538.19Z"/><path class="cls-16" d="M187.66,694.12,181.46,717l-27.8,102.53a3.15,3.15,0,0,1-3,2.32h-7.47a3.16,3.16,0,0,1-3.11-3.7L157.94,717l4-22.84Z"/><path class="cls-16" d="M378.24,821.81h-7.48a3.15,3.15,0,0,1-3-2.32L339.92,717l-6.19-22.84H359.4l4,22.84,17.9,101.15A3.15,3.15,0,0,1,378.24,821.81Z"/><polygon class="cls-17" points="161.98 694.13 187.66 694.13 181.47 716.96 157.94 716.96 161.98 694.13"/><polygon class="cls-17" points="363.44 716.96 339.92 716.96 333.73 694.13 359.4 694.13 363.44 716.96"/><path class="cls-16" d="M191.34,658.67v9.71a5.8,5.8,0,0,0,5.8,5.8H357.51a5.81,5.81,0,0,0,5.81-5.8V650Z"/><path class="cls-1" d="M363.18,630.28V648a10.65,10.65,0,0,1-10.65,10.65H188.34A10.65,10.65,0,0,1,177.69,648V630.28a10.64,10.64,0,0,1,10.65-10.65H352.53a10.64,10.64,0,0,1,10.65,10.65Z"/><path class="cls-8" d="M362.86,627.68a2.89,2.89,0,0,1-2.59,1.57H180.59a2.89,2.89,0,0,1-2.58-1.57,10.64,10.64,0,0,1,10.33-8H352.53A10.64,10.64,0,0,1,362.86,627.68Z"/><path class="cls-6" d="M1003.92,833H83.14a5.59,5.59,0,0,1-5.59-5.59h0a5.58,5.58,0,0,1,5.59-5.58h920.78a5.58,5.58,0,0,1,5.58,5.58h0A5.58,5.58,0,0,1,1003.92,833Z"/><path class="cls-6" d="M606.7,857.11H218.27a5.58,5.58,0,0,1-5.58-5.58h0a5.58,5.58,0,0,1,5.58-5.59H606.7a5.59,5.59,0,0,1,5.59,5.59h0A5.58,5.58,0,0,1,606.7,857.11Z"/><path class="cls-6" d="M837.69,857.11H649.06a5.58,5.58,0,0,1-5.59-5.58h0a5.59,5.59,0,0,1,5.59-5.59H837.69a5.58,5.58,0,0,1,5.58,5.59h0A5.58,5.58,0,0,1,837.69,857.11Z"/><path class="cls-10" d="M796,345.39s-8.68-7.43-10.72,19.28C784.05,381.21,794,399,794,399Z"/><path class="cls-10" d="M905.27,454.47c9.5-18,3.39-23.75-10.86-29.85s-8.14-11.2-3.39-26.43c3.11-10-.9-13.87-7.18-15.34-.54-4.6-1.9-9.89-5.13-13.58a13.17,13.17,0,0,0-10-4.53,19.46,19.46,0,0,1-9.72-3.13,131.47,131.47,0,0,0-7.69-19.44c-10.51-20.69-35-10.17-35-10.17s-15-.83-24.18,10.71c-3.92,5-1.8,3.51-2.42,7.25-3.7,8.32-8.81,22.3-8.79,36,0,9.63,2,16.58,4.26,21.36-1.86,6.79-3.47,12.89-3.72,17.28-.67,12.22,9.87,20.9,9.87,20.9s21.45,11.29,34,4.54,22.91.48,46,21.32c22.19,20.08,24.38,2.47,33-14.92a28.86,28.86,0,0,1,.59,8.48c-2,21.37-18.93,32.21-19.1,32.32l.54.86c.17-.11,17.54-11.2,19.57-33.08a30.47,30.47,0,0,0-.87-10C905.09,454.83,905.18,454.65,905.27,454.47ZM781.91,386c0-12.13,4-24.48,7.5-32.84,0,4.21,1,9.18,1.89,16.85,1.27,10.4-2.47,24-5.71,35.74A49.87,49.87,0,0,1,781.91,386ZM872.7,382c-7.17.11-9.61-7.79-13.2-18.91a20.1,20.1,0,0,0,9.2,2.62,12.26,12.26,0,0,1,9.25,4.19c3,3.38,4.26,8.3,4.81,12.69A52.88,52.88,0,0,0,872.7,382Z"/><path class="cls-11" d="M798.06,362.36s-2.72,10.18-1.87,15.27,2,7.46.85,12.38,1.87,11.88,4.58,17.64,3,9,4.92,9.33a28.49,28.49,0,0,1,4.41,1.36s2.55,7.12-3.31,9.84-15.3,8.14-3.88,19.51,15.5,18.41,25,11.24S840,455.32,841,448.54s1.52-23.92,1.52-23.92-4.58.51-5.59-2.72-1.7-9.16-.85-11.36,2.2-7.47,2.2-7.47a12.13,12.13,0,0,0,6.64-6.27c1.84-4.58,1.34-7.47-.87-10s-6.79.17-6.79.17-7.36-4.41-11.4-9.33-16.42-22.05-16.42-22.05S803,361.85,798.06,362.36Z"/><path class="cls-12" d="M809.74,417.89s3.59,2.77,9,0,14.08-8,14.08-8S821.3,428,818.58,431.23,812,418.59,809.74,417.89Z"/><path class="cls-12" d="M804.9,400.87a.46.46,0,0,1-.29-.1c-.08,0-1.88-1.36-2.78-2.2s.14-2,1.11-3.23a7.76,7.76,0,0,0,1.35-2,3.09,3.09,0,0,0-.37-2.37.51.51,0,0,1,.13-.71.5.5,0,0,1,.7.13,4,4,0,0,1,.52,3.23,7.94,7.94,0,0,1-1.54,2.35c-.45.55-1.28,1.56-1.21,1.85.86.79,2.67,2.1,2.68,2.12a.51.51,0,0,1-.3.92Z"/><path class="cls-12" d="M808.32,408.5a5,5,0,0,1-3.81-1.52.52.52,0,0,1,.07-.72.53.53,0,0,1,.72.07c.06.08,1.53,1.77,4.76.92a8.37,8.37,0,0,0,4.73-2.9.5.5,0,0,1,.7-.16.52.52,0,0,1,.15.71,9.18,9.18,0,0,1-5.32,3.33A7.62,7.62,0,0,1,808.32,408.5Z"/><path class="cls-10" d="M815.15,384.62c0,1.42-.64,2.57-1.43,2.57s-1.43-1.15-1.43-2.57.64-2.58,1.43-2.58S815.15,383.19,815.15,384.62Z"/><path class="cls-10" d="M801.22,384.62c0,1.42-.51,2.57-1.15,2.57s-1.14-1.15-1.14-2.57.51-2.58,1.14-2.58S801.22,383.19,801.22,384.62Z"/><path class="cls-10" d="M798.92,378.67c.22-.58,1-.82,1.5-1a.78.78,0,0,0,.53-.94.76.76,0,0,0-.94-.53,3.76,3.76,0,0,0-2.56,2.09.78.78,0,0,0,.53.94.79.79,0,0,0,.94-.54Z"/><path class="cls-10" d="M812.09,378.17a2.62,2.62,0,0,1,2.89.6c.69.7,1.77-.38,1.08-1.08a4.18,4.18,0,0,0-4.74-.84c-.89.4-.12,1.72.77,1.32Z"/><path class="cls-8" d="M837.31,386.45,825,384.81c-.41-6.19-4.08-11-8.53-11-4.13,0-7.58,4.19-8.39,9.74a4.72,4.72,0,0,0-2.63-1.15,2.37,2.37,0,0,0-1.85.73c-.8-4.92-3.63-8.56-7-8.56-4,0-7.21,5.14-7.21,11.45s3.23,11.45,7.21,11.45,7.21-5.14,7.21-11.45c0-.45,0-.9-.05-1.34a1.84,1.84,0,0,1,1.62-1.27,4.49,4.49,0,0,1,2.54,1.39c0,.4,0,.81,0,1.22,0,6.74,3.84,12.21,8.56,12.21S825,392.72,825,386v-.14l12.15,1.62h.07a.51.51,0,0,0,.5-.44A.52.52,0,0,0,837.31,386.45Zm-40.69,10c-3.42,0-6.2-4.68-6.2-10.43s2.78-10.43,6.2-10.43,6.19,4.68,6.19,10.43S800,396.41,796.62,396.41Zm19.84.77c-4.16,0-7.54-5-7.54-11.2s3.38-11.2,7.54-11.2,7.55,5,7.55,11.2S820.63,397.18,816.46,397.18Z"/><path class="cls-11" d="M799,794.6c-2.79,2.71-21.45,5.65-25.52,6.47s-22.22,5.38-26.29,2.69-3.4-6.45,2-10c2.19-1.43,5.47-2.45,9-3.44,5.27-1.47,11.14-2.9,14.89-5.61,6.29-4.52,7.81-6.05,8-9.78s0-17.3,0-17.3l16.43,7.18s.71,10.46,2.91,15.72l.05.12C802.63,785.87,801.74,791.9,799,794.6Z"/><path class="cls-7" d="M799,794.6c-2.79,2.71-21.45,5.65-25.52,6.47s-22.22,5.38-26.29,2.69-3.4-6.45,2-10c2.19-1.43,5.47-2.45,9-3.44-1.45,2.39-1.6,4.2,1,4.46,8.48.85,22.22-2.38,27.48-7.13,5-4.52,6-9.83,13.79-7C802.63,785.87,801.74,791.9,799,794.6Z"/><path class="cls-17" d="M841,629s-11.2,68.52-8.15,109.47,6.11,66.48,6.11,66.48h-31.3s10.44-71.29,10.44-106.83a283,283,0,0,0-8.15-65.78Z"/><path class="cls-6" d="M878.16,472.17s35.08-6,38.65,29.3-4.58,91.77-27.49,120.78S756.5,635.76,748.86,631.8s-12.63-9.55-11.91-18.2,29.66-8.66,43.94-10.69S878.16,472.17,878.16,472.17Z"/><path class="cls-17" d="M871.25,471.38s32.27,10,31.53,40.24S877.72,608,854.26,620.72s-54.5,9.16-79.18,0-45.65-6.79-24.23-45.13S871.25,471.38,871.25,471.38Z"/><path class="cls-11" d="M705.1,459.9s-8,14.59-8.31,15-10.52-6-11.2-6.18-4.92,1.7-7.3,2a11.69,11.69,0,0,1-5.64-1.09c2.72-7.57,5.71-16,8.26-23.2,3.87,2.56,9.59,6.85,11.63,9C695.43,458.54,705.1,459.9,705.1,459.9Z"/><path class="cls-11" d="M655,711.31s-9.42,5.69-14.07,11.87a14.46,14.46,0,0,0-2.08,3.65c-2.68,7.38-12.35,12.47-15.91,6.62s-17.31-14.76-22.65-16-24.94-9.92-19.85-14c4.6-3.68,10.86-1.33,17.46.84L600,705c7.37,2.29,13.23,7.63,19.08,6.87s6.23,3.81,13.74-1a78.35,78.35,0,0,0,12-9.3Z"/><path class="cls-7" d="M640.9,723.18a14.46,14.46,0,0,0-2.08,3.65c-2.68,7.38-12.35,12.47-15.91,6.62s-17.31-14.76-22.65-16-24.94-9.92-19.85-14c4.6-3.68,10.86-1.33,17.46.84a3.54,3.54,0,0,0,1.88,2.72c6.87,4.58,19.09,9.16,26.21,8.4C630.94,714.84,638.05,719,640.9,723.18Z"/><path class="cls-14" d="M791.61,554.56s-48,4.87-54,7.79-12,10.75-17.16,16.75-29,61-49.41,83.35-33.59,38.17-32.06,41.22,9.67,13.74,11.7,13.74,19.66-9.66,43.42-31.55,47.25-67.15,50.06-69.72,74.16-4.78,83.73-23.41,10.34-41.32-2-45.6S791.61,554.56,791.61,554.56Z"/><path class="cls-7" d="M815.46,554.56s-47.23,20.36-56.41,28S742.71,602.91,745.53,609s28.75,120.61,31.32,137.91,1,17.3,6.65,17.81,15.72,2,17-2.54-1.78-59.54-4.33-87-8.14-55.47-4.58-55,52.86,14.35,67.38-11.7,6-47.33-4.73-53.44S815.46,554.56,815.46,554.56Z"/><path class="cls-15" d="M839.31,428.18s-12.58,12.38-20,14.42-11.71-5.52-12.72-7.21a3.11,3.11,0,0,1,0-3.22s-3.31,13.42-4.08,34.32-10.94,85.36-10.94,88.07,17.51-1,23.85,0,19,6.34,19.5,15.21,21.28,2.6,23.83-47.78S839.31,428.18,839.31,428.18Z"/><path class="cls-1" d="M804.34,493.09c-.1,4.49-.64,13.42-1.53,23.08v.06c-1.46,15.75-3.84,33.43-6.79,37a8.51,8.51,0,0,1-3.34,2.25c-8.59,3.69-28.88,4.17-45.34,7.06a48.39,48.39,0,0,0-8.41,2.2,1,1,0,0,1-.37-.38,96.32,96.32,0,0,1-5-12,63.15,63.15,0,0,1,5.93-8.78c6.41-7.19,21.3-43.31,21.53-43.88a44.06,44.06,0,0,1-9.91,4.14c-2.79.76-16.55-4.87-29.81-11-12.76-5.91-25.05-12.28-26.68-13.9-3.3-3.31,7.89-20.87,11-22.65,2.65-1.55,42,15.75,54.53,18.57,1.88.42,3.15.52,3.6.17,3.42-2.63,23.8-41.13,25.33-42.66s17-4.24,17-4.24h1.52s-4,23.08-4.42,27.32S804.59,481.28,804.34,493.09Z"/><path class="cls-6" d="M804.34,493.09c-.1,4.49-.64,13.42-1.53,23.08,0-.08,0-.17,0-.26,1-10.16-10.2-44.3-11.22-49.39s.51-8.91,4.07-11.45.26-5.09-1.82-7.64,13.78-19.25,13.78-19.25-4,23.08-4.42,27.32S804.59,481.28,804.34,493.09Z"/><path class="cls-1" d="M901.54,622.08c-4.75,6.78-67.18,31.89-66.16,23.75s.65-50.56,0-70.24C835,564,830.91,543,828.13,525.24c-.09-.59-.19-1.18-.28-1.77-1.8-11.7-3-21.8-2-26.58,2.41-12.22,7.5-56.67,10.56-63.45s6.1-8.82,6.1-8.82,32.92,5.77,36,11.2S893.05,458.5,890,490.75s.68,47.18,3.4,60.76S906.29,615.29,901.54,622.08Z"/><path class="cls-6" d="M842.5,461.26c-8.14,2-4.41,3.39-4.41,3.39a21.4,21.4,0,0,1,0,21.38c-6.44,11.53-10,39.21-10,39.21-2-12.45-3.28-23.33-2.29-28.35,2.41-12.22,7.5-56.67,10.56-63.45s6.1-8.82,6.1-8.82S847.9,459.91,842.5,461.26Z"/><path class="cls-6" d="M872,525.24c-8.82,31.7-36.65,50.35-36.65,50.35C835,564,830.91,543,828.13,525.24c-.09-.59-.19-1.18-.28-1.77,1.3-1.06,2.7-2,4.13-3.17,6.45-5.09,48.68-61.37,48.68-61.37S880.84,493.55,872,525.24Z"/><path class="cls-8" d="M854.26,581.79c2.49-.51,5.8.51,15-3.82s11.69-8.14,11.44-5.6.52,5.86-2.79,8.15-19.08,6.36-20.61,6.1S854.26,581.79,854.26,581.79Z"/><path class="cls-8" d="M802.61,562.63c-1.72,2.21-49.47,6.06-54.46,2.84a.9.9,0,0,1-.37-.39,96.21,96.21,0,0,1-5-12,177.32,177.32,0,0,1-8.14-34c-1.9-13.53-3.29-21.11-4.12-25.48-.94-5-1.17-5.79-.63-6.52,1-1.34,24.86-11.85,39.44-11.46l.68,0,2.92.15c12.54.68,18.66,1.35,17.95,4.67-.77,3.56-.26,37.74,4.83,56.27,2.64,9.63,4.88,15.63,6.16,19.49C803.09,559.78,803.47,561.53,802.61,562.63Z"/><path class="cls-1" d="M741.49,498.3a46,46,0,0,1,25.82-3.51c1,.15,1.38-1.32.41-1.47a47.88,47.88,0,0,0-27,3.66c-.9.4-.12,1.72.77,1.32Z"/><path class="cls-1" d="M743.39,506.67a25.83,25.83,0,0,1,10.62-3c1-.06,1-1.59,0-1.53a27.72,27.72,0,0,0-11.39,3.21c-.87.46-.1,1.77.77,1.31Z"/><path class="cls-1" d="M762.72,504.43c2.48-1.82,7-1.93,10-2.24a29.8,29.8,0,0,1,10.65.54.77.77,0,0,0,.41-1.48,32.35,32.35,0,0,0-12-.48c-3.08.39-7.21.44-9.79,2.34-.78.58,0,1.91.77,1.32Z"/><path class="cls-1" d="M744.48,517.69c1.37-2,6.55-2.3,8.76-2.71a80.64,80.64,0,0,1,9.68-1.15c1-.06,1-1.59,0-1.53a84,84,0,0,0-11.49,1.48c-2.62.53-6.6.76-8.27,3.14-.56.81.76,1.57,1.32.77Z"/><path class="cls-1" d="M749.69,547.79a51.64,51.64,0,0,1,27.82-.07.76.76,0,0,0,.4-1.47,53.28,53.28,0,0,0-28.62.06.77.77,0,0,0,.4,1.48Z"/><path class="cls-1" d="M755,557.5a28,28,0,0,1,14.36-1.76c1,.14,1.37-1.33.4-1.47A29.39,29.39,0,0,0,754.57,556c-.91.36-.51,1.83.4,1.47Z"/><path class="cls-1" d="M772.57,493.74a24.55,24.55,0,0,1,6.12-1.12c1-.05,1-1.58,0-1.52a25.9,25.9,0,0,0-6.53,1.17c-.93.29-.53,1.77.41,1.47Z"/><path class="cls-10" d="M687,424.89v4.33s-2.64,7.49-6.1,17.25c-2.55,7.2-5.54,15.63-8.26,23.2-4.14,11.59-7.63,21.17-7.81,21.23-.47.15-4.29,2.64-3-1.66.46-1.55,3.86-10.55,8-21.36,2.83-7.36,6-15.55,8.86-22.79C683.28,433.4,687,424.19,687,424.89Z"/><path class="cls-11" d="M676.09,445.74c.44-.11,2.88-.85,3,1.27s-5.88,18.74-7.64,20-3.64-.68-4.24-2.63-1.27-2.44.51-6.1S673.49,446.39,676.09,445.74Z"/><rect class="cls-6" x="814.34" y="683.15" width="20.73" height="29.86" rx="8"/><path class="cls-11" d="M772.61,520.29s-11.36-2.71-16.79-1.69-10.35,3-8,4.41,1,1.24-1.36,2.23-7.3-1.89-7.81,2.86.51,9,3.4,9.5,12,2.11,16.79-1.57,8.82-1.32,10.86-1.32,6.95-6.22,5.94-9.47A11.22,11.22,0,0,0,772.61,520.29Z"/><path class="cls-1" d="M880.16,463.63S868,517.92,861.16,525,777,545.06,775,539s-6.45-18.32-2.38-22.39,12.56-1.35,24.09-1.69,43.77-15.61,48.52-22.74,5.77-38,14.59-46.48S883.9,438.53,880.16,463.63Z"/><path class="cls-6" d="M561.8,453.67H440.15a24.83,24.83,0,0,1-24.8-24.8V358a21.67,21.67,0,0,0-21.65-21.65v-3.15h0A24.83,24.83,0,0,1,418.5,358v70.9a21.68,21.68,0,0,0,21.65,21.65H561.8a21.68,21.68,0,0,0,21.65-21.65v-113a24.82,24.82,0,0,1,24.8-24.8h58.29v3.15H608.25a21.67,21.67,0,0,0-21.65,21.65v113A24.83,24.83,0,0,1,561.8,453.67Z"/><path class="cls-1" d="M381.91,283.38H285.54c-6.51,0-11.78,4.91-11.78,11V348c0,6.06,5.27,11,11.78,11h19.59L307,372.7a3.21,3.21,0,0,0,5.39,1.67l15.92-15.43h53.62c6.51,0,11.79-4.91,11.79-11V294.35C393.7,288.29,388.42,283.38,381.91,283.38Z"/><path class="cls-7" d="M385.5,341.92c-6.71-.29-8.07-8.47-12.29-12.25-2.85-2.57-5.77-1.88-8.74-.67a17.74,17.74,0,0,0-1.63-14,15,15,0,0,0-11.19-7.41q-.3-.57-.63-1.11a19.3,19.3,0,0,0-10.37-8.38c-5-1.58-10-.07-14.63,1.93-3.29,1.42-5.82,2.93-7.71,5.41a13,13,0,0,0-3.61-1.06c-5.85-.79-9.9,2.66-11.4,7.29-1.81-.52-3.8-1.31-5.65-.6-2,.78-3.36,2.82-4.19,4.72-3.37,7.75.57,19.12,7.3,23.94,4.16,3,9.34,2.76,14.18,2.07,2.7-.38,4.91-1,6.53-2.43A36.93,36.93,0,0,0,333,344.68c9.22,2.44,19.34.7,26.09-6.35a22.49,22.49,0,0,0,4.7-7.31l2-.84c2.84-1.17,4.76-1,6.88,1.17a22.57,22.57,0,0,1,2.95,4.21c2.31,3.8,5,7.72,9.87,7.94C386.52,343.54,386.51,342,385.5,341.92Zm-28.13-30.64a15.78,15.78,0,0,1,6.25,14.08,18.12,18.12,0,0,1-.93,4.4l-.63.27a5.92,5.92,0,0,0,.34-1.2c.75-4.33-1.54-9.35-3.92-12.84a26.46,26.46,0,0,0-5.69-6l-.3-.68A11.88,11.88,0,0,1,357.37,311.28Zm-23.62,17.19c-1.14-.61-2.23-1.26-3.31-1.93a16.77,16.77,0,0,0-2.11-3.29,22.66,22.66,0,0,0-.4-4,21.82,21.82,0,0,1,3.43-5.47c3.75-4,9.48-7,14.88-5.57a12.85,12.85,0,0,0-3.8,2.06c-7.29,5.61-5,18.27,2.95,22.21a13.79,13.79,0,0,0,3.18,1.1l-.33.28C343.14,333.2,338.18,330.84,333.75,328.47Zm12.76,6.7a28,28,0,0,1-5.92,3c-7.3,2.66-7.65-4.27-9.2-9.22a70.71,70.71,0,0,0,6.78,3.45A42.16,42.16,0,0,0,346.51,335.17Zm-28-.2a16.14,16.14,0,0,0,3.86-1.09l.31-.15a9.49,9.49,0,0,1-1.41,3.73A23.5,23.5,0,0,1,318.51,335Zm-11.86-20.63a41.87,41.87,0,0,1,6.25,2.6,16,16,0,0,0-2.43.46,19.82,19.82,0,0,0-5.57,2.4,12.65,12.65,0,0,1-.57-6.24C305.14,313.83,305.92,314.11,306.65,314.34Zm12.72-6.5c3.6,2.44,5.86,6.72,6.83,11.07-.22.42-.42.85-.63,1.28l-.12.26c-.48-.37-1-.71-1.49-1l-.12-.66c-.14-.76-1.06-.69-1.4-.17a17.51,17.51,0,0,0-6.16-1.7l-.9-.5a1.21,1.21,0,0,1,.05-.18,44.7,44.7,0,0,1,3.33-8.75C319,307.58,319.17,307.71,319.37,307.84Zm-6.87,17.33a15,15,0,0,0,.3,2.26c-.23-.06-.46-.11-.68-.19a11.41,11.41,0,0,1-6.51-5.78,6.47,6.47,0,0,1,.79-.58,16.05,16.05,0,0,1,6.73-2.38A23.94,23.94,0,0,0,312.5,325.17Zm1.57,0a22.53,22.53,0,0,1,.75-6.78h.7a83.07,83.07,0,0,1,7.06,4.75l.33.24.09,1.08a8.79,8.79,0,0,1-2.52,2.06,10.63,10.63,0,0,1-6,1.19A14,14,0,0,1,314.07,325.17Zm8.45-4.84c0,.28.08.57.13.85-1-.7-1.95-1.39-2.94-2.08A14.88,14.88,0,0,1,322.52,320.33Zm1.76,1.16.46.37-.33.58C324.37,322.12,324.33,321.8,324.28,321.49Zm-19.73,1.27a13.48,13.48,0,0,0,8.68,6.3,17,17,0,0,0,2.24,4.47h-.2c-3,0-6.13-.52-8.25-2.78a12.31,12.31,0,0,1-2.35-4.34A4.62,4.62,0,0,1,304.55,322.76Zm10.39,6.54a11.27,11.27,0,0,0,8-2.51l.2-.18c0,.82,0,1.65,0,2.48s-.07,1.79-.15,2.74a12.55,12.55,0,0,1-5.68,1.63A16.18,16.18,0,0,1,314.94,329.3Zm9.71-4.31.19-.23c.57.4,1.15.79,1.73,1.18a8.89,8.89,0,0,1-1.9,4.4A38.22,38.22,0,0,0,324.65,325Zm1.11-1.58c.08-.13.16-.26.23-.39.27.28.52.57.75.86v.21ZM351.52,311a26.43,26.43,0,0,1,1.65,15.59,12.47,12.47,0,0,1-3.18,5.68,11,11,0,0,1-6.82-3.32c-4.26-4.5-5.19-12.78-.22-17.05a11.56,11.56,0,0,1,5.8-2.64A23.4,23.4,0,0,1,351.52,311Zm.4,21.39c4-5.18,4-12.83,2-19.37a24.39,24.39,0,0,1,5.3,7.52c1.13,2.52,2.35,6.05,1.47,8.79a5.15,5.15,0,0,1-.87,1.6A24.51,24.51,0,0,1,351.92,332.37Zm-1.39,1.53a19.63,19.63,0,0,0,3,0,16.61,16.61,0,0,1-2.15.17c-.33,0-.67,0-1,0Zm-25.32-31.77c3.24-1.49,6.74-2.95,10.34-3.1,6.26-.26,11.13,3.42,14.24,8.54l-.74.05-.81-.37c-4.66-2.06-9.7-.68-13.83,2a22,22,0,0,0-7.09,7.62c-1.33-4.37-4-8.42-7.71-10.68A14.23,14.23,0,0,1,325.21,302.13Zm-7.78,4.66a17.28,17.28,0,0,0-1.05,2.11c-.89,2.15-1.78,4.41-2.49,6.72a57.69,57.69,0,0,0-9.22-3.51C306.43,306.55,312.38,304.66,317.43,306.79Zm-6.31,33.89c-3.49.2-7-.27-9.8-2.46-4.57-3.52-7.32-10.19-7.47-15.86a12.89,12.89,0,0,1,2.1-7.81c1.69-2.37,4.37-2.16,7-1.43a13.8,13.8,0,0,0,.68,7.72,3.85,3.85,0,0,0-1.32,3.13c.41,4.09,3.19,8.66,7,10.18a17.47,17.47,0,0,0,7.39,1,24.24,24.24,0,0,0,3.56,3.37C318.06,340.43,313.9,340.52,311.12,340.68Zm30.11,3.51a34.83,34.83,0,0,1-18.77-5.86,9.27,9.27,0,0,0,1.53-3.44c.18-.73.31-1.47.43-2.22a10,10,0,0,0,3.56-5.81l.94.59a31.29,31.29,0,0,1,1.88,5.73c.85,3.54,2.54,7.09,6.69,7.17,3.73.08,8-2.41,11.14-4.84a19.79,19.79,0,0,0,4.42,0c2.74-.29,5.75-1.28,7.63-3.28l1.16-.45C358.19,339.37,349.67,344.14,341.23,344.19Z"/><path class="cls-1" d="M668.7,255H772.61c7,0,12.7,4.91,12.7,11v53.62c0,6.06-5.69,11-12.7,11H751.48l-2,13.76c-.36,2.44-3.83,3.44-5.81,1.67l-17.17-15.43H668.7c-7,0-12.71-4.91-12.71-11V266C656,259.89,661.68,255,668.7,255Z"/><ellipse class="cls-8" cx="720.65" cy="291.06" rx="28.8" ry="28.56"/><path class="cls-18" d="M736.49,290.78c0-9.26-7.18-16.76-16-16.76s-16.05,7.5-16.05,16.76a16.82,16.82,0,0,0,9.44,15.27s0,.09,0,.14v1.73a2.26,2.26,0,0,0,2.21,2.3h9.36a2.26,2.26,0,0,0,2.21-2.3v-1.73a1.75,1.75,0,0,0,0-.4A16.82,16.82,0,0,0,736.49,290.78Z"/><path class="cls-18" d="M725.62,315.21h-10a1.43,1.43,0,0,1-1.44-1.44h0a1.44,1.44,0,0,1,1.44-1.44h10a1.45,1.45,0,0,1,1.44,1.44h0A1.44,1.44,0,0,1,725.62,315.21Z"/><path class="cls-8" d="M724.49,288.06a2,2,0,0,0-1.93,2v2.59h-3.77v-2.59a2,2,0,0,0-1.93-2h-.46a2,2,0,0,0-1.92,2v1.34a2,2,0,0,0,1.92,2h1.66v16.79h.73V293.43h3.77v16.79h.73V293.43h1.2a2,2,0,0,0,1.93-2v-1.34A2,2,0,0,0,724.49,288.06Zm-6.43,4.61H716.4a1.23,1.23,0,0,1-1.19-1.25v-1.34a1.23,1.23,0,0,1,1.19-1.25h.46a1.23,1.23,0,0,1,1.2,1.25Zm7.62-1.25a1.23,1.23,0,0,1-1.19,1.25h-1.2v-2.59a1.2,1.2,0,1,1,2.39,0Z"/><path class="cls-18" d="M720.45,272.52a.75.75,0,0,1-.74-.77v-5.08a.74.74,0,1,1,1.47,0v5.08A.75.75,0,0,1,720.45,272.52Z"/><path class="cls-18" d="M696.8,289.45a.75.75,0,0,1,.73-.77h4.87a.77.77,0,0,1,0,1.54h-4.87A.74.74,0,0,1,696.8,289.45Z"/><path class="cls-18" d="M738.22,289.45a.76.76,0,0,1,.73-.77h4.87a.77.77,0,0,1,0,1.54H739A.75.75,0,0,1,738.22,289.45Z"/><path class="cls-18" d="M703.79,271.81a.71.71,0,0,1,1,0l3.44,3.6a.78.78,0,0,1,0,1.08.71.71,0,0,1-1,0l-3.44-3.59A.79.79,0,0,1,703.79,271.81Z"/><path class="cls-18" d="M737.07,271.81a.71.71,0,0,0-1,0l-3.44,3.6a.78.78,0,0,0,0,1.08.71.71,0,0,0,1,0l3.44-3.59A.79.79,0,0,0,737.07,271.81Z"/><path class="cls-1" d="M508.34,215.38c-26.25,0-47.53,20.82-47.53,46.51s21.28,46.5,47.53,46.5,47.53-20.82,47.53-46.5S534.59,215.38,508.34,215.38Zm0,84.12c-21.23,0-38.44-16.84-38.44-37.61s17.21-37.62,38.44-37.62,38.45,16.84,38.45,37.62S529.57,299.5,508.34,299.5Z"/><path class="cls-6" d="M530.2,282.77l-19.1-19.1a3.28,3.28,0,0,0-2.07-5V239.83a.69.69,0,0,0-.69-.69.68.68,0,0,0-.68.69v18.84a3.29,3.29,0,0,0,.68,6.51,3.23,3.23,0,0,0,1.79-.54l19.1,19.1a.69.69,0,0,0,.48.2.71.71,0,0,0,.49-.2A.7.7,0,0,0,530.2,282.77Z"/><path class="cls-1" d="M229.26,255H186.12a1.79,1.79,0,0,0-1.79,1.78V300a1.79,1.79,0,0,0,1.79,1.79h43.14A1.78,1.78,0,0,0,231,300V256.81A1.78,1.78,0,0,0,229.26,255Zm-2.36,40.78a1.79,1.79,0,0,1-1.78,1.79H190.26a1.79,1.79,0,0,1-1.79-1.79V261a1.79,1.79,0,0,1,1.79-1.78h34.86A1.78,1.78,0,0,1,226.9,261Z"/><path class="cls-1" d="M508.2,363H465.07a1.79,1.79,0,0,0-1.79,1.79v43.13a1.79,1.79,0,0,0,1.79,1.79H508.2a1.79,1.79,0,0,0,1.79-1.79V364.78A1.79,1.79,0,0,0,508.2,363Zm-2.35,40.78a1.79,1.79,0,0,1-1.79,1.79H469.21a1.79,1.79,0,0,1-1.79-1.79V368.92a1.79,1.79,0,0,1,1.79-1.79h34.85a1.79,1.79,0,0,1,1.79,1.79Z"/><path class="cls-1" d="M143,392.28H103.08a1.65,1.65,0,0,0-1.65,1.65v39.92a1.65,1.65,0,0,0,1.65,1.65H143a1.65,1.65,0,0,0,1.65-1.65V393.93A1.65,1.65,0,0,0,143,392.28ZM140.82,430a1.65,1.65,0,0,1-1.65,1.65H106.92a1.65,1.65,0,0,1-1.66-1.65V397.76a1.65,1.65,0,0,1,1.66-1.65h32.25a1.65,1.65,0,0,1,1.65,1.65Z"/><rect class="cls-6" x="430.56" y="530.44" width="55.26" height="9.71" rx="2"/><rect class="cls-1" x="455.75" y="520.86" width="55.26" height="9.71" rx="2"/><rect class="cls-1" x="292.7" y="257.03" width="55.26" height="9.71" rx="2"/><rect class="cls-6" x="136.2" y="329.32" width="55.26" height="9.71" rx="2"/><rect class="cls-1" x="113.11" y="319.61" width="55.26" height="9.71" rx="2"/><rect class="cls-6" x="95.41" y="470.07" width="55.26" height="9.71" rx="2"/></g></svg>