<svg xmlns="http://www.w3.org/2000/svg" viewBox="0 0 1087.05 1072.49"><defs><style>.cls-1{fill:#b4bfd3;}.cls-2{fill:#e7eaf5;}.cls-3{fill:#3c455d;}.cls-4{fill:#1f253f;}.cls-5{fill:#364d4d;}.cls-6{fill:#78b066;}.cls-7{fill:#e7ac65;}.cls-8{fill:#5b8b77;}.cls-9{fill:#8b9bc3;}.cls-10{fill:#d8796e;}.cls-11{fill:#a94151;}.cls-12{fill:#e19b84;}.cls-13{fill:#5f73b3;}.cls-14{fill:#8fa3d2;}.cls-15{fill:#c1cadf;}.cls-16{fill:#94c384;}.cls-17{fill:#fff;}.cls-18{fill:#d78058;}</style></defs><g id="OBJECTS"><rect class="cls-1" x="706.57" y="330.11" width="98.92" height="127.65" rx="8"/><rect class="cls-2" x="716.35" y="342.72" width="79.38" height="102.43" rx="8"/><rect class="cls-1" x="738.34" y="371.11" width="35.39" height="45.67" rx="8"/><path class="cls-3" d="M799.45,330.67,758.61,299a4.2,4.2,0,0,0-5.16,0l-40.83,31.65-.86-1.11,40.83-31.65a5.61,5.61,0,0,1,6.88,0l40.84,31.65Z"/><circle class="cls-1" cx="756.03" cy="296.13" r="4.74"/><rect class="cls-1" x="214.43" y="188.53" width="114.36" height="147.58" rx="8"/><rect class="cls-2" x="225.72" y="203.1" width="91.77" height="118.42" rx="8"/><rect class="cls-1" x="251.15" y="235.92" width="40.91" height="52.79" rx="8"/><path class="cls-4" d="M321.8,189.17l-47.21-36.6a4.88,4.88,0,0,0-6,0l-47.2,36.6-1-1.29,47.21-36.59a6.51,6.51,0,0,1,8,0l47.2,36.59Z"/><path class="cls-1" d="M277.09,149.24a5.48,5.48,0,1,1-5.48-5.48A5.48,5.48,0,0,1,277.09,149.24Z"/><path class="cls-2" d="M158.3,430.59s-6-15-2.05-29.5,11.9-3.59,11.9-3.59,1.39-12.72,10.14-18.09,9.15,10.22,9.15,10.22,12.52-6.88,19.08,0-14.13,20.79-14.13,20.79,12.54-.87,10,5.93-24.85,4-24.85,4,10.73,2,1.19,7.75S158.3,430.59,158.3,430.59Z"/><path class="cls-2" d="M138.86,425.79s-27.76,3.32-34.32-5,7.35-14.51,7.35-14.51-32.4-.2-35.78-14.32S96.79,380.6,96.79,380.6s-20.28-12.52-18.09-27,16.5-14.91,26.63-7.36,20.28,24.45,20.28,24.45,9.15-10.33,16.3-5.56-1,28.23-1,28.23,2.33-4.78,7.06.59S138.86,425.79,138.86,425.79Z"/><path class="cls-1" d="M151.63,389.63s-10.43-29.5-3.71-44.61,29.58-18.89,34,0S157.77,388.91,151.63,389.63Z"/><path class="cls-1" d="M150.54,445.13H103.65a3,3,0,0,0-2.84,3.89l16.78,52.77a3,3,0,0,0,2.85,2.08h52.17a3,3,0,0,0,2.85-2.08L192.25,449a3,3,0,0,0-2.85-3.89Z"/><path class="cls-5" d="M139.53,445.73a.48.48,0,0,1-.2,0,.59.59,0,0,1-.37-.75c0-.07,2.28-7.18-1.51-28.49s-21.21-27.77-21.39-27.83a.6.6,0,0,1-.35-.77.58.58,0,0,1,.76-.35,38,38,0,0,1,22.15,28.74c3.86,21.71,1.57,28.79,1.47,29.08A.6.6,0,0,1,139.53,445.73Z"/><path class="cls-5" d="M157.72,445.73a.6.6,0,0,1-.6-.56c0-.16-1.12-16.44,6.65-28.89a32.45,32.45,0,0,1,20.38-14.8.6.6,0,0,1,.69.49.59.59,0,0,1-.48.69,31.79,31.79,0,0,0-19.58,14.25c-7.56,12.13-6.48,28-6.47,28.18a.59.59,0,0,1-.55.63Z"/><path class="cls-5" d="M148.77,445.73a.59.59,0,0,1-.59-.56c0-.17-1.17-17.46,1.49-43.16a126.3,126.3,0,0,1,13.79-45.26.59.59,0,0,1,.82-.22.59.59,0,0,1,.21.81,125.24,125.24,0,0,0-13.64,44.79c-2.64,25.6-1.5,42.79-1.48,43a.59.59,0,0,1-.56.63Z"/><path class="cls-2" d="M228.38,517.08H65.62a6.6,6.6,0,0,1-6.6-6.61h0a6.59,6.59,0,0,1,6.6-6.6H228.38a6.59,6.59,0,0,1,6.6,6.6h0A6.6,6.6,0,0,1,228.38,517.08Z"/><rect class="cls-2" x="937.32" y="408.6" width="10.87" height="502.79"/><rect class="cls-1" x="912.26" y="911.39" width="63.61" height="19.48" rx="9"/><path class="cls-2" d="M1021.42,418.4a68,68,0,0,1-13.58,6.86c-1.33.52-2.76,1-4.28,1.55l-.75.24a147.23,147.23,0,0,1-26.61,5.85l-1.28.16-.09,0-3.29.38a252.35,252.35,0,0,1-26.87,1.41h-.58c-1.58,0-3.13,0-4.65,0-7.47-.12-14.27-.52-20.46-1.13-1.62-.15-3.21-.33-4.74-.52h-.08l-.37-.05a149.79,149.79,0,0,1-28.39-6.07h0q-3-1-5.58-2a67.63,67.63,0,0,1-13-6.65,6.56,6.56,0,0,1-2.44-7.81c2-5.14,6.14-15.21,14.17-33,10.72-23.73,19.24-67.35,22-82.53a6.55,6.55,0,0,1,6.45-5.38h74.28a6.57,6.57,0,0,1,6.46,5.38c2.76,15.18,11.29,58.8,22,82.53,8,17.78,12.17,27.85,14.17,33l0,.07A6.53,6.53,0,0,1,1021.42,418.4Z"/><path class="cls-1" d="M885.39,427.06h0Z"/><path class="cls-1" d="M914.2,434.32c0,9.12-6.79,16.52-15.17,16.52s-15.17-7.4-15.17-16.52a38.92,38.92,0,0,1,1.53-7.25c-2,4.95-8.52,18.13-17.64,13-11.63-6.56-3.88-26.53-3.88-26.53s0-.06,0-.09a6.54,6.54,0,0,0,2.87,5,74.89,74.89,0,0,0,18.63,8.66h0a150.68,150.68,0,0,0,28.76,6.12C914.19,433.55,914.2,433.94,914.2,434.32Z"/><path class="cls-1" d="M944.53,434.87c-.26,8.86-6.95,16-15.16,16-8.38,0-15.17-7.4-15.17-16.52,0-.38,0-.76,0-1.14a246.63,246.63,0,0,0,29.85,1.69Z"/><path class="cls-1" d="M974.88,434.32c0,9.12-6.79,16.52-15.17,16.52-8.21,0-14.9-7.11-15.16-16a247.13,247.13,0,0,0,30.28-1.79C974.86,433.49,974.88,433.91,974.88,434.32Z"/><path class="cls-1" d="M1027,434.32c-3.56,7.93-14.17,12.53-23.24-7.1a17.71,17.71,0,0,1,1.47,7.1c0,9.12-6.79,16.52-15.17,16.52s-15.17-7.4-15.17-16.52c0-.42,0-.84,0-1.26a147.75,147.75,0,0,0,28.64-6.25,74.06,74.06,0,0,0,17.86-8.41,6.53,6.53,0,0,0,2.48-7.69C1024.49,412.11,1030.39,426.73,1027,434.32Z"/><path class="cls-1" d="M901.44,375.94c-9.44,29.92-16,51.12-16,51.12h0q-3-1-5.58-2a54.72,54.72,0,0,0,5.58-7.24c11.49-17.67,25.11-104.39,25.9-108.76S910.89,346,901.44,375.94Z"/><path class="cls-1" d="M927.59,323.76C927,329.9,920,395.56,919,433.7c-1.62-.15-3.21-.33-4.74-.52h-.08l-.37-.05C918.65,396,928.25,316.86,927.59,323.76Z"/><path class="cls-1" d="M944.09,310.27c0,.15,0,.41,0,.76C944.08,310.68,944.08,310.43,944.09,310.27Z"/><path class="cls-1" d="M944.67,434.87h-.58c-1.58,0-3.13,0-4.65,0C941.3,394.26,943.65,324.2,944,312,943.75,324.36,942.52,395.13,944.67,434.87Z"/><path class="cls-1" d="M964.17,332.11c1.38,3.58,3.71,62,12,100.79l-1.28.16-.09,0-3.29.38C967.91,392.15,962.82,328.59,964.17,332.11Z"/><path class="cls-1" d="M1007.84,425.26c-1.33.52-2.76,1-4.28,1.55l-.75.24c-12.89-50.12-30.52-120.36-25.52-111.24C981.48,323.46,993,387.78,1007.84,425.26Z"/><path class="cls-2" d="M579.38,769.47V553.26a10.15,10.15,0,0,1,2.69-6.88l92.09-99.75v328Z"/><polygon class="cls-2" points="539.57 391.38 539.57 755.55 375.55 755.55 375.55 309.83 473.32 309.83 539.57 391.38"/><path class="cls-1" d="M375.55,391.87H551.67a6,6,0,0,1,6,6v.59a6,6,0,0,1-6,6H375.55a0,0,0,0,1,0,0V391.87A0,0,0,0,1,375.55,391.87Z"/><path class="cls-1" d="M395.73,446.27v24a2.51,2.51,0,0,0,2.51,2.51h23a2.51,2.51,0,0,0,2.51-2.51v-24a14,14,0,0,0-28,0Zm12.75-11.42v12.89H398.24v-1.47A11.51,11.51,0,0,1,408.48,434.85Zm12.74,11.42v1.47H411V434.85A11.51,11.51,0,0,1,421.22,446.27Zm0,24H411V450.24h10.23Zm-23,0V450.24h10.24V470.3Z"/><path class="cls-1" d="M440.51,446.27v24a2.51,2.51,0,0,0,2.51,2.51h23a2.5,2.5,0,0,0,2.5-2.51v-24a14,14,0,1,0-28,0Zm12.74-11.42v12.89H443v-1.47A11.5,11.5,0,0,1,453.25,434.85ZM466,446.27v1.47H455.76V434.85A11.51,11.51,0,0,1,466,446.27Zm0,24H455.76V450.24H466Zm-23,0V450.24h10.24V470.3Z"/><path class="cls-1" d="M485.28,446.27v24a2.51,2.51,0,0,0,2.51,2.51h23a2.51,2.51,0,0,0,2.51-2.51v-24a14,14,0,0,0-28,0ZM498,434.85v12.89H487.79v-1.47A11.51,11.51,0,0,1,498,434.85Zm12.75,11.42v1.47H500.53V434.85A11.51,11.51,0,0,1,510.77,446.27Zm0,24H500.53V450.24h10.24Zm-23,0V450.24H498V470.3Z"/><path class="cls-1" d="M395.73,513.21v24a2.52,2.52,0,0,0,2.51,2.51h23a2.51,2.51,0,0,0,2.51-2.51v-24a14,14,0,0,0-28,0Zm12.75-11.42v12.88H398.24v-1.46A11.51,11.51,0,0,1,408.48,501.79Zm12.74,11.42v1.46H411V501.79A11.51,11.51,0,0,1,421.22,513.21Zm0,24H411V517.18h10.23Zm-23,0V517.18h10.24v20.06Z"/><path class="cls-1" d="M440.51,513.21v24a2.51,2.51,0,0,0,2.51,2.51h23a2.51,2.51,0,0,0,2.5-2.51v-24a14,14,0,1,0-28,0Zm12.74-11.42v12.88H443v-1.46A11.5,11.5,0,0,1,453.25,501.79ZM466,513.21v1.46H455.76V501.79A11.51,11.51,0,0,1,466,513.21Zm0,24H455.76V517.18H466Zm-23,0V517.18h10.24v20.06Z"/><path class="cls-1" d="M485.28,513.21v24a2.52,2.52,0,0,0,2.51,2.51h23a2.52,2.52,0,0,0,2.51-2.51v-24a14,14,0,1,0-28,0ZM498,501.79v12.88H487.79v-1.46A11.51,11.51,0,0,1,498,501.79Zm12.75,11.42v1.46H500.53V501.79A11.51,11.51,0,0,1,510.77,513.21Zm0,24H500.53V517.18h10.24Zm-23,0V517.18H498v20.06Z"/><path class="cls-1" d="M395.73,580.14v24a2.51,2.51,0,0,0,2.51,2.5h23a2.5,2.5,0,0,0,2.51-2.5v-24a14,14,0,0,0-28,0Zm12.75-11.41v12.88H398.24v-1.47A11.49,11.49,0,0,1,408.48,568.73Zm12.74,11.41v1.47H411V568.73A11.49,11.49,0,0,1,421.22,580.14Zm0,24H411V584.12h10.23Zm-23,0V584.12h10.24v20.06Z"/><path class="cls-1" d="M440.51,580.14v24a2.5,2.5,0,0,0,2.51,2.5h23a2.5,2.5,0,0,0,2.5-2.5v-24a14,14,0,0,0-28,0Zm12.74-11.41v12.88H443v-1.47A11.48,11.48,0,0,1,453.25,568.73ZM466,580.14v1.47H455.76V568.73A11.49,11.49,0,0,1,466,580.14Zm0,24H455.76V584.12H466Zm-23,0V584.12h10.24v20.06Z"/><path class="cls-1" d="M485.28,580.14v24a2.51,2.51,0,0,0,2.51,2.5h23a2.51,2.51,0,0,0,2.51-2.5v-24a14,14,0,0,0-28,0ZM498,568.73v12.88H487.79v-1.47A11.49,11.49,0,0,1,498,568.73Zm12.75,11.41v1.47H500.53V568.73A11.49,11.49,0,0,1,510.77,580.14Zm0,24H500.53V584.12h10.24Zm-23,0V584.12H498v20.06Z"/><path class="cls-1" d="M395.73,647.08v24a2.52,2.52,0,0,0,2.51,2.51h23a2.51,2.51,0,0,0,2.51-2.51v-24a14,14,0,1,0-28,0Zm12.75-11.42v12.88H398.24v-1.46A11.51,11.51,0,0,1,408.48,635.66Zm12.74,11.42v1.46H411V635.66A11.51,11.51,0,0,1,421.22,647.08Zm0,24H411V651.05h10.23Zm-23,0V651.05h10.24v20.06Z"/><path class="cls-1" d="M440.51,647.08v24a2.51,2.51,0,0,0,2.51,2.51h23a2.51,2.51,0,0,0,2.5-2.51v-24a14,14,0,1,0-28,0Zm12.74-11.42v12.88H443v-1.46A11.5,11.5,0,0,1,453.25,635.66ZM466,647.08v1.46H455.76V635.66A11.51,11.51,0,0,1,466,647.08Zm0,24H455.76V651.05H466Zm-23,0V651.05h10.24v20.06Z"/><path class="cls-1" d="M485.28,647.08v24a2.52,2.52,0,0,0,2.51,2.51h23a2.52,2.52,0,0,0,2.51-2.51v-24a14,14,0,0,0-28,0ZM498,635.66v12.88H487.79v-1.46A11.51,11.51,0,0,1,498,635.66Zm12.75,11.42v1.46H500.53V635.66A11.51,11.51,0,0,1,510.77,647.08Zm0,24H500.53V651.05h10.24Zm-23,0V651.05H498v20.06Z"/><path class="cls-1" d="M395.73,714v24a2.52,2.52,0,0,0,2.51,2.51h23a2.51,2.51,0,0,0,2.51-2.51V714a14,14,0,0,0-28,0Zm12.75-11.42v12.88H398.24V714A11.5,11.5,0,0,1,408.48,702.6ZM421.22,714v1.46H411V702.6A11.5,11.5,0,0,1,421.22,714Zm0,24H411V718h10.23Zm-23,0V718h10.24v20.06Z"/><path class="cls-1" d="M440.51,714v24a2.51,2.51,0,0,0,2.51,2.51h23a2.51,2.51,0,0,0,2.5-2.51V714a14,14,0,1,0-28,0Zm12.74-11.42v12.88H443V714A11.49,11.49,0,0,1,453.25,702.6ZM466,714v1.46H455.76V702.6A11.5,11.5,0,0,1,466,714Zm0,24H455.76V718H466Zm-23,0V718h10.24v20.06Z"/><path class="cls-1" d="M485.28,714v24a2.52,2.52,0,0,0,2.51,2.51h23a2.52,2.52,0,0,0,2.51-2.51V714a14,14,0,0,0-28,0ZM498,702.6v12.88H487.79V714A11.5,11.5,0,0,1,498,702.6ZM510.77,714v1.46H500.53V702.6A11.5,11.5,0,0,1,510.77,714Zm0,24H500.53V718h10.24Zm-23,0V718H498v20.06Z"/><path class="cls-1" d="M635,153.55A159.95,159.95,0,0,0,362,266.64v508h319.9v-508A159.41,159.41,0,0,0,635,153.55Zm5,30a154.87,154.87,0,0,1,28.25,86.17H530.6Zm-112.72-62c38.29,1.43,72.83,18.11,98.14,44.37q4.2,4.37,8.07,9.1L527.29,258.65Zm-10.73,0V258.65L410.35,175C436.12,143.53,474,123.11,516.56,121.52Zm-112.72,62L513.25,269.7H375.59A154.87,154.87,0,0,1,403.84,183.53Zm264.46,572H375.55V273.26c0-1.12,0-2.25,0-3.37v14.53H668.3Z"/><path class="cls-6" d="M408.18,368.17s-7.8-17.7-3.93-29.19,10.54-10.73,11.91-.89S408.18,368.17,408.18,368.17Z"/><path class="cls-6" d="M409,368.17s11-33.51,22.67-36.19,13.71,10.45,10.88,17.37S409,368.17,409,368.17Z"/><path class="cls-6" d="M409,368.17s28.48-16.51,32.65-8S419.16,374.39,409,368.17Z"/><path class="cls-6" d="M390.09,404.17s21.77-31.34,42.94-24.63S390.09,404.17,390.09,404.17Z"/><path class="cls-6" d="M628.21,430.37s-26-17-38.93-12.51S600.94,438.86,628.21,430.37Z"/><path class="cls-6" d="M612.94,403.09s-30.07,8.5-33.2,0S594.55,393.85,612.94,403.09Z"/><path class="cls-7" d="M612.62,400.27s-14.54.29-23-20.73,9.09-11.78,16.4-3.43S612.62,400.27,612.62,400.27Z"/><path class="cls-6" d="M638,392.28s-22.14-6.5-28.85-25.57S614.92,350.17,621,359,638,392.28,638,392.28Z"/><path class="cls-7" d="M641.48,405s-7.62-39.23,3.26-38.32S641.48,405,641.48,405Z"/><path class="cls-5" d="M415.2,360.28c-.34.26-8.42,6.7-20,29.22s-20.18,60.58-20.26,61a.59.59,0,0,0,.45.71l.13,0a.6.6,0,0,0,.58-.47c.09-.38,8.71-38.34,20.16-60.67s19.56-28.76,19.64-28.83a.6.6,0,0,0-.73-.94Z"/><path class="cls-5" d="M653.67,492c-1.44-6.06-3.26-12.18-5.34-18.26,7.61-42.15-16-101.83-16.2-102.42a.6.6,0,0,0-.78-.34.61.61,0,0,0-.33.78c.23.58,22.9,58,16.49,99.63-15.12-42.8-42.51-83-42.83-83.49a.61.61,0,0,0-.83-.16.6.6,0,0,0-.15.83c.37.54,37,54.41,48.81,103.7s2.08,130.06,2,130.87a.59.59,0,0,0,.52.66h.07a.6.6,0,0,0,.59-.53C655.77,622.42,665.49,541.45,653.67,492Z"/><path class="cls-6" d="M668.3,683.11v72.45H432.43a18.73,18.73,0,0,1,2-3.36,16.29,16.29,0,0,1-.12-1.86c0-8.65,7.41-15.66,16.55-15.66a16.92,16.92,0,0,1,12.14,5,17.42,17.42,0,0,1,5.81-1,17.2,17.2,0,0,1,4.46.58,15.66,15.66,0,0,1,8.5-11.82,14.16,14.16,0,0,1,6.06-19.64,14.15,14.15,0,0,1,23-1.94,14.14,14.14,0,0,1,22.63,5.65,14.14,14.14,0,0,1,12.12,16.39,14.18,14.18,0,0,1,13.66,2.23,14.15,14.15,0,0,1,18.17,7.18A14.09,14.09,0,0,1,587.6,733h.06c0-.48-.06-1-.06-1.46,0-11.07,8.73-20.38,20.55-23,3.06-10.27,13.83-17.87,26.66-17.87a32,32,0,0,1,6.26.63,29.31,29.31,0,0,1,21.26-8.69A31.56,31.56,0,0,1,668.3,683.11Z"/><path class="cls-8" d="M594.86,755.56H510.77a11.52,11.52,0,0,1,5-6.65,12.85,12.85,0,0,1,9.64-7,13.21,13.21,0,0,1,10,2.16,13.42,13.42,0,0,1,7.64-4c5.25-.9,10.21,1.18,12.63,4.89,6.12-.36,11.51,3.26,12.43,8.61a9.89,9.89,0,0,1,.14,1.79,14.44,14.44,0,0,1,4.07-1.35,13.54,13.54,0,0,1,8,1,14.21,14.21,0,0,1,4.47-1.57A13.18,13.18,0,0,1,594.86,755.56Z"/><path class="cls-8" d="M668.3,703.72v51.84H599a13.78,13.78,0,0,1,6.21-2.73h0c-.09-.35-.18-.72-.24-1.08-1.42-8.24,4.93-16.47,14.81-20.21,1.31-8.1,9.65-15.36,20.73-17.26a31.38,31.38,0,0,1,5.49-.46c3.68-4.7,9.86-8.36,17.25-9.63A31.84,31.84,0,0,1,668.3,703.72Z"/><path class="cls-1" d="M477.36,342.46a1,1,0,0,1-.53-.17.9.9,0,0,1-.2-1.25l8.14-11.27a.88.88,0,0,1,1.24-.2.9.9,0,0,1,.21,1.25l-8.14,11.26A.86.86,0,0,1,477.36,342.46Z"/><path class="cls-1" d="M444.42,326.17a1,1,0,0,1-.53-.17.9.9,0,0,1-.2-1.25l8.14-11.27a.88.88,0,0,1,1.24-.2.9.9,0,0,1,.21,1.25l-8.14,11.27A.88.88,0,0,1,444.42,326.17Z"/><path class="cls-1" d="M523.22,348.09a.85.85,0,0,1-.52-.17.9.9,0,0,1-.2-1.25l8.13-11.27a.9.9,0,0,1,1.45,1.05L524,347.72A.9.9,0,0,1,523.22,348.09Z"/><path class="cls-1" d="M453.58,382.31a.92.92,0,0,1-.52-.17.9.9,0,0,1-.2-1.25L461,369.62a.9.9,0,0,1,1.45,1.05l-8.13,11.27A.9.9,0,0,1,453.58,382.31Z"/><path class="cls-1" d="M499.45,387.94a.85.85,0,0,1-.52-.17.88.88,0,0,1-.2-1.24l8.13-11.27a.91.91,0,0,1,1.25-.21.9.9,0,0,1,.2,1.25l-8.13,11.27A.91.91,0,0,1,499.45,387.94Z"/><path class="cls-1" d="M618.51,337.44a1,1,0,0,1-.53-.17.9.9,0,0,1-.2-1.25l8.14-11.27a.9.9,0,0,1,1.45,1.05l-8.14,11.26A.87.87,0,0,1,618.51,337.44Z"/><path class="cls-1" d="M561.72,381.49a.85.85,0,0,1-.52-.17.89.89,0,0,1-.2-1.25l8.13-11.27a.9.9,0,0,1,1.45,1.05l-8.13,11.27A.91.91,0,0,1,561.72,381.49Z"/><path class="cls-1" d="M400.2,302.63a.92.92,0,0,1-.52-.17.9.9,0,0,1-.2-1.25l8.13-11.27a.9.9,0,0,1,1.45,1.05l-8.13,11.27A.91.91,0,0,1,400.2,302.63Z"/><path class="cls-1" d="M571.25,326.17a.93.93,0,0,1-.53-.17.9.9,0,0,1-.2-1.25l8.13-11.27a.9.9,0,0,1,1.45,1L572,325.8A.89.89,0,0,1,571.25,326.17Z"/><path class="cls-1" d="M523.22,311.78a.85.85,0,0,1-.52-.17.88.88,0,0,1-.2-1.24l8.13-11.27a.89.89,0,1,1,1.45,1L524,311.41A.9.9,0,0,1,523.22,311.78Z"/><path class="cls-1" d="M593.63,261.85a.86.86,0,0,1-.53-.17.88.88,0,0,1-.2-1.24L601,249.17a.91.91,0,0,1,1.25-.21.9.9,0,0,1,.2,1.25l-8.13,11.27A.86.86,0,0,1,593.63,261.85Z"/><path class="cls-1" d="M614.44,311.78a.85.85,0,0,1-.52-.17.88.88,0,0,1-.2-1.24l8.13-11.27a.89.89,0,1,1,1.45,1l-8.13,11.27A.91.91,0,0,1,614.44,311.78Z"/><path class="cls-1" d="M637,422.94a1,1,0,0,1-.53-.17.9.9,0,0,1-.2-1.25l8.14-11.27a.88.88,0,0,1,1.24-.2.9.9,0,0,1,.21,1.25l-8.14,11.27A.89.89,0,0,1,637,422.94Z"/><path class="cls-1" d="M580.17,467a.92.92,0,0,1-.52-.17.9.9,0,0,1-.2-1.25l8.13-11.27a.9.9,0,1,1,1.45,1.05l-8.13,11.27A.91.91,0,0,1,580.17,467Z"/><path class="cls-1" d="M589.7,411.67a.86.86,0,0,1-.53-.17.9.9,0,0,1-.2-1.25L597.1,399a.9.9,0,1,1,1.45,1l-8.13,11.27A.89.89,0,0,1,589.7,411.67Z"/><path class="cls-1" d="M632.89,397.29a.92.92,0,0,1-.52-.17.9.9,0,0,1-.2-1.25l8.13-11.27a.9.9,0,0,1,1.45,1l-8.13,11.27A.91.91,0,0,1,632.89,397.29Z"/><path class="cls-1" d="M549.1,213.69a.88.88,0,0,1-.53-.17.9.9,0,0,1-.2-1.25L556.51,201a.88.88,0,0,1,1.24-.2.9.9,0,0,1,.21,1.25l-8.14,11.27A.88.88,0,0,1,549.1,213.69Z"/><path class="cls-1" d="M433.14,256.22a.92.92,0,0,1-.52-.17.9.9,0,0,1-.2-1.25l8.13-11.27a.9.9,0,0,1,1.45,1.05l-8.13,11.27A.91.91,0,0,1,433.14,256.22Z"/><path class="cls-1" d="M400.2,239.93a.85.85,0,0,1-.52-.17.9.9,0,0,1-.2-1.25l8.13-11.27a.9.9,0,0,1,1.45,1l-8.13,11.27A.91.91,0,0,1,400.2,239.93Z"/><path class="cls-1" d="M455.32,175.25a.9.9,0,0,1-.73-1.42l8.14-11.27a.9.9,0,0,1,1.45,1.05L456,174.88A.88.88,0,0,1,455.32,175.25Z"/><path class="cls-1" d="M557.23,161.59a.85.85,0,0,1-.52-.17.9.9,0,0,1-.2-1.25l8.13-11.27a.9.9,0,0,1,1.45,1L558,161.22A.91.91,0,0,1,557.23,161.59Z"/><path class="cls-1" d="M492.73,208.06a.92.92,0,0,1-.52-.17.9.9,0,0,1-.2-1.25l8.13-11.27a.9.9,0,0,1,1.45,1l-8.13,11.27A.91.91,0,0,1,492.73,208.06Z"/><path class="cls-1" d="M477.36,446.43a1,1,0,0,1-.53-.17.9.9,0,0,1-.2-1.25l8.14-11.27a.88.88,0,0,1,1.24-.2.9.9,0,0,1,.21,1.25l-8.14,11.27A.88.88,0,0,1,477.36,446.43Z"/><path class="cls-1" d="M444.42,430.14a1,1,0,0,1-.53-.17.9.9,0,0,1-.2-1.25l8.14-11.27a.88.88,0,0,1,1.24-.2.9.9,0,0,1,.21,1.25l-8.14,11.27A.88.88,0,0,1,444.42,430.14Z"/><path class="cls-1" d="M576.12,518.29a.85.85,0,0,1-.52-.17.9.9,0,0,1-.2-1.25l8.13-11.27a.9.9,0,1,1,1.45,1l-8.13,11.27A.91.91,0,0,1,576.12,518.29Z"/><path class="cls-1" d="M543.18,502a.85.85,0,0,1-.52-.17.89.89,0,0,1-.2-1.25l8.13-11.27a.9.9,0,0,1,1.25-.2.9.9,0,0,1,.2,1.25l-8.13,11.27A.91.91,0,0,1,543.18,502Z"/><path class="cls-1" d="M552.35,558.14a.89.89,0,0,1-.52-.16.9.9,0,0,1-.21-1.25l8.14-11.27a.89.89,0,0,1,1.25-.2.88.88,0,0,1,.2,1.24l-8.14,11.27A.85.85,0,0,1,552.35,558.14Z"/><path class="cls-1" d="M543.18,606a.85.85,0,0,1-.52-.17.88.88,0,0,1-.2-1.24l8.13-11.27a.89.89,0,1,1,1.45,1l-8.13,11.27A.91.91,0,0,1,543.18,606Z"/><path class="cls-1" d="M523.22,452.06a.85.85,0,0,1-.52-.17.9.9,0,0,1-.2-1.25l8.13-11.27a.9.9,0,1,1,1.45,1.05L524,451.69A.9.9,0,0,1,523.22,452.06Z"/><path class="cls-1" d="M453.58,486.28a.92.92,0,0,1-.52-.17.9.9,0,0,1-.2-1.25L461,473.59a.9.9,0,0,1,1.45,1.05l-8.13,11.27A.9.9,0,0,1,453.58,486.28Z"/><path class="cls-1" d="M499.45,491.91a.91.91,0,0,1-.52-.16.9.9,0,0,1-.2-1.25l8.13-11.27a.9.9,0,0,1,1.25-.2.88.88,0,0,1,.2,1.24l-8.13,11.27A.88.88,0,0,1,499.45,491.91Z"/><path class="cls-1" d="M517.86,412.23a.88.88,0,0,1-.53-.17.89.89,0,0,1-.2-1.25l8.13-11.26a.9.9,0,0,1,1.25-.21.91.91,0,0,1,.21,1.25l-8.14,11.27A.89.89,0,0,1,517.86,412.23Z"/><rect class="cls-2" x="72.86" y="664.89" width="258.23" height="17.46" rx="8"/><rect class="cls-1" x="86.05" y="682.34" width="14.66" height="248.53"/><rect class="cls-1" x="300.06" y="682.34" width="14.66" height="248.53"/><rect class="cls-2" x="100.71" y="785.29" width="199.36" height="11.6"/><rect class="cls-2" x="100.71" y="881.1" width="199.36" height="11.6"/><rect class="cls-2" x="100.71" y="810.8" width="27.61" height="70.3" rx="5"/><rect class="cls-1" x="128.32" y="810.8" width="27.61" height="70.3" rx="5"/><rect class="cls-1" x="100.71" y="714.98" width="27.61" height="70.3" rx="5"/><rect class="cls-1" x="221.73" y="736.1" width="27.61" height="70.3" rx="5" transform="translate(1006.79 535.72) rotate(90)"/><rect class="cls-2" x="146.92" y="714.98" width="27.61" height="70.3" rx="5" transform="translate(-444.47 278.67) rotate(-39.99)"/><path class="cls-1" d="M226.76,881.1H202.23a12.68,12.68,0,0,1-12.68-12.68h0a12.69,12.69,0,0,1,12.68-12.69h24.53a12.69,12.69,0,0,1,12.68,12.69h0A12.68,12.68,0,0,1,226.76,881.1Z"/><path class="cls-2" d="M202.87,855.73s-13.32-31.21-8.55-42.54,11.73-6.36,16.5,0S217,831.08,217,831.08s13.85-14.31,18.56-10.34-8.86,35-8.86,35Z"/><path class="cls-1" d="M189.9,825.75l8.12,7.39c.64.58,1.59-.36.95-.95l-8.12-7.39c-.63-.58-1.59.37-.95,1Z"/><path class="cls-1" d="M189.31,813.42a70.84,70.84,0,0,1,6.12,6c.58.64,1.53-.31.95-.95a70.84,70.84,0,0,0-6.12-6c-.65-.56-1.6.38-.95.95Z"/><path class="cls-1" d="M195.38,807.34l3.27,5.82a.67.67,0,0,0,1.16-.68q-1.63-2.91-3.28-5.82a.67.67,0,0,0-1.15.68Z"/><path class="cls-1" d="M209.83,806.48l-4.21,8.73c-.37.78.79,1.46,1.16.68l4.21-8.73c.38-.77-.78-1.45-1.16-.68Z"/><path class="cls-1" d="M215.77,816.54a33.78,33.78,0,0,0-3,4c-.46.73.7,1.4,1.16.67a31,31,0,0,1,2.8-3.75c.56-.65-.38-1.6-.95-1Z"/><path class="cls-1" d="M202,823.8a14.11,14.11,0,0,1,2.3,2.64c.48.71,1.64,0,1.16-.68a15.82,15.82,0,0,0-2.51-2.91c-.64-.57-1.59.37-.95.95Z"/><path class="cls-1" d="M206.64,833.37a10.18,10.18,0,0,1-2.81-.1c-.85-.15-1.21,1.14-.36,1.3a11.24,11.24,0,0,0,3.17.14c.85-.08.86-1.43,0-1.34Z"/><path class="cls-1" d="M204.46,842.88a53.94,53.94,0,0,1-9.74.87.67.67,0,0,0,0,1.34,55.24,55.24,0,0,0,10.1-.92c.85-.15.49-1.45-.36-1.29Z"/><path class="cls-1" d="M205.55,848.85a46.51,46.51,0,0,1-4.8,2.75c-.77.39-.09,1.55.68,1.16a47.58,47.58,0,0,0,4.8-2.75c.72-.47.05-1.63-.68-1.16Z"/><path class="cls-1" d="M218.79,844.84a22.86,22.86,0,0,0,4.58,2.37c.81.31,1.16-1,.36-1.3a21.42,21.42,0,0,1-4.27-2.23c-.71-.48-1.39.68-.67,1.16Z"/><path class="cls-1" d="M223.16,838.48a13.3,13.3,0,0,0,5.55.82c.86,0,.86-1.4,0-1.34a12.57,12.57,0,0,1-5.19-.77c-.81-.3-1.16,1-.36,1.29Z"/><path class="cls-1" d="M224.58,819.39c-.45,2.18-.9,4.35-1.34,6.53-.18.84,1.12,1.2,1.29.36q.67-3.27,1.34-6.53c.18-.85-1.12-1.21-1.29-.36Z"/><path class="cls-1" d="M232.49,817.8a22.08,22.08,0,0,1-2.8,5.36c-.5.71.66,1.38,1.16.68a23.53,23.53,0,0,0,2.93-5.68c.3-.82-1-1.17-1.29-.36Z"/><path class="cls-1" d="M230.89,831.24a9.89,9.89,0,0,0,5.88-1.42.67.67,0,0,0-.68-1.16,8.55,8.55,0,0,1-5.2,1.24c-.86-.06-.86,1.28,0,1.34Z"/><path class="cls-1" d="M210.71,830.59l2.42,2.95c.55.66,1.5-.29,1-.95l-2.42-3c-.55-.67-1.5.28-.95,1Z"/><path class="cls-1" d="M209.63,841.56a4.37,4.37,0,0,0,2.62,2,.67.67,0,0,0,.35-1.29,3,3,0,0,1-1.81-1.42.67.67,0,0,0-1.16.68Z"/><path class="cls-1" d="M213.66,852.54a6.65,6.65,0,0,1,1.66,1.47.68.68,0,0,0,1,0,.7.7,0,0,0,0-1,7.94,7.94,0,0,0-1.93-1.68c-.74-.46-1.41.7-.68,1.16Z"/><path class="cls-1" d="M228.15,850.56,233.1,852a.67.67,0,0,0,.36-1.29l-5-1.44a.67.67,0,0,0-.36,1.29Z"/><path class="cls-1" d="M229.31,843.49a19.44,19.44,0,0,0,5.35-.82.67.67,0,0,0-.36-1.29,18,18,0,0,1-5,.77.67.67,0,0,0,0,1.34Z"/><polygon class="cls-9" points="927.17 461.72 840.93 461.72 779.5 709.02 874.72 713.79 927.17 461.72"/><path class="cls-10" d="M794.9,890.52c-7.75,17.14-25.35,15.3-28.13,16.53S762.69,915.92,757,923s-12.83,4.28-17,5.51-13.76,1.32-12.82-2.75,9.78-5.24,13.71-12.86,9.84-22.34,12.53-26.32.59-9.49,0-12.55c-.24-1.21-4.71-11.12-10.9-24-.22-.42-.42-.85-.62-1.28h0c-.24-.49-.47-1-.72-1.47-9.35-18.79-35.21-48.49-55.61-77.11-4.09-5.74-8-11.43-11.44-17a244.92,244.92,0,0,1-16.59-31.1c-4.74-6.11-8.64-13.63-9.08-22.11a13.39,13.39,0,0,1,.21-3.24c-.16-.73-.23-1.11-.23-1.11l.43.2c5.16-19.8,54.21-27.47,68.37-18.29,15.11,9.79-5.86,29.07-5.45,36,.15,2.39,1.61,5.33,4,9.15,4.5,7.19,12.29,17.53,20.72,33.25a276.66,276.66,0,0,1,25.26,69c4.17,19.08,14,36.93,19.68,43.67S802.65,873.38,794.9,890.52Z"/><path class="cls-11" d="M711.82,713.46c.15,2.39,1.61,5.33,4,9.15-12.21,4-24.22,10.35-27.25,20.3-2.17,7.08-2.93,17-3,27.23-4.09-5.74-8-11.43-11.44-17a244.92,244.92,0,0,1-16.59-31.1c-4.74-6.11-8.64-13.63-9.08-22.11a13.39,13.39,0,0,1,.21-3.24c-.16-.73-.23-1.11-.23-1.11l.43.2c5.16-19.8,54.21-27.47,68.37-18.29C732.38,687.3,711.41,706.58,711.82,713.46Z"/><path class="cls-4" d="M770.1,393.47s-11.46-9.36-15.66-20.43-5.73-39.72,13.75-52.51,25.39-8.6,25.39-8.6a34.5,34.5,0,0,1,36.47.77c19.29,12.22,38.66,63.17,12,88.58S770.1,393.47,770.1,393.47Z"/><path class="cls-12" d="M845.76,435.72s-6.54,7.77-19.72,12-24.24,1.14-20.23-1.53c1.56-1.05,2.78-4.46,3.5-8.4,1.12-6.15,1-13.61-.84-15.47-.69-.7-1.91-.87-3.43-.72-5.09.52-13.45,4.73-15.66,4.73-2.86,0-1.53.95-9-7.83s-10.89-19.47-10.31-25-3.44-5.92-5.35-11.08S767,359.67,767,359.67l5-5.54s1.33,2.1,7.06,7.07,15.28,8,16.8,7.82c.72-.08-2.3-3.66-5.71-7.43,1.93,1.36,6.5,6.49,12.4,10.3s14.89,8.78,18.14,11.45.76.2.19-2.67,5.15-9.54,12-6.49,2.67,13.17,2.67,13.17,1.72,5.54,1.34,7.26,5.15-3.25,6.49-4.39.19,4.2-.95,9.16-1,8-.77,15.47S845.76,435.72,845.76,435.72Z"/><path class="cls-4" d="M786.45,381.82c.47,1.93.08,3.67-.85,3.89s-2.07-1.15-2.53-3.07-.09-3.66.85-3.89S786,379.9,786.45,381.82Z"/><path class="cls-4" d="M772.4,386.67c.39,1.59.13,3-.57,3.19s-1.58-1-2-2.58-.13-3,.57-3.19S772,385.08,772.4,386.67Z"/><path class="cls-11" d="M781.51,402.85a.41.41,0,0,1-.19,0,17.16,17.16,0,0,1-4.57-2.27c-1.72-1.6,2.21-6.27,2.26-6.31.19-.22-.17-1.54-.87-2.77a.58.58,0,0,1,1-.57c.4.71,1.64,3.09.71,4.11-1.17,1.29-2.82,4.24-2.32,4.71a16.79,16.79,0,0,0,4.16,2,.58.58,0,0,1-.18,1.12Z"/><path class="cls-11" d="M785.52,411.62a6.73,6.73,0,0,1-4.4-1.33.58.58,0,0,1,0-.81.57.57,0,0,1,.81,0c.08.07,1.81,1.55,5.52.85s6.89-6.1,6.92-6.15a.57.57,0,1,1,1,.56c-.13.25-3.4,5.9-7.69,6.71A11.06,11.06,0,0,1,785.52,411.62Z"/><path class="cls-4" d="M781.15,375.68c1-1,1.76-2,3.32-1.86a12.46,12.46,0,0,1,3.5.91c1,.41,1.47-1.25.45-1.66a11.82,11.82,0,0,0-5-1c-1.59.08-2.47,1.34-3.52,2.4a.86.86,0,0,0,1.22,1.21Z"/><path class="cls-4" d="M769.18,377.17a2.91,2.91,0,0,0-2.64,1.1,4.92,4.92,0,0,0-1.55,2.45c-.22,1.08,1.44,1.54,1.66.45a2.8,2.8,0,0,1,.83-1.41c.25-.26.83-1,1.24-.93,1.08.21,1.55-1.45.46-1.66Z"/><path class="cls-11" d="M824.51,420.2c-5.82,8.27-14.92,17.29-15.2,17.57,1.12-6.15,1-13.61-.84-15.47-.69-.7-1.91-.87-3.43-.72.82-.32,15.76-6.23,19.47-10s4.21-13.76,4.21-13.76S830.44,411.8,824.51,420.2Z"/><path class="cls-12" d="M674.16,639.24s-38.17,4-43.33,8.06-6.76,36.67-6.37,45.82-4.37,44.13-4,56.06,0,87.07-6,113.71-7.16,35.78-15.11,40.55S586.1,913,581.33,916.16s-13.12,10.14-17.1,7.76-9.14-4.18-9.14-.4,1.19,6.36,6.56,7.35,27,3.18,33.19-1.19,12.73-3.78,18.49-1.19,23.46,3,28.43-1.59,1.19-15.11-1.39-24.26-3.38-27.83-3-31.21,18.88-57.84,27.23-92.43,10.74-64,11.93-68,23.06-6,23.06-6Z"/><path class="cls-13" d="M851.09,688.34c-9.94,17.1-15.91,20.68-15.91,20.68H684.9s-1.2-8.4-2.75-18.37c-.09-.59-.18-1.18-.28-1.78-1-6.53-2.16-13.55-3.2-19.23-.11-.62-.22-1.21-.33-1.79-.35-1.86-.68-3.53-1-5-.82-3.7-1.42-7.25-1.88-10.42-.09-.63-.17-1.24-.25-1.83-.89-6.77-1.06-11.41-1.06-11.41s39.42-6.56,50.72-9.34L752,623.21l16.21.67,2.07.09,23.94,1,2.21.09,25.18,1,2.19.09,24.15,1,1.79.07,6.13.25S861,671.25,851.09,688.34Z"/><path class="cls-14" d="M770.27,624a48.67,48.67,0,0,1-20.18,18.27c-15.44,7.24-49.59,9.55-74.62,10.24-.09-.63-.17-1.24-.25-1.83,24.95-.7,59.09-3,74.11-10a46.46,46.46,0,0,0,18.87-16.74Z"/><path class="cls-14" d="M796.42,625.05c-10.11,14.28-26.75,28.3-48,35.91-17.71,6.34-47,8.25-69.75,8.68-.11-.62-.22-1.21-.33-1.79,22.65-.41,51.89-2.28,69.47-8.57a100.75,100.75,0,0,0,38.73-25.16,91,91,0,0,0,7.67-9.16Z"/><path class="cls-14" d="M823.79,626.18c-3.56,4.87-7.76,10.35-12.37,15.92-19.12,23.1-35.92,36.68-50,40.35-19.91,5.22-54.62,7.34-79.31,8.2-.09-.59-.18-1.18-.28-1.78,24.61-.85,59.31-3,79.14-8.15,21.35-5.59,46-34.84,60.59-54.63Z"/><path class="cls-14" d="M849.73,627.26a131.05,131.05,0,0,1-3.94,18.79c-4.58,15.76-14.41,37-35.21,48.65-14.45,8.08-34.94,12.24-54.2,14.32-8.34.9-16.45,1.41-23.74,1.69-5.68.21-11.15.3-16.23.3-18.23,0-31.42-1.08-31.59-1.09l.08-.9h0l.07-.89c.25,0,7.52.6,18.68.89,6.9.18,15.27.25,24.39,0,27.15-.73,60.88-4.25,81.66-15.89C830,681.78,839.58,661,844.07,645.55a129.45,129.45,0,0,0,3.87-18.36Z"/><path class="cls-10" d="M674.85,554.88s-13,5.54-14.5,8.52a39,39,0,0,0-2.39,6.35l24.35-.48s.6-11.13-1.09-12.72S674.85,554.88,674.85,554.88Z"/><path class="cls-15" d="M779.5,463.88s-48.88,67-53.25,71-52.09,12.32-52.09,15.9,4.38,17.56,7.16,18.72,53.77-2.12,53.77-2.12,34.45-8.31,44.41-38.9S779.5,463.88,779.5,463.88Z"/><path class="cls-2" d="M815.7,439.06s27.44-7.55,33.8-2.39,11.13,21.08,13.91,34.2,3.18,42.14,0,66.79S856.65,593.72,859,612s2.78,27.27-14.31,27.23c-8.77,0-77.13-6.16-86.68-10.93s-9.94-13.52-6-26.64S764,488,777.54,466.89s19.08-22.61,23.45-24.23S815.7,439.06,815.7,439.06Z"/><path class="cls-1" d="M847.13,454.73s30.6,45-2.4,102.81C814.4,610.7,751,605.84,751,605.84l6-36.47Z"/><path class="cls-2" d="M812,469.91s-5.9,52.28-12.13,56.2-74.33,11.46-74,16.77-.93,22.92,4,24.88,74.34,5.87,97.36-8.67,28.61-37.18,28.61-58.14-.93-42.22-11.2-48.09S814.05,454.24,812,469.91Z"/><path class="cls-12" d="M725.91,548.3S715,553.17,712,552.17s-11.82,2.59-13.22,4.18-6.06,13.4-5.26,13.4H700s2.18-4.56,3.57-4.75,1.5,3.17,8.16,3.28,16-3,16-3S725.91,550.28,725.91,548.3Z"/><polygon class="cls-9" points="147 461.72 233.24 461.72 294.67 709.02 199.45 713.79 147 461.72"/><path class="cls-10" d="M390.68,705.84c-1.19,22.26-27.57,37.8-27.57,37.8s-20.73,29.19-35,50.66c-6.41,9.61-15.45,26.27-23.53,42-10,19.42-18.49,37.44-18.82,39.09-.59,3-2.68,8.35,0,12.22s8.59,18.23,12.53,25.65S311,921.83,312,925.81s-8.64,3.87-12.82,2.68-11.33,1.49-17-5.37-7-14.31-9.74-15.51-20.38.6-28.13-16.1S252,876.6,257.69,870s15.51-23.95,19.69-42.54a264.67,264.67,0,0,1,25.25-67.19c12.09-22,22.85-33.13,24.51-40a8.43,8.43,0,0,0,.21-1.34c.41-6.71-20.56-25.49-5.45-35S391.88,683.58,390.68,705.84Z"/><path class="cls-11" d="M390.68,705.84c-1.19,22.26-27.57,37.8-27.57,37.8s-20.73,29.19-35,50.66c-6.41,9.61-15.45,26.27-23.53,42,.73-10.8,18.26-36.1,30.54-61.68,10.46-21.78,2.38-40.88-7.94-54.3a8.43,8.43,0,0,0,.21-1.34c.41-6.71-20.56-25.49-5.45-35S391.88,683.58,390.68,705.84Z"/><path class="cls-12" d="M475,930.87c-2.78-.79-25.84,2.39-31.8-1.59s-19.09-4-22.67-2.39-11.13,1.6-14.71-3.17,2.79-15.91,3.58-23.86-8.73-42.94-10.72-49.3-27-62-30.63-78.72S358.76,711,355.83,710s-59.36-1-61.12-1h0a58,58,0,0,1-16.22-17,40.17,40.17,0,0,1-6-18.29c-.66-10.28,8-18.49,17.32-24.33A106.73,106.73,0,0,1,312,639.24h9.44c19.71.06,63.64.44,66.1,2.59,3.18,2.78,22.27,29.42,22.67,48.9.07,3.57.1,6.87.11,9.94,0,0,8.44,93.39,15,135.38,6.28,40.15,6.55,41.91,6.56,42,2.66,8.73,4.94,14.62,6.56,17.05,4,6,9.95,14.71,16.3,17.5s9.94,8.34,14.32,9.93,15.9-5.17,16.3,0S477.75,931.67,475,930.87Z"/><path class="cls-10" d="M335.08,709H278.27s.11-7.94.18-17c.1-11.62.14-25.09-.18-25.9-.22-.54,4.92-7.79,11.48-16.72A106.73,106.73,0,0,1,312,639.24h9.44Z"/><path class="cls-8" d="M303.35,694.08a11.9,11.9,0,0,1,1.75.93,1.78,1.78,0,0,1,.5.59c1.69,2.91,2.19,13.42,2.19,13.42H278.27s-24.16,2.09-47.41-6.86-28.12-69.8-28.12-69.8,1.19.34,4.55-5.36c.38-.66.79-1.34,1.2-2,1.88-3.1,6.1-.92,8.12-3.55l1-1.25c.54-.66,1.08-1.27,1.61-1.82,6.85-7.16,92.73-3.63,92.73-3.63v24.5s-2.68,34.59-4.17,38.17c-.69,1.66-3.11,2.81-5.89,3.88-.9.36-1.85.7-2.78,1.05a22.7,22.7,0,0,0-6.24,3.12C289.61,688.23,299.06,692.05,303.35,694.08Z"/><path class="cls-16" d="M305.6,695.6c-10.22-1.35-50.26-7.85-74.54-28.77-14.6-12.58-19.47-23.23-21-30a28.89,28.89,0,0,1-.65-4.52,17.15,17.15,0,0,1,.91-7.37l1.1.48a14.33,14.33,0,0,0-.8,4.88c-.16,6.63,2.59,19.53,21.21,35.58,22.44,19.33,58.57,26.22,71.51,28.15a11.9,11.9,0,0,1,1.75.93A1.78,1.78,0,0,1,305.6,695.6Z"/><path class="cls-16" d="M301.9,681.29c-.9.36-1.85.7-2.78,1.05-7.88-.67-27-4.18-51.91-21.58-17.21-12-24.79-23.85-28.12-31.66a42.25,42.25,0,0,1-2.48-7.66,23.87,23.87,0,0,1-.66-6.7l1.19.11a21.9,21.9,0,0,0,.48,5.34c1.5,7.94,7.43,23.63,30.27,39.59C276.38,679.66,297.06,681.23,301.9,681.29Z"/><path class="cls-4" d="M329.48,330.14a42,42,0,0,0-22.29-11.23h0a.53.53,0,0,0,.08-.77c-2.21-2.68-14.58-16.48-34.49-16.48-21,0-31.43,18.06-38.8,35.91a.55.55,0,0,0,.3.71h0c-8,15.23-4.73,29.42-4.57,33.49-1.37-1.75-5.93-8.11-5-13.59a.55.55,0,0,0-.4-.64h0a.54.54,0,0,0-.66.42,13.82,13.82,0,0,0,1,7.34.54.54,0,0,1-.86.62,41,41,0,0,0-9.42-6.05c-3.17-1.43-6.91-.64-10.53,2.23-6.17,4.89-11.62,15.81-9.77,26.63a.55.55,0,0,0,.65.44h0A.55.55,0,0,0,195,389a26,26,0,0,0,2.18,14.75,21.44,21.44,0,0,0,4.87,6.71,38.8,38.8,0,0,0,9.57,11.78,9.68,9.68,0,0,0,7.72,2.31c4.88-.59,9.95-4.2,14.08-8a21,21,0,0,0,3.66-3.33.54.54,0,0,1,.39.8c-3.46,6.28-9.14,14.75-16.48,19.35-11.14,7-23.07,1.51-25.53.24a.55.55,0,0,0-.72.21h0a.54.54,0,0,0,.22.76,31.47,31.47,0,0,0,13.76,3.36,23.86,23.86,0,0,0,12.85-3.64c11.31-7.08,18.71-23,20.4-26.92.1.78.27,2.14.57,4.48.71,5.56,4.78,6.33,4.78,6.33s48.1-13,61.82-16.9c5.82-1.65,12.18-12.93,16.81-26.12a134.31,134.31,0,0,1-3.14,29.95c-2.36,10.21-7.17,16.19-12.8,16-5.32-.17-9.95-5.63-11.39-13.36a.54.54,0,0,0-.62-.44h0a.56.56,0,0,0-.45.64c1.54,8.24,6.6,14.07,12.44,14.26h.28c6.09,0,11.16-6.27,13.62-16.86A139.46,139.46,0,0,0,327,372C332.56,354.81,335,335.49,329.48,330.14ZM195.13,388.28c-1.64-10.32,3.54-20.67,9.41-25.32,3.29-2.6,6.62-3.35,9.4-2.1a45.31,45.31,0,0,1,14.92,11.62c.21.27.35.43.39.48l.41-.34c-.68,2.93-6.5-6.58-19.06-2.81C202.58,372.23,196.67,379.59,195.13,388.28Zm24.08,35.21a8.65,8.65,0,0,1-6.88-2.05,39.06,39.06,0,0,1-7.86-9c8.46,6.08,20.22,6.65,25.2,5.72l.19,0C226.5,420.86,222.77,423.06,219.21,423.49Zm23.33-96.63a52.32,52.32,0,0,0-6.09,7.7c7.14-16.32,17.28-31.81,36.33-31.81,16,0,27,9.14,31.58,13.81a41.71,41.71,0,0,0-9-3.95C285.34,309.33,261.82,306.59,242.54,326.86Z"/><path class="cls-4" d="M292,415.45a.54.54,0,0,0-.32-.69h0a.55.55,0,0,0-.72.32c-1,2.72-4.89,15,1.24,22a.54.54,0,0,0,.78,0h0a.55.55,0,0,0,0-.76C287.38,429.88,291.11,418,292,415.45Z"/><path class="cls-12" d="M316,380.27c-1.82,2.74,0,8-.9,13.15s-8.59,22.09-13.89,26.66-12.05,5.11-13,5.48-1.83,6-1.46,12.79a20.72,20.72,0,0,0,.83,4.74,23.74,23.74,0,0,0,3.43,7.1s-1,6.6-13.57,4-39.08-11.14-34.34-15.88,4.2-21,4.2-23.59,1.51-4.5,2.61-3.4.82-2.19,1-3.83,1.36.54,1.78,1,0-3.15,0-4.1,1.5,1.09,2.19,1.09.13-1.23-.55-2.74.68,0,2.33,0,0,0-.82-1.5.13-.69.68-2.2,6.71-8.9,5.89-10.27-4.52-.55-8.49-5.2-2.06-15.89,3.15-18.77,10.41,3.57,10.41,3.57c1.84-5.26,25.14-17.82,25.87-18.21L290,353a1.09,1.09,0,0,0,.76,1.93l.41,0c3.66-.19,22.46-7.12,22.46-7.12l2.56,4.38c2.55,4.38,4.56,13.51,4.56,17S317.79,377.53,316,380.27Z"/><path class="cls-4" d="M296.55,369.43a2.36,2.36,0,0,1,3-.83c.94.48,1.78-.94.83-1.42a4,4,0,0,0-5.25,1.42c-.57.9.85,1.72,1.42.83Z"/><path class="cls-4" d="M314.2,376.46a2.53,2.53,0,0,1,.8,1.2.82.82,0,0,0,1.58-.44,4.1,4.1,0,0,0-1.21-1.92.85.85,0,0,0-1.17,0,.84.84,0,0,0,0,1.16Z"/><path class="cls-10" d="M331.3,519.31s36.25-28.76,38.45-36-.91-7.48,1.87-12.69,7.19-13.27,7.19-13.27,15.69,17.37,16.11,22.7S338.79,541.88,330,545.44s-11.23,11-14.25-3.56S331.3,519.31,331.3,519.31Z"/><path class="cls-8" d="M436.12,404.74s-20.82-24.47-23.55-24.47-45.11,60.63-45.11,62.45,20.6,33.77,20.6,33.77Z"/><path class="cls-17" d="M429.55,414.24S407.27,375.16,404.72,377s-43.47,52.6-42.74,55.15,27.32,40.26,27.32,40.26Z"/><polygon class="cls-8" points="424.19 420.85 436.13 404.74 440.51 408.76 393.39 488.74 388.06 476.5 424.19 420.85"/><path class="cls-16" d="M384.87,470.76l42.4-62.55a2.12,2.12,0,0,1,2.69-.67l3.17,1.58a1.84,1.84,0,0,1,.76,2.72l-45,64.53a2.09,2.09,0,0,1-3.74-.74l-.6-3.56A1.75,1.75,0,0,1,384.87,470.76Z"/><path class="cls-2" d="M371.77,431.76a177.06,177.06,0,0,0,14.56,18.75c.7.79,1.86-.37,1.16-1.16a174.55,174.55,0,0,1-14.31-18.42c-.58-.87-2-.05-1.41.83Z"/><path class="cls-2" d="M382.19,435.64a17.94,17.94,0,0,0,4.25,6.18c.77.72,1.94-.44,1.17-1.16a15.9,15.9,0,0,1-3.83-5.46c-.41-1-2-.54-1.59.44Z"/><path class="cls-2" d="M377.46,419.43a24.81,24.81,0,0,0,7.48,8.49c.86.62,1.68-.8.83-1.42a23,23,0,0,1-6.89-7.9c-.5-.93-1.91-.1-1.42.83Z"/><path class="cls-2" d="M389.17,435.26c1.46,1.65,2.92,3.29,4.37,4.94.71.79,1.87-.37,1.17-1.16l-4.38-4.94c-.7-.79-1.86.37-1.16,1.16Z"/><path class="cls-2" d="M381.23,413.08A139.64,139.64,0,0,0,396,433.7c.69.8,1.85-.37,1.16-1.16a138.29,138.29,0,0,1-14.53-20.29.82.82,0,0,0-1.42.83Z"/><path class="cls-2" d="M388.94,401.39q8,10.91,16.8,21.13c.69.8,1.85-.36,1.16-1.16q-8.68-10.07-16.54-20.8c-.62-.85-2,0-1.42.83Z"/><path class="cls-2" d="M400.32,407a89.72,89.72,0,0,0,8.53,12c.68.81,1.84-.35,1.16-1.16a87.71,87.71,0,0,1-8.27-11.71.82.82,0,0,0-1.42.83Z"/><path class="cls-2" d="M399.14,397.16a137.78,137.78,0,0,1,13.22,17.22c.58.88,2,.06,1.42-.83A140.68,140.68,0,0,0,400.3,396c-.71-.79-1.86.38-1.16,1.16Z"/><path class="cls-2" d="M409.8,404c1.46,1.52,2.91,3,4.37,4.58.73.77,1.89-.4,1.16-1.16L411,402.87c-.74-.76-1.9.4-1.17,1.17Z"/><path class="cls-2" d="M318.89,544.62c-1.54,2.48-2.73,7.07-3.71,12.78-3.23,18.76-4.17,49.53-7.26,56.25-.65,1.4-2.44,2.52-5.1,3.42-14,4.73-51.83,3.33-70.86,4.25-22.64,1.1-23.37,11.32-25.74,15s-3.84-.73-4.2-15,1.46-50,6.57-74.14,10.59-50,10.88-65,6.65-35.79,23.08-44.92,31.6,3.29,31.6,3.29a44.75,44.75,0,0,0,13.14,8.39c7.5,2.92.86-1,2.32-1s18,15.2,21.61,21.78,16.07,27,19.72,39.08S325.46,534,318.89,544.62Z"/><path class="cls-11" d="M286.75,438.35a20.72,20.72,0,0,0,.83,4.74c-2.6-2-7.43-6.16-15.26-14.71-13-14.15-10-25.47-10-24.55s3.28,4.75,9.5,10.93,16.43,10.8,16.43,10.8C287.3,425.92,286.38,431.59,286.75,438.35Z"/><path class="cls-17" d="M319.79,372.16c-2.25-.56-4.81,1.54-6.8,5.19a2,2,0,0,0-1.38-1.08,8.1,8.1,0,0,0-2.6,0A20.13,20.13,0,0,0,307.8,367c-1.44-3.56-3.87-5.85-6.85-6.46-5.08-1-10.41,3.2-13.09,9.87l-20.35-2.58-.14,1.09,20.09,2.54a24.86,24.86,0,0,0-.85,3.11c-1.84,9,1.61,17.29,7.67,18.53a7.42,7.42,0,0,0,1.55.16c5.58,0,11.11-6,12.79-14.19.11-.55.2-1.11.28-1.66a7.46,7.46,0,0,1,2.48-.05c.68.14.87,1.06.91,1.4a28.43,28.43,0,0,0-1.72,4.95,24.08,24.08,0,0,0-.63,9.45c.47,2.85,1.66,4.65,3.33,5.07a3.06,3.06,0,0,0,.74.09c3.18,0,6.79-4.85,8.48-11.62C324.32,379.37,323.13,373,319.79,372.16Zm-12.25,6.67c-1.71,8.39-7.56,14.3-13,13.18s-8.53-8.86-6.82-17.24c1.58-7.7,6.64-13.31,11.7-13.31a6.86,6.86,0,0,1,1.35.13c2.61.54,4.76,2.6,6,5.8A20.12,20.12,0,0,1,307.54,378.83Zm13.89,7.58c-1.62,6.48-5.24,11.39-7.89,10.73-1.21-.3-2.13-1.82-2.52-4.17a23.18,23.18,0,0,1,.61-9c1.53-6.09,4.81-10.8,7.4-10.8a1.61,1.61,0,0,1,.49.07C322.18,373.89,323.05,379.93,321.43,386.41Z"/><path class="cls-4" d="M300.28,378.36c-.67,2.4-2,4.12-3,3.84s-1.26-2.45-.58-4.85,2-4.13,3-3.85S301,376,300.28,378.36Z"/><path class="cls-4" d="M313.8,383.48c-.55,2-1.25,3.47-1.58,3.38s-.14-1.75.41-3.71,1.26-3.46,1.58-3.37S314.35,381.53,313.8,383.48Z"/><path class="cls-11" d="M305.79,401.84a.55.55,0,0,1-.23-1c1.28-.57,2.46-1.43,2.49-1.79a9.91,9.91,0,0,0-1-2.67,22,22,0,0,1-1.17-2.9c-.65-2.26,1.88-4.08,2-4.16a.55.55,0,0,1,.63.9s-2,1.44-1.57,3a21.18,21.18,0,0,0,1.12,2.74,8.41,8.41,0,0,1,1.09,3.2c-.08,1.26-2.42,2.4-3.13,2.72A.44.44,0,0,1,305.79,401.84Z"/><path class="cls-11" d="M303.46,410.1a11.85,11.85,0,0,1-6-1.83c-3.79-2.29-4.4-5.1-4.43-5.22a.55.55,0,0,1,.43-.65.54.54,0,0,1,.64.42h0s.58,2.49,3.93,4.51a9.83,9.83,0,0,0,6.13,1.64.55.55,0,1,1,.18,1.08A5.28,5.28,0,0,1,303.46,410.1Z"/><path class="cls-1" d="M315.18,557.4c-3.23,18.76-4.17,49.53-7.26,56.25-.65,1.4-2.44,2.52-5.1,3.42a120.49,120.49,0,0,1-45.47-47.32c-17.83-34.06-27.58-102.19-27.58-102.19s49.58,37.89,75.47,75.4C309.14,548.62,312.42,553.37,315.18,557.4Z"/><path class="cls-12" d="M257.59,520S272,546,280.45,556.4s14.28,16.07,22.21,19.19l10.17.31s28.7-7.72,43.22-22.24,27.12-33.42,32.6-39.72,4.93-12.87,12.32-17.8,8.49-9.36,11-16.05-3-17.37-3-17.37-2.2,1.46-3.84,7-9.31,12.86-11.23,13.6-4.93-3.92-5.2-7.21,3.83-9.59-.28-10.13-4.65,4.38-5.75,8.21-4.66,7.4-4.38,12.88,3.56,5.2-1.1,10.13S355,515.86,345.37,523.8s-24.71,14.75-27.12,14.44-25.16-40.1-25.16-40.1Z"/><path class="cls-2" d="M298.07,490.93c0,8-37.62,30.32-44.56,29.95-1.95-.1-4.57-3-7.37-7.47C239,502,230.83,480.15,229.77,467.56a26.61,26.61,0,0,1,12.78-25.2c32.85-14,49.5,23.43,54.14,41A35.92,35.92,0,0,1,298.07,490.93Z"/><path class="cls-17" d="M298.07,490.93c0,8-37.62,30.32-44.56,29.95-1.95-.1-4.57-3-7.37-7.47,5.16-1.08,13.12-4.09,25.27-11.25,12.59-7.41,20.43-13.87,25.28-18.81A35.92,35.92,0,0,1,298.07,490.93Z"/><path class="cls-2" d="M185.53,713.79,140.05,467.36a4.77,4.77,0,0,1,4.69-5.64H147a4.79,4.79,0,0,1,4.69,3.87l47.76,248.2Z"/><path class="cls-1" d="M206.4,724.13l-24,202.53a4.77,4.77,0,0,1-4.74,4.21h-.63a4.76,4.76,0,0,1-4.74-5.24l20-201.5Z"/><path class="cls-1" d="M332.24,724.13l23.95,202.53a4.78,4.78,0,0,0,4.74,4.21h.63a4.77,4.77,0,0,0,4.75-5.24l-20.06-201.5Z"/><path class="cls-2" d="M350.13,724.13h-157a7.55,7.55,0,0,1-7.55-7.56h0a7.55,7.55,0,0,1,7.55-7.55h157a7.56,7.56,0,0,1,7.56,7.55h0A7.56,7.56,0,0,1,350.13,724.13Z"/><path class="cls-2" d="M888.64,713.79l45.48-246.43a4.77,4.77,0,0,0-4.69-5.64h-2.26a4.77,4.77,0,0,0-4.68,3.87l-47.77,248.2Z"/><path class="cls-1" d="M867.77,724.13l24,202.53a4.77,4.77,0,0,0,4.74,4.21h.63a4.76,4.76,0,0,0,4.74-5.24l-20.05-201.5Z"/><path class="cls-1" d="M741.93,724.13,718,926.66a4.78,4.78,0,0,1-4.74,4.21h-.63a4.77,4.77,0,0,1-4.75-5.24l20.06-201.5Z"/><path class="cls-2" d="M724,724.13H881.09a7.55,7.55,0,0,0,7.55-7.56h0a7.55,7.55,0,0,0-7.55-7.55H724a7.55,7.55,0,0,0-7.55,7.55h0A7.55,7.55,0,0,0,724,724.13Z"/><path class="cls-5" d="M493.63,501.55a.73.73,0,0,0,.86-.15.59.59,0,0,0-.1-.87c-.45-.34-10.91-8.47-3.78-24.24,7.24-16,14.71-19.61,14.78-19.64a.59.59,0,0,0,.3-.83.69.69,0,0,0-.9-.27c-.32.14-8,3.83-15.42,20.27-7.53,16.64,4.05,25.58,4.17,25.67Z"/><path class="cls-6" d="M495.88,464.27S500.53,448,488,443.75l-12.57-4.24S479.32,460.74,495.88,464.27Z"/><path class="cls-5" d="M544.43,462.5a.65.65,0,0,1-.66-.51.62.62,0,0,1,.55-.71c.57-.09,14-2.37,16.37-19.31,2.36-17.21-2.19-23.74-2.23-23.81a.58.58,0,0,1,.19-.85.7.7,0,0,1,.93.17c.2.28,4.86,7,2.44,24.64-2.46,17.89-17.33,20.35-17.48,20.38Z"/><ellipse class="cls-7" cx="493.72" cy="501.63" rx="25.96" ry="23.89"/><ellipse class="cls-16" cx="550.07" cy="502.27" rx="11.28" ry="10.38"/><ellipse class="cls-16" cx="550.07" cy="478.8" rx="11.28" ry="10.38"/><ellipse class="cls-6" cx="554.91" cy="491.9" rx="11.28" ry="10.38"/><ellipse class="cls-6" cx="543.27" cy="465.45" rx="15.75" ry="14.49"/><ellipse class="cls-8" cx="522.88" cy="465.45" rx="11.28" ry="10.38"/><ellipse class="cls-16" cx="533.15" cy="475.83" rx="11.28" ry="10.38"/><ellipse class="cls-6" cx="518.25" cy="484.24" rx="11.28" ry="10.38"/><ellipse class="cls-8" cx="535.97" cy="491.9" rx="11.28" ry="10.38"/><ellipse class="cls-16" cx="524.7" cy="499.55" rx="11.28" ry="10.38"/><ellipse class="cls-16" cx="507.96" cy="494.62" rx="11.28" ry="10.38"/><ellipse class="cls-6" cx="510.59" cy="509.92" rx="11.28" ry="10.38"/><ellipse class="cls-16" cx="533.15" cy="512.65" rx="11.28" ry="10.38"/><ellipse class="cls-16" cx="519.24" cy="523.03" rx="11.28" ry="10.38"/><ellipse class="cls-18" cx="464.03" cy="503.76" rx="14.63" ry="13.46"/><path class="cls-3" d="M451.14,574.73l-20-61.29c-.9-2.78,1.36-5.57,4.51-5.57h138.2c3.21,0,5.48,2.9,4.45,5.71l-22.41,61.29a4.7,4.7,0,0,1-4.46,3H455.64A4.68,4.68,0,0,1,451.14,574.73Z"/><path class="cls-7" d="M560.69,442s-13.71,5.09-23.33-8.71-9.84-16.06-9.84-16.06S555.36,417.31,560.69,442Z"/><path class="cls-7" d="M562.6,429.12s4.75-16.24,18-14.18l13.2,2.06S578.88,433.63,562.6,429.12Z"/><rect class="cls-2" x="280.35" y="577.82" width="465.18" height="19.68" rx="8"/><path class="cls-1" d="M718.69,639.24H308.38a4.77,4.77,0,0,1-4.77-4.77l-.59-37H722.87l.59,37A4.76,4.76,0,0,1,718.69,639.24Z"/><path class="cls-2" d="M332.24,639.24,314.62,926.39a4.77,4.77,0,0,1-4.76,4.48h-3.1a4.76,4.76,0,0,1-4.76-4.93l10-286.7Z"/><path class="cls-2" d="M693.22,639.24l17.61,287.15a4.77,4.77,0,0,0,4.77,4.48h3.09a4.77,4.77,0,0,0,4.77-4.93l-10-286.7Z"/><rect class="cls-9" x="303.02" y="597.5" width="419.98" height="8.35"/><path class="cls-18" d="M498.24,573.49h4.46a5.37,5.37,0,0,1-5.26,4.33H389.92a5.38,5.38,0,0,1-5.37-5.37v-20a5.38,5.38,0,0,1,5.37-5.37H497.44a5.37,5.37,0,0,1,5.26,4.33h-4.46a5.92,5.92,0,0,1,.09,1v20A5.92,5.92,0,0,1,498.24,573.49Z"/><path class="cls-17" d="M498.65,552.47v20a5.92,5.92,0,0,1-.09,1H393.92a5.26,5.26,0,0,1-5.17-5.21V556.79a5.17,5.17,0,0,1,.13-1.19,6,6,0,0,1,.4-1.19,5.16,5.16,0,0,1,4.64-3H498.56A5.92,5.92,0,0,1,498.65,552.47Z"/><path class="cls-2" d="M498.33,554.41v1.19H388.88a5.38,5.38,0,0,1,.4-1.19Z"/><rect class="cls-2" x="388.75" y="557.54" width="109.58" height="1.19"/><rect class="cls-2" x="388.75" y="562.46" width="109.58" height="1.19"/><path class="cls-2" d="M498.33,567.08v1.2H388.75v-1.2Z"/><path class="cls-18" d="M585.84,569.44a34.36,34.36,0,0,1-9-1.36l1-3.43c2.45.73,9.56,2.19,13,.17,2.76-1.62,9.19-11.75,11.31-20.24.93-3.73.9-6.68-.1-8.3-3.15-5.15-13.77-3.75-17.6-2.78l-.88-3.47c.67-.17,16.37-4,21.54,4.38,1.54,2.52,1.71,6.23.51,11-2.11,8.45-8.78,20-13,22.46A13.74,13.74,0,0,1,585.84,569.44Z"/><path class="cls-7" d="M569.52,519.48h-23a4.3,4.3,0,0,0-4.26,4.87L549,574.09a4.28,4.28,0,0,0,4.25,3.73h27.61a4.28,4.28,0,0,0,4.25-3.73l6.68-49.74a4.3,4.3,0,0,0-4.26-4.87Z"/><path class="cls-3" d="M587,447.79l35.89,127.09a4,4,0,0,0,3.88,2.94H732a4,4,0,0,0,3.68-5.67h0a4,4,0,0,0-3.69-2.4H635.81a4,4,0,0,1-3.86-2.87L595.51,445.54a4,4,0,0,0-3.86-2.88h-.82A4,4,0,0,0,587,447.79Z"/><path class="cls-2" d="M994.82,945.19H67.45A7.17,7.17,0,0,1,60.29,938h0a7.17,7.17,0,0,1,7.16-7.16H994.82A7.16,7.16,0,0,1,1002,938h0A7.16,7.16,0,0,1,994.82,945.19Z"/><path class="cls-1" d="M572.58,965.79H169.5a4.77,4.77,0,0,1-4.77-4.77h0a4.78,4.78,0,0,1,4.77-4.77H572.58a4.78,4.78,0,0,1,4.77,4.77h0A4.77,4.77,0,0,1,572.58,965.79Z"/><path class="cls-1" d="M852.43,965.79H606.15a4.77,4.77,0,0,1-4.78-4.77h0a4.78,4.78,0,0,1,4.78-4.77H852.43A4.77,4.77,0,0,1,857.2,961h0A4.76,4.76,0,0,1,852.43,965.79Z"/><circle class="cls-2" cx="764.95" cy="212.02" r="49.83"/><circle class="cls-17" cx="764.95" cy="212.02" r="38.79"/><path class="cls-1" d="M782.48,230.75a1.2,1.2,0,0,1-.84-.35l-16-16a6.53,6.53,0,0,1-1.93-4.64V187a1.2,1.2,0,0,1,2.39,0V209.8a4.15,4.15,0,0,0,1.22,2.95l16,16a1.2,1.2,0,0,1-.84,2Z"/><path class="cls-1" d="M769.68,211.19a5.32,5.32,0,1,1-5.31-5.31A5.32,5.32,0,0,1,769.68,211.19Z"/></g></svg>