<svg xmlns="http://www.w3.org/2000/svg" viewBox="0 0 1087.05 1072.49"><defs><style>.cls-1{fill:#e7eaf5;}.cls-2{fill:#b4bfd3;}.cls-3{fill:#d78058;}.cls-4{fill:#94c384;}.cls-5{fill:#5b8b77;}.cls-6{fill:#e7ac65;}.cls-7{fill:#935137;}.cls-8{fill:#364d4d;}.cls-9{fill:#78b066;}.cls-10{fill:#8b9bc3;}.cls-11{opacity:0.35;}.cls-12{fill:#5f73b3;}.cls-13{fill:#d8796e;}.cls-14{fill:#3c455d;}.cls-15{fill:#1f253f;}.cls-16{fill:#e19b84;}.cls-17{fill:#fff;}.cls-18{fill:#a94151;}.cls-19{fill:#273045;}.cls-20{fill:#6b422f;}</style></defs><g id="OBJECTS"><path class="cls-1" d="M689.79,302.86V638.09H587.05V386H567.73a3.84,3.84,0,0,1-3.84-3.84v-4.11a3.84,3.84,0,0,1,3.84-3.84H586.6l45-71.36Z"/><path class="cls-2" d="M690.16,374.22v11.56H587.05L587,386H567.73a3.84,3.84,0,0,1-3.84-3.84v-4.11a3.84,3.84,0,0,1,3.84-3.84Z"/><path class="cls-2" d="M618.07,397.3a12.27,12.27,0,0,0-12.26,12.26v21a2.2,2.2,0,0,0,2.2,2.2h20.12a2.2,2.2,0,0,0,2.19-2.2v-21A12.27,12.27,0,0,0,618.07,397.3Zm10.06,12.26v1.28h-9V399.56A10.07,10.07,0,0,1,628.13,409.56Zm-11.16-10v11.28h-9v-1.28A10.07,10.07,0,0,1,617,399.56ZM608,413h9V430.6h-9Zm11.16,17.56V413h9V430.6Z"/><path class="cls-2" d="M662.16,397.3a12.27,12.27,0,0,0-12.25,12.26v21a2.2,2.2,0,0,0,2.19,2.2h20.13a2.2,2.2,0,0,0,2.19-2.2v-21A12.27,12.27,0,0,0,662.16,397.3Zm10.07,12.26v1.28h-9V399.56A10.08,10.08,0,0,1,672.23,409.56Zm-11.16-10v11.28h-9v-1.28A10.07,10.07,0,0,1,661.07,399.56Zm-9,13.48h9V430.6h-9Zm11.16,17.56V413h9V430.6Z"/><path class="cls-2" d="M618.07,460.28a12.27,12.27,0,0,0-12.26,12.26v21a2.19,2.19,0,0,0,2.2,2.19h20.12a2.19,2.19,0,0,0,2.19-2.19v-21A12.27,12.27,0,0,0,618.07,460.28Zm10.06,12.26v1.28h-9V462.54A10.07,10.07,0,0,1,628.13,472.54Zm-11.16-10v11.28h-9v-1.28A10.07,10.07,0,0,1,617,462.54ZM608,476h9v17.57h-9Zm11.16,17.57V476h9v17.57Z"/><path class="cls-2" d="M662.16,460.28a12.27,12.27,0,0,0-12.25,12.26v21a2.19,2.19,0,0,0,2.19,2.19h20.13a2.19,2.19,0,0,0,2.19-2.19v-21A12.27,12.27,0,0,0,662.16,460.28Zm10.07,12.26v1.28h-9V462.54A10.08,10.08,0,0,1,672.23,472.54Zm-11.16-10v11.28h-9v-1.28A10.07,10.07,0,0,1,661.07,462.54Zm-9,13.47h9v17.57h-9Zm11.16,17.57V476h9v17.57Z"/><path class="cls-2" d="M618.07,523.26a12.27,12.27,0,0,0-12.26,12.25v21a2.19,2.19,0,0,0,2.2,2.19h20.12a2.19,2.19,0,0,0,2.19-2.19v-21A12.26,12.26,0,0,0,618.07,523.26Zm10.06,12.25v1.29h-9V525.51A10.08,10.08,0,0,1,628.13,535.51Zm-11.16-10V536.8h-9v-1.29A10.08,10.08,0,0,1,617,525.51ZM608,539h9v17.57h-9Zm11.16,17.57V539h9v17.57Z"/><path class="cls-2" d="M662.16,523.26a12.26,12.26,0,0,0-12.25,12.25v21a2.19,2.19,0,0,0,2.19,2.19h20.13a2.19,2.19,0,0,0,2.19-2.19v-21A12.27,12.27,0,0,0,662.16,523.26Zm10.07,12.25v1.29h-9V525.51A10.09,10.09,0,0,1,672.23,535.51Zm-11.16-10V536.8h-9v-1.29A10.08,10.08,0,0,1,661.07,525.51Zm-9,13.48h9v17.57h-9Zm11.16,17.57V539h9v17.57Z"/><path class="cls-2" d="M618.07,586.23a12.27,12.27,0,0,0-12.26,12.26v21a2.2,2.2,0,0,0,2.2,2.2h20.12a2.2,2.2,0,0,0,2.19-2.2v-21A12.27,12.27,0,0,0,618.07,586.23Zm10.06,12.26v1.28h-9V588.49A10.07,10.07,0,0,1,628.13,598.49Zm-11.16-10v11.28h-9v-1.28A10.07,10.07,0,0,1,617,588.49ZM608,602h9v17.56h-9Zm11.16,17.56V602h9v17.56Z"/><path class="cls-2" d="M662.16,586.23a12.27,12.27,0,0,0-12.25,12.26v21a2.2,2.2,0,0,0,2.19,2.2h20.13a2.2,2.2,0,0,0,2.19-2.2v-21A12.27,12.27,0,0,0,662.16,586.23Zm10.07,12.26v1.28h-9V588.49A10.08,10.08,0,0,1,672.23,598.49Zm-11.16-10v11.28h-9v-1.28A10.07,10.07,0,0,1,661.07,588.49Zm-9,13.48h9v17.56h-9Zm11.16,17.56V602h9v17.56Z"/><path class="cls-1" d="M371.66,369.12v269H474.4V435.84h19.33c2.11,0,3.84-1.38,3.84-3.08v-3.3c0-1.7-1.73-3.08-3.84-3.08H474.86L429.8,369.12Z"/><path class="cls-2" d="M371.29,426.38v9.27H474.4l.1.19h19.23c2.11,0,3.84-1.38,3.84-3.08v-3.3c0-1.7-1.73-3.08-3.84-3.08Z"/><path class="cls-2" d="M431.13,472.54v21a2.2,2.2,0,0,0,2.2,2.19h20.12a2.2,2.2,0,0,0,2.2-2.19v-21a12.26,12.26,0,1,0-24.52,0Zm11.16-10v11.28h-9v-1.28A10.07,10.07,0,0,1,442.29,462.54Zm11.16,10v1.28h-9V462.54A10.07,10.07,0,0,1,453.45,472.54Zm0,21h-9V476h9Zm-20.12,0V476h9v17.57Z"/><path class="cls-2" d="M387,472.54v21a2.19,2.19,0,0,0,2.19,2.19h20.12a2.19,2.19,0,0,0,2.2-2.19v-21a12.26,12.26,0,1,0-24.51,0Zm11.15-10v11.28h-9v-1.28A10.07,10.07,0,0,1,398.19,462.54Zm11.16,10v1.28h-9V462.54A10.07,10.07,0,0,1,409.35,472.54Zm0,21h-9V476h9Zm-20.12,0V476h9v17.57Z"/><path class="cls-2" d="M431.13,535.51v21a2.2,2.2,0,0,0,2.2,2.19h20.12a2.2,2.2,0,0,0,2.2-2.19v-21a12.26,12.26,0,0,0-24.52,0Zm11.16-10V536.8h-9v-1.29A10.08,10.08,0,0,1,442.29,525.51Zm11.16,10v1.29h-9V525.51A10.08,10.08,0,0,1,453.45,535.51Zm0,21h-9V539h9Zm-20.12,0V539h9v17.57Z"/><path class="cls-2" d="M387,535.51v21a2.19,2.19,0,0,0,2.19,2.19h20.12a2.19,2.19,0,0,0,2.2-2.19v-21a12.26,12.26,0,0,0-24.51,0Zm11.15-10V536.8h-9v-1.29A10.08,10.08,0,0,1,398.19,525.51Zm11.16,10v1.29h-9V525.51A10.08,10.08,0,0,1,409.35,535.51Zm0,21h-9V539h9Zm-20.12,0V539h9v17.57Z"/><path class="cls-2" d="M431.13,598.49v21a2.21,2.21,0,0,0,2.2,2.2h20.12a2.21,2.21,0,0,0,2.2-2.2v-21a12.26,12.26,0,0,0-24.52,0Zm11.16-10v11.28h-9v-1.28A10.07,10.07,0,0,1,442.29,588.49Zm11.16,10v1.28h-9V588.49A10.07,10.07,0,0,1,453.45,598.49Zm0,21h-9V602h9Zm-20.12,0V602h9v17.56Z"/><path class="cls-2" d="M387,598.49v21a2.2,2.2,0,0,0,2.19,2.2h20.12a2.2,2.2,0,0,0,2.2-2.2v-21a12.26,12.26,0,1,0-24.51,0Zm11.15-10v11.28h-9v-1.28A10.07,10.07,0,0,1,398.19,588.49Zm11.16,10v1.28h-9V588.49A10.07,10.07,0,0,1,409.35,598.49Zm0,21h-9V602h9Zm-20.12,0V602h9v17.56Z"/><path class="cls-2" d="M698.57,159H363.76a4.21,4.21,0,0,0-4.39,4V643.82a4.21,4.21,0,0,0,4.39,4H698.57a4.21,4.21,0,0,0,4.4-4V163A4.21,4.21,0,0,0,698.57,159Zm-8.78,472.29a4.2,4.2,0,0,1-4.39,4H376.94a4.2,4.2,0,0,1-4.39-4V175.53a4.2,4.2,0,0,1,4.39-4H685.4a4.2,4.2,0,0,1,4.39,4Z"/><polygon class="cls-1" points="372.55 201.49 365.38 209.73 696.65 209.73 689.79 201.49 372.55 201.49"/><polygon class="cls-1" points="372.55 224.61 365.38 232.85 696.65 232.85 689.79 224.61 372.55 224.61"/><polygon class="cls-1" points="372.55 247.73 365.38 255.96 696.65 255.96 689.79 247.73 372.55 247.73"/><polygon class="cls-1" points="372.55 270.85 365.38 279.08 696.65 279.08 689.79 270.85 372.55 270.85"/><polygon class="cls-1" points="372.55 293.97 365.38 302.2 696.65 302.2 689.79 293.97 372.55 293.97"/><polygon class="cls-1" points="372.55 317.08 365.38 325.32 696.65 325.32 689.79 317.08 372.55 317.08"/><path class="cls-1" d="M998.4,835H875.66a4.15,4.15,0,0,1,0-8.3h51.78a13.77,13.77,0,0,0,0-27.53H892.17a9.43,9.43,0,1,1,0-18.86h75.24a11.12,11.12,0,0,0,0-22.23H96.28a11.12,11.12,0,1,0,0,22.23h86.95a9.43,9.43,0,1,1,0,18.86H129.39a13.77,13.77,0,0,0,0,27.53H231.85a4.15,4.15,0,1,1,0,8.3H186.58a6.88,6.88,0,1,0,0,13.76H307.47a5.07,5.07,0,0,1,.51,10.11H279.64a8.89,8.89,0,0,0,0,17.78H547.89a8.89,8.89,0,0,0,0-17.78H512.61a5.07,5.07,0,0,1,.52-10.11H655a5.07,5.07,0,0,1,.52,10.11H632.69a8.89,8.89,0,0,0,0,17.78H815.11a8.89,8.89,0,1,0,0-17.78H798.18a5.07,5.07,0,0,1,.52-10.11H998.4a6.88,6.88,0,0,0,0-13.76Z"/><rect class="cls-2" x="714.5" y="895.67" width="110.82" height="17.78" rx="8.89"/><rect class="cls-1" x="550.99" y="895.67" width="110.82" height="17.78" rx="8.89"/><path class="cls-2" d="M379.36,886.78H253.63c-6.63,0-12,4-12,8.89h0c0,4.91,5.38,8.89,12,8.89H379.36c6.63,0,12-4,12-8.89h0C391.37,890.76,386,886.78,379.36,886.78Z"/><path class="cls-2" d="M770.22,827.13H644.5c-6.64,0-12,4-12,8.89h0c0,4.91,5.37,8.89,12,8.89H770.22c6.64,0,12-4,12-8.89h0C782.23,831.11,776.86,827.13,770.22,827.13Z"/><path class="cls-2" d="M297.06,823.64H171.33c-6.63,0-12,4-12,8.89h0c0,4.91,5.38,8.89,12,8.89H297.06c6.63,0,12-4,12-8.89h0C309.07,827.62,303.69,823.64,297.06,823.64Z"/><path class="cls-3" d="M785.66,487.25s-23.77-14.57-21-46.5,9.7-38.88,6.4-53.15,18.32-20.49,11.91-34,15.91-23.05,19.93-11-9.15,32.12,0,42.77-5.49,27.86-6.22,40.12,8.42,26,4.57,35.07S797.37,486.64,785.66,487.25Z"/><path class="cls-4" d="M807.43,502.51S784.57,471.78,791,446.46s22.86-26.12,24-46.78,7.92-37.69,17.68-45.74,6.1-27.45,17.81-25.62,10.62,21,5.13,37.39-7,10.18.73,25.19,5.49,19-4.76,31.1-12.07,14.88-9.51,24.46-6.22,22.62-13.18,27.26-14.63,2.67-11.34,13.53S812.35,503.25,807.43,502.51Z"/><path class="cls-5" d="M767.5,493.73S753.29,461,743.59,429.87s1.87-72.64,1.87-72.64,21.13,21.6,29.31,54S767.5,493.73,767.5,493.73Z"/><path class="cls-6" d="M745.09,500.29s-20.36,2.22-26.49-21.57,1.93-33.3-11.24-40.62-2.93-31.47-4.39-38.42-14.64-17.25-8.42-25.46,20.13-14.11,27.81,0,2.2,17,14.27,26.92,22.69,16.1,15,30.38-11.76,19-3.32,27.44S753.19,497.34,745.09,500.29Z"/><path class="cls-7" d="M744.69,523.79h0a.55.55,0,0,1-.51-.58c0-.29,1.75-28.69-4.75-58.28-6-27.53-15.24-43.42-19.65-51.06-.39-.68-.75-1.29-1.06-1.84a.55.55,0,0,1,1-.55c.31.56.67,1.17,1.06,1.84,4.44,7.69,13.69,23.68,19.77,51.38,6.53,29.74,4.79,58.29,4.77,58.58A.55.55,0,0,1,744.69,523.79Z"/><path class="cls-7" d="M790.43,523.79a.55.55,0,0,1-.54-.45c0-.2-3.33-19.78-6.23-60.93-2.56-36.42,2.37-74.25,4.22-88.49.26-2,.45-3.44.54-4.31a.55.55,0,0,1,1.09.12c-.09.88-.28,2.33-.54,4.33-1.85,14.21-6.77,52-4.21,88.27,2.89,41.09,6.18,60.63,6.21,60.82a.55.55,0,0,1-.45.63Z"/><path class="cls-8" d="M766.64,523.79h0a.55.55,0,0,1-.49-.6c0-.34,3.25-34.27,0-69.67s-11.59-55.26-11.67-55.46a.55.55,0,0,1,.29-.72.56.56,0,0,1,.72.29c.08.2,8.49,20.26,11.75,55.79s0,69.54,0,69.88A.55.55,0,0,1,766.64,523.79Z"/><rect class="cls-6" x="702.97" y="523.24" width="136.13" height="17.69" rx="8"/><path class="cls-3" d="M707.36,540.93s5.12,61.48,63.67,61.48,63.68-61.48,63.68-61.48Z"/><path class="cls-2" d="M811.54,586.1V754a4.11,4.11,0,0,1-4.06,4.17h0a4.11,4.11,0,0,1-4.06-4.17V586.1a4.06,4.06,0,0,1,5.93-3.7h0A4.19,4.19,0,0,1,811.54,586.1Z"/><path class="cls-2" d="M742.45,586.1V754a4.1,4.1,0,0,1-4.05,4.17h0a4.1,4.1,0,0,1-4-4.17V586.1a4.06,4.06,0,0,1,5.93-3.7h0A4.18,4.18,0,0,1,742.45,586.1Z"/><path class="cls-1" d="M828.75,588.34H710.57a3.21,3.21,0,0,1-3.21-3.21h0a3.21,3.21,0,0,1,3.21-3.21H828.75a3.21,3.21,0,0,1,3.21,3.21h0A3.21,3.21,0,0,1,828.75,588.34Z"/><path class="cls-1" d="M715.94,595.18V520a3.21,3.21,0,0,1,3.21-3.21h0a3.21,3.21,0,0,1,3.21,3.21v75.19a3.21,3.21,0,0,1-3.21,3.21h0A3.21,3.21,0,0,1,715.94,595.18Z"/><path class="cls-1" d="M820,595.18V520a3.21,3.21,0,0,1,3.21-3.21h0a3.21,3.21,0,0,1,3.21,3.21v75.19a3.21,3.21,0,0,1-3.21,3.21h0A3.21,3.21,0,0,1,820,595.18Z"/><path class="cls-9" d="M823.18,379.92s-15.19-5.49-23.6,10.24-9.88,29.65-20.5,32.57-20.85,4.4-20.49,17.57,7.69,16.34-8.42,25.19-9,37.34,4.07,37,10.29-26.42,20.53-31.47,21.88-10.25,22.61-20.86S854.47,389.8,823.18,379.92Z"/><path class="cls-8" d="M749.44,523.79a.54.54,0,0,1-.54-.47c0-.32-4.59-32.69,12.54-56.14A160.7,160.7,0,0,1,800.38,430a.55.55,0,0,1,.59.93,159,159,0,0,0-38.64,36.94c-16.87,23.08-12.39,55-12.34,55.34a.57.57,0,0,1-.47.63Z"/><path class="cls-8" d="M809.09,523.79a.55.55,0,0,1-.54-.45c0-.24-4.37-24.4-1.62-49.68,2.82-25.87,26.38-65.31,27.39-66.32a.55.55,0,0,1,.78.78c-1.09,1.19-24.3,40.17-27.08,65.66-2.73,25.12,1.57,49.12,1.61,49.36a.54.54,0,0,1-.44.64Z"/><path class="cls-5" d="M115.63,643.93s-11.26-22.09-24.57-19.62-5.62,15.92,2.88,17.84S115.63,643.93,115.63,643.93Z"/><path class="cls-6" d="M99.75,648.32s-25.26,12.35-15.88,21.82,31.76-26.21,31.76-26.21Z"/><path class="cls-6" d="M128.38,644.52s-1.64-16.21-11.52-20.41-15.07-1.26-10.7,5.27S111.23,643.88,128.38,644.52Z"/><path class="cls-5" d="M132.52,646.18s-4.13,27.67-19.09,26.29S118.53,650.91,132.52,646.18Z"/><path class="cls-5" d="M145.48,648.12s-5.72-33.08-18-28.89S145.48,648.12,145.48,648.12Z"/><path class="cls-6" d="M148.09,650.18s-15.17-3.26-17.51,9.17S138.28,662.33,148.09,650.18Z"/><path class="cls-6" d="M159.17,655.39S132.51,632.5,146,622.16,159.17,655.39,159.17,655.39Z"/><path class="cls-5" d="M171.1,662.7s-11.56-10.43-24-3.35S150.09,679.28,171.1,662.7Z"/><path class="cls-5" d="M178.72,669.52s-6.52-13.33,1.33-18.82S178.72,669.52,178.72,669.52Z"/><path class="cls-6" d="M173,664.32s.8-27-7.62-26.34S162.14,652.31,173,664.32Z"/><path class="cls-5" d="M200.82,654.44s.8-27-7.61-26.34S190,642.43,200.82,654.44Z"/><path class="cls-5" d="M204.47,646.08s13.58-23.33,5.87-26.78S200.64,630.33,204.47,646.08Z"/><path class="cls-9" d="M201,651.77s26.68-4.14,24.51-12.3S210.81,638.89,201,651.77Z"/><path class="cls-8" d="M203.21,708.87c0-.08-.61-1.86-1.39-4.82-2.86-7.89-11.33-24.73-35.21-43.59-17.17-13.55-38.2-15.85-52.82-15.39a114.69,114.69,0,0,0-27.91,4.29.54.54,0,0,1-.69-.35.55.55,0,0,1,.35-.69A115.46,115.46,0,0,1,113.76,644c14.8-.47,36.1,1.87,53.53,15.63,19.18,15.15,28.53,29,33,38.15-2.74-12.51-5.51-32.81,1.2-46.11,10.2-20.22,16.74-24.13,17-24.29a.54.54,0,0,1,.75.21.56.56,0,0,1-.2.75c-.06,0-6.57,4-16.58,23.83-7.85,15.55-2.4,41.09.4,51.62a29.42,29.42,0,0,1,1.39,4.86Z"/><rect class="cls-2" x="160.09" y="708.7" width="73.55" height="19.3" rx="8"/><path class="cls-10" d="M229,728H164.75s-11.46,10.78-5.14,26,18.58,17.07,18.58,17.07h37.35s12.26-1.83,18.58-17.07S229,728,229,728Z"/><path class="cls-9" d="M231.72,475.16s-.62-31.14,6.33-42,8.79-4.54,9.52,0,14.27-18.51,23.79-26.56,25.61-5.85,23.42,0-3.3,8.05,4.39,2.2,37-14.89,32.2-7.44-13.17,8.9-5.12,8.9,28.54,1.83,22.87,7.69-37.28,13.54-33.55,16.83,10.68,5.89,2.63,9.9-37.33,6.64-33.85,8.44,2.31,5.45-5.71,12.77S237.45,482.93,231.72,475.16Z"/><path class="cls-3" d="M286.68,568.27S279,495.19,312,465.55s64-23.75,64-20.84-20.52,55.68-39.53,83.9S286.68,568.27,286.68,568.27Z"/><path class="cls-8" d="M236.33,676a.55.55,0,0,1-.54-.44c-.24-1.14-23.41-114.06-15.27-163.48,7.78-47.26,33.3-77.81,71.87-86a.55.55,0,0,1,.23,1.07c-38.1,8.11-63.32,38.33-71,85.12-8.1,49.22,15,161.94,15.26,163.08a.54.54,0,0,1-.42.65Z"/><path class="cls-8" d="M274.28,675.42a.55.55,0,0,1-.55-.55c0-.61.16-61.79,13.74-114.51,7.22-28,22.34-52.69,33.75-68.46,12.37-17.09,23.91-28.57,25.26-28.64a.57.57,0,0,1,.58.53.54.54,0,0,1-.46.56c-1.2.51-12.22,11.13-24.93,28.8-11.19,15.56-26,39.91-33.13,67.49C275,613.21,274.83,674.26,274.83,674.87A.55.55,0,0,1,274.28,675.42Zm72.26-211.06h0Z"/><path class="cls-9" d="M227.17,571.74A36.36,36.36,0,0,0,206.58,550c-16.46-6.9-31.47-2.51-37.14,2.25s-9.7,10.06-2.56,11.53,16.28-1.29,13.17,2.74-16.83.55-23.6,14.82-7.5,25.62,0,20.31,10.25-7.14,8.05-.91-3.48,19.57,2.38,34.76,11.53,14.46,19.21,7.69,10.06-36.78,14.46-33.49.18,18.85,7.5,14.27,6.33-21.22,3.44-26.16-1.8-15.37,3.51-9.33,3.48,19,10.06,14.45S231.9,580.89,227.17,571.74Z"/><path class="cls-6" d="M229.07,531.23s-13.8-11.34-20.11-11.34-25.25,13.81-23.88,5.67-1.09-9.15-12.35,0-32.38,18.21-29.64,8.33,21.14-20,22.78-24.71-12.07,3.3-11.8-2.74,11.07-11,26-15.91,16.56-4.4,9.15-8.79,10.26-13.45,22.29-6.58S248.73,511.1,229.07,531.23Z"/><path class="cls-4" d="M255.67,585.45s-8.44-4.35-12.75-33.72,4.17-32.66,6.38-25.53,8.52,8.79,8,5.22-7.07-9.61,0-28.27,16.71-23.88,18.9-16.47,3.66,8.51,8.15,2.47,22-22.5,26.71-14-11.25,29.85-6.31,31.53,11.8-4.37,10.7,2.49-14,21.42-19.76,25.81-7.13,11.4-1.37,11.46-1.56,15.66-10,25.29S259.57,586.78,255.67,585.45Z"/><path class="cls-5" d="M267.69,614.14s3.65-31.4,33.94-38.53,40.26,23.25,41,44.4-2.47,42.33-6.31,40.4-36.57-37.85-43.81-37.86S271.24,620.45,267.69,614.14Z"/><rect class="cls-1" x="201.99" y="674.87" width="106.31" height="20.07" rx="8"/><path class="cls-2" d="M300.43,694.94l-1.83,9.72-12.64,67a8.79,8.79,0,0,1-8.63,7.16h-46a8.79,8.79,0,0,1-8.63-7.16l-12.63-67-1.84-9.72Z"/><polygon class="cls-10" points="300.43 694.94 298.6 704.66 210.05 704.66 208.21 694.94 300.43 694.94"/><path class="cls-8" d="M253.06,675.42a.55.55,0,0,1-.55-.51c0-.74-5.3-74-21.12-96.3-6.28-8.86-12.51-13.2-18.49-12.9-6.83.34-13.52,6.45-20.48,18.68-10.41,18.3-11.26,28.67-11.27,28.77a.55.55,0,0,1-1.1-.07c0-.43.87-10.69,11.42-29.25,7.15-12.58,14.14-18.87,21.37-19.23,6.38-.3,12.93,4.18,19.44,13.37,16,22.58,21.27,96.11,21.33,96.85a.56.56,0,0,1-.51.59Z"/><path class="cls-8" d="M261.84,675.42a.54.54,0,0,1-.54-.48c-.07-.49-6-49.55,13.66-72.88,9.13-10.82,18.26-11.66,24.3-10.47,12.08,2.4,21.87,14.53,25.31,25.29a.54.54,0,0,1-.35.69.55.55,0,0,1-.69-.36c-3.34-10.44-12.82-22.23-24.48-24.54-8.26-1.63-16.3,1.86-23.25,10.1-19.38,23-13.48,71.54-13.41,72a.55.55,0,0,1-.48.61Z"/><path class="cls-8" d="M255.62,675.42a.55.55,0,0,1-.54-.45c-.1-.51-9.77-52.27,1.84-101s26-57.88,26.6-58.24a.54.54,0,0,1,.75.2.55.55,0,0,1-.19.75c-.15.08-14.61,9.25-26.1,57.54-11.54,48.53-1.92,100.07-1.82,100.59a.55.55,0,0,1-.44.64Z"/><path class="cls-8" d="M241.71,675.42h-.09a.55.55,0,0,1-.45-.63c0-.09,1.44-9,0-31.53-.27-4.13-.44-9.63-.63-16-.9-29-2.41-77.67-16.16-108.7-4.91-11.07-11.19-17.29-18.66-18.47-12.62-2-24.59,11.2-24.71,11.33a.53.53,0,0,1-.77,0,.54.54,0,0,1-.05-.77c.51-.56,12.48-13.76,25.7-11.68,7.86,1.24,14.42,7.67,19.49,19.1,13.85,31.23,15.35,80,16.25,109.11.2,6.36.37,11.86.63,16,1.45,22.67.06,31.42,0,31.78A.56.56,0,0,1,241.71,675.42Z"/><g class="cls-11"><ellipse class="cls-12" cx="539.67" cy="790.29" rx="128.12" ry="36.44"/></g><path class="cls-13" d="M629,755.93c2.19-1.1,18.11-11,23.6-6.86s5.49,5.72,15.1,4.78,13.17-6.33,16.74-1.85,3.84,10.79,2.47,11.06-5.49-3.29-7.68-2.47-9.06,2.2-15.1,4.12a74.54,74.54,0,0,1-12.9,2.74c-3.28.57-12.35,12.9-12.35,12.9Z"/><path class="cls-14" d="M615.93,685.93a313.27,313.27,0,0,0,17.14,35.78c9.52,16.47,5.34,23.06,8.89,25.25s3.92,7.32,3.92,13.91,2.93,20.49-9.51,25.61-77.22,28.18-120.77,33.67S420.46,813.56,404,802.22s-17.2-23.06-18.66-34.77,11-28.54,20.49-36.22,97.34-29.1,97.34-29.1Z"/><path class="cls-15" d="M642,747s-15.47,10.25-50.61,16.83-91.12,10.25-86,8.42,77.21-12.81,102.1-20.49S638.8,735,638.8,735Z"/><path class="cls-15" d="M656.58,508.09c-1-.3-2-.63-3-1,0-1.21,0-2.49,0-3.8.21-16.17.51-40.62-12.21-52.67-5.59-5.3-13.21-7.67-22.65-7-11.07.74-20.07-1.94-26.75-8l-.56-.53c0-2.12,0-4.42.12-6.9.82-20-22-51.05-54.62-53.79s-52.62,22.78-52.62,22.78c-21.43,8.87-11.51,45.65-3.24,59.13,4.15,6.77,7.12,10.26,10.7,13.05,5.76,15.58,15.31,36.18,24.85,40.78a11.24,11.24,0,0,0,4.89,1.22,9.05,9.05,0,0,0,4.19-1c4.32-2.24,7.18-7.73,8.94-12.61a62.94,62.94,0,0,1,9.52,17.94c9.88,27.45,26,60.75,60,69.9s49.68-6.68,46.94-15.19,1.64-10.7,11.25-21.68S668.11,511.66,656.58,508.09Zm-131.89.3a7.54,7.54,0,0,1-7.12-.2c-8.35-4-17-21.86-22.63-36.57,2.89,1.84,6.32,3.68,11,6.46,8.75,5.24,18.57,8,27.08,17.68C531.4,500.55,528.74,506.3,524.69,508.39Zm108.84-21.72c4.12-12.09-2.74-27.43-21.41-28.74-15.22-1.07-19.85-6.83-20.59-19.78,7,5.81,16.2,8.4,27.34,7.65,8.81-.58,15.87,1.58,21,6.44,12,11.4,11.73,35.26,11.53,51.05,0,1.06,0,2.09,0,3.09C640.92,502.71,630,497,633.53,486.67Z"/><path class="cls-16" d="M578.54,505.44c-.18,2.2-1.64,2.75-6.77,6.77s-21,9.88-24.33,11c-2.34.78-7.27-6.67-9.93-11.05l0,0c-.89-1.48-1.53-2.6-1.7-2.91l0-.09.73-1.65a26.41,26.41,0,0,0,1.1-10.79c-.17-1.14-1-1.4-2.3-1.16-2.86.51-8,3.39-13.44,4.27-7.86,1.28-25.43-21.59-27.07-29.46s-2.2-8.05-6.59-13S484.32,442,484.32,442c4.2-3.3,7.68-17.75,7.68-17.75s15.92,13.54,26,16.28,26.35-1.1,28.91-2.37,4.94,2.19,4.94,2.19,8.24-9,13.91-1.1,1.09,12.08.18,15.19,1.46,5.12,3.29,8.6,4.39,4.76,4.76,12.17S578.73,503.25,578.54,505.44Z"/><path class="cls-17" d="M532.32,442.29l22.17-3.64-.18-1.08-22.63,3.71c-4.43-6.6-11.81-9.78-17.87-7.19a12.61,12.61,0,0,0-7.06,8.75,19.48,19.48,0,0,0,0,9.36c-.76.12-2.14.37-3.52.74a4,4,0,0,0-2.45,2.85,20,20,0,0,0-5.8-6.06c-3.25-2.12-6.61-2.61-9.46-1.4s-4.8,4-5.51,7.81a22.88,22.88,0,0,0,9.29,21.71,11.54,11.54,0,0,0,6.23,2.06,8.28,8.28,0,0,0,3.23-.65c2.84-1.22,4.8-4,5.51-7.81a21.46,21.46,0,0,0-1.63-12.15c-.32-.75-.68-1.46-1.06-2.16.13-.88.67-2.79,1.94-3.14a32.78,32.78,0,0,1,3.51-.73A22.52,22.52,0,0,0,508,456a20.39,20.39,0,0,0,8.66,9.93,13.92,13.92,0,0,0,6.71,1.84,11.51,11.51,0,0,0,4.49-.91,12.65,12.65,0,0,0,7.07-8.75A20.41,20.41,0,0,0,533.67,445,22.86,22.86,0,0,0,532.32,442.29Zm-29.16,29c-.64,3.44-2.37,5.93-4.87,7s-5.48.6-8.42-1.32a21.81,21.81,0,0,1-8.81-20.59c.64-3.44,2.37-5.93,4.87-7a7.09,7.09,0,0,1,2.79-.56,10.42,10.42,0,0,1,5.63,1.87,21.82,21.82,0,0,1,8.81,20.6Zm30.65-13.47a10.91,10.91,0,0,1-16.67,7.14,20.3,20.3,0,0,1-9.33-21.8,11.55,11.55,0,0,1,6.44-8,10.23,10.23,0,0,1,4-.81c5.58,0,11.47,4.3,14.37,11.09A19.19,19.19,0,0,1,533.81,457.78Z"/><path class="cls-18" d="M512.49,475h0c-.69,0-4.17-.23-5.26-1.13s-.27-2.54.37-4.06a9.5,9.5,0,0,0,.53-1.48c.11-.73-1.23-2.48-1.74-3.14a6,6,0,0,1-.37-.5.55.55,0,0,1,.15-.76.54.54,0,0,1,.76.16l.33.43c1,1.35,2.12,2.87,1.95,4a8.34,8.34,0,0,1-.6,1.73c-.34.81-1,2.5-.68,2.79.59.49,3,.81,4.61.88a.56.56,0,0,1,.52.58A.54.54,0,0,1,512.49,475Z"/><path class="cls-18" d="M518.35,486.67a13.14,13.14,0,0,1-3.08-.37.55.55,0,0,1,.3-1.06s4.11,1.1,7.06-.76,3.4-5.87,3.41-5.91a.53.53,0,0,1,.6-.48.55.55,0,0,1,.49.6c0,.19-.53,4.59-3.91,6.72A9.17,9.17,0,0,1,518.35,486.67Z"/><path class="cls-15" d="M519.16,452.85c.86,1.74.79,3.54-.17,4s-2.42-.56-3.28-2.31-.79-3.54.16-4S518.29,451.11,519.16,452.85Z"/><path class="cls-15" d="M498.3,462c.86,1.74.79,3.54-.16,4s-2.43-.56-3.29-2.31-.79-3.54.16-4S497.44,460.26,498.3,462Z"/><path class="cls-15" d="M491,457.13a2.94,2.94,0,0,1,1.49-2.44.83.83,0,0,0-.83-1.43,4.69,4.69,0,0,0-2.31,3.87c0,1.06,1.6,1.06,1.65,0Z"/><path class="cls-15" d="M512.92,445.87c1-1.73,2.49-.89,3.92-.42,1,.33,1.44-1.26.43-1.59s-2.1-.92-3.33-.66a3.7,3.7,0,0,0-2.45,1.84c-.51.93.91,1.76,1.43.83Z"/><path class="cls-18" d="M556,490.53c-5.67,13.26-18.44,21.61-18.44,21.61l0,0-1.71-2.92,0-.09.73-1.64a26.41,26.41,0,0,0,1.1-10.79c-.17-1.15-1-1.4-2.3-1.17,0,0,18-8.53,19.68-11.92s6-22.51,6.23-21.13A68.35,68.35,0,0,1,556,490.53Z"/><path class="cls-1" d="M637.46,650.54c0,6.77-24,16.19-23.42,20.86.17,1.4.56,3,1,4.74v.06c.91,4,1.86,8.66.14,12.49a19.77,19.77,0,0,1-3.41,5.12c-4.4,4.85-13.05,10.28-30.35,13.27-23.88,4.11-74.93,3.84-78.22-4.94a12,12,0,0,1-.65-2.92c-1.08-9.82,5.59-27.73,3.94-41.91-1.82-15.74-9.51-33.67-8.78-43.55a100.1,100.1,0,0,1,4.23-20.37l-14.48,44.15s-43.91.74-43.91-.36,29.28-57.09,34.4-72.46,13.54-32.57,18.3-35.13,39.57-20.4,39.57-20.4c.17.31.81,1.43,1.7,2.91l0,0c2.66,4.38,7.59,11.83,9.93,11.05,3.29-1.1,19.21-7,24.33-11s6.59-4.57,6.77-6.77c0,0,15.56,9.33,24.7,12.63s31.48,10.43,33.67,14.63,4,39.52,5,50.14S637.46,643.77,637.46,650.54Z"/><g class="cls-11"><path class="cls-12" d="M502.06,592.9l11.71-29.09a193.72,193.72,0,0,0-18.48,38.6c-7.86,22.51-7.86,35.13-7.86,35.13Z"/></g><path class="cls-17" d="M562.72,535c-14,.82-15.28-11.8-15.28-11.8,3.3-1.1,19.22-7,24.34-11s6.58-4.58,6.76-6.77C583.94,513.49,576.72,534.16,562.72,535Z"/><path class="cls-17" d="M547.44,523.19s-24.52,12.07-22.87,0,11.21-14.06,11.21-14.06c.17.32.81,1.44,1.71,2.92l0,0C540.17,516.52,545.1,524,547.44,523.19Z"/><g class="cls-11"><path class="cls-12" d="M547.44,523.19s-2.18,5.76-4.7,27.17-2.25,25.8-2.25,25.8H542s3-38.29,4.25-43.23,2-7.82,2-7.82Z"/><path class="cls-12" d="M552,550.58a1.87,1.87,0,1,1-1.87-1.87A1.87,1.87,0,0,1,552,550.58Z"/><circle class="cls-12" cx="549.34" cy="564.74" r="1.9"/></g><g class="cls-11"><path class="cls-12" d="M599,576.16s-.09,54.89-2.29,59S538,660.69,533.08,660.69s-26.41,3.58-26.41,3.58l-3.73-24s88.32,7.3,90.52-13.56S599,576.16,599,576.16Z"/></g><g class="cls-11"><path class="cls-12" d="M580.74,701.22a193.07,193.07,0,0,0,31-7.41c-4.39,4.85-13.05,10.28-30.35,13.26-23.88,4.12-74.92,3.85-78.22-4.94a11.85,11.85,0,0,1-.65-2.91s9.8-3.13,13.46-.56,30.74-4,53.63-11.35S614,671.39,614,671.39l1,4.75v.06L545.61,702C532.8,706.71,554,705.25,580.74,701.22Z"/></g><path class="cls-19" d="M423,740.26s-25.62,13.29-16.44,21.7,46.86,11.35,83.64,0,58.74-24.62,49.95-27S455.48,718.56,423,740.26Z"/><path class="cls-4" d="M441.87,578.18s-7.64-18.71-4.46-25.73,4.91-8.68,6.1-2.78,3.28,8.92,3.06-1,20.64-27.72,22.56-18.39-12.08,25.32-8,24.46,11.34-5,8.14,1.07S453.32,579.9,441.87,578.18Z"/><path class="cls-8" d="M448.81,647.24a.55.55,0,0,1-.52-.37c-.09-.26-8.7-26.08-8-55.36s18.39-45.7,18.57-45.86a.55.55,0,1,1,.74.81c-.18.16-17.51,16.15-18.21,45.08-.72,29.08,7.83,54.72,7.92,55a.55.55,0,0,1-.35.69A.47.47,0,0,1,448.81,647.24Z"/><path class="cls-5" d="M444.42,622.15s-10.49-16.81-1.67-35.47,46.14-35.68,52-20S459.23,627.25,444.42,622.15Z"/><path class="cls-9" d="M449,630.16s-2.71-13.91,10.89-26.14,36.26-14.49,39.2,0S461.5,638.89,449,630.16Z"/><path class="cls-4" d="M383.07,562.84s-3.6-14.4-30.4-20.44-61.39,14.91-59.19,14.45,21.13-2.15,37.32,6S384.89,569.16,383.07,562.84Z"/><path class="cls-8" d="M441.32,643.22a.55.55,0,0,1-.55-.53c0-.25-1.25-24.86-24-54s-74.88-37.48-75.4-37.56a.56.56,0,0,1-.46-.63.55.55,0,0,1,.63-.45c.53.08,53.05,8.48,76.1,38s24.26,54.4,24.27,54.65a.56.56,0,0,1-.53.57Z"/><path class="cls-8" d="M448.81,655.66a.55.55,0,0,1-.49-.31c-.08-.16-8.05-16.85-16.33-66.92-4.33-26.22-1.83-43.8,1-53.94,3.11-11,7.22-15.78,7.39-16a.55.55,0,0,1,.83.73c-.17.19-16.36,19.34-8.15,69,8.24,49.86,16.14,66.46,16.22,66.62a.54.54,0,0,1-.25.73A.53.53,0,0,1,448.81,655.66Z"/><path class="cls-5" d="M438.69,616.46s-25.18-16.61-42-34.91-23.05-46.36-23.42-58.31,0-14.06,0-14.06,41.72,14.55,54.53,45.29S438.69,616.46,438.69,616.46Z"/><path class="cls-9" d="M432.36,628.28s-15.56-10.41-28.92-3.54-63.31,16.65-84.71,18.48S274,655.66,274,655.66s-9.61-27.81,30.19-59.29,56.54-29,85.63-13.63S432.36,628.28,432.36,628.28Z"/><path class="cls-8" d="M442.87,640l.09-2.46c0-.18.52-18.13-16-46.17s-23.22-33.46-23.29-33.52a.54.54,0,0,1-.09-.77.55.55,0,0,1,.77-.09c.27.21,6.86,5.51,23.55,33.82,13.57,23,15.77,39.34,16.12,44.79,2.51-4.17,9.74-14.92,20.53-20.48,13.43-6.92,22.74-8.09,22.83-8.1a.54.54,0,0,1,.61.48.55.55,0,0,1-.48.61c-.09,0-9.22,1.17-22.46,8s-20.95,21.58-21,21.73Z"/><path class="cls-8" d="M443.51,638.09a.54.54,0,0,1-.54-.49c0-.21-2.11-21.4,7-37.2s33.85-26.2,34.1-26.31a.55.55,0,0,1,.42,1c-.25.1-24.62,10.36-33.57,25.84s-6.9,36.33-6.88,36.54a.55.55,0,0,1-.49.6Z"/><path class="cls-8" d="M439.22,643.22a.56.56,0,0,1-.52-.37c-.1-.29-10.24-28.67-38.23-41.68-30.75-14.29-50-9.53-66.15-2.25-18.3,8.22-24.95,18.32-25,18.42a.55.55,0,0,1-.93-.59c.28-.42,6.89-10.48,25.49-18.83,10.59-4.77,20.07-7,29.82-7H364c11.41,0,23.5,3,37,9.3,28.42,13.21,38.71,42,38.81,42.31a.56.56,0,0,1-.34.7Z"/><path class="cls-3" d="M437.9,524.73s-3.53-3.19-8.24-16.91,4.87-12.35,9.13-4.94S437.9,524.73,437.9,524.73Z"/><path class="cls-3" d="M437.41,523.19s19.92-13.6,24.31-3S437.41,523.19,437.41,523.19Z"/><path class="cls-6" d="M437.41,523.19s-14.66-24.17-22.62-14S437.41,523.19,437.41,523.19Z"/><path class="cls-6" d="M437.41,523.19s20.74-.49,20.74,5.38S449.32,539.1,437.41,523.19Z"/><path class="cls-6" d="M437.41,523.19s5.65-25.25,15-24.71S449.87,517.7,437.41,523.19Z"/><path class="cls-2" d="M502.51,662.78s-3,69.91-6.3,73.93a9.36,9.36,0,0,1-5.12,3.55c-2.29.77-5.76,1.6-12.08,3.77-12.81,4.39-45.38,2.57-54.16-1.83-7.84-3.92-16.28-63.41-18-76.18-.21-1.54-.31-2.4-.31-2.4Z"/><path class="cls-10" d="M502.51,662.78s-3,69.91-6.3,73.93a9.36,9.36,0,0,1-5.12,3.55c1.81-12.56,5.79-40.7,7-54.33,1.26-14.68-67-18.88-91.2-19.91-.21-1.54-.31-2.4-.31-2.4Z"/><path class="cls-1" d="M509,647.43v5a11.53,11.53,0,0,1-11.49,11.53l-87.25.31a11.53,11.53,0,0,1-11.54-10.74l-.26-3.83a11.5,11.5,0,0,1,11.31-12.31l87.51-1.44A11.53,11.53,0,0,1,509,647.43Z"/><path class="cls-17" d="M508,642.63c-1.81,1.25-5.8,2.12-10.44,2.13l-87.25.1c-4.39,0-8.23-.77-10.19-1.93a11.5,11.5,0,0,1,9.7-5.58l87.51-1.44A11.5,11.5,0,0,1,508,642.63Z"/><path class="cls-16" d="M509,688.72s-11.53,3.93-16.84,8.69-8.6,4-19.39,4.75c-9.46.64-10.91-1.38-15.06-5.83-.58-.63-1.23-1.31-2-2q-.37-.37-.72-.78a13.53,13.53,0,0,1-3.1-8.81v-.57a24.39,24.39,0,0,1,.71-5c.18-1.07,2.57-1.12,5.92,1.26s14.57,4.39,14.57,4.39l-5.3-1.65c-5.31-1.64-6.59-4-8.05-4.94s-1.47-2.56-.73-4.39,10.06,5.12,14.27,6.4,10.61-.73,8.41-2.56-5.48-3.84-5.12-6.13,10.79,3.75,15.37,1.92,9.24-3.84,9.24-3.84Z"/><path class="cls-13" d="M463.27,696.06a8.48,8.48,0,0,0,1.51.12,68.69,68.69,0,0,1-7,.15c-.58-.63-1.23-1.31-2-2q-.37-.37-.72-.78A57.6,57.6,0,0,0,463.27,696.06Z"/><path class="cls-13" d="M464.78,696.18c4.29-.28,7.84-.8,8.32-.87A53.5,53.5,0,0,1,464.78,696.18Z"/><path class="cls-13" d="M474,690.5c-2.16.17-10.69.78-13.95-.42-2.62-1-6.07-4.45-8.12-5.38v-.57a29,29,0,0,0,11.87,5.59A44.69,44.69,0,0,0,474,690.5Z"/><path class="cls-1" d="M506.11,664.49s-9-1.93-6.55,4.66,2.17,28,14.21,28.9,53.76-12.71,40.39-19.84S506.11,664.49,506.11,664.49Z"/><g class="cls-11"><ellipse class="cls-12" cx="759.22" cy="803.82" rx="66.09" ry="16.24"/></g><path class="cls-14" d="M770.48,728.26a2.75,2.75,0,0,1-.63-5.42l4.09-1c.68-10,2.7-56.14-15.26-75.88a26.06,26.06,0,0,0-20.29-8.91A27,27,0,0,0,717.85,646c-18.63,19.65-18.8,65.38-18.54,76.76h2.61a2.75,2.75,0,1,1,0,5.49h-7.87l-.14-2.6c-.12-2.41-2.9-59.31,20-83.42a32.69,32.69,0,0,1,24.53-10.64,31.66,31.66,0,0,1,24.35,10.71c21.75,23.9,16.74,79.68,16.52,82l-.19,2-8,1.88A2.85,2.85,0,0,1,770.48,728.26Z"/><path class="cls-10" d="M694.19,803.13s5.76,8,36.22,7.14,53.25-9.61,53.25-11.8-11.25-89.48-16.19-95-54.07-3.29-59.29,0S689.25,797.92,694.19,803.13Z"/><path class="cls-2" d="M764.17,709.64s13.45-5,28-11.35,26.62-13.45,28.82-11,4.39,6,1.92,9.33S798.48,707.07,789.42,723s-11,40.45-14,41.22S759.78,710.29,764.17,709.64Z"/><path class="cls-17" d="M819.68,683.2l9.21,7.27a6.6,6.6,0,0,1,1.33,8.93l-.68,1a6.59,6.59,0,0,1-9.71,1.24l-9-7.74a6.58,6.58,0,0,1-.62-9.38l.46-.52A6.59,6.59,0,0,1,819.68,683.2Z"/><path class="cls-2" d="M382.59,850.14c-6.86,10.26-22.38,20.1-59,17-16.3-1.4-27.07-7.43-33.57-14.65-8.09-9-9.54-19.84-6.79-25.91A103.91,103.91,0,0,0,289,809.67c.86-3.41,1.26-5.62,1.26-5.62,34.56,11,88.05-16.9,88.49-2.39S389.45,839.89,382.59,850.14Z"/><path class="cls-5" d="M337.41,844.31s-3.84-11.39-13.12-13.95-10.14-2.63-10.14-2.63,2,12.1,11.16,14.22A103.34,103.34,0,0,0,337.41,844.31Z"/><path class="cls-5" d="M337.79,839.6s-2.38-5.45,3-9.77l5.42-4.31S345.33,837.38,337.79,839.6Z"/><path class="cls-10" d="M382.59,850.14c-6.86,10.26-22.38,20.1-59,17-16.3-1.4-27.07-7.43-33.57-14.65,16.92,7.45,33.26,9.87,59,4.54,30.37-6.3,29.35-22.09,25.6-32.39s-8.54-7.51-41.21-5C314.65,821,299,815,289,809.67c.86-3.41,1.26-5.62,1.26-5.62,34.56,11,88.05-16.9,88.49-2.39S389.45,839.89,382.59,850.14Z"/><path class="cls-1" d="M329.78,771.74s-31.64.67-39.27,10.6-9.36,25.33,21.59,30.14,58.95-3,66.67-10.82,5.17-18.81-2.57-24.16S329.78,771.74,329.78,771.74Z"/><path class="cls-20" d="M364.52,788.69c-1.95,2.1-5.64,3.67-10.31,4.75-7.53,1.74-17.63,2.21-27.13,1.57-11.45-.77-22-3.15-26.23-6.85-9.85-8.67,17.09-13,18.14-13,3.46-.23,6.72-.38,9.79-.47,19.35-.58,31.12,1.35,35.88,4.83C368,781.9,367.88,785.09,364.52,788.69Z"/><path class="cls-10" d="M364.66,779.47c-3,5.49-6.81,11-10.45,14-7.53,1.74-17.63,2.21-27.13,1.57a49.13,49.13,0,0,1,1.7-20.37c.29-1,.62-1.93,1-2.9,4.62-11.74,6.84-18.06,7.89-17.81s32.53,6.08,33.13,9.63C371.13,765.55,368.49,772.52,364.66,779.47Z"/><path class="cls-2" d="M341.26,779.84s23.68-60.09,27.18-57.71,5.3,1.47,5.33,4.63-34.07,59.53-33.64,58.47A45.93,45.93,0,0,0,341.26,779.84Z"/><path class="cls-5" d="M878.79,653c-1.3-2.42-11.11-22.42-16.92-29.57s-13.43-9.89-10.78-10.26,6.64-1.83,20.24,6,20.73,29.64,20.73,29.64,4.26-13.91,10.26-29.64,21.75-20.5,22.08-19.4S913,613.88,913.62,636,889.78,673.36,878.79,653Z"/><path class="cls-5" d="M910,683.23s-2-12.71,8.63-9.56,11.61,6,11.77,5-2.73-14.22-10.27-17.79-14.9,1.17-16.74,3.78-.68,17.85-.68,17.85Z"/><path class="cls-6" d="M904.5,682.41H874s-2-60.66,0-98.35c1.52-28.65,9.54-76.95,13.31-98.48a2,2,0,0,1,3.9,0c3.77,21.53,11.8,69.83,13.31,98.48C906.49,621.75,904.5,682.41,904.5,682.41Z"/><path class="cls-3" d="M904.5,682.41c-2.26-39-8-102.74-13.31-144.83s0-52,0-52c3.77,21.53,11.8,69.83,13.31,98.48C906.49,621.75,904.5,682.41,904.5,682.41Z"/><path class="cls-4" d="M897.7,682.41S888.91,645,869,636s-29.2.92-34.17,13.36S831,671,833.68,668s2-15.55,16.09-14.82,30.68,30,30.68,30Z"/><path class="cls-9" d="M870.83,682.41s-12.61-9.15-17.08-8.74-9,2.79-7.14.78,6.68-11.9,17.94-9.34,24.27,17.3,24.27,17.3Z"/><path class="cls-9" d="M894.87,682.54s-9.61-30.23,12.45-48.71,30.19-8.42,34.17,0,5,11.16,4,11.34-9.46-3.84-18.58,0S911.8,657,908.65,664.69s-4.15,17.72-4.15,17.72Z"/><path class="cls-2" d="M934,690.45v60.71a10,10,0,0,1-9.88,10.14H853.86A10,10,0,0,1,844,751.16v-61a10,10,0,0,1,9.88-9.81h70.26a10,10,0,0,1,9.86,9.47C934,690,934,690.22,934,690.45Z"/><path class="cls-10" d="M934,690.45v.46a326.32,326.32,0,0,1-45,3c-20.57,0-35-1.12-45-2.65v-1.14c9.95,1.52,24.31,2.66,45,2.66a322.43,322.43,0,0,0,45-3C934,690,934,690.22,934,690.45Z"/><path class="cls-10" d="M934,703.48v1.13a324.61,324.61,0,0,1-45,3c-20.57,0-35-1.12-45-2.65v-1.15c9.95,1.53,24.3,2.67,45,2.67A324.17,324.17,0,0,0,934,703.48Z"/><path class="cls-10" d="M934,717.18v1.14a324.76,324.76,0,0,1-45,3c-20.57,0-35-1.11-45-2.65v-1.15c9.95,1.54,24.3,2.68,45,2.68A324,324,0,0,0,934,717.18Z"/><path class="cls-10" d="M934,730.89V732a326.32,326.32,0,0,1-45,3c-20.57,0-35-1.12-45-2.65v-1.15c9.95,1.53,24.3,2.67,45,2.67A324.17,324.17,0,0,0,934,730.89Z"/><path class="cls-10" d="M934,744.6v1.14a326.32,326.32,0,0,1-45,3c-20.57,0-35-1.12-45-2.65v-1.15c9.95,1.54,24.3,2.67,45,2.67A324.17,324.17,0,0,0,934,744.6Z"/><rect class="cls-1" x="184.79" y="392.54" width="40.83" height="10.98" rx="3"/><rect class="cls-1" x="888.82" y="317.22" width="40.83" height="10.98" rx="3"/><rect class="cls-2" x="184.79" y="166.3" width="40.83" height="10.98" rx="3"/><rect class="cls-1" x="287.88" y="200.55" width="40.83" height="10.98" rx="3"/><rect class="cls-2" x="125.23" y="422.18" width="62.58" height="10.98" rx="3"/><rect class="cls-1" x="160.09" y="432.81" width="45.11" height="10.98" rx="3"/><rect class="cls-2" x="939.78" y="580.74" width="39.3" height="10.98" rx="3" transform="translate(1918.85 1172.46) rotate(180)"/><rect class="cls-1" x="894.56" y="418.71" width="62.58" height="10.98" rx="3" transform="translate(1851.69 848.4) rotate(180)"/><rect class="cls-2" x="882.49" y="429.77" width="45.11" height="10.98" rx="3" transform="translate(1810.1 870.53) rotate(180)"/><rect class="cls-2" x="333.74" y="696.52" width="45.11" height="10.98" rx="3"/><rect class="cls-2" x="99.75" y="712.87" width="30.94" height="10.98" rx="3"/><rect class="cls-1" x="148.01" y="337.65" width="173.46" height="15.37" rx="4"/><path class="cls-2" d="M162.83,353,180,365.41a1.64,1.64,0,0,0,2.61-1.33V353Z"/><path class="cls-2" d="M305.72,353l-17.2,12.39a1.64,1.64,0,0,1-2.61-1.33V353Z"/><path class="cls-6" d="M284.75,308.61a3.85,3.85,0,0,0-3.83-4.17H188.56a3.85,3.85,0,0,0-3.82,4.17c.7,8.92,7.06,29,50,29S284,317.53,284.75,308.61Z"/><path class="cls-4" d="M217.45,304.44s-22.78-67.24-19.76-82.34,24.7-17,32.66-6.46,8.78,34.18,8.78,34.18,9.06-26.62,21.14-22.78,12.07,16.47,7.41,28-17.57,49.4-17.57,49.4Z"/><path class="cls-5" d="M190.24,234.21c5.21,5.53,12.07,8.74,18.91,11.79,1,.43,1.8-1,.84-1.42-6.71-3-13.47-6.1-18.59-11.54-.73-.77-1.89.4-1.16,1.17Z"/><path class="cls-5" d="M196.38,252A98.89,98.89,0,0,0,209,255.88c1,.25,1.47-1.34.43-1.58a99.29,99.29,0,0,1-12.6-3.92c-1-.38-1.42,1.21-.44,1.59Z"/><path class="cls-5" d="M201.67,226.37a9.59,9.59,0,0,1,2.72,2.74c.58.88,2,.06,1.42-.83A11.67,11.67,0,0,0,202.5,225c-.88-.59-1.71.84-.83,1.42Z"/><path class="cls-5" d="M208.13,207.78l3.45,9.28c.37,1,2,.55,1.59-.44l-3.45-9.27c-.37-1-2-.56-1.59.43Z"/><path class="cls-5" d="M229.35,203l-6,17.59c-.34,1,1.25,1.44,1.59.44l6-17.59c.34-1-1.25-1.44-1.59-.44Z"/><path class="cls-5" d="M235.68,221.94a29.88,29.88,0,0,0-7,11c-.37,1,1.22,1.43,1.58.44a28.1,28.1,0,0,1,6.58-10.27.82.82,0,0,0-1.16-1.17Z"/><path class="cls-5" d="M213.18,228a72.75,72.75,0,0,1,4.73,8.21c.47.95,1.89.12,1.42-.83a71.88,71.88,0,0,0-4.73-8.21c-.58-.88-2,0-1.42.83Z"/><path class="cls-5" d="M216.52,245.83a14.36,14.36,0,0,1,4,5.86c.36,1,1.95.56,1.59-.44a16.17,16.17,0,0,0-4.4-6.59c-.78-.71-2,.45-1.16,1.17Z"/><path class="cls-5" d="M226.86,241.15a8.22,8.22,0,0,0-1.13,7.24c.32,1,1.91.58,1.59-.44a6.6,6.6,0,0,1,1-6c.62-.87-.81-1.69-1.42-.83Z"/><path class="cls-5" d="M214.11,264.36a72.73,72.73,0,0,0-18.89-3.54c-1.06-.06-1.06,1.59,0,1.65A71.2,71.2,0,0,1,213.68,266c1,.33,1.44-1.26.43-1.59Z"/><path class="cls-5" d="M212.51,272.43a84.31,84.31,0,0,0-16.13,2.15c-1,.24-.6,1.82.44,1.58a82.19,82.19,0,0,1,15.69-2.08c1.06,0,1.06-1.68,0-1.65Z"/><path class="cls-5" d="M210.11,280.68q-9,1.41-17.88,3.63a.82.82,0,0,0,.43,1.59q8.86-2.22,17.89-3.63c1-.16.6-1.75-.44-1.59Z"/><path class="cls-5" d="M213,293.16a8.36,8.36,0,0,1-2.58,1.79.83.83,0,0,0-.3,1.12.85.85,0,0,0,1.13.3,9.42,9.42,0,0,0,2.91-2.05c.75-.75-.42-1.92-1.16-1.16Z"/><path class="cls-5" d="M220,286.48,214.85,284c-.94-.46-1.78,1-.83,1.43l5.19,2.52c.95.47,1.78-.95.83-1.42Z"/><path class="cls-5" d="M221.47,277.88l-3.89-2.41c-.9-.55-1.73.87-.83,1.43l3.89,2.4c.9.56,1.73-.87.83-1.42Z"/><path class="cls-5" d="M220.27,264.28a12.52,12.52,0,0,1,4.56,2.87A.82.82,0,0,0,226,266a14.44,14.44,0,0,0-5.28-3.29c-1-.36-1.43,1.23-.44,1.59Z"/><path class="cls-5" d="M229.32,256.31l2,2.7a.85.85,0,0,0,1.13.29.84.84,0,0,0,.29-1.13l-2-2.69a.87.87,0,0,0-1.13-.3.83.83,0,0,0-.3,1.13Z"/><path class="cls-5" d="M235.65,236.49a49.35,49.35,0,0,0-4,6.64c-.47.94.95,1.78,1.42.83a48.4,48.4,0,0,1,4-6.64c.62-.86-.81-1.68-1.43-.83Z"/><path class="cls-5" d="M258.74,224.44a114.2,114.2,0,0,0-7.53,13.39c-.45.95,1,1.79,1.43.83a112.7,112.7,0,0,1,7.52-13.39c.58-.89-.84-1.72-1.42-.83Z"/><path class="cls-5" d="M256.35,239.6q8.34-3.3,16.42-7.15c1-.46.12-1.88-.83-1.43q-7.89,3.76-16,7c-1,.39-.55,2,.43,1.59Z"/><path class="cls-5" d="M260.53,246.13q7.59-1.95,15-4.41c1-.33.57-1.92-.44-1.59q-7.43,2.46-15,4.41a.83.83,0,0,0,.44,1.59Z"/><path class="cls-5" d="M261.94,255.19a32.22,32.22,0,0,1,8.71,2.84c1,.47,1.78-.95.83-1.42a33.56,33.56,0,0,0-9.1-3c-1-.19-1.48,1.4-.44,1.59Z"/><path class="cls-5" d="M258.43,265.73A25.37,25.37,0,0,1,265.2,271c.72.78,1.88-.39,1.16-1.17a26.72,26.72,0,0,0-7.1-5.49c-.94-.5-1.77.92-.83,1.42Z"/><path class="cls-5" d="M257.16,278.19l6.94,5.4c.82.64,2-.51,1.16-1.17L258.33,277c-.83-.65-2,.51-1.17,1.16Z"/><path class="cls-5" d="M253.93,288a25.13,25.13,0,0,1,4.76,6.18c.51.92,1.94.09,1.42-.84a26.87,26.87,0,0,0-5-6.51c-.77-.73-1.94.43-1.17,1.17Z"/><path class="cls-5" d="M241.81,262.27a16.61,16.61,0,0,1,1.65,4.81c.19,1,1.78.6,1.59-.44a18.08,18.08,0,0,0-1.82-5.2c-.49-.94-1.92-.11-1.42.83Z"/><path class="cls-5" d="M243.56,247.3c.46,1.09.91,2.19,1.37,3.29a.86.86,0,0,0,1,.57.83.83,0,0,0,.57-1l-1.38-3.29a.86.86,0,0,0-1-.58.84.84,0,0,0-.57,1Z"/><path class="cls-5" d="M247.22,225.31a51.86,51.86,0,0,1,2.46,13c.06,1.05,1.71,1.06,1.65,0a53.9,53.9,0,0,0-2.52-13.44c-.32-1-1.91-.57-1.59.44Z"/><path class="cls-5" d="M240.92,254.07l1.92,3.29a.82.82,0,0,0,1.42-.83l-1.92-3.29a.82.82,0,0,0-1.42.83Z"/><path class="cls-5" d="M235.18,265.31a53,53,0,0,1,3.09,8.08.83.83,0,0,0,1.59-.44,56.08,56.08,0,0,0-3.26-8.47c-.45-1-1.87-.12-1.42.83Z"/><path class="cls-5" d="M230,279.77a22.56,22.56,0,0,1,2.62,3.68.82.82,0,0,0,1.42-.83,24.19,24.19,0,0,0-2.87-4c-.71-.8-1.87.37-1.17,1.16Z"/><path class="cls-5" d="M240.86,289.17a47.37,47.37,0,0,0-8,3.43c-.93.51-.1,1.93.83,1.42a46.7,46.7,0,0,1,7.59-3.27c1-.32.58-1.91-.43-1.58Z"/><path class="cls-5" d="M245,288.52c.18,2.56.37,5.12.55,7.68.07,1.06,1.72,1.06,1.64,0l-.54-7.68c-.07-1-1.72-1.06-1.65,0Z"/><path class="cls-5" d="M250,273.84l2.44,3.59c.59.87,2,.05,1.42-.83L251.37,273c-.59-.87-2-.05-1.42.83Z"/><path class="cls-5" d="M250.77,260.39a21.41,21.41,0,0,0,3.68,4c.81.67,2-.49,1.17-1.17a19.06,19.06,0,0,1-3.42-3.7c-.61-.86-2,0-1.43.83Z"/><path class="cls-5" d="M254.84,249.51l8.21,2.81c1,.34,1.43-1.25.44-1.59l-8.22-2.8c-1-.35-1.43,1.24-.43,1.58Z"/><rect class="cls-1" x="739.66" y="254.14" width="173.46" height="15.37" rx="4"/><path class="cls-2" d="M754.48,269.51l17.2,12.39a1.65,1.65,0,0,0,2.61-1.34V269.51Z"/><path class="cls-2" d="M897.37,269.51l-17.2,12.39a1.65,1.65,0,0,1-2.61-1.34V269.51Z"/><path class="cls-6" d="M876.39,225.1a3.84,3.84,0,0,0-3.82-4.17H780.21a3.85,3.85,0,0,0-3.83,4.17c.71,8.92,7.07,29,50,29S875.69,234,876.39,225.1Z"/><path class="cls-9" d="M816,203.06s1-17.82-4-22.95-8,1.95-5.31,9.69S816,203.06,816,203.06Z"/><path class="cls-4" d="M806.77,195.87a16.49,16.49,0,0,0-11.95-16.31C782,175.35,795.67,190.23,806.77,195.87Z"/><path class="cls-9" d="M796.35,191.24s-11.41-13.34-27.69-12.42S796.35,191.24,796.35,191.24Z"/><path class="cls-9" d="M783.13,191.07s-8.8-2.78-20.15,1.46-13.54,17.59-6.58,16.86S783.13,191.07,783.13,191.07Z"/><path class="cls-9" d="M798.29,193s-16.77-.12-21.92,5.74S794.26,199.57,798.29,193Z"/><path class="cls-9" d="M808.87,197.2S789,199,790.61,205.64,808.87,197.2,808.87,197.2Z"/><path class="cls-9" d="M831.59,209.42s-1.27-14.29,7.33-22.07S831.59,209.42,831.59,209.42Z"/><path class="cls-4" d="M841.4,197.2s13.62-19.1,23.68-13.61S841.4,197.2,841.4,197.2Z"/><path class="cls-9" d="M837.24,202.27s16.68-5.84,20.52,0S837.24,202.27,837.24,202.27Z"/><path class="cls-9" d="M865.45,194s9.15-5.28,14.82,5.78S865.45,194,865.45,194Z"/><path class="cls-5" d="M871.31,203.56s12.25.89,14.63,14.61S874.05,214.17,871.31,203.56Z"/><path class="cls-9" d="M860.69,192.19s13.91,12.44,7.87,18.3S859.23,197.49,860.69,192.19Z"/><path class="cls-9" d="M872.22,215.79s12.07,5.31,8,18.48S872.22,215.79,872.22,215.79Z"/><path class="cls-5" d="M871.31,211s-13.51,3.15-11,16.69S871.31,211,871.31,211Z"/><path class="cls-9" d="M872.22,223.17s-15.46,9.82-14.05,22.45S872.22,223.17,872.22,223.17Z"/><path class="cls-9" d="M871.67,235.77s13.36,8.38,8.6,21.74S871.67,235.77,871.67,235.77Z"/><path class="cls-4" d="M870.57,244.7s-20.13,5.05-13.91,22.56S870.57,244.7,870.57,244.7Z"/><path class="cls-5" d="M867.82,260.54s15.65,3.37,10.94,16.91S867.82,260.54,867.82,260.54Z"/><path class="cls-9" d="M867.87,271.69s-8.14.46-7.84,16.56S867.87,271.69,867.87,271.69Z"/><path class="cls-9" d="M866.73,284.77s25.8,25.93,16.83,32.45S862.2,307.83,866.73,284.77Z"/><path class="cls-5" d="M816.05,218s-6.28-11.29-19.7-8.57S816.05,218,816.05,218Z"/><path class="cls-4" d="M799.69,219.76s-29.21-8.36-37.44,9.75S799.69,219.76,799.69,219.76Z"/><path class="cls-9" d="M790.52,232.58s-26.62,7-23.69,21.56S790.52,232.58,790.52,232.58Z"/><path class="cls-9" d="M785.65,246.26s-14.14,4.66-11.36,17.84S785.65,246.26,785.65,246.26Z"/><path class="cls-5" d="M784.31,256.81s-17.75,25.88-12.18,30.89S784.31,256.81,784.31,256.81Z"/><path class="cls-9" d="M780.39,284.77s-27.6,6.41-21.95,14.09S773.09,297.21,780.39,284.77Z"/><path class="cls-5" d="M772.28,302.86A57.14,57.14,0,0,0,750,311.3c-11.53,7.32-10.6,17.39,4.49,13.73S772.28,302.86,772.28,302.86Z"/><path class="cls-9" d="M803.7,218.61s1.57,20.6-5.48,20.79S799,224,803.7,218.61Z"/><path class="cls-5" d="M794.25,225.74s4.36,28.48-1.1,29.21S788.2,238.43,794.25,225.74Z"/><path class="cls-9" d="M786,251.47s9.73,12.08,4.53,23.24S786,251.47,786,251.47Z"/><path class="cls-9" d="M783.5,270.73s6.56,10.57,4.18,19S781.45,285.94,783.5,270.73Z"/><path class="cls-5" d="M752.74,317.77a.54.54,0,0,1-.47-.26.55.55,0,0,1,.18-.76c1.4-.87,2.84-1.68,4.22-2.47,11.93-6.76,23.19-13.14,27.92-60.2,1.94-19.3,7.45-31.27,16.38-35.58,9.85-4.75,20.07,1.69,20.5,2a.56.56,0,0,1,.16.76.55.55,0,0,1-.76.17c-.1-.07-10.14-6.39-19.43-1.9-8.56,4.13-13.85,15.81-15.75,34.7-2.18,21.63-5.84,36.18-11.53,45.78-5,8.52-11.1,11.95-16.94,15.27-1.38.78-2.8,1.59-4.19,2.45A.6.6,0,0,1,752.74,317.77Z"/><path class="cls-5" d="M879.71,313.13c-1.72,0-5.88-7-11.47-19.35-3.42-7.56-1.47-24.39.6-42.21,2.56-22.1,5.47-47.16-2.37-55.53a9.62,9.62,0,0,0-8-3c-11.78.59-20.14,5.45-24.83,14.45a32.33,32.33,0,0,0-3.56,13.41.55.55,0,1,1-1.09,0A33,33,0,0,1,832.71,207c3.37-6.44,10.56-14.28,25.76-15a10.78,10.78,0,0,1,8.81,3.3c8.18,8.75,5.37,33,2.65,56.42-2,17.66-4,34.35-.69,41.63,7.72,17.05,10.28,18.59,10.54,18.71a.53.53,0,0,1,.48.45.56.56,0,0,1-.45.64Zm.08-1.08h0Zm-.16,0Zm0,0Zm0,0Z"/><path class="cls-5" d="M826.39,221.48a.55.55,0,0,1-.53-.41,45.1,45.1,0,0,0-27.57-28c-22.1-8.17-39.28,9.59-39.45,9.77a.55.55,0,0,1-.78,0,.54.54,0,0,1,0-.77c.17-.19,17.87-18.47,40.63-10.05a46.2,46.2,0,0,1,28.25,28.78.55.55,0,0,1-.39.67Z"/></g></svg>