<svg xmlns="http://www.w3.org/2000/svg" xmlns:xlink="http://www.w3.org/1999/xlink" viewBox="0 0 1087.05 1072.49"><defs><style>.cls-1{fill:none;}.cls-2{fill:#eef3fa;}.cls-3{clip-path:url(#clip-path);}.cls-11,.cls-4{fill:#b6bdd3;}.cls-5{fill:#312b65;}.cls-6{fill:#fff;}.cls-7{fill:#000401;}.cls-8{fill:#5c64a4;}.cls-9{fill:#e7eaf5;}.cls-10{fill:#92a0c2;}.cls-11{opacity:0.53;}.cls-12{fill:#d8dff0;}.cls-13{fill:#78b066;}.cls-14{fill:#94c384;}.cls-15{fill:#5b8b77;}.cls-16{opacity:0.65;}.cls-17,.cls-26{fill:#364d4d;}.cls-18{fill:#d78058;}.cls-19{fill:#a94151;}.cls-20,.cls-21{fill:#b1bcd2;}.cls-21{opacity:0.67;}.cls-22{fill:#1c173d;}.cls-23{fill:#e19b84;}.cls-24{fill:#e7ac65;}.cls-25{opacity:0.81;}.cls-26{opacity:0.45;}</style><clipPath id="clip-path"><path id="SVGID" class="cls-1" d="M940.49,805H899.57c-14.66,0-26.55-12.45-26.55-27.8V713.94c0-15.35,11.89-27.79,26.55-27.79H916c14.67,0,26.55-12.45,26.55-27.8V514.8c0-15.35-11.88-27.8-26.55-27.8H869.26c-14.66,0-26.55-12.44-26.55-27.79V322.94c0-15.35-11.89-27.8-26.55-27.8h-66.5c-14.67,0-26.55-12.44-26.55-27.79V156.66c0-15.35-11.89-27.8-26.56-27.8H563.75c-14.67,0-26.55,12.45-26.55,27.8V297.81c0,15.35-11.9,27.79-26.56,27.79H209.22c-14.67,0-26.55,12.45-26.55,27.8V454.76c0,15.35-11.89,27.79-26.55,27.79H141.75c-14.66,0-26.55,12.44-26.55,27.79V601.8A28.35,28.35,0,0,0,123,621.45a25.87,25.87,0,0,0,18.77,8.14c14.66,0,26.55,12.45,26.55,27.79V790.69a28.36,28.36,0,0,1-7.78,19.66,25.87,25.87,0,0,1-18.77,8.14c-14.66,0-26.55,12.44-26.55,27.79v82.33H967V832.8C967,817.45,955.15,805,940.49,805Z"/></clipPath></defs><g id="OBJECTS"><path class="cls-2" d="M967,832.8v95.81H115.2V846.28c0-15.35,11.89-27.79,26.55-27.79a25.87,25.87,0,0,0,18.77-8.14,28.36,28.36,0,0,0,7.78-19.66V657.38c0-15.34-11.89-27.79-26.55-27.79A25.87,25.87,0,0,1,123,621.45a28.35,28.35,0,0,1-7.78-19.65V510.34c0-15.35,11.89-27.79,26.55-27.79h14.37c14.66,0,26.55-12.44,26.55-27.79V353.4c0-15.35,11.88-27.8,26.55-27.8H510.64c14.66,0,26.56-12.44,26.56-27.79V156.66c0-15.35,11.88-27.8,26.55-27.8h132.8c14.67,0,26.56,12.45,26.56,27.8V267.35c0,15.35,11.88,27.79,26.55,27.79h66.5c14.66,0,26.55,12.45,26.55,27.8V459.21c0,15.35,11.89,27.79,26.55,27.79H916c14.67,0,26.55,12.45,26.55,27.8V658.35c0,15.35-11.88,27.8-26.55,27.8H899.57c-14.66,0-26.55,12.44-26.55,27.79v63.27c0,15.35,11.89,27.8,26.55,27.8h40.92C955.15,805,967,817.45,967,832.8Z"/><rect class="cls-2" x="115.2" y="650.66" width="31.95" height="128.96" rx="15"/><rect class="cls-2" x="867.47" y="386.2" width="67.06" height="67.06" rx="13"/><rect class="cls-2" x="312.86" y="134.37" width="177.16" height="149.55" rx="13"/><rect class="cls-2" x="131.18" y="245.08" width="63.52" height="53.62" rx="13"/><g class="cls-3"><path class="cls-4" d="M413.31,116.11V158.5a.56.56,0,0,1-.47.62H263.38a.56.56,0,0,1-.47-.62V116.73a.56.56,0,0,1,.47-.62H413.31m1.89-2.5H261.49a.56.56,0,0,0-.48.62V161a.56.56,0,0,0,.48.62H414.73a.56.56,0,0,0,.47-.62V113.61Z"/><path class="cls-4" d="M259.12,116.11V158.5a.56.56,0,0,1-.48.62H109.19a.56.56,0,0,1-.47-.62V116.73a.56.56,0,0,1,.47-.62H259.12m1.89-2.5H107.3a.56.56,0,0,0-.48.62V161a.56.56,0,0,0,.48.62H260.54A.56.56,0,0,0,261,161V113.61Z"/><path class="cls-4" d="M567.5,116.11V158.5a.56.56,0,0,1-.47.62H417.57a.56.56,0,0,1-.47-.62V116.73a.56.56,0,0,1,.47-.62H567.5m1.89-2.5H415.68a.57.57,0,0,0-.48.62V161a.57.57,0,0,0,.48.62H568.92a.56.56,0,0,0,.47-.62V113.61Z"/><path class="cls-4" d="M721.69,116.11V158.5a.56.56,0,0,1-.47.62H571.76a.56.56,0,0,1-.47-.62V116.73a.56.56,0,0,1,.47-.62H721.69m1.9-2.5H569.87a.57.57,0,0,0-.48.62V161a.57.57,0,0,0,.48.62H723.11a.57.57,0,0,0,.48-.62V113.61Z"/><path class="cls-4" d="M875.88,116.11V158.5a.56.56,0,0,1-.47.62H726a.56.56,0,0,1-.47-.62V116.73a.56.56,0,0,1,.47-.62H875.88m1.9-2.5H724.06a.56.56,0,0,0-.47.62V161a.56.56,0,0,0,.47.62H877.3a.56.56,0,0,0,.48-.62V113.61Z"/><path class="cls-4" d="M358,164v42.39a.56.56,0,0,1-.47.62H208a.56.56,0,0,1-.47-.62V164.64A.56.56,0,0,1,208,164H358m1.9-2.5H206.13c-.26,0-.47.28-.47.63v46.76a.56.56,0,0,0,.47.62H359.37a.57.57,0,0,0,.48-.62V161.52Z"/><path class="cls-4" d="M203.76,164v42.39a.56.56,0,0,1-.47.62H53.83a.56.56,0,0,1-.47-.62V164.64a.56.56,0,0,1,.47-.62H203.76m1.9-2.5H51.94a.57.57,0,0,0-.48.63v46.76a.57.57,0,0,0,.48.62H205.18a.57.57,0,0,0,.48-.62V161.52Z"/><path class="cls-4" d="M512.14,164v42.39a.56.56,0,0,1-.47.62H362.22a.56.56,0,0,1-.48-.62V164.64a.56.56,0,0,1,.48-.62H512.14m1.9-2.5H360.32c-.26,0-.47.28-.47.63v46.76a.56.56,0,0,0,.47.62H513.56a.56.56,0,0,0,.48-.62V161.52Z"/><path class="cls-4" d="M666.33,164v42.39a.56.56,0,0,1-.47.62H516.41a.56.56,0,0,1-.48-.62V164.64a.56.56,0,0,1,.48-.62H666.33m1.9-2.5H514.51c-.26,0-.47.28-.47.63v46.76a.56.56,0,0,0,.47.62H667.76a.56.56,0,0,0,.47-.62V161.52Z"/><path class="cls-4" d="M820.53,164v42.39a.57.57,0,0,1-.48.62H670.6a.57.57,0,0,1-.48-.62V164.64a.57.57,0,0,1,.48-.62H820.53m1.89-2.5H668.7c-.26,0-.47.28-.47.63v46.76a.56.56,0,0,0,.47.62H822a.56.56,0,0,0,.47-.62V161.52Z"/><path class="cls-4" d="M974.72,164v42.39a.57.57,0,0,1-.48.62H824.79a.56.56,0,0,1-.47-.62V164.64a.56.56,0,0,1,.47-.62H974.72m1.89-2.5H822.89c-.26,0-.47.28-.47.63v46.76a.56.56,0,0,0,.47.62H976.14a.56.56,0,0,0,.47-.62V161.52Z"/><path class="cls-4" d="M413.31,212v42.39c0,.35-.21.63-.47.63H263.38c-.26,0-.47-.28-.47-.63V212.66c0-.35.21-.63.47-.63H413.31m1.89-2.5H261.49c-.27,0-.48.28-.48.63v46.76c0,.35.21.62.48.62H414.73c.26,0,.47-.27.47-.62V209.53Z"/><path class="cls-4" d="M259.12,212v42.39c0,.35-.21.63-.48.63H109.19c-.26,0-.47-.28-.47-.63V212.66c0-.35.21-.63.47-.63H259.12m1.89-2.5H107.3c-.27,0-.48.28-.48.63v46.76c0,.35.21.62.48.62H260.54c.26,0,.47-.27.47-.62V209.53Z"/><path class="cls-4" d="M567.5,212v42.39c0,.35-.21.63-.47.63H417.57c-.26,0-.47-.28-.47-.63V212.66c0-.35.21-.63.47-.63H567.5m1.89-2.5H415.68a.57.57,0,0,0-.48.63v46.76a.56.56,0,0,0,.48.62H568.92c.26,0,.47-.27.47-.62V209.53Z"/><path class="cls-4" d="M721.69,212v42.39c0,.35-.21.63-.47.63H571.76c-.26,0-.47-.28-.47-.63V212.66c0-.35.21-.63.47-.63H721.69m1.9-2.5H569.87a.57.57,0,0,0-.48.63v46.76a.56.56,0,0,0,.48.62H723.11a.56.56,0,0,0,.48-.62V209.53Z"/><path class="cls-4" d="M875.88,212v42.39c0,.35-.21.63-.47.63H726c-.26,0-.47-.28-.47-.63V212.66c0-.35.21-.63.47-.63H875.88m1.9-2.5H724.06c-.26,0-.47.28-.47.63v46.76c0,.35.21.62.47.62H877.3c.27,0,.48-.27.48-.62V209.53Z"/><path class="cls-4" d="M358,259.94v42.39c0,.35-.21.63-.47.63H208c-.26,0-.47-.28-.47-.63V260.57c0-.35.21-.63.47-.63H358m1.9-2.5H206.13c-.26,0-.47.28-.47.63v46.76c0,.35.21.63.47.63H359.37a.57.57,0,0,0,.48-.63V257.44Z"/><path class="cls-4" d="M203.76,259.94v42.39c0,.35-.21.63-.47.63H53.83c-.26,0-.47-.28-.47-.63V260.57c0-.35.21-.63.47-.63H203.76m1.9-2.5H51.94a.57.57,0,0,0-.48.63v46.76a.57.57,0,0,0,.48.63H205.18a.57.57,0,0,0,.48-.63V257.44Z"/><path class="cls-4" d="M512.14,259.94v42.39c0,.35-.21.63-.47.63H362.22c-.27,0-.48-.28-.48-.63V260.57c0-.35.21-.63.48-.63H512.14m1.9-2.5H360.32c-.26,0-.47.28-.47.63v46.76c0,.35.21.63.47.63H513.56c.27,0,.48-.28.48-.63V257.44Z"/><path class="cls-4" d="M666.33,259.94v42.39c0,.35-.21.63-.47.63H516.41c-.27,0-.48-.28-.48-.63V260.57c0-.35.21-.63.48-.63H666.33m1.9-2.5H514.51c-.26,0-.47.28-.47.63v46.76c0,.35.21.63.47.63H667.76c.26,0,.47-.28.47-.63V257.44Z"/><path class="cls-4" d="M820.53,259.94v42.39a.57.57,0,0,1-.48.63H670.6a.57.57,0,0,1-.48-.63V260.57a.57.57,0,0,1,.48-.63H820.53m1.89-2.5H668.7c-.26,0-.47.28-.47.63v46.76c0,.35.21.63.47.63H822c.26,0,.47-.28.47-.63V257.44Z"/><path class="cls-4" d="M974.72,259.94v42.39a.57.57,0,0,1-.48.63H824.79c-.26,0-.47-.28-.47-.63V260.57c0-.35.21-.63.47-.63H974.72m1.89-2.5H822.89c-.26,0-.47.28-.47.63v46.76c0,.35.21.63.47.63H976.14c.26,0,.47-.28.47-.63V257.44Z"/><path class="cls-4" d="M413.31,308v42.39a.56.56,0,0,1-.47.62H263.38a.56.56,0,0,1-.47-.62V308.58c0-.35.21-.62.47-.62H413.31m1.89-2.5H261.49a.56.56,0,0,0-.48.62v46.76c0,.35.21.63.48.63H414.73c.26,0,.47-.28.47-.63V305.46Z"/><path class="cls-4" d="M259.12,308v42.39a.56.56,0,0,1-.48.62H109.19a.56.56,0,0,1-.47-.62V308.58c0-.35.21-.62.47-.62H259.12m1.89-2.5H107.3a.56.56,0,0,0-.48.62v46.76c0,.35.21.63.48.63H260.54c.26,0,.47-.28.47-.63V305.46Z"/><path class="cls-4" d="M567.5,308v42.39a.56.56,0,0,1-.47.62H417.57a.56.56,0,0,1-.47-.62V308.58c0-.35.21-.62.47-.62H567.5m1.89-2.5H415.68a.57.57,0,0,0-.48.62v46.76a.57.57,0,0,0,.48.63H568.92c.26,0,.47-.28.47-.63V305.46Z"/><path class="cls-4" d="M721.69,308v42.39a.56.56,0,0,1-.47.62H571.76a.56.56,0,0,1-.47-.62V308.58c0-.35.21-.62.47-.62H721.69m1.9-2.5H569.87a.57.57,0,0,0-.48.62v46.76a.57.57,0,0,0,.48.63H723.11a.57.57,0,0,0,.48-.63V305.46Z"/><path class="cls-4" d="M875.88,308v42.39a.56.56,0,0,1-.47.62H726a.56.56,0,0,1-.47-.62V308.58c0-.35.21-.62.47-.62H875.88m1.9-2.5H724.06a.56.56,0,0,0-.47.62v46.76c0,.35.21.63.47.63H877.3c.27,0,.48-.28.48-.63V305.46Z"/><path class="cls-4" d="M358,355.87v42.39a.56.56,0,0,1-.47.62H208a.56.56,0,0,1-.47-.62V356.49a.56.56,0,0,1,.47-.62H358m1.9-2.5H206.13a.56.56,0,0,0-.47.62v46.77a.56.56,0,0,0,.47.62H359.37a.57.57,0,0,0,.48-.62V353.37Z"/><path class="cls-4" d="M203.76,355.87v42.39a.56.56,0,0,1-.47.62H53.83a.56.56,0,0,1-.47-.62V356.49a.56.56,0,0,1,.47-.62H203.76m1.9-2.5H51.94a.57.57,0,0,0-.48.62v46.77a.57.57,0,0,0,.48.62H205.18a.57.57,0,0,0,.48-.62V353.37Z"/><path class="cls-4" d="M512.14,355.87v42.39a.56.56,0,0,1-.47.62H362.22a.56.56,0,0,1-.48-.62V356.49a.56.56,0,0,1,.48-.62H512.14m1.9-2.5H360.32a.56.56,0,0,0-.47.62v46.77a.56.56,0,0,0,.47.62H513.56a.56.56,0,0,0,.48-.62V353.37Z"/><path class="cls-4" d="M666.33,355.87v42.39a.56.56,0,0,1-.47.62H516.41a.56.56,0,0,1-.48-.62V356.49a.56.56,0,0,1,.48-.62H666.33m1.9-2.5H514.51a.56.56,0,0,0-.47.62v46.77a.56.56,0,0,0,.47.62H667.76a.56.56,0,0,0,.47-.62V353.37Z"/><path class="cls-4" d="M820.53,355.87v42.39a.57.57,0,0,1-.48.62H670.6a.57.57,0,0,1-.48-.62V356.49a.57.57,0,0,1,.48-.62H820.53m1.89-2.5H668.7a.56.56,0,0,0-.47.62v46.77a.56.56,0,0,0,.47.62H822a.56.56,0,0,0,.47-.62V353.37Z"/><path class="cls-4" d="M974.72,355.87v42.39a.57.57,0,0,1-.48.62H824.79a.56.56,0,0,1-.47-.62V356.49a.56.56,0,0,1,.47-.62H974.72m1.89-2.5H822.89a.56.56,0,0,0-.47.62v46.77a.56.56,0,0,0,.47.62H976.14a.56.56,0,0,0,.47-.62V353.37Z"/><path class="cls-4" d="M413.31,403.88v42.39c0,.35-.21.62-.47.62H263.38c-.26,0-.47-.27-.47-.62V404.5a.56.56,0,0,1,.47-.62H413.31m1.89-2.5H261.49c-.27,0-.48.28-.48.63v46.76a.56.56,0,0,0,.48.62H414.73a.56.56,0,0,0,.47-.62V401.38Z"/><path class="cls-4" d="M259.12,403.88v42.39c0,.35-.21.62-.48.62H109.19c-.26,0-.47-.27-.47-.62V404.5a.56.56,0,0,1,.47-.62H259.12m1.89-2.5H107.3c-.27,0-.48.28-.48.63v46.76a.56.56,0,0,0,.48.62H260.54a.56.56,0,0,0,.47-.62V401.38Z"/><path class="cls-4" d="M567.5,403.88v42.39c0,.35-.21.62-.47.62H417.57c-.26,0-.47-.27-.47-.62V404.5a.56.56,0,0,1,.47-.62H567.5m1.89-2.5H415.68a.57.57,0,0,0-.48.63v46.76a.57.57,0,0,0,.48.62H568.92a.56.56,0,0,0,.47-.62V401.38Z"/><path class="cls-4" d="M721.69,403.88v42.39c0,.35-.21.62-.47.62H571.76c-.26,0-.47-.27-.47-.62V404.5a.56.56,0,0,1,.47-.62H721.69m1.9-2.5H569.87a.57.57,0,0,0-.48.63v46.76a.57.57,0,0,0,.48.62H723.11a.57.57,0,0,0,.48-.62V401.38Z"/><path class="cls-4" d="M875.88,403.88v42.39c0,.35-.21.62-.47.62H726c-.26,0-.47-.27-.47-.62V404.5a.56.56,0,0,1,.47-.62H875.88m1.9-2.5H724.06c-.26,0-.47.28-.47.63v46.76a.56.56,0,0,0,.47.62H877.3a.56.56,0,0,0,.48-.62V401.38Z"/><path class="cls-4" d="M358,451.79v42.39c0,.35-.21.63-.47.63H208c-.26,0-.47-.28-.47-.63V452.42c0-.35.21-.63.47-.63H358m1.9-2.5H206.13c-.26,0-.47.28-.47.63v46.76c0,.35.21.63.47.63H359.37a.57.57,0,0,0,.48-.63V449.29Z"/><path class="cls-4" d="M203.76,451.79v42.39c0,.35-.21.63-.47.63H53.83c-.26,0-.47-.28-.47-.63V452.42c0-.35.21-.63.47-.63H203.76m1.9-2.5H51.94a.57.57,0,0,0-.48.63v46.76a.57.57,0,0,0,.48.63H205.18a.57.57,0,0,0,.48-.63V449.29Z"/><path class="cls-4" d="M512.14,451.79v42.39c0,.35-.21.63-.47.63H362.22c-.27,0-.48-.28-.48-.63V452.42c0-.35.21-.63.48-.63H512.14m1.9-2.5H360.32c-.26,0-.47.28-.47.63v46.76c0,.35.21.63.47.63H513.56c.27,0,.48-.28.48-.63V449.29Z"/><path class="cls-4" d="M666.33,451.79v42.39c0,.35-.21.63-.47.63H516.41c-.27,0-.48-.28-.48-.63V452.42c0-.35.21-.63.48-.63H666.33m1.9-2.5H514.51c-.26,0-.47.28-.47.63v46.76c0,.35.21.63.47.63H667.76c.26,0,.47-.28.47-.63V449.29Z"/><path class="cls-4" d="M820.53,451.79v42.39a.57.57,0,0,1-.48.63H670.6a.57.57,0,0,1-.48-.63V452.42a.57.57,0,0,1,.48-.63H820.53m1.89-2.5H668.7c-.26,0-.47.28-.47.63v46.76c0,.35.21.63.47.63H822c.26,0,.47-.28.47-.63V449.29Z"/><path class="cls-4" d="M974.72,451.79v42.39a.57.57,0,0,1-.48.63H824.79c-.26,0-.47-.28-.47-.63V452.42c0-.35.21-.63.47-.63H974.72m1.89-2.5H822.89c-.26,0-.47.28-.47.63v46.76c0,.35.21.63.47.63H976.14c.26,0,.47-.28.47-.63V449.29Z"/><path class="cls-4" d="M413.31,499.8v42.39c0,.35-.21.63-.47.63H263.38c-.26,0-.47-.28-.47-.63V500.43c0-.35.21-.63.47-.63H413.31m1.89-2.49H261.49a.56.56,0,0,0-.48.62v46.76c0,.35.21.63.48.63H414.73c.26,0,.47-.28.47-.63V497.31Z"/><path class="cls-4" d="M259.12,499.8v42.39c0,.35-.21.63-.48.63H109.19c-.26,0-.47-.28-.47-.63V500.43c0-.35.21-.63.47-.63H259.12m1.89-2.49H107.3a.56.56,0,0,0-.48.62v46.76c0,.35.21.63.48.63H260.54c.26,0,.47-.28.47-.63V497.31Z"/><path class="cls-4" d="M567.5,499.8v42.39c0,.35-.21.63-.47.63H417.57c-.26,0-.47-.28-.47-.63V500.43c0-.35.21-.63.47-.63H567.5m1.89-2.49H415.68a.57.57,0,0,0-.48.62v46.76a.57.57,0,0,0,.48.63H568.92c.26,0,.47-.28.47-.63V497.31Z"/><path class="cls-4" d="M721.69,499.8v42.39c0,.35-.21.63-.47.63H571.76c-.26,0-.47-.28-.47-.63V500.43c0-.35.21-.63.47-.63H721.69m1.9-2.49H569.87a.57.57,0,0,0-.48.62v46.76a.57.57,0,0,0,.48.63H723.11a.57.57,0,0,0,.48-.63V497.31Z"/><path class="cls-4" d="M875.88,499.8v42.39c0,.35-.21.63-.47.63H726c-.26,0-.47-.28-.47-.63V500.43c0-.35.21-.63.47-.63H875.88m1.9-2.49H724.06a.56.56,0,0,0-.47.62v46.76c0,.35.21.63.47.63H877.3c.27,0,.48-.28.48-.63V497.31Z"/><path class="cls-4" d="M358,547.72v42.39a.56.56,0,0,1-.47.62H208a.56.56,0,0,1-.47-.62V548.34a.56.56,0,0,1,.47-.62H358m1.9-2.5H206.13a.56.56,0,0,0-.47.62v46.77a.56.56,0,0,0,.47.62H359.37a.57.57,0,0,0,.48-.62V545.22Z"/><path class="cls-4" d="M203.76,547.72v42.39a.56.56,0,0,1-.47.62H53.83a.56.56,0,0,1-.47-.62V548.34a.56.56,0,0,1,.47-.62H203.76m1.9-2.5H51.94a.57.57,0,0,0-.48.62v46.77a.57.57,0,0,0,.48.62H205.18a.57.57,0,0,0,.48-.62V545.22Z"/><path class="cls-4" d="M512.14,547.72v42.39a.56.56,0,0,1-.47.62H362.22a.56.56,0,0,1-.48-.62V548.34a.56.56,0,0,1,.48-.62H512.14m1.9-2.5H360.32a.56.56,0,0,0-.47.62v46.77a.56.56,0,0,0,.47.62H513.56a.56.56,0,0,0,.48-.62V545.22Z"/><path class="cls-4" d="M666.33,547.72v42.39a.56.56,0,0,1-.47.62H516.41a.56.56,0,0,1-.48-.62V548.34a.56.56,0,0,1,.48-.62H666.33m1.9-2.5H514.51a.56.56,0,0,0-.47.62v46.77a.56.56,0,0,0,.47.62H667.76a.56.56,0,0,0,.47-.62V545.22Z"/><path class="cls-4" d="M820.53,547.72v42.39a.57.57,0,0,1-.48.62H670.6a.57.57,0,0,1-.48-.62V548.34a.57.57,0,0,1,.48-.62H820.53m1.89-2.5H668.7a.56.56,0,0,0-.47.62v46.77a.56.56,0,0,0,.47.62H822a.56.56,0,0,0,.47-.62V545.22Z"/><path class="cls-4" d="M974.72,547.72v42.39a.57.57,0,0,1-.48.62H824.79a.56.56,0,0,1-.47-.62V548.34a.56.56,0,0,1,.47-.62H974.72m1.89-2.5H822.89a.56.56,0,0,0-.47.62v46.77a.56.56,0,0,0,.47.62H976.14a.56.56,0,0,0,.47-.62V545.22Z"/><path class="cls-4" d="M413.31,595.73v42.39a.56.56,0,0,1-.47.62H263.38a.56.56,0,0,1-.47-.62V596.35a.56.56,0,0,1,.47-.62H413.31m1.89-2.5H261.49a.56.56,0,0,0-.48.62v46.77a.56.56,0,0,0,.48.62H414.73a.56.56,0,0,0,.47-.62V593.23Z"/><path class="cls-4" d="M259.12,595.73v42.39a.56.56,0,0,1-.48.62H109.19a.56.56,0,0,1-.47-.62V596.35a.56.56,0,0,1,.47-.62H259.12m1.89-2.5H107.3a.56.56,0,0,0-.48.62v46.77a.56.56,0,0,0,.48.62H260.54a.56.56,0,0,0,.47-.62V593.23Z"/><path class="cls-4" d="M567.5,595.73v42.39a.56.56,0,0,1-.47.62H417.57a.56.56,0,0,1-.47-.62V596.35a.56.56,0,0,1,.47-.62H567.5m1.89-2.5H415.68a.57.57,0,0,0-.48.62v46.77a.57.57,0,0,0,.48.62H568.92a.56.56,0,0,0,.47-.62V593.23Z"/><path class="cls-4" d="M721.69,595.73v42.39a.56.56,0,0,1-.47.62H571.76a.56.56,0,0,1-.47-.62V596.35a.56.56,0,0,1,.47-.62H721.69m1.9-2.5H569.87a.57.57,0,0,0-.48.62v46.77a.57.57,0,0,0,.48.62H723.11a.57.57,0,0,0,.48-.62V593.23Z"/><path class="cls-4" d="M875.88,595.73v42.39a.56.56,0,0,1-.47.62H726a.56.56,0,0,1-.47-.62V596.35a.56.56,0,0,1,.47-.62H875.88m1.9-2.5H724.06a.56.56,0,0,0-.47.62v46.77a.56.56,0,0,0,.47.62H877.3a.56.56,0,0,0,.48-.62V593.23Z"/><path class="cls-4" d="M358,643.64V686c0,.35-.21.63-.47.63H208c-.26,0-.47-.28-.47-.63V644.26a.56.56,0,0,1,.47-.62H358m1.9-2.5H206.13c-.26,0-.47.28-.47.63v46.76a.56.56,0,0,0,.47.62H359.37a.57.57,0,0,0,.48-.62V641.14Z"/><path class="cls-4" d="M203.76,643.64V686c0,.35-.21.63-.47.63H53.83c-.26,0-.47-.28-.47-.63V644.26a.56.56,0,0,1,.47-.62H203.76m1.9-2.5H51.94a.57.57,0,0,0-.48.63v46.76a.57.57,0,0,0,.48.62H205.18a.57.57,0,0,0,.48-.62V641.14Z"/><path class="cls-4" d="M512.14,643.64V686c0,.35-.21.63-.47.63H362.22c-.27,0-.48-.28-.48-.63V644.26a.56.56,0,0,1,.48-.62H512.14m1.9-2.5H360.32c-.26,0-.47.28-.47.63v46.76a.56.56,0,0,0,.47.62H513.56a.56.56,0,0,0,.48-.62V641.14Z"/><path class="cls-4" d="M666.33,643.64V686c0,.35-.21.63-.47.63H516.41c-.27,0-.48-.28-.48-.63V644.26a.56.56,0,0,1,.48-.62H666.33m1.9-2.5H514.51c-.26,0-.47.28-.47.63v46.76a.56.56,0,0,0,.47.62H667.76a.56.56,0,0,0,.47-.62V641.14Z"/><path class="cls-4" d="M820.53,643.64V686a.57.57,0,0,1-.48.63H670.6a.57.57,0,0,1-.48-.63V644.26a.57.57,0,0,1,.48-.62H820.53m1.89-2.5H668.7c-.26,0-.47.28-.47.63v46.76a.56.56,0,0,0,.47.62H822a.56.56,0,0,0,.47-.62V641.14Z"/><path class="cls-4" d="M974.72,643.64V686a.57.57,0,0,1-.48.63H824.79c-.26,0-.47-.28-.47-.63V644.26a.56.56,0,0,1,.47-.62H974.72m1.89-2.5H822.89c-.26,0-.47.28-.47.63v46.76a.56.56,0,0,0,.47.62H976.14a.56.56,0,0,0,.47-.62V641.14Z"/><path class="cls-4" d="M413.31,691.65V734c0,.35-.21.63-.47.63H263.38c-.26,0-.47-.28-.47-.63V692.28c0-.35.21-.63.47-.63H413.31m1.89-2.5H261.49c-.27,0-.48.28-.48.63v46.76c0,.35.21.63.48.63H414.73c.26,0,.47-.28.47-.63V689.15Z"/><path class="cls-4" d="M259.12,691.65V734c0,.35-.21.63-.48.63H109.19c-.26,0-.47-.28-.47-.63V692.28c0-.35.21-.63.47-.63H259.12m1.89-2.5H107.3c-.27,0-.48.28-.48.63v46.76c0,.35.21.63.48.63H260.54c.26,0,.47-.28.47-.63V689.15Z"/><path class="cls-4" d="M567.5,691.65V734c0,.35-.21.63-.47.63H417.57c-.26,0-.47-.28-.47-.63V692.28c0-.35.21-.63.47-.63H567.5m1.89-2.5H415.68a.57.57,0,0,0-.48.63v46.76a.57.57,0,0,0,.48.63H568.92c.26,0,.47-.28.47-.63V689.15Z"/><path class="cls-4" d="M721.69,691.65V734c0,.35-.21.63-.47.63H571.76c-.26,0-.47-.28-.47-.63V692.28c0-.35.21-.63.47-.63H721.69m1.9-2.5H569.87a.57.57,0,0,0-.48.63v46.76a.57.57,0,0,0,.48.63H723.11a.57.57,0,0,0,.48-.63V689.15Z"/><path class="cls-4" d="M875.88,691.65V734c0,.35-.21.63-.47.63H726c-.26,0-.47-.28-.47-.63V692.28c0-.35.21-.63.47-.63H875.88m1.9-2.5H724.06c-.26,0-.47.28-.47.63v46.76c0,.35.21.63.47.63H877.3c.27,0,.48-.28.48-.63V689.15Z"/><path class="cls-4" d="M358,739.56V782a.56.56,0,0,1-.47.62H208a.56.56,0,0,1-.47-.62V740.19c0-.35.21-.63.47-.63H358m1.9-2.49H206.13a.56.56,0,0,0-.47.62v46.76c0,.35.21.63.47.63H359.37a.57.57,0,0,0,.48-.63V737.07Z"/><path class="cls-4" d="M203.76,739.56V782a.56.56,0,0,1-.47.62H53.83a.56.56,0,0,1-.47-.62V740.19c0-.35.21-.63.47-.63H203.76m1.9-2.49H51.94a.57.57,0,0,0-.48.62v46.76a.57.57,0,0,0,.48.63H205.18a.57.57,0,0,0,.48-.63V737.07Z"/><path class="cls-4" d="M512.14,739.56V782a.56.56,0,0,1-.47.62H362.22a.56.56,0,0,1-.48-.62V740.19c0-.35.21-.63.48-.63H512.14m1.9-2.49H360.32a.56.56,0,0,0-.47.62v46.76c0,.35.21.63.47.63H513.56c.27,0,.48-.28.48-.63V737.07Z"/><path class="cls-4" d="M666.33,739.56V782a.56.56,0,0,1-.47.62H516.41a.56.56,0,0,1-.48-.62V740.19c0-.35.21-.63.48-.63H666.33m1.9-2.49H514.51a.56.56,0,0,0-.47.62v46.76c0,.35.21.63.47.63H667.76c.26,0,.47-.28.47-.63V737.07Z"/><path class="cls-4" d="M820.53,739.56V782a.57.57,0,0,1-.48.62H670.6a.57.57,0,0,1-.48-.62V740.19a.57.57,0,0,1,.48-.63H820.53m1.89-2.49H668.7a.56.56,0,0,0-.47.62v46.76c0,.35.21.63.47.63H822c.26,0,.47-.28.47-.63V737.07Z"/><path class="cls-4" d="M974.72,739.56V782a.57.57,0,0,1-.48.62H824.79a.56.56,0,0,1-.47-.62V740.19c0-.35.21-.63.47-.63H974.72m1.89-2.49H822.89a.56.56,0,0,0-.47.62v46.76c0,.35.21.63.47.63H976.14c.26,0,.47-.28.47-.63V737.07Z"/><path class="cls-4" d="M413.31,787.58V830a.56.56,0,0,1-.47.62H263.38a.56.56,0,0,1-.47-.62V788.2a.56.56,0,0,1,.47-.62H413.31m1.89-2.5H261.49a.56.56,0,0,0-.48.62v46.77a.56.56,0,0,0,.48.62H414.73a.56.56,0,0,0,.47-.62V785.08Z"/><path class="cls-4" d="M259.12,787.58V830a.56.56,0,0,1-.48.62H109.19a.56.56,0,0,1-.47-.62V788.2a.56.56,0,0,1,.47-.62H259.12m1.89-2.5H107.3a.56.56,0,0,0-.48.62v46.77a.56.56,0,0,0,.48.62H260.54a.56.56,0,0,0,.47-.62V785.08Z"/><path class="cls-4" d="M567.5,787.58V830a.56.56,0,0,1-.47.62H417.57a.56.56,0,0,1-.47-.62V788.2a.56.56,0,0,1,.47-.62H567.5m1.89-2.5H415.68a.57.57,0,0,0-.48.62v46.77a.57.57,0,0,0,.48.62H568.92a.56.56,0,0,0,.47-.62V785.08Z"/><path class="cls-4" d="M721.69,787.58V830a.56.56,0,0,1-.47.62H571.76a.56.56,0,0,1-.47-.62V788.2a.56.56,0,0,1,.47-.62H721.69m1.9-2.5H569.87a.57.57,0,0,0-.48.62v46.77a.57.57,0,0,0,.48.62H723.11a.57.57,0,0,0,.48-.62V785.08Z"/><path class="cls-4" d="M875.88,787.58V830a.56.56,0,0,1-.47.62H726a.56.56,0,0,1-.47-.62V788.2a.56.56,0,0,1,.47-.62H875.88m1.9-2.5H724.06a.56.56,0,0,0-.47.62v46.77a.56.56,0,0,0,.47.62H877.3a.56.56,0,0,0,.48-.62V785.08Z"/><path class="cls-4" d="M358,835.49v42.39a.56.56,0,0,1-.47.62H208a.56.56,0,0,1-.47-.62V836.11a.56.56,0,0,1,.47-.62H358m1.9-2.5H206.13c-.26,0-.47.28-.47.63v46.76a.56.56,0,0,0,.47.62H359.37a.57.57,0,0,0,.48-.62V833Z"/><path class="cls-4" d="M203.76,835.49v42.39a.56.56,0,0,1-.47.62H53.83a.56.56,0,0,1-.47-.62V836.11a.56.56,0,0,1,.47-.62H203.76m1.9-2.5H51.94a.57.57,0,0,0-.48.63v46.76a.57.57,0,0,0,.48.62H205.18a.57.57,0,0,0,.48-.62V833Z"/><path class="cls-4" d="M512.14,835.49v42.39a.56.56,0,0,1-.47.62H362.22a.56.56,0,0,1-.48-.62V836.11a.56.56,0,0,1,.48-.62H512.14M514,833H360.32c-.26,0-.47.28-.47.63v46.76a.56.56,0,0,0,.47.62H513.56a.56.56,0,0,0,.48-.62V833Z"/><path class="cls-4" d="M666.33,835.49v42.39a.56.56,0,0,1-.47.62H516.41a.56.56,0,0,1-.48-.62V836.11a.56.56,0,0,1,.48-.62H666.33m1.9-2.5H514.51c-.26,0-.47.28-.47.63v46.76a.56.56,0,0,0,.47.62H667.76a.56.56,0,0,0,.47-.62V833Z"/><path class="cls-4" d="M820.53,835.49v42.39a.57.57,0,0,1-.48.62H670.6a.57.57,0,0,1-.48-.62V836.11a.57.57,0,0,1,.48-.62H820.53m1.89-2.5H668.7c-.26,0-.47.28-.47.63v46.76a.56.56,0,0,0,.47.62H822a.56.56,0,0,0,.47-.62V833Z"/><path class="cls-4" d="M974.72,835.49v42.39a.57.57,0,0,1-.48.62H824.79a.56.56,0,0,1-.47-.62V836.11a.56.56,0,0,1,.47-.62H974.72m1.89-2.5H822.89c-.26,0-.47.28-.47.63v46.76a.56.56,0,0,0,.47.62H976.14a.56.56,0,0,0,.47-.62V833Z"/><path class="cls-4" d="M413.31,883.5v42.39c0,.35-.21.63-.47.63H263.38c-.26,0-.47-.28-.47-.63V884.13c0-.35.21-.63.47-.63H413.31m1.89-2.5H261.49c-.27,0-.48.28-.48.63v46.76a.56.56,0,0,0,.48.62H414.73a.56.56,0,0,0,.47-.62V881Z"/><path class="cls-4" d="M259.12,883.5v42.39c0,.35-.21.63-.48.63H109.19c-.26,0-.47-.28-.47-.63V884.13c0-.35.21-.63.47-.63H259.12M261,881H107.3c-.27,0-.48.28-.48.63v46.76a.56.56,0,0,0,.48.62H260.54a.56.56,0,0,0,.47-.62V881Z"/><path class="cls-4" d="M567.5,883.5v42.39c0,.35-.21.63-.47.63H417.57c-.26,0-.47-.28-.47-.63V884.13c0-.35.21-.63.47-.63H567.5m1.89-2.5H415.68a.57.57,0,0,0-.48.63v46.76a.57.57,0,0,0,.48.62H568.92a.56.56,0,0,0,.47-.62V881Z"/><path class="cls-4" d="M721.69,883.5v42.39c0,.35-.21.63-.47.63H571.76c-.26,0-.47-.28-.47-.63V884.13c0-.35.21-.63.47-.63H721.69m1.9-2.5H569.87a.57.57,0,0,0-.48.63v46.76a.57.57,0,0,0,.48.62H723.11a.57.57,0,0,0,.48-.62V881Z"/><path class="cls-4" d="M875.88,883.5v42.39c0,.35-.21.63-.47.63H726c-.26,0-.47-.28-.47-.63V884.13c0-.35.21-.63.47-.63H875.88m1.9-2.5H724.06c-.26,0-.47.28-.47.63v46.76a.56.56,0,0,0,.47.62H877.3a.56.56,0,0,0,.48-.62V881Z"/><path class="cls-4" d="M358,931.41V973.8c0,.35-.21.63-.47.63H208c-.26,0-.47-.28-.47-.63V932c0-.35.21-.63.47-.63H358m1.9-2.5H206.13c-.26,0-.47.28-.47.63V976.3c0,.35.21.63.47.63H359.37a.57.57,0,0,0,.48-.63V928.91Z"/><path class="cls-4" d="M203.76,931.41V973.8c0,.35-.21.63-.47.63H53.83c-.26,0-.47-.28-.47-.63V932c0-.35.21-.63.47-.63H203.76m1.9-2.5H51.94a.57.57,0,0,0-.48.63V976.3a.57.57,0,0,0,.48.63H205.18a.57.57,0,0,0,.48-.63V928.91Z"/><path class="cls-4" d="M512.14,931.41V973.8c0,.35-.21.63-.47.63H362.22c-.27,0-.48-.28-.48-.63V932c0-.35.21-.63.48-.63H512.14m1.9-2.5H360.32c-.26,0-.47.28-.47.63V976.3c0,.35.21.63.47.63H513.56c.27,0,.48-.28.48-.63V928.91Z"/><path class="cls-4" d="M666.33,931.41V973.8c0,.35-.21.63-.47.63H516.41c-.27,0-.48-.28-.48-.63V932c0-.35.21-.63.48-.63H666.33m1.9-2.5H514.51c-.26,0-.47.28-.47.63V976.3c0,.35.21.63.47.63H667.76c.26,0,.47-.28.47-.63V928.91Z"/><path class="cls-4" d="M820.53,931.41V973.8a.57.57,0,0,1-.48.63H670.6a.57.57,0,0,1-.48-.63V932a.57.57,0,0,1,.48-.63H820.53m1.89-2.5H668.7c-.26,0-.47.28-.47.63V976.3c0,.35.21.63.47.63H822c.26,0,.47-.28.47-.63V928.91Z"/><path class="cls-4" d="M974.72,931.41V973.8a.57.57,0,0,1-.48.63H824.79c-.26,0-.47-.28-.47-.63V932c0-.35.21-.63.47-.63H974.72m1.89-2.5H822.89c-.26,0-.47.28-.47.63V976.3c0,.35.21.63.47.63H976.14c.26,0,.47-.28.47-.63V928.91Z"/></g><rect class="cls-5" x="110.44" y="928.61" width="866.17" height="9.52" rx="4.76"/><path class="cls-4" d="M558.64,958.88h-340a4.76,4.76,0,0,1-4.76-4.76h0a4.75,4.75,0,0,1,4.76-4.75h340a4.75,4.75,0,0,1,4.76,4.75h0A4.76,4.76,0,0,1,558.64,958.88Z"/><path class="cls-4" d="M794,958.88H600a4.76,4.76,0,0,1-4.76-4.76h0a4.75,4.75,0,0,1,4.76-4.75H794a4.75,4.75,0,0,1,4.76,4.75h0A4.76,4.76,0,0,1,794,958.88Z"/><path class="cls-6" d="M608.07,539.94s11.71-23.24-13.94-35.71S574.18,535.11,608.07,539.94Z"/><path class="cls-7" d="M608.36,540.48l-.36-.05c-16.32-2.32-26.57-13.67-29.49-23.89-1.66-5.79-.85-10.76,2.16-13.29,2.1-1.77,6.19-3.11,13.68.53,8.1,3.94,13.35,9.35,15.63,16.08,3.48,10.3-1.26,19.9-1.46,20.3ZM586,502.5a7,7,0,0,0-4.66,1.52c-2.7,2.26-3.39,6.84-1.84,12.25,2.81,9.83,12.64,20.74,28.31,23.12.78-1.75,4.25-10.34,1.25-19.22-2.19-6.46-7.28-11.67-15.12-15.49A18.8,18.8,0,0,0,586,502.5Z"/><path class="cls-6" d="M614.29,535.64s-3.5-20.94,18.1-25.39,37.23,21.53,23.61,29.91S618,541.06,614.29,535.64Z"/><path class="cls-7" d="M640.35,544.47c-11.83,0-23.86-4.67-26.47-8.56l-.08-.19c0-.22-3.33-21.46,18.49-26,13.27-2.74,24.36,5.68,28.05,15,2.62,6.61,1.06,12.68-4.08,15.84C651.73,543.38,646.06,544.47,640.35,544.47Zm-25.58-9c3.84,5.38,27.81,12.39,41,4.3,4.76-2.94,6.14-8.4,3.67-14.62a24,24,0,0,0-26.92-14.38C612.19,514.92,614.5,533.66,614.77,535.44Z"/><path class="cls-6" d="M616.54,567.22s6.17-20,22.15-17.33S656.19,578,634.62,576,616.54,567.22,616.54,567.22Z"/><path class="cls-7" d="M637,576.64c-.76,0-1.56,0-2.39-.12-12.81-1.16-17-4.09-18.23-6.35a3.51,3.51,0,0,1-.27-3.13c.3-.95,6.79-20.31,22.69-17.65a14.77,14.77,0,0,1,12.37,16.38C650.44,571.19,646.33,576.64,637,576.64Zm-20-9.19a2.57,2.57,0,0,0,.25,2.27c.94,1.66,4.46,4.63,17.43,5.81,10.35.94,14.78-4.49,15.48-9.88a13.77,13.77,0,0,0-11.54-15.27c-15.37-2.57-21.53,16.79-21.59,17Z"/><path class="cls-6" d="M606.8,559s2.12-22.47-16.43-30-16.77,15-10.09,24.78S606.8,559,606.8,559Z"/><path class="cls-7" d="M596.72,560.54c-6.06,0-13.24-1.26-16.85-6.52-4.67-6.81-6.74-18.91-2.39-24.29,1.82-2.26,5.56-4.31,13.08-1.24,18.68,7.62,16.76,30.32,16.74,30.54l0,.36-.35.08A50.27,50.27,0,0,1,596.72,560.54Zm-12.94-32.6a6.73,6.73,0,0,0-5.52,2.41c-4,5-2,16.71,2.43,23.1,5.93,8.63,22.93,5.66,25.64,5.12.16-2.91.55-22.34-16.15-29.16A17.35,17.35,0,0,0,583.78,527.94Z"/><path class="cls-6" d="M609.64,568.46c-.09-.41-.19-.82-.29-1.24l.2,0C609.58,567.63,609.61,568.05,609.64,568.46Zm-.21-15.35h.21q-.06.81-.12,1.59Q609.49,553.92,609.43,553.11Z"/><path class="cls-7" d="M588.78,515h-.06a.32.32,0,0,0-.29.31.31.31,0,0,0,.31.3c.08,0,7.62-.05,14.33,10.8,5.24,8.48,6.06,26.8,6.16,34.74,0,.31,0,.62,0,.93,0,1.75,0,2.82,0,2.87a.29.29,0,0,0,.1.23c0,.71.07,1.38.11,2a63,63,0,0,0-2.18-7C601.2,544,589,539.54,588.83,539.5l-.1,0a.3.3,0,0,0-.28.21.29.29,0,0,0,.18.38c.12,0,12.1,4.41,18.06,20.29s3.26,27.37,3.23,27.48a.3.3,0,0,0,.22.37h.07a.31.31,0,0,0,.3-.23,38.42,38.42,0,0,0,.57-10.23s0,0,0,0,.9-8.35,6.93-10.49a14.77,14.77,0,0,1,4.9-.7,48.05,48.05,0,0,1,12.46,2.12l.09,0a.31.31,0,0,0,.29-.22.29.29,0,0,0-.19-.38,47.65,47.65,0,0,0-12.6-2.16,15.67,15.67,0,0,0-5.16.75c-4.43,1.57-6.22,6.08-6.92,8.81,0-.53-.11-1.07-.18-1.63a.22.22,0,0,0,0-.08,93.35,93.35,0,0,1-.86-11.79c0-.25,0-.51,0-.78,0-1.84,0-3.8.14-5.83.53-9.16,2.8-21.57,10.57-28.72,3.55-3.26,7.32-4.91,11.23-4.91a12.07,12.07,0,0,1,1.47.08c9.2,1,16.16,10.56,16.23,10.66a.32.32,0,0,0,.25.12.41.41,0,0,0,.18-.05.31.31,0,0,0,.07-.43c-.07-.1-7.19-9.93-16.66-10.91-.51-.05-1-.08-1.54-.08-4.07,0-8,1.7-11.64,5.07-7.3,6.71-9.83,17.91-10.6,26.88-.55-8.92-2-20.66-6-27C596.9,515.24,589.53,515,588.78,515Z"/><path class="cls-6" d="M594.19,637.52a5,5,0,0,1-2.86-.88c-4.43-3-15.06-11-18.11-19.79-2.69-7.77-3.5-22.53-3.74-30.64a5.07,5.07,0,0,1,5.08-5.23H644a5.07,5.07,0,0,1,3.65,1.54,5,5,0,0,1,1.43,3.69c-.24,8.11-1,22.87-3.73,30.64-3.06,8.83-13.69,16.78-18.11,19.79a5.05,5.05,0,0,1-2.86.88Z"/><path class="cls-7" d="M644,581.48a4.58,4.58,0,0,1,4.58,4.72c-.24,8.07-1,22.78-3.71,30.49-3.09,8.93-14.49,17.21-17.92,19.54a4.53,4.53,0,0,1-2.57.79H594.19a4.54,4.54,0,0,1-2.58-.79c-3.42-2.33-14.83-10.61-17.92-19.54C571,609,570.22,594.27,570,586.2a4.58,4.58,0,0,1,4.58-4.72H644m0-1H574.56a5.58,5.58,0,0,0-5.58,5.75c.24,8.15,1,22.95,3.76,30.78,3.15,9.1,14.28,17.31,18.31,20a5.56,5.56,0,0,0,3.14,1h30.19a5.58,5.58,0,0,0,3.14-1c4-2.74,15.15-10.95,18.3-20,2.71-7.83,3.52-22.63,3.76-30.78a5.58,5.58,0,0,0-5.58-5.75Z"/><polygon class="cls-8" points="834.18 577.34 868.28 637.62 862.05 637.62 830.58 599.93 834.18 577.34"/><path class="cls-8" d="M792.23,638.45l5.93-79a4,4,0,0,1,3.92-3.81h49.35a4.06,4.06,0,0,1,3.92,4.49L849,638.17a4,4,0,0,1-3.85,3.79l-48.95.95A4.05,4.05,0,0,1,792.23,638.45Z"/><path class="cls-4" d="M787.31,638.45l5.93-79a4,4,0,0,1,3.92-3.81h49.35a4.05,4.05,0,0,1,3.92,4.49l-6.33,78.08a4,4,0,0,1-3.85,3.79l-48.94.95A4.05,4.05,0,0,1,787.31,638.45Z"/><path class="cls-9" d="M845.53,563.61l-5.34,71.06a3.54,3.54,0,0,1-3.25,3.45l-3.12.06-35.08.74-3.16.06a3.6,3.6,0,0,1-3.38-4.06l5-71.92a3.52,3.52,0,0,1,3.31-3.48h41.69A3.61,3.61,0,0,1,845.53,563.61Z"/><ellipse class="cls-8" cx="819.51" cy="583.08" rx="10.82" ry="9.59" transform="translate(174.57 1354.84) rotate(-85.55)"/><path class="cls-8" d="M833.82,638.18l-35.08.74c.33-12.53,1.32-36.95,12.19-38,14.13-1.42,21.4-.27,22.83,14.65A147.67,147.67,0,0,1,833.82,638.18Z"/><rect class="cls-8" x="265.07" y="533.49" width="20.47" height="105.02" rx="4" transform="translate(-74.46 41.16) rotate(-7.53)"/><rect class="cls-10" x="286.06" y="533.49" width="20.47" height="105.02" rx="4" transform="matrix(0.99, -0.13, 0.13, 0.99, -74.28, 43.91)"/><rect class="cls-10" x="407.7" y="616.71" width="82.33" height="21.81" rx="2"/><rect class="cls-8" x="418.82" y="594.9" width="82.33" height="21.81" rx="2"/><rect class="cls-8" x="333.79" y="564.64" width="21.81" height="82.33" rx="2" transform="translate(-349.36 541.75) rotate(-55.09)"/><rect class="cls-10" x="330.76" y="587.75" width="82.33" height="21.81" rx="2" transform="translate(409.55 -105.12) rotate(34.91)"/><path class="cls-9" d="M774.54,587.55c0,28.47-26.91,51.53-60.11,51.53S654.32,616,654.32,587.55c0-.92,0-1.84.08-2.75,1.68-27.18,27.91-48.77,60-48.77,33,0,59.82,22.81,60.11,51.05Z"/><path class="cls-10" d="M774.54,587.55c0,28.47-9.94,51.53-60.11,51.53-48.14,0-60.11-23.06-60.11-51.53,0-.92,0-1.84.08-2.75a9.38,9.38,0,0,1,2.13-1.29s8.84-6.36,17.41-2.49,18.8-3.59,24-8.29,18.24-1.94,28.46,5.39,8.08-1.63,23.94-1.16c10,.29,18.88,5.94,24.15,10.12Z"/><path class="cls-8" d="M711.25,601.2s-20-.09-20.17,3.55,6.22,10.13,10.08,8.47,11.15-5.68,12.62-5.88a7.2,7.2,0,0,1,4.24.77c1.52.69,6,3.59,6.78,2.9s-2.22-2.5-1.66-3.67,5.8-5.32,4.83-6.14-4,.13-6.35,1.38-2.77,2.35-4.56,1.24S714.71,601.14,711.25,601.2Z"/><path class="cls-8" d="M701.58,608s-1.24,10.09,1.24,9,7.25-2.55,5.53-4.45S704.21,607.28,701.58,608Z"/><path class="cls-8" d="M697.82,602s.44-2.44,2-2.72,12.44-2.21,12.16-1-.69,2.91-.69,2.91Z"/><rect class="cls-4" x="685.12" y="535.33" width="58.21" height="7.04" rx="3"/><path class="cls-8" d="M874,648.07H225.82a5.74,5.74,0,0,1-5.75-5.75h0a5.75,5.75,0,0,1,5.75-5.75H874a5.76,5.76,0,0,1,5.75,5.75h0A5.75,5.75,0,0,1,874,648.07Z"/><rect class="cls-4" x="207.7" y="648.5" width="684.43" height="280.12" rx="8"/><path class="cls-6" d="M225.31,916.55a4.55,4.55,0,0,1-4.74-4.32V664.88a4.55,4.55,0,0,1,4.74-4.32h649.2a4.55,4.55,0,0,1,4.75,4.32V912.23a4.56,4.56,0,0,1-4.75,4.32Z"/><path class="cls-7" d="M874.51,661.06a4.06,4.06,0,0,1,4.25,3.82V912.23a4.06,4.06,0,0,1-4.25,3.82H225.31a4,4,0,0,1-4.24-3.82V664.88a4,4,0,0,1,4.24-3.82h649.2m0-1H225.31a5,5,0,0,0-5.24,4.82V912.23a5,5,0,0,0,5.24,4.82h649.2a5,5,0,0,0,5.25-4.82V664.88a5,5,0,0,0-5.25-4.82Z"/><path class="cls-11" d="M879.76,902.76v14a25.68,25.68,0,0,1-5.25.27H225.31a25.54,25.54,0,0,1-5.24-.27v-14a25.54,25.54,0,0,1,5.24-.27h649.2A25.68,25.68,0,0,1,879.76,902.76Z"/><ellipse class="cls-4" cx="325.17" cy="784.21" rx="10.5" ry="9.65"/><ellipse class="cls-4" cx="400.95" cy="784.21" rx="10.5" ry="9.65"/><rect class="cls-4" x="360.8" y="660.06" width="4.27" height="257"/><ellipse class="cls-4" cx="694.25" cy="784.21" rx="10.5" ry="9.65"/><ellipse class="cls-4" cx="770.02" cy="784.21" rx="10.5" ry="9.65"/><rect class="cls-4" x="729.88" y="660.06" width="4.27" height="257"/><rect class="cls-4" x="534.27" y="660.06" width="4.27" height="257"/><rect class="cls-8" x="220.07" y="446.31" width="659.69" height="11.5" rx="5.75"/><path class="cls-8" d="M261.94,457.81l20.53,11.36a5.9,5.9,0,0,0,8.76-5.16v-6.2Z"/><path class="cls-8" d="M831.13,457.81,810.6,469.17a5.9,5.9,0,0,1-8.76-5.16v-6.2Z"/><rect class="cls-4" x="612.86" y="366.52" width="131.44" height="79.79"/><rect class="cls-12" x="606.14" y="347.74" width="147.39" height="18.79" rx="3"/><path class="cls-10" d="M704.35,389.58H648.68a4.92,4.92,0,0,1-4.92-4.92h0a4.91,4.91,0,0,1,4.92-4.91h55.67a4.91,4.91,0,0,1,4.92,4.91h0A4.92,4.92,0,0,1,704.35,389.58Z"/><rect class="cls-10" x="633.39" y="409.41" width="20.63" height="20.63"/><path class="cls-13" d="M791.28,394s-22.88-54.13-8.68-61.42,17.08.56,21.55,10.38,8.68,25.52,10.52,24.12,8.94-16,15.78-9.54,6,12.9,2.1,21A81.7,81.7,0,0,1,822.3,394Z"/><path class="cls-14" d="M772.19,342.05a33.06,33.06,0,0,0,10,5.61c1,.34,1.38-1.29.42-1.62a31.69,31.69,0,0,1-9.66-5.45c-.81-.66-1.59.81-.8,1.46Z"/><path class="cls-14" d="M785.58,353.06a47,47,0,0,1-13.76-2.27c-1-.31-1.4,1.32-.42,1.63a49.29,49.29,0,0,0,14.18,2.33c1,0,1-1.67,0-1.69Z"/><path class="cls-14" d="M783,360.89a79.14,79.14,0,0,1-9.88,3.84c-1,.3-.55,1.92.42,1.62a80.91,80.91,0,0,0,10.25-4c.93-.43.13-1.88-.79-1.45Z"/><path class="cls-14" d="M788.57,344.21c-.77-1.18-1.54-2.35-2.3-3.53-.58-.88-1.95,0-1.37.85l2.31,3.53a.8.8,0,0,0,1.36-.85Z"/><path class="cls-14" d="M782.93,326c1,2.53,2.16,5,3.38,7.45.48,1,1.85.11,1.37-.85q-1.84-3.64-3.38-7.45c-.41-1-1.76-.14-1.37.85Z"/><path class="cls-14" d="M793.34,339.33a38.45,38.45,0,0,0,2.8-5.86c.38-1-1.14-1.44-1.52-.45a36.65,36.65,0,0,1-2.64,5.46.8.8,0,1,0,1.36.85Z"/><path class="cls-14" d="M804.6,334.21a19.44,19.44,0,0,1-4.38,7.19c-.72.75.39,1.94,1.12,1.19a21.49,21.49,0,0,0,4.78-7.94c.35-1-1.18-1.45-1.52-.44Z"/><path class="cls-14" d="M803.15,350.42a54,54,0,0,1,7-2.67c1-.3.56-1.92-.42-1.62a56.57,56.57,0,0,0-7.39,2.84c-.93.43-.12,1.88.8,1.45Z"/><path class="cls-14" d="M812.38,354.74a40.7,40.7,0,0,0-6.34,3.4c-.87.57-.08,2,.79,1.45a39.58,39.58,0,0,1,6-3.23c.93-.4.52-2-.42-1.62Z"/><path class="cls-14" d="M796.55,353a43.89,43.89,0,0,0-6.54-5.1c-.87-.55-1.67.9-.79,1.46a41.07,41.07,0,0,1,6.21,4.83.82.82,0,0,0,1.12-1.19Z"/><path class="cls-14" d="M792,362.87q-5.4,1.77-10.66,4c-.93.4-.52,2,.42,1.62q5.25-2.24,10.66-4c1-.32.56-1.94-.42-1.62Z"/><path class="cls-14" d="M791,373a93.13,93.13,0,0,1-10.76,6.21c-.93.45-.13,1.9.79,1.45a91.48,91.48,0,0,0,10.76-6.21c.86-.57.07-2-.79-1.45Z"/><path class="cls-14" d="M796,380.92a31.07,31.07,0,0,0-4.36,3.14c-.79.68.33,1.86,1.12,1.19a28.45,28.45,0,0,1,4-2.87c.89-.53.09-2-.8-1.46Z"/><path class="cls-14" d="M801.05,369.24q-3-1-6-2.18c-1-.39-1.36,1.24-.42,1.63,2,.8,4,1.53,6,2.17,1,.32,1.39-1.31.42-1.62Z"/><path class="cls-14" d="M806.26,379a8.27,8.27,0,0,0-2.67.18c-1,.23-.57,1.85.42,1.62a6.81,6.81,0,0,1,2.25-.11.83.83,0,0,0,.79-.84.84.84,0,0,0-.79-.85Z"/><path class="cls-14" d="M808.58,367.34a15.18,15.18,0,0,0-3.37-.13c-1,.08-1,1.76,0,1.68a13.24,13.24,0,0,1,2.95.07.8.8,0,0,0,1-.58.85.85,0,0,0-.55-1Z"/><path class="cls-14" d="M820.14,366.05a26.91,26.91,0,0,0,6.87-2.48c.92-.47.12-1.92-.79-1.45a25.86,25.86,0,0,1-6.5,2.31c-1,.21-.57,1.83.42,1.62Z"/><path class="cls-14" d="M824.23,370.84l8.67,3.53c1,.38,1.36-1.24.42-1.63l-8.67-3.53c-.95-.38-1.36,1.24-.42,1.63Z"/><path class="cls-14" d="M823,380.23a101.53,101.53,0,0,0,9.7,4.08c1,.35,1.38-1.28.42-1.62a98.65,98.65,0,0,1-9.32-3.91c-.92-.45-1.72,1-.8,1.45Z"/><path class="cls-14" d="M814.87,383.79l2.13,3a.78.78,0,0,0,1.08.3.88.88,0,0,0,.28-1.15l-2.12-3a.79.79,0,0,0-1.08-.31.89.89,0,0,0-.29,1.16Z"/><path class="cls-14" d="M829.24,367.78a13.45,13.45,0,0,0,7.5-4.26c.71-.78-.41-2-1.11-1.19a12,12,0,0,1-6.81,3.82c-1,.19-.58,1.81.42,1.63Z"/><path class="cls-14" d="M828.13,350.8a24.9,24.9,0,0,1-1.53,5c-.41,1,.95,1.84,1.37.85a27.55,27.55,0,0,0,1.68-5.43c.21-1.05-1.31-1.5-1.52-.44Z"/><path class="cls-14" d="M820.78,352a45.62,45.62,0,0,1,1.16,7.64c.08,1.07,1.66,1.08,1.58,0a48.92,48.92,0,0,0-1.22-8.09c-.25-1-1.77-.6-1.52.45Z"/><path class="cls-14" d="M830.3,362.47a21.83,21.83,0,0,0,4.42-1.9c.9-.51.1-2-.8-1.45a19.41,19.41,0,0,1-4,1.72c-1,.3-.56,1.92.42,1.63Z"/><path class="cls-14" d="M788.22,381.64a46.49,46.49,0,0,1-7.59,3.33c-1,.33-.55,1.95.42,1.63a49.1,49.1,0,0,0,8-3.51c.9-.49.1-1.94-.8-1.45Z"/><path class="cls-6" d="M838.12,406.15v25.73a14.59,14.59,0,0,1-.87,5q-.27.7-.6,1.38a14.42,14.42,0,0,1-13,8.08H790.58a14.41,14.41,0,0,1-13.1-8.38,14,14,0,0,1-.58-1.44,14.37,14.37,0,0,1-.75-4.61V406a14.25,14.25,0,0,1,1.37-6,13.93,13.93,0,0,1,.67-1.27,14.44,14.44,0,0,1,12.39-7h33.11A14.42,14.42,0,0,1,836.23,399a13.71,13.71,0,0,1,.64,1.27A14.36,14.36,0,0,1,838.12,406.15Z"/><path class="cls-4" d="M836.87,400.28c-7.65.7-17.4,1.17-29.74,1.17-14.08,0-23.41-.6-29.61-1.44a13.93,13.93,0,0,1,.67-1.27,233,233,0,0,0,28.94,1.4c12,0,21.57-.46,29.1-1.13A13.71,13.71,0,0,1,836.87,400.28Z"/><path class="cls-4" d="M838.12,406.42v1.33c-7.84.75-18,1.29-31,1.29-15.17,0-24.82-.69-31-1.65V406c7,1.11,17.43,1.69,31,1.69C820.18,407.72,830.31,407.19,838.12,406.42Z"/><path class="cls-4" d="M838.12,414v1.33c-7.84.76-18,1.28-31,1.28-15.17,0-24.82-.69-31-1.64v-1.37c7,1.12,17.43,1.7,31,1.7C820.18,415.31,830.31,414.77,838.12,414Z"/><path class="cls-4" d="M838.12,421.59v1.33c-7.84.76-18,1.29-31,1.29-15.17,0-24.82-.69-31-1.65V421.2c7,1.11,17.43,1.7,31,1.7C820.18,422.9,830.31,422.36,838.12,421.59Z"/><path class="cls-4" d="M838.12,429.18v1.34c-7.84.75-18,1.28-31,1.28-15.17,0-24.82-.69-31-1.65v-1.36c7,1.11,17.43,1.69,31,1.69C820.18,430.48,830.31,430,838.12,429.18Z"/><path class="cls-4" d="M837.25,436.85q-.27.7-.6,1.38c-7.62.69-17.29,1.15-29.52,1.15-14.11,0-23.45-.59-29.65-1.45a14,14,0,0,1-.58-1.44c7,1,17.16,1.58,30.23,1.58C819.7,438.07,829.56,437.57,837.25,436.85Z"/><path class="cls-14" d="M294.35,390.38s-.45-46.12,10.74-56.47,18.8,9.92,16.56,22.42-13.45,42.41-13.45,42.41Z"/><path class="cls-15" d="M284.59,368s-6.59-56.39,15.05-58-.9,69.11-2.58,70.13S284.59,368,284.59,368Z"/><path class="cls-15" d="M276,362.45s-20.32-30.4-10.49-47.45,19.67,13.05,25.57,32.26S297.06,373,297.06,373Z"/><path class="cls-14" d="M285.54,398.74s-28.52-66.69-3.6-73.57,12.36,75,12.36,75Z"/><path class="cls-13" d="M288.49,393.23s-11.47-55.61-22.62-52-4.59,17.4,0,25.92S283.62,394,283.62,394Z"/><path class="cls-6" d="M316,406.15v25.73a20.38,20.38,0,0,1-.61,5c-.13.47-.26.93-.42,1.38-1.64,4.79-5.07,8.08-9.05,8.08H282.74c-4.05,0-7.55-3.43-9.15-8.38-.15-.46-.29-.95-.4-1.44a20.22,20.22,0,0,1-.53-4.61V406a19.62,19.62,0,0,1,1-6c.14-.44.3-.86.47-1.27,1.76-4.2,5-7,8.65-7h23.13c3.75,0,7,2.93,8.76,7.29.16.41.31.83.45,1.27A19.73,19.73,0,0,1,316,406.15Z"/><path class="cls-4" d="M315.08,400.28a161.54,161.54,0,0,1-20.78,1.17c-9.83,0-16.35-.6-20.68-1.44.14-.44.3-.86.47-1.27a114.23,114.23,0,0,0,20.21,1.4A161.8,161.8,0,0,0,314.63,399C314.79,399.42,314.94,399.84,315.08,400.28Z"/><path class="cls-4" d="M316,406.42v1.33A160.36,160.36,0,0,1,294.3,409c-10.59,0-17.33-.69-21.64-1.65V406c4.87,1.11,12.18,1.69,21.64,1.69A156.32,156.32,0,0,0,316,406.42Z"/><path class="cls-4" d="M316,414v1.33a159,159,0,0,1-21.65,1.28c-10.59,0-17.33-.69-21.64-1.64v-1.37c4.87,1.12,12.18,1.7,21.64,1.7A157.91,157.91,0,0,0,316,414Z"/><path class="cls-4" d="M316,421.59v1.33a158.72,158.72,0,0,1-21.65,1.29c-10.59,0-17.33-.69-21.64-1.65V421.2c4.87,1.11,12.18,1.7,21.64,1.7A156.07,156.07,0,0,0,316,421.59Z"/><path class="cls-4" d="M316,429.18v1.34a160.63,160.63,0,0,1-21.65,1.28c-10.59,0-17.33-.69-21.64-1.65v-1.36c4.87,1.11,12.18,1.69,21.64,1.69A156.32,156.32,0,0,0,316,429.18Z"/><path class="cls-4" d="M315.34,436.85c-.13.47-.26.93-.42,1.38a161.73,161.73,0,0,1-20.62,1.15c-9.86,0-16.38-.59-20.71-1.45-.15-.46-.29-.95-.4-1.44,4.86,1,12,1.58,21.11,1.58A159.35,159.35,0,0,0,315.34,436.85Z"/><rect class="cls-8" x="353.08" y="424.73" width="82.33" height="21.81" rx="2"/><rect class="cls-10" x="364.2" y="402.92" width="82.33" height="21.81" rx="2"/><rect class="cls-10" x="442.57" y="340.72" width="20.47" height="105.02" rx="4" transform="translate(-47.65 62.77) rotate(-7.53)"/><rect class="cls-8" x="463.56" y="340.72" width="20.47" height="105.02" rx="4" transform="translate(-47.47 65.53) rotate(-7.54)"/><rect class="cls-10" x="520.66" y="356.9" width="20.47" height="105.02" rx="4" transform="translate(-108.68 610.45) rotate(-55.09)"/><rect class="cls-8" x="516" y="329.03" width="20.47" height="105.02" rx="4" transform="translate(-87.81 594.71) rotate(-55.09)"/><rect class="cls-8" x="575.44" y="344.07" width="19.63" height="102.47" rx="5"/><rect class="cls-4" x="750.49" y="172.03" width="60.88" height="33.88"/><rect class="cls-12" x="747.38" y="164.05" width="68.26" height="7.98" rx="3"/><path class="cls-10" d="M787.67,181.82h-15.4a2.08,2.08,0,0,1-2.08-2.08h0a2.08,2.08,0,0,1,2.08-2.09h15.4a2.09,2.09,0,0,1,2.09,2.09h0A2.09,2.09,0,0,1,787.67,181.82Z"/><rect class="cls-4" x="722.1" y="214.82" width="110.4" height="47.03"/><rect class="cls-12" x="716.45" y="203.75" width="123.79" height="11.07" rx="3"/><path class="cls-10" d="M790.41,228.41H760.72a2.9,2.9,0,0,1-2.9-2.9h0a2.89,2.89,0,0,1,2.9-2.89h29.69a2.89,2.89,0,0,1,2.9,2.89h0A2.9,2.9,0,0,1,790.41,228.41Z"/><path class="cls-8" d="M874,272.79H225.82a5.74,5.74,0,0,1-5.75-5.75h0a5.75,5.75,0,0,1,5.75-5.75H874a5.76,5.76,0,0,1,5.75,5.75h0A5.75,5.75,0,0,1,874,272.79Z"/><path class="cls-8" d="M261.94,272.79l20.53,11.36a5.9,5.9,0,0,0,8.76-5.16v-6.2Z"/><path class="cls-8" d="M831.13,272.79,810.6,284.15a5.9,5.9,0,0,1-8.76-5.16v-6.2Z"/><rect class="cls-4" x="255.24" y="158.82" width="29.37" height="102.47" rx="3.28"/><rect class="cls-8" x="284.61" y="158.82" width="29.37" height="102.47" rx="3.28"/><rect class="cls-4" x="313.98" y="158.82" width="29.37" height="102.47" rx="3.28"/><g class="cls-16"><rect class="cls-6" x="313.98" y="228.2" width="29.37" height="3.06"/><rect class="cls-6" x="284.61" y="236.07" width="29.37" height="9.51"/><rect class="cls-6" x="255.24" y="228.2" width="29.37" height="3.06"/><rect class="cls-6" x="255.24" y="236.07" width="29.37" height="9.51"/><rect class="cls-6" x="284.61" y="228.2" width="29.37" height="3.06"/><rect class="cls-6" x="313.98" y="236.07" width="29.37" height="9.51"/></g><ellipse class="cls-4" cx="514.71" cy="208.99" rx="53.45" ry="52.3"/><ellipse class="cls-6" cx="514.71" cy="208.99" rx="43.23" ry="42.3"/><path class="cls-4" d="M539.29,232.48,517.81,211a3.66,3.66,0,0,0,.6-2,3.71,3.71,0,0,0-2.93-3.62V184.19a.77.77,0,1,0-1.54,0v21.18a3.7,3.7,0,0,0,.77,7.32,3.65,3.65,0,0,0,2-.6l21.48,21.48a.77.77,0,0,0,1.09-1.09Z"/><path class="cls-14" d="M662.89,189.75s-8.39-17.62-7-26.63,7-9.35,7-9.35-1.39-4.59,7.62-7.05,11.81,1.64,11.81,1.64,4.91-10.26,15.24-2.42S705.27,160,705.27,160s6.23-1.31,5.9,7.54-7,9.51-7,9.51,1.15,7.71-4.26,10.33-13.77.16-13.77.16a10.12,10.12,0,0,1-7.55,3.45C673.46,191.15,662.89,189.75,662.89,189.75Z"/><path class="cls-4" d="M649.74,237.78H597.65a2.62,2.62,0,0,0-2,4.31l15.28,18.26a2.62,2.62,0,0,0,2,.94h73.62a2.62,2.62,0,0,0,2-.94l15.28-18.26a2.62,2.62,0,0,0-2-4.31Z"/><path class="cls-13" d="M657.6,182.54s-9.55,5.33-17.25,2.71-7.87-12.79-7.87-12.79-2-.33-4.1-4.59-1-9.74,0-9.7-4.71-5.38-1.2-10.79,16.28-7,18.58-2.95l2.29,4.1s5.25-2.79,7.87,1.31.82,6.85.82,6.85a18.17,18.17,0,0,1,6.39,5.94c3.12,4.42,0,10,0,10s2-.33,1.39,3.27S657.6,182.54,657.6,182.54Z"/><path class="cls-13" d="M639.27,214.38s2.23-10.28-4.66-12.9-10.66,1-10.66,1-.82-7.05-3.93-9.83-9.18,3.27-9.18,3.27-12.46-15.73-15.57.66,10.32,13.5,10.32,13.5-5.24,9.45,4.27,12.07,12.62,0,12.62,0-2.79,4.92,5.9,4.1S639.27,214.38,639.27,214.38Z"/><path class="cls-13" d="M657.67,211.33s2.05-10.34,7-13.79,7,0,7,0,4.43-3.28,7.21,0,2.79,4.59,2.79,4.59,2.13-1.8,5.57,2.79-4.91,12.62-6.23,11.64-2.13,2-5.57,2.46-8.2-2-8.2-2-.32,4.39-3.44,2S657.67,211.33,657.67,211.33Z"/><path class="cls-15" d="M707.9,166.06c-.75-.21-18.7-4.85-44.58,21.35q-2.42,2.46-4.47,5a46.32,46.32,0,0,0-15.23-33.69l-.32-.29a.66.66,0,0,0-.93-.06.67.67,0,0,0-.06.93l.44.4c5.54,5,14.82,16,14.81,34.34-6.51,8.47-9.9,17.36-10.15,26.58-6.31-10.51-18.16-11.07-26.19-11.45a27,27,0,0,1-6.6-.75.65.65,0,1,0-.45,1.23c1.59.58,4,.69,7,.83,8.26.39,20.73,1,26.28,13a46,46,0,0,0,2.6,13.16c.13.4.27.8.33,1a1.1,1.1,0,0,0,0,.18.66.66,0,0,0,.65.66l.38,0,.19-.28c.27-.37.15-.71-.29-2a44.24,44.24,0,0,1-2.53-13.2c.34-1.81,2.55-11.13,11.56-12.25,10.28-1.28,13-1.07,13-1.06a.67.67,0,0,0,.71-.6.65.65,0,0,0-.59-.71c-.11,0-2.82-.24-13.32,1.07-6.4.79-9.66,5.3-11.28,8.92.7-8.16,4-16.06,9.8-23.62a.21.21,0,0,0,0-.06,69.18,69.18,0,0,1,5.55-6.32c25.27-25.59,43.11-21.05,43.29-21a.65.65,0,0,0,.81-.45A.67.67,0,0,0,707.9,166.06Z"/><path class="cls-15" d="M409.64,177.09s-9.18-12.17-7.37-31.19,23.44-32.29,23.44-32.29,5.37,23.69-.66,43.08-13.37,25.81-13.37,25.81Z"/><path class="cls-13" d="M406.57,173.38s-1.19-16.16-14.3-25.18-24.92-7-24.92-7,4.26,15.9,13.44,23.28S404.63,174.14,406.57,173.38Z"/><path class="cls-13" d="M415.58,180.51s-4.3-13.95,7.34-28.54,33.32-13.77,33.32-13.77a45.22,45.22,0,0,1-15.94,32C424.4,183.44,415.58,180.51,415.58,180.51Z"/><path class="cls-17" d="M423.31,168.36c-5.31,4.6-8.18,12.53-9.61,18.1a.66.66,0,0,1-1.27,0c-.1-.37-.2-.76-.32-1.15,0,0,0-.05,0-.07a81.08,81.08,0,0,1-.49-24.49c2.06-14.27,7.84-20.6,9.48-22.14a.66.66,0,0,0,.07-.87h0a.65.65,0,0,0-1-.09c-1.85,1.7-7.75,8.17-9.87,22.91a76.71,76.71,0,0,0-.58,15.51.65.65,0,0,1-1.22.36,30.23,30.23,0,0,0-1.94-3.05c-5-6.77-15.43-13.6-18-15.23a.66.66,0,0,0-.91.22h0a.66.66,0,0,0,.21.89c2.48,1.59,12.84,8.39,17.63,14.9a37.57,37.57,0,0,1,5.33,11.54s0,.05,0,.07a65.93,65.93,0,0,0,1.57,7.11s0,.06,0,.09l.64,4.94.65-5c0-.16,2.2-16.39,10.43-23.52,6.74-5.83,12-6.95,13.75-7.17a.65.65,0,0,0,.58-.65h0a.65.65,0,0,0-.74-.65C435.83,161.1,430.34,162.28,423.31,168.36Z"/><path class="cls-6" d="M430.05,232c-.23,1.35-.52,2.81-.9,4.4-3.93,16.72-9.83,24.89-9.83,24.89H406.86S401,253.12,397,236.4c-.36-1.54-.65-3-.87-4.26-.8-4.67-.76-8-.15-10.58,1.06-4.62,3.88-7.07,6.92-11.07,5.25-6.88-.33-18.68,0-23.93s10.17-5.29,10.17-5.29,9.83,0,10.16,5.29-5.25,17.05,0,23.93c3,3.92,5.76,6.35,6.87,10.8C430.77,223.92,430.85,227.25,430.05,232Z"/><path class="cls-4" d="M430.05,232a62.3,62.3,0,0,1-17,1.94,69.48,69.48,0,0,1-16.94-1.8c-.8-4.67-.76-8-.15-10.58a42.7,42.7,0,0,0,17.09,3.4,37.87,37.87,0,0,0,17-3.67C430.77,223.92,430.85,227.25,430.05,232Z"/><path class="cls-18" d="M401.17,751.58,387.37,803,353.71,928.31a3.14,3.14,0,0,1-3,2.32h-5a3.14,3.14,0,0,1-3.1-3.62l20.79-134.29L374.16,723Z"/><path class="cls-18" d="M657.6,930.63h-5a3.13,3.13,0,0,1-3-2.32L616.7,805.88l-14.58-54.3,27-28.58,11.56,74.64L660.7,927A3.13,3.13,0,0,1,657.6,930.63Z"/><path class="cls-19" d="M374.16,723l27,28.58L387.37,803a260.34,260.34,0,0,1-24-10.24Z"/><path class="cls-19" d="M640.68,797.64c-7.67,2.93-15.66,5.7-24,8.24l-14.58-54.3,27-28.58Z"/><path class="cls-19" d="M686.5,609.1q3.88,6.71,7.55,13,.12-2.9.19-5.93-3.76-6.45-7.74-13.33L679.15,590q3.2-6.36,6.4-11.85c2-3.43,3.94-6.61,5.88-9.57l1.43,2.57c-.27-3-.56-6-.91-8.89l-.24.34c-.83-1.47-1.66-3-2.49-4.47q-4.08-7.38-8-14.72c-4.61-8.63-9.05-17.17-13.31-25.55q2.75-3.92,5.31-7.11c.6-.77,1.2-1.5,1.79-2.2,1.45-1.75,2.88-3.35,4.26-4.84-.38-1.12-.76-2.23-1.16-3.34-1.7,1.77-3.46,3.74-5.28,5.89-.25.3-.51.6-.76.92-1.84,2.22-3.77,4.72-5.76,7.5-5.88-11.67-11.38-23-16.45-33.79.76-.89,1.51-1.78,2.26-2.63q2.5-2.88,4.93-5.51c1.94-2.11,3.84-4.09,5.67-6-.53-.95-1.08-1.88-1.65-2.81-1.82,1.85-3.72,3.82-5.65,5.91s-3.69,4-5.6,6.22l-1.43,1.66c-5.15-11-9.85-21.36-14-30.87,1-.75,2-1.46,2.92-2.15l2.07-1.46q2.28-1.57,4.5-3c-.7-.8-1.42-1.59-2.13-2.37-1.29.81-2.6,1.69-3.93,2.6-.87.59-1.75,1.22-2.65,1.86-.68.49-1.38,1-2.08,1.53q-1.49-3.37-2.89-6.6c-2.59-6-4.95-11.51-7-16.54-2-1.53-4-3-6-4.42q-4.19,1.84-8.39,3.85-4.87,2.36-9.76,5-2.43-7-4.29-13h0c-.56-1.82-1.1-3.58-1.59-5.26q2.57-1,4.94-1.88c-1.29-.64-2.59-1.27-3.91-1.87l-1.9.72c-.15-.51-.3-1-.43-1.51a2.8,2.8,0,0,0-.09-.31c-1.21-.55-2.44-1.07-3.68-1.59.18.7.38,1.41.57,2.12s.44,1.6.68,2.42l-5.63,2.19c-7.59,3-16.06,6.47-25.11,10.4-3-7.71-5.5-14.42-7.52-19.9l-1-2.54c4.39-1.17,8.54-2.16,12.45-3-2.34-.56-4.71-1.1-7.12-1.6q-3.11.76-6.41,1.65l-1.11-3-3.54-.56c.47,1.29,1,2.79,1.61,4.45-2.71.77-5.54,1.61-8.5,2.55-8.34,2.64-17.63,6-27.67,10.3-1.07-4.24-2-8.27-2.92-12.05-.64-2.75-1.22-5.37-1.76-7.85q-6.62.06-13,.43c-7,2.73-15,6.19-23.83,10.58q-9.45,4.65-20.15,10.78c-.5-2-1-4-1.41-5.83q-.93-4.09-1.7-7.72c-1,.29-2,.6-3,.9.51,2.43,1.08,5,1.71,7.73q.74,3.15,1.59,6.56c-8.16,4.79-16.84,10.27-26,16.53Q417,420.21,415,415.09c-1-2.61-2-5.09-2.88-7.41-.94.51-1.87,1-2.78,1.54.91,2.32,1.87,4.81,2.9,7.43,1.37,3.49,2.85,7.24,4.43,11.21q-8,5.56-16.4,11.95c-2.32,1.76-4.6,3.61-6.85,5.52-1.4-4.4-2.71-8.55-3.9-12.4q-1.35-4.37-2.51-8.22c-.88.73-1.75,1.47-2.61,2.23.79,2.59,1.64,5.36,2.55,8.29q1.78,5.79,3.89,12.35a216.14,216.14,0,0,0-27.7,30.25c-1-3.45-1.92-6.78-2.82-10q-1.49-5.36-2.8-10.19c-.78,1.15-1.54,2.32-2.3,3.5.91,3.3,1.86,6.77,2.89,10.41.85,3,1.73,6.16,2.67,9.39a342,342,0,0,0-20.21,30.73c-1.16,2-2.28,3.92-3.4,5.89-1.17-3.71-2.28-7.32-3.34-10.79-.58,1.73-1.14,3.47-1.68,5.24q1.39,4.53,2.92,9.32c-3.51,6.35-6.84,12.74-10,19.11q-1.09,5.58-2,11.32c4.12-8.72,8.56-17.56,13.33-26.32,0,.1.07.2.1.31,3.08,9.5,6.53,19.63,10.34,30.12-6.27,11.13-12.07,22.29-17.39,33.17q-1-2.59-2-5.09C325,577.76,322.84,572,321,566.78c-.27,2.41-.52,4.83-.73,7.27q2.91,8,6.68,17.36c.2.47.39,1,.59,1.45-.25.5-.49,1-.72,1.51-2.87,6-5.58,11.88-8.14,17.61,0,2.58.05,5.1.11,7.54q3.68-8.41,7.81-17.33c.84-1.79,1.69-3.61,2.56-5.43,6.14,14.71,13.93,31.63,23.79,50.72q1.11,2.19,2.28,4.4c-.65,3-1.27,5.9-1.86,8.76-2.52,12.28-4.61,24.08-6.31,34.91l2.86,2c1.75-11.22,3.9-23.51,6.54-36.32.33-1.65.69-3.33,1-5q5.27,9.91,11.27,20.57C379.64,696,390,713,399.58,728c1.23.62,2.38,1.19,3.47,1.71.68.32,1.34.64,2,1-10.36-16-21.62-34.41-33.5-55.46q-7-12.39-13-23.79.53-2.45,1.1-4.92c2.61-11.45,5.72-23.56,9.35-35.79,5.06,11.15,10.49,22.24,16.27,33,6.19,11.53,12.79,22.69,19.79,33.15C418.23,696.53,431.82,714.69,445,731c-2.06,7.18-4,14.13-5.89,20.78a21.74,21.74,0,0,0,3,1.1c1.68-6.07,3.48-12.38,5.35-18.9,5.85,7.2,11.6,14,17.17,20.45l4-.21c-6.47-7.42-13.22-15.42-20.09-23.92q3.35-11.62,7-24a335.82,335.82,0,0,0,37.93,45.92c1.48-.1,2.89-.18,4.21-.23a331.41,331.41,0,0,1-41-49.55c4.47-14.89,9.27-30.37,14.34-46,.74-2.29,1.47-4.54,2.21-6.79q.76-2.37,1.55-4.72c1,1.68,1.94,3.34,2.93,5a439.18,439.18,0,0,0,35.66,52.24A367.28,367.28,0,0,0,509.66,753l3.15.62A366,366,0,0,1,516,705.46a257.08,257.08,0,0,0,20.08,21.71l2.17-2.26a262.21,262.21,0,0,1-21.66-23.68c1.81-12.63,4.34-26,7.77-40.42C535.44,680,546.44,697,557,710.6q8.22,10.59,15.43,19.7c-.11,7.18-.14,14.13-.11,20.78l3.14-.57c0-5.26,0-10.72,0-16.32q6.06,7.63,11.43,14.27l3.54-.63c-4.58-5.65-9.53-11.83-14.9-18.61.3-18.38,1.15-38.19,2.9-58.12,10.67,14.58,21,27.88,30.76,39.9-1.29,11.84-2.32,23.21-3.13,33.92l3.2-.65c.72-9.48,1.61-19.48,2.72-29.85,7.22,8.82,14.12,16.93,20.58,24.29,1.32-.4,2.56-.81,3.71-1.21,3.1-17.44,7.06-36.76,12.14-57.16l23.31,26.92c.73-.82,1.42-1.62,2.08-2.41l-24.46-28.24c1.82-7.19,3.79-14.53,5.9-22,1.75-6.12,3.59-12.32,5.55-18.55l.27-.85c5.31,8.29,10.73,16.34,16.27,24.08,1.22,1.73,2.46,3.45,3.7,5.15q4.11,5.61,8,10.86a40,40,0,0,0,1-4c-1.78-2.43-3.61-4.91-5.46-7.45l-1-1.32-.92-1.27-.67-.92c-6.71-9.26-13.28-19-19.67-29.06a304.7,304.7,0,0,1,15.13-37.94Q682.12,601.56,686.5,609.1Zm-22.25-91.45A196.41,196.41,0,0,0,651.17,540q-10.41-19.41-18.69-36.32c5.22-7.59,10.35-14.28,15.14-20.08C652.76,494.46,658.32,505.89,664.25,517.65ZM405,480a216.84,216.84,0,0,1,19.42-18.07q2.26-1.85,4.51-3.64c3.58,8.75,7.44,18.05,11.53,27.73a222,222,0,0,0-24.77,23.42C411.81,499.2,408.24,489.33,405,480Zm8.35,32.14-.59.66c-9.77,11.53-18.25,25.58-25.59,40.87-4.43-12.64-8.52-25-12.24-36.69a325.48,325.48,0,0,1,27.64-34.41C405.84,492,409.43,501.87,413.32,512.13Zm18.15-55.86q11.47-8.94,22.58-16.35c2.78,8.54,6.13,18,10.13,28.42-7.3,5-14.42,10.18-21.21,15.62C438.9,474.28,435,465,431.47,456.27Zm33.88,15.08a747,747,0,0,0,38.91,83.12Q497.53,571,490.6,589.74C473.73,555,457.77,519,444.24,487,451,481.53,458.06,476.32,465.35,471.35Zm2.66-1.81a507.3,507.3,0,0,1,48.25-28.35c4.72,15.5,10.44,32.48,17.36,50.38q-13.43,24.32-27.82,59.14A743.14,743.14,0,0,1,468,469.54Zm67.17,26c6.64,16.91,14.34,34.58,23.23,52.55q-1.93,4.56-3.82,9.35C548,574.3,542.24,590,537.31,604.75q-5.67-9.06-11.34-18.53-9.84-16.44-18.18-31.83A620.11,620.11,0,0,1,535.18,495.56Zm2-3.56c10.82-19.44,21.09-33.67,30.71-42.38,5.59,13.64,12,28.73,19.1,44.67a321.87,321.87,0,0,0-26.91,50C551.25,526.42,543.66,508.81,537.13,492Zm51.33,5.69c6,13.46,12.56,27.49,19.52,41.74a294.59,294.59,0,0,0-16.5,41.45q-2.09,6.66-3.88,13.66C578.07,579,569.53,563.43,561.86,548A323.68,323.68,0,0,1,588.46,497.69Zm2-3.09a225.41,225.41,0,0,1,21.58-27.39c4.77,11,10.31,23,16.76,36.2a297.73,297.73,0,0,0-19.11,32.48C602.89,521.78,596.46,507.9,590.51,494.6Zm4,87.22A290.72,290.72,0,0,1,609.74,543c7.21,14.64,14.86,29.47,22.9,44.11-2.15,7-4.22,14.53-6.17,22.55-2.54,10.46-4.8,21-6.82,31.41-10.83-14-20.72-28.37-29.75-42.83Q592,589.8,594.48,581.82Zm17-42.37a291.29,291.29,0,0,1,19-32.78q8.46,17.13,19,36.78A296.57,296.57,0,0,0,633.94,583C626.06,568.5,618.55,553.87,611.49,539.45Zm34.65-59c-4.81,5.77-10,12.43-15.25,20-6.33-13-11.78-24.88-16.45-35.72a171.31,171.31,0,0,1,17.32-15.8C636.06,458.63,640.87,469.22,646.14,480.44Zm-34.42-58.13q3.62-1.71,7.2-3.27c1.68,4,3.53,8.42,5.55,13.12,1.86,4.33,3.85,8.95,6,13.79a173.21,173.21,0,0,0-17.37,15.64C607.73,449,603.43,438,600,428.24Q605.85,425.08,611.72,422.31Zm-1,41.75A227.68,227.68,0,0,0,589,491.22c-6.94-15.62-13.2-30.41-18.67-43.76.52-.42,1-.83,1.55-1.22a216.72,216.72,0,0,1,25.3-16.47C600.75,439.76,605.19,451.16,610.73,464.06Zm-23-55,2.35-.91.68,2.28c1.5,4.94,3.27,10.38,5.36,16.37a217.4,217.4,0,0,0-26.13,17c-.3.22-.59.45-.89.69-3.51-8.63-6.69-16.63-9.49-23.82C569.89,416.16,579.42,412.27,587.74,409Zm-21.16,37.51q-14.73,12.87-31,41.5c-6.55-17.15-12-33.43-16.53-48.3,7.38-3.78,14.53-7.27,21.28-10.43,5.6-2.62,11.09-5.11,16.39-7.44C559.64,429.3,562.92,437.59,566.58,446.54Zm-21.81-49.83,2.2-.63c.13.34.26.7.39,1.06,2.14,5.81,4.91,13.18,8.25,21.8-5.36,2.35-10.9,4.85-16.57,7.51-6.62,3.1-13.65,6.52-20.89,10.23-3-9.92-5.5-19.17-7.66-27.62A298.47,298.47,0,0,1,544.77,396.71Zm-29.44,41.42a512.92,512.92,0,0,0-48.47,28.41c-4-10.4-7.33-19.9-10.09-28.43a348.39,348.39,0,0,1,50.82-27.79C509.79,418.83,512.35,428.16,515.33,438.13Zm-36.65-42.57c8.87-4,16.64-7.08,23.19-9.36.54,2.45,1.11,5,1.73,7.74,1,4.14,2,8.58,3.21,13.29a350.61,350.61,0,0,0-51,27.78c-1-3.19-1.95-6.24-2.81-9.14q-2.32-7.92-4.11-14.85C459.79,404.69,469.79,399.62,478.68,395.56ZM446,412.67c1.14,4.36,2.42,9,3.88,13.94q1.41,4.81,3.13,10.2c-7.46,5-15.09,10.44-22.8,16.45-3.56-8.72-6.83-16.85-9.78-24.23C429.43,422.84,438,417.41,446,412.67Zm-43.91,29.64q8-6.1,15.69-11.44c3,7.44,6.27,15.63,9.86,24.39-1.76,1.38-3.51,2.79-5.27,4.23a215.78,215.78,0,0,0-18.58,17.18c-3.5-10.1-6.64-19.54-9.4-28.09Q398.2,445.29,402.12,442.31Zm-10.27,8.54c2.8,8.65,6,18.18,9.53,28.36a322.55,322.55,0,0,0-27.66,34c-3.54-11.24-6.72-21.88-9.54-31.63A216.72,216.72,0,0,1,391.85,450.85Zm-53.42,70.83a355.11,355.11,0,0,1,23.4-36.91c2.85,9.8,6.07,20.45,9.61,31.67-8.09,11.6-15.63,23.68-22.61,35.86C345,541.59,341.51,531.29,338.43,521.68Zm17.88,125.43C345.64,626.52,337.38,608.45,331,593c5.25-10.86,11-22,17.21-33.19,5.56,15.08,11.83,30.85,18.84,46.59C362.8,620.31,359.24,634.15,356.31,647.11Zm12.16-45.31c-6.78-15.44-12.87-30.88-18.24-45.62,6.91-12.19,14.39-24.33,22.41-36,3.83,12,8,24.59,12.6,37.5A378.79,378.79,0,0,0,368.47,601.8ZM446,727.31c-12.65-15.8-25.69-33.29-38.33-52.18-6.59-9.86-12.83-20.34-18.7-31.17-6.67-12.28-12.87-25-18.6-37.8A388,388,0,0,1,386.76,562a891.24,891.24,0,0,0,34.64,84.18c7.37,15.38,15.21,30.16,23.47,43.78q4.08,6.74,8.32,13C450.69,711.3,448.29,719.44,446,727.31ZM468,655.46c-4.79,14.8-9.34,29.46-13.6,43.59q-3.44-5.24-6.8-10.75c-7.92-13.06-15.45-27.19-22.54-41.89-13.81-28.57-26-59.29-36.39-88.54,7.39-15.87,16-30.47,26-42.38q2.63,6.87,5.41,13.92c13.43,34,31.26,74.28,52.62,111.83q-1.33,4.05-2.69,8.18Zm6-18.23c-20.64-36.68-37.92-75.84-51-108.94q-3.12-7.86-6-15.52A214.21,214.21,0,0,1,441.71,489c13.82,32.65,30.15,69.49,47.38,104.79Q481.64,614.22,474,637.23Zm40,60.64a438.34,438.34,0,0,1-32.49-47.75q-2.73-4.57-5.39-9.22,7.57-22.77,15-43.12c9.26,18.83,18.78,37.18,28.28,54.13.93,1.65,1.85,3.29,2.78,4.92C518.52,671.46,515.85,685.05,513.92,697.87Zm9.28-45.46L523,652c-10.23-18.15-20.47-37.94-30.43-58.28q7-18.88,13.73-35.58,7.88,14.4,17,29.71,6.38,10.65,12.75,20.77c-5.08,15.46-9.28,29.87-12.71,43.38C523.27,652.13,523.23,652.27,523.2,652.41Zm49.3,72.93q-6.16-7.83-13-16.66c-11-14.17-22.48-32.14-34-52.29.35-1.45.72-2.9,1.1-4.37,3.19-12.51,7-25.78,11.65-40q12.82,20.24,25.42,38.26,6.07,8.73,12,16.94C573.82,687.1,572.88,706.88,572.5,725.34Zm3.62-62.82q-4.36-6.06-8.79-12.39c-9.14-13.09-18.47-27.07-27.86-41.94,5.1-15.4,11.07-31.86,18-49.57.9-2.31,1.82-4.57,2.75-6.8,7.82,15.56,16.55,31.32,26.26,47a441.46,441.46,0,0,0-9,50.86Q576.77,656.06,576.12,662.52Zm33.59,44.09c-9.79-12.13-20.13-25.56-30.81-40.24.53-5.63,1.14-11.27,1.84-16.88a440.79,440.79,0,0,1,8.13-47c9.13,14.43,19.09,28.74,30,42.69-.22,1.17-.44,2.35-.65,3.52C614.58,668.56,611.82,688.1,609.71,706.61ZM633.56,735c-6.62-7.57-13.68-15.91-21.07-25,2.16-19.49,5-40.21,8.9-61.24l.06-.29c.07.1.15.19.23.29q6.18,7.76,12.73,15.34l11.52,13.31C640.78,698,636.73,717.41,633.56,735Zm24.27-99.86q-2.94,9.38-5.56,18.61-2.87,10.1-5.4,19.94l-10.09-11.65q-5.61-6.51-11-13.15-1.81-2.26-3.6-4.53c2.14-11.3,4.57-22.66,7.32-34Q632,600.14,634.76,591c7.72,13.93,15.79,27.66,24.15,40.85C658.54,632.93,658.18,634,657.83,635.17Zm2.35-7.22c-8.36-13.31-16.43-27.15-24.15-41.17a299.56,299.56,0,0,1,15.28-39.91q6.26,11.55,13.28,24,5.68,10,11,19.32A302.36,302.36,0,0,0,660.18,628Zm7.14-58.68Q659.69,555.8,653,543.38a196.65,196.65,0,0,1,12.89-22.53c5.34,10.51,11,21.27,16.88,32.1,1.23,2.24,2.46,4.49,3.71,6.75q1.63,2.94,3.25,5.84-2.29,3.4-4.61,7.23-3.9,6.39-7.82,14Q672.45,578.31,667.32,569.27Z"/><path class="cls-18" d="M507.91,783.9c-152.9,0-185.48-119-185.48-119l4.05-.13c39.06-1.2,347.45-10.19,360.66,6.13a2,2,0,0,1,.41.82C691.31,690.26,660.81,783.9,507.91,783.9Z"/><path class="cls-19" d="M687.14,670.87c-5.59,30.51-45.8,101.82-179.23,101.82-124.1,0-168.94-78.41-181.43-108C365.54,663.54,673.93,654.55,687.14,670.87Z"/><path class="cls-18" d="M694.24,616.17q-.07,3-.19,5.93a362.59,362.59,0,0,1-4,42.81l-5.51-1-2.24-.39s.14-.81.35-2.2a388.83,388.83,0,0,0,3.81-52.26q0-3.08,0-6.26c0-5.73-.2-11.72-.53-17.89-.12-2.2-.26-4.46-.42-6.76-.14-1.79-.28-3.59-.44-5.42-.56-6.35-1.32-13-2.35-19.82q-.68-4.69-1.55-9.5a266.66,266.66,0,0,0-8-32.66c-.37-1.2-.76-2.38-1.15-3.57a200.36,200.36,0,0,0-15-34.43c-.53-1-1.07-1.92-1.63-2.86A157.25,157.25,0,0,0,640.05,448c-.92-1.09-1.85-2.18-2.8-3.24-.7-.79-1.42-1.57-2.14-2.34-1.62-1.74-3.27-3.43-5-5.07-1.84-1.8-3.74-3.54-5.67-5.22a136.58,136.58,0,0,0-12.75-9.85c-1-.7-2-1.38-3-2a145.36,145.36,0,0,0-14-8h0c-1.27-.64-2.56-1.25-3.86-1.85-1-.47-2-.92-3-1.37-1.37-.61-2.75-1.19-4.15-1.75a175,175,0,0,0-32.63-9.5c-1.2-.22-2.39-.44-3.6-.64-.86-.15-1.72-.3-2.59-.43-2.43-.39-4.89-.73-7.38-1a243.71,243.71,0,0,0-29.79-1.76h-.8c-1.07,0-2.14,0-3.2,0a242.79,242.79,0,0,0-24.92,1.62c-3.55.42-7.05.93-10.48,1.52A183.87,183.87,0,0,0,446.64,402c-1,.29-2,.59-3,.91A157,157,0,0,0,415,415.09q-1.4.77-2.76,1.56a141.49,141.49,0,0,0-22.72,16.28c-.88.75-1.73,1.52-2.57,2.3a144.68,144.68,0,0,0-12.41,12.93,158.25,158.25,0,0,0-14.22,19.69c-.75,1.23-1.49,2.47-2.21,3.72a204.5,204.5,0,0,0-17.54,40.12c-1.5,4.69-2.86,9.4-4.07,14.08a318.78,318.78,0,0,0-9.06,58.2c0,.36-.05.72-.08,1.09-.13,2.13-.25,4.25-.34,6.35-.05,1-.1,2-.13,3-.1,2.65-.18,5.26-.22,7.82-.66,35.27,3.51,61.11,3.55,61.41l-7.74,1.27a363.39,363.39,0,0,1-3.62-45.35c-.06-2.44-.09-5-.11-7.54-.05-8.48.16-17.64.76-27.23q.33-5.4.83-10.7c.21-2.44.46-4.86.73-7.27.57-5.08,1.23-10.09,2-15q.92-5.73,2-11.32a272.1,272.1,0,0,1,7-28c0-.14.08-.29.13-.43.54-1.77,1.1-3.51,1.68-5.24a204.34,204.34,0,0,1,21.39-45.63c.76-1.18,1.52-2.35,2.3-3.5a163,163,0,0,1,11-14.57,153.34,153.34,0,0,1,15.87-16.15c.86-.76,1.73-1.5,2.61-2.23a150.59,150.59,0,0,1,22.33-15.49c.91-.51,1.84-1,2.78-1.54a166.38,166.38,0,0,1,29.85-12.47c1-.3,2-.61,3-.9A212.32,212.32,0,0,1,492,386.5q6.39-.37,13-.43c.85,0,1.7,0,2.56,0a245.72,245.72,0,0,1,36.68,2.62l3.54.56q3.81.64,7.52,1.4c2.41.5,4.78,1,7.12,1.6A176.29,176.29,0,0,1,588,400.55c1.24.52,2.47,1,3.68,1.59.81.35,1.62.72,2.42,1.1,1.32.6,2.62,1.23,3.91,1.87a152,152,0,0,1,19.09,11.31c2,1.43,4,2.89,6,4.42A148.35,148.35,0,0,1,641.69,438c.71.78,1.43,1.57,2.13,2.37s1.52,1.75,2.27,2.64a164.49,164.49,0,0,1,15,21c.57.93,1.12,1.86,1.65,2.81a200.51,200.51,0,0,1,15.39,33.58c.4,1.11.78,2.22,1.16,3.34,1,2.83,1.88,5.72,2.74,8.64a292.76,292.76,0,0,1,10,49.91c.35,2.93.64,5.89.91,8.89q.6,6.67,1,13.54C694.42,595.94,694.48,606.56,694.24,616.17Z"/><path class="cls-6" d="M690,671.4a40,40,0,0,1-1,4,110.08,110.08,0,0,1-10.44,22.94,55.81,55.81,0,0,1-4.77,6.56c-.66.79-1.35,1.59-2.08,2.41-8.12,9.18-19.82,19.53-27.2,26.13-1.56,1.4-4.44,2.77-8.25,4.11-1.15.4-2.39.81-3.71,1.21-6.4,1.94-14.58,3.8-23.3,5.56l-3.2.65c-5.16,1-10.45,2-15.63,2.91l-3.54.63c-4,.72-7.83,1.39-11.48,2l-3.14.57c-7.84,1.41-14.44,2.69-18.56,3.79-14.43,3.86-29.25,1-40.94-1.24l-3.15-.62c-1.44-.28-2.81-.54-4.13-.76a41.38,41.38,0,0,0-7.93-.25c-1.32,0-2.73.13-4.21.23-7.22.49-16.14,1.46-24.87,2l-4,.21c-8.59.36-16.72.15-22.52-1.55a21.74,21.74,0,0,1-3-1.1,14.07,14.07,0,0,1-2-1.1c-12.37-8.41-21-14.48-32.06-20-.65-.33-1.31-.65-2-1-1.09-.52-2.24-1.09-3.47-1.71-12.31-6.2-30.72-17-42.63-25.53-2.37-1.7-4.73-3.34-7-4.93l-2.86-2c-9.05-6.36-16.48-12-18.42-18.21s-5.84-8.86-5.79-12.54a7.81,7.81,0,0,1,1.6-4.23s2-1.28,4.87-3c3.32-2,7.88-4.59,12.25-6.65,1.11-.53,2.21-1,3.27-1.46,3-1.21,5.73-2,7.64-1.95H353a23.16,23.16,0,0,0,6.7-1c4-1.14,7.95-2.9,14-3.24,1.45-.08,5.56.1,11.58.45l3.7.23c8.49.53,19.8,1.32,32.41,2.19l3.62.26c14.22,1,29.88,2.06,44.91,3l3.24.2,4.48.27,3.78.23c14.4.85,27.68,1.52,37.89,1.79L523,652h.35l3.25,0c2.79,0,5.2,0,7.15-.1,7.55-.35,18.16-1,29.92-1.6l3.7-.19c3.35-.17,6.77-.34,10.23-.49l3.18-.15c12.9-.54,26.1-.92,37.47-.77l3.18.07h.29c1.42,0,2.79.08,4.13.13,9.73.38,17.43,1.28,21.39,3a51.87,51.87,0,0,0,5.07,1.87c1,.31,2,.61,3,.88,7.33,2,15.49,3.29,22.09,4.68l1.33.29c1.08.24,2.11.48,3.07.74l.25.07.78.21c3.92,1.11,6.67,2.43,7.29,4.26A13.72,13.72,0,0,1,690,671.4Z"/><path class="cls-20" d="M681.77,660.37A40.14,40.14,0,0,1,673,676.81c-9.1,10.17-18.2,16-34,24.59a132.3,132.3,0,0,0-14.6,9.61c-9.34,6.76-19,13.74-35.47,18.65-19.22,5.72-54.2,10.15-83.79,10.15a197.2,197.2,0,0,1-27.93-1.72c-31.42-4.64-85.3-28.07-99.62-36.72-13.67-8.25-23.95-18.24-31.45-30.56-4.16-6.84-4.84-14.4-4.58-19.93,1.11-.53,2.21-1,3.27-1.46-.43,5.17-.14,13,4,19.76,7.22,11.87,17.16,21.52,30.38,29.5,14.17,8.55,67.42,31.72,98.46,36.3s84.79-.72,110.36-8.33c16-4.76,25.39-11.59,34.53-18.19a135.47,135.47,0,0,1,14.93-9.82c15.44-8.38,24.33-14.11,33.12-23.93a37,37,0,0,0,8.06-15.08C679.78,659.87,680.81,660.11,681.77,660.37Z"/><path class="cls-20" d="M329.56,671.43l-6.27,7.48c-1,1.15.69,2.83,1.67,1.67l6.27-7.48c1-1.16-.69-2.83-1.67-1.67Z"/><path class="cls-20" d="M340.79,685.29c-5,3-8.34,9.26-10.24,14.54-.52,1.43,1.76,2,2.27.63,1.7-4.7,4.7-10.51,9.16-13.13a1.18,1.18,0,0,0-1.19-2Z"/><path class="cls-20" d="M354.42,697.73a24,24,0,0,0-4.09,12.48c-.07,1.52,2.28,1.51,2.35,0a21.72,21.72,0,0,1,3.77-11.29c.85-1.26-1.19-2.44-2-1.19Z"/><path class="cls-20" d="M372,709.93a16,16,0,0,0-5.71,10.68c-.18,1.51,2.18,1.49,2.35,0a13.74,13.74,0,0,1,5-9c1.17-1-.51-2.62-1.67-1.66Z"/><path class="cls-20" d="M390.73,719.83a25.46,25.46,0,0,0-7.39,11.29c-.47,1.45,1.81,2.06,2.28.63a23,23,0,0,1,6.78-10.25c1.14-1-.54-2.67-1.67-1.67Z"/><path class="cls-20" d="M411.78,730.66a133.1,133.1,0,0,0-5.33,13.79c-.47,1.45,1.8,2.07,2.27.63a127.61,127.61,0,0,1,5.1-13.23c.62-1.37-1.41-2.57-2-1.19Z"/><path class="cls-20" d="M426.38,740.36c-1.85,5.9-3.54,11.79-2.82,18,.17,1.49,2.53,1.51,2.36,0-.7-6,.94-11.71,2.73-17.41.46-1.45-1.82-2.07-2.27-.62Z"/><path class="cls-20" d="M445.89,751.66c2.41,5-1.25,10.34-2.4,15.22-.35,1.48,1.92,2.11,2.27.63,1.36-5.76,5-11.13,2.16-17-.65-1.36-2.68-.17-2,1.19Z"/><path class="cls-20" d="M462.62,752.58c1.86,6,1.8,12.13,1.53,18.34-.07,1.51,2.29,1.51,2.36,0,.28-6.43.31-12.77-1.62-19-.45-1.44-2.73-.82-2.27.63Z"/><path class="cls-20" d="M484.32,751.38a46.29,46.29,0,0,1,1.87,15.21c-.06,1.52,2.3,1.51,2.36,0a48.48,48.48,0,0,0-2-15.84,1.18,1.18,0,0,0-2.27.63Z"/><path class="cls-20" d="M511.88,751c.8,5.86-.4,11.71-.44,17.57a1.18,1.18,0,0,0,2.35,0c0-6.11,1.2-12.1.36-18.19-.21-1.5-2.48-.86-2.27.62Z"/><path class="cls-20" d="M534.34,754.68c2.23,8,7.21,16.08,4.48,24.62-.47,1.45,1.81,2.07,2.27.62,2.9-9-2.11-17.34-4.48-25.87a1.18,1.18,0,0,0-2.27.63Z"/><path class="cls-20" d="M558.6,749a21.77,21.77,0,0,1,7.23,15.2c.08,1.51,2.44,1.52,2.36,0a24.23,24.23,0,0,0-7.92-16.87c-1.12-1-2.79.64-1.67,1.67Z"/><path class="cls-20" d="M583.94,745.47c5.16,4.79,11.87,10.9,11.28,18.56-.12,1.52,2.24,1.51,2.36,0,.64-8.33-6.36-15-12-20.23-1.11-1-2.78.63-1.67,1.67Z"/><path class="cls-20" d="M609.25,741a30.92,30.92,0,0,1,8.26,22,1.18,1.18,0,0,0,2.36,0,33.3,33.3,0,0,0-9-23.71c-1-1.12-2.69.55-1.67,1.66Z"/><path class="cls-20" d="M628.22,735c1.39,2,3.16,3.54,4.68,5.37,2.31,2.77,2.5,5.71,2.21,9.16-.12,1.51,2.24,1.5,2.36,0,.24-2.91.28-5.78-1.16-8.41-1.53-2.79-4.22-4.73-6.06-7.31-.87-1.22-2.92,0-2,1.19Z"/><path class="cls-20" d="M644.89,729.34a31.65,31.65,0,0,1,10.39,15.35c.44,1.44,2.72.83,2.27-.63a33.9,33.9,0,0,0-11-16.39c-1.17-.95-2.85.71-1.67,1.67Z"/><path class="cls-20" d="M659.64,712.62a32.77,32.77,0,0,1,8.24,19.79c.1,1.51,2.46,1.52,2.35,0A35.48,35.48,0,0,0,661.31,711c-1-1.14-2.67.53-1.67,1.67Z"/><path class="cls-20" d="M672.1,701.14a26,26,0,0,1,13.28,15.11c.48,1.43,2.76.81,2.27-.63a28.32,28.32,0,0,0-14.36-16.52c-1.36-.67-2.56,1.36-1.19,2Z"/><path class="cls-20" d="M679.16,691.32c4.77,2.8,9.87,5.93,11.11,11.74.31,1.48,2.59.85,2.27-.63-1.37-6.42-6.89-10-12.19-13.15a1.18,1.18,0,0,0-1.19,2Z"/><path class="cls-20" d="M685.88,673.35c5.68,4.85,12.49,11.78,8.84,19.92-.61,1.38,1.42,2.58,2,1.19,4.13-9.21-2.54-17.08-9.21-22.78-1.15-1-2.82.68-1.67,1.67Z"/><circle class="cls-6" cx="322.98" cy="682.14" r="4.28"/><circle class="cls-6" cx="330.47" cy="703.1" r="4.28"/><circle class="cls-6" cx="351.43" cy="712.79" r="4.28"/><path class="cls-6" d="M371.18,723a4.29,4.29,0,1,1-4.28-4.28A4.29,4.29,0,0,1,371.18,723Z"/><circle class="cls-6" cx="382.88" cy="732.56" r="4.28"/><path class="cls-6" d="M410.67,745.24a4.29,4.29,0,1,1-4.29-4.28A4.28,4.28,0,0,1,410.67,745.24Z"/><path class="cls-6" d="M429.4,761.06a4.29,4.29,0,1,1-4.29-4.28A4.29,4.29,0,0,1,429.4,761.06Z"/><path class="cls-6" d="M447.74,768.35a4.29,4.29,0,1,1-4.29-4.28A4.29,4.29,0,0,1,447.74,768.35Z"/><path class="cls-6" d="M470.93,772.05a4.28,4.28,0,1,1-4.28-4.28A4.29,4.29,0,0,1,470.93,772.05Z"/><path class="cls-6" d="M490.71,768.35a4.29,4.29,0,1,1-4.28-4.28A4.29,4.29,0,0,1,490.71,768.35Z"/><path class="cls-6" d="M515.94,770.45a4.29,4.29,0,1,1-4.29-4.28A4.28,4.28,0,0,1,515.94,770.45Z"/><circle class="cls-6" cx="539.29" cy="779.62" r="4.28"/><path class="cls-6" d="M570.94,765.37a4.28,4.28,0,1,1-4.28-4.29A4.28,4.28,0,0,1,570.94,765.37Z"/><circle class="cls-6" cx="595.87" cy="764.19" r="4.28"/><circle class="cls-6" cx="619.88" cy="763.66" r="4.28"/><path class="cls-6" d="M639.88,751.58a4.29,4.29,0,1,1-4.28-4.29A4.28,4.28,0,0,1,639.88,751.58Z"/><path class="cls-6" d="M660.44,744.9a4.28,4.28,0,1,1-4.28-4.29A4.28,4.28,0,0,1,660.44,744.9Z"/><circle class="cls-6" cx="670.24" cy="733.54" r="4.28"/><circle class="cls-6" cx="687" cy="717.06" r="4.28"/><path class="cls-6" d="M696.85,704.3a4.28,4.28,0,1,1-4.28-4.28A4.29,4.29,0,0,1,696.85,704.3Z"/><path class="cls-6" d="M700.33,693.4a4.29,4.29,0,1,1-4.29-4.29A4.29,4.29,0,0,1,700.33,693.4Z"/><path class="cls-21" d="M481.08,681c-2.36-.39-79,22-67.14,29.6A77.61,77.61,0,0,0,461.6,723c19.58-1.37,66-8.83,82.22-4.28s63.73,13.67,65.41-7.72-24.52-21.84-10.61-27.77,31.49-28.42,20.24-28.67S481.08,681,481.08,681Z"/><path class="cls-15" d="M444.24,524s-12.92,33.68,6.24,47.64,34.76,22.44,33.93,6.29S461.26,522.59,444.24,524Z"/><path class="cls-22" d="M484.94,600.32l-95.36-3.76s92,94.14,140,87.46S625.31,630.36,630,622.67s-6.27-25-6.27-25S549.24,621,533.85,620.62,484.94,600.32,484.94,600.32Z"/><path class="cls-15" d="M491.75,577.27s-18.25,21.78,0,33.53,72.42,20.63,81.72,9.82S598.1,605,591.29,593.51,513.23,569.94,491.75,577.27Z"/><path class="cls-5" d="M521.28,326.85s-19.84-3.4-34,9.69-20.69,33.37-19.38,56.76,6.62,53.74,11.69,64.5,7.3,14.3,7.3,13.12-3.93-10.87-4.71-18.47-1.11-8.51-1.11-8.51,4.64,12.7,4.77,9.69-2-9.69-2.22-14.4,5.24-24.43,25.67-24.17,37.91,2.69,42.43,8.45-.19,28.75,1.18,26,2.36-5.11,2.36-5.11-1.57,13.16-2.55,19.84-3.54,12.38-1.38,10,7.27-16.31,11.59-37.13,8.06-62.67,0-80.94S542.7,326.39,521.28,326.85Z"/><path class="cls-15" d="M416.21,523.74s5.34-31.86,27.86-49.68,47.68-18.86,51.34-15.71,14.67,16.76,29.34,16.24,16.77-16.91,19.91-17.62,41.91,12.38,52.39,22.86,21.48,57.1,26.72,79.1,11,30.39,0,38.77S560.9,643.28,553.57,638s-15.2-12-11-18.86,35.11-24.1,38.25-29.34,10.48-25.14,10.48-25.14l-144.6-34.06S422.92,531.51,416.21,523.74Z"/><path class="cls-23" d="M481,404.91s.52,24.89,7.86,32.48,13.36,9.69,13.62,12.31.35,9.85-4.81,10.82,3.76,22.19,11.88,23.5,12.05,3.67,18.86-2.36,13.23-20.48,13.23-20.48a6.46,6.46,0,0,1-5.11-6c-.52-5.23-.79-6.81-.79-6.81s12-8.64,17-19.38,6-35.1,5-42.44a40.06,40.06,0,0,0-4.19-12.83s.78,6.81.26,7.6S533.4,382.65,533.4,380a10.14,10.14,0,0,0-.79-4.2s-1.05,6.82-4.19,6.82-17.81,1.83-18.86,0-5.76-7.86-5.76-7.86,1.31,6.28-.27,7.07-19.38,2.62-20.95,6S481,404.91,481,404.91Z"/><path class="cls-5" d="M459.36,320.21c4.79,4.35,11.27,6.26,17.43,7.79a193.39,193.39,0,0,0,22.56,3.77c1.13.15,1.12-1.62,0-1.77a200.4,200.4,0,0,1-20.67-3.36c-6.29-1.47-13.18-3.24-18.07-7.68-.84-.76-2.1.48-1.25,1.25Z"/><path class="cls-5" d="M467.36,343.92a54.57,54.57,0,0,1,32.51-9.9.88.88,0,0,0,0-1.76,56,56,0,0,0-33.41,10.14c-.92.64,0,2.18.9,1.52Z"/><path class="cls-5" d="M526.32,332.13a48.64,48.64,0,0,0,32.17-16.88c.74-.86-.51-2.11-1.25-1.25a46.84,46.84,0,0,1-30.92,16.36c-1.12.12-1.13,1.89,0,1.77Z"/><path class="cls-5" d="M532.64,331.68c6.52-.07,12.92.1,18.66,3.6,5,3,9.37,7.22,13.45,11.33.8.81,2-.44,1.25-1.25-4.47-4.5-9.39-9.26-15-12.31s-12-3.21-18.35-3.14a.89.89,0,0,0,0,1.77Z"/><path class="cls-5" d="M502.3,332.61s-17.1-3.14-16.58-19.9,12-26.2,30.91-24.89,34.32,4.72,36.15,18.08-9.84,25.67-18.67,27.76S502.3,332.61,502.3,332.61Z"/><path class="cls-23" d="M483.64,708.76s-12.5,4-19.34,3-14.24,1.36-18.95,3.22-17.49-1.51-19.56,3.22-3.65,5.51-6.28,1.59,1.26-12.57,5.7-15,14.41,1.51,19.11-2.43,7.82-9.2,13.31-11.84,7.62,4.16,11.55,5.19,10.21-.83,10.21-.83Z"/><path class="cls-23" d="M543.82,708.93s12.52,3.93,19.36,2.88,14.24,1.31,19,3.14,17.49-1.57,19.58,3.15,3.67,5.5,6.29,1.57-1.31-12.58-5.76-14.93-14.41,1.57-19.13-2.36-7.86-9.17-13.36-11.79-7.59,4.19-11.52,5.24S548,695,548,695Z"/><path class="cls-23" d="M544.66,620.62s-14.93,9.43-18.47,15.72,3.54,15.72,9.24,14.14,10-7.85,11.19-7.07,4.33,2.14,8.65-7.77S544.66,620.62,544.66,620.62Z"/><path class="cls-6" d="M601.77,528.21s-55.8,25.48-70.47,26-74.1-27.17-74.1-27.17,5.47-10.81,8.35-10.81,32.49.34,45.32,5.41,17.81,10.31,20.43,9.78,3.14-5.24,17.29-11.53c11.35-5,38.38-2.66,48.89.1h0c2.59.68,4.17,1.38,4.28,2A21.3,21.3,0,0,1,601.77,528.21Z"/><path class="cls-24" d="M467.6,578.31s-7-31.56-10.56-39.81-4-11-4-11,24.28-3.14,45,0,33.29,8.65,33.29,8.65a70.61,70.61,0,0,1,31.43-12.41c18.08-2.13,42,5.33,42,5.33L591.29,564.7l-10.48,25.14-3.35,3.76-9,6s-15.19,1.78-20.69,1.78-16.11,5.89-16.11,5.89L497,593.51Z"/><polygon class="cls-18" points="531.3 536.14 531.69 607.26 536.4 604.9 536.4 532.83 531.3 536.14"/><g class="cls-25"><path class="cls-6" d="M598.62,513.62,597.49,520h0c-10.51-2.76-37.54-5.14-48.89-.1-14.15,6.29-14.67,11-17.29,11.53,0,0,4.72-14.14,26.72-22S598.62,513.62,598.62,513.62Z"/></g><path class="cls-23" d="M497,593.51s10-6.29,15.46-7.07,8-4.32,10.68-5.9,2.68,2.76,1.5,6.49-7.86,8.05-5.5,8.45,14.14-6.29,17.28-5.11,2,13.75,0,20.43S519.12,627.7,514,624.55s-12.35-4.71-16-4.32-20.54-4.72-20.54-4.72Z"/><path class="cls-15" d="M480.75,621.8c-5.24,6.81-62.35-28.29-70.21-35.1-5.11-4.43-2-35.46,5.67-63a142.57,142.57,0,0,0,30.48,6.9s3.14,34.58,4.2,37.72,40.86,21.48,46.09,25.15S486,615,480.75,621.8Z"/><path class="cls-5" d="M632.67,666.33c-3.83.61-15,3.78-28.37,7.75-21.28,6.33-48,14.7-58.59,17.92-17.29,5.24-61.38,22.89-66.62,18.7s-10.92-12.94-7.77-17.13c2-2.72,26-18.51,51.46-35.28,13.69-9,27.81-18.31,39.17-26,32.48-22,59.56-39,65.49-35.86,0,0,18.86,7.74,27.76,26.25S642.63,664.76,632.67,666.33Z"/><path class="cls-5" d="M507.73,405.24c0,2.13-1.12,3.86-2.49,3.86s-2.49-1.73-2.49-3.86,1.11-3.87,2.49-3.87S507.73,403.1,507.73,405.24Z"/><ellipse class="cls-5" cx="537.19" cy="405.24" rx="2.49" ry="3.86"/><path class="cls-19" d="M520.87,423.51a.79.79,0,0,1-.19-1.55c1.29-.32,3.23-1.19,3.29-2,.1-1.37-1-2.79-2.59-4.93l-.53-.7c-2.33-3.1,1.33-7.24,1.48-7.42a.79.79,0,0,1,1.17,1.05s-3,3.35-1.39,5.43l.52.69c1.77,2.34,3,4,2.91,6-.17,2.34-4,3.35-4.49,3.46Z"/><path class="cls-19" d="M522.49,437.94l-.69,0c-4.61-.4-9.35-3.66-9.55-3.8a.8.8,0,0,1-.19-1.1.78.78,0,0,1,1.09-.19c.05,0,4.6,3.16,8.79,3.53,4,.36,7.3-3.37,7.33-3.4a.78.78,0,1,1,1.18,1C530.31,434.15,527,437.94,522.49,437.94Z"/><path class="cls-6" d="M557.5,407.4l-7-.71c-.28-9.28-6-16.71-13-16.71-6.42,0-11.76,6.28-12.8,14.51a10.44,10.44,0,0,0-4-1.41c-2.07-.28-4.14,1-5.38,1.94-.87-8.48-6.3-15-12.86-15-7,0-12.69,7.44-13,16.72l-8.51,1.12.19,1.56,8.32-1.09c.35,9.19,6,16.53,13,16.53,7.16,0,13-7.82,13-17.42,0-.15,0-.3,0-.45.71-.66,3-2.58,5.08-2.31a9.07,9.07,0,0,1,4,1.6c0,.39,0,.77,0,1.16,0,9.6,5.82,17.42,13,17.42,6.93,0,12.62-7.35,12.95-16.55l6.8.69Zm-54.95,15.85c-6.32,0-11.46-7.11-11.46-15.85s5.14-15.85,11.46-15.85S514,398.66,514,407.4,508.87,423.25,502.55,423.25Zm35,0c-6.33,0-11.47-7.11-11.47-15.85s5.14-15.85,11.47-15.85S549,398.66,549,407.4,543.9,423.25,537.58,423.25Z"/><path class="cls-5" d="M500.24,398.15a3.1,3.1,0,0,1,1.86-2.08,7.71,7.71,0,0,1,3.27-.38c1.51.11,1.5-2.25,0-2.36a9.64,9.64,0,0,0-4.56.72A5.06,5.06,0,0,0,498.2,397c-.59,1.38,1.44,2.58,2,1.19Z"/><path class="cls-5" d="M535.23,395.55a7.37,7.37,0,0,1,6.6,2.38c1,1.12,2.69-.55,1.67-1.67a9.56,9.56,0,0,0-8.27-3.07c-1.49.2-1.51,2.56,0,2.36Z"/><path class="cls-19" d="M501.68,448.16s10.45,6.65,18.4,6.39,15.67-6.16,15.67-6.16-8.33,15.33-12.94,18.08S501.68,448.16,501.68,448.16Z"/><path class="cls-26" d="M467.11,576.13s-18.55-11-21-16.35S444.24,543,444.24,543s3.36,11.63,8.77,16.56a14.75,14.75,0,0,0,11.17,4.1Z"/><path class="cls-26" d="M581.48,588.22S594.8,572.62,597,565s0-17.22,0-17.22Z"/><path class="cls-22" d="M604.3,674.08c-21.28,6.33-48,14.7-58.59,17.92-17.29,5.24-61.38,22.89-66.62,18.7s-10.92-12.94-7.77-17.13c2-2.72,26-18.51,51.46-35.28,5.35,8.6,14,15.81,27.78,17.11A247.4,247.4,0,0,0,604.3,674.08Z"/><path class="cls-5" d="M421,605s-30.91-19.39-49.24,0-7.86,46.62,19.9,59.2,51.08,14.14,85.79,29.33,73,20.91,76.7,17.76,8.83-11.47,5.16-16.71-32.53-14-61.32-35.28S421,605,421,605Z"/><path class="cls-19" d="M364,362s6.93,8.86,12.74,8.3,30.81-19.19,33.5-25.75-3.6-15.5-3.6-15.5Z"/><path class="cls-5" d="M233.7,909.83H220.41V386.59A101.45,101.45,0,0,1,321.75,285.25H341v13.29H321.75a88.15,88.15,0,0,0-88.05,88Z"/><path class="cls-24" d="M298.4,281.44c.66,1.62,43.9,106.87,55.73,97.73s71.25-45.11,70.33-54.53-66.81-74.76-76.23-75.32S297.17,278.4,298.4,281.44Z"/><rect class="cls-5" x="189.31" y="909.83" width="78.08" height="18.78" rx="5"/><rect class="cls-24" x="730.73" y="697.87" width="160.31" height="89.74" rx="14"/><path class="cls-18" d="M764.91,787.61l-5.64,25.33L733.85,927.19a4.39,4.39,0,0,1-8.63-1.62l17.33-112.63,3.89-25.33Z"/><path class="cls-18" d="M888.5,930.63h0a4.4,4.4,0,0,1-4.29-3.44L858.79,812.94l-5.64-25.33h18.47l3.89,25.33,17.33,112.63A4.39,4.39,0,0,1,888.5,930.63Z"/><path class="cls-8" d="M762.33,679.82c-7.6-.46-13.33-3.11-17-7.88-6-7.72-5.15-19.48-2.38-27.91a11.29,11.29,0,0,1,6.73-7.49c6.18-2.39,13.49.92,13.8,1.06l-2,3.5c-.06,0-5.83-2.61-10.11-.94a7.35,7.35,0,0,0-4.26,5c-2.36,7.21-3.32,18,1.78,24.55,2.89,3.74,7.51,5.82,13.72,6.2Z"/><path class="cls-20" d="M768.33,625.73h34.56a8,8,0,0,1,8,8v46.95a17,17,0,0,1-17,17H777.33a17,17,0,0,1-17-17V633.73A8,8,0,0,1,768.33,625.73Z"/><path class="cls-8" d="M888.25,675.4a10.31,10.31,0,0,1-2.72-.36l1.06-3.79c3.89,1.09,9.26-1.87,14.34-7.91,9.23-11,15.52-29.18,10.07-40.7-8.5-18-34.78-16.71-35-16.69l-.23-3.92c1.2-.07,29.2-1.42,38.82,18.93,6.13,12.95-.59,33-10.62,44.91C898.73,672.05,893.16,675.4,888.25,675.4Z"/><path class="cls-20" d="M835,580.15s11,22.53,4.72,40.6-14.67,20.17-13.63,39,7.74,38.09,7.74,38.09h41s13.88-10.8,18.59-33-14.4-30.54-6.81-52.54,3.93-23.31-6-29.34S832.66,574.49,835,580.15Z"/><path class="cls-20" d="M842.71,577s-16.31,1-15.72,2.18,10.75,7.88,10.75,7.88S835.44,579.32,842.71,577Z"/><polygon class="cls-19" points="746.45 787.61 764.91 787.61 759.27 812.94 742.55 812.94 746.45 787.61"/><polygon class="cls-19" points="875.51 812.94 858.79 812.94 853.15 787.61 871.62 787.61 875.51 812.94"/></g></svg>