<svg xmlns="http://www.w3.org/2000/svg" viewBox="0 0 1087.05 1072.49"><defs><style>.cls-1{fill:#fff;}.cls-2{fill:#e7eaf5;}.cls-3{fill:#a3b2d1;opacity:0.14;}.cls-4{fill:#8b9bc3;}.cls-4,.cls-5{opacity:0.57;}.cls-5{fill:#697da8;}.cls-6{fill:#000401;}.cls-7{fill:#d78058;}.cls-8{fill:#e7ac65;}.cls-9{fill:#97aad6;}.cls-10{fill:#e19b84;}.cls-11{opacity:0.3;}.cls-12{fill:#a94151;}.cls-13{fill:#cfd7e8;}.cls-14{fill:#5f73b3;}.cls-15{fill:#1f253f;}.cls-16{fill:#323879;}.cls-16,.cls-21{opacity:0.5;}.cls-17{opacity:0.52;}.cls-18,.cls-29{opacity:0.17;}.cls-19{opacity:0.42;}.cls-20{fill:#6e2e3d;}.cls-22{opacity:0.47;}.cls-23{fill:#f1d87f;}.cls-24{fill:#5b8b77;}.cls-25{fill:#78b066;}.cls-26{fill:#94c384;}.cls-27{fill:#364d4d;}.cls-28{fill:#e5e6ee;}.cls-29{fill:#343281;}</style></defs><g id="OBJECTS"><polygon class="cls-1" points="629.57 758.71 631.43 747.36 634.79 747.36 629.57 739.37 629.57 729.11 636.79 729.11 633.18 722.84 633.18 714.85 726.95 714.85 726.95 726.26 722.47 727.97 731.8 731.96 731.8 736.78 726.21 736.78 728.82 741.09 729.56 747.93 725.46 747.93 731.8 753.06 731.8 758.71 629.57 758.71"/><polygon class="cls-2" points="633.18 722.84 726.95 726.26 722.47 727.97 636.79 729.11 633.18 722.84"/><polygon class="cls-2" points="728.82 741.09 629.57 739.37 631.62 742.51 728.82 745.27 728.82 741.09"/><polygon class="cls-2" points="726.21 736.78 649.22 734.62 731.8 731.96 731.8 736.78 726.21 736.78"/><polygon class="cls-2" points="631.43 747.36 725.46 747.93 630.59 752.5 631.43 747.36"/><polygon class="cls-1" points="629.57 843.38 631.43 827.72 634.79 827.72 629.57 816.71 629.57 802.55 636.79 802.55 633.18 793.9 633.18 782.88 726.95 782.88 726.95 798.62 722.47 800.98 731.8 806.48 731.8 813.13 726.21 813.13 728.82 819.07 729.56 828.5 725.46 828.5 731.8 835.58 731.8 843.38 629.57 843.38"/><polygon class="cls-2" points="633.18 793.9 726.95 798.62 722.47 800.98 636.79 802.55 633.18 793.9"/><polygon class="cls-2" points="728.82 819.07 629.57 816.71 631.62 821.03 728.82 824.84 728.82 819.07"/><polygon class="cls-2" points="726.21 813.13 649.22 810.15 731.8 806.48 731.8 813.13 726.21 813.13"/><polygon class="cls-2" points="631.43 827.72 725.46 828.5 630.59 834.81 631.43 827.72"/><polygon class="cls-1" points="628.9 793.44 630.76 779.86 634.12 779.86 628.9 770.31 628.9 758.04 636.13 758.04 632.51 750.54 632.51 740.99 726.29 740.99 726.29 754.63 721.81 756.67 731.14 761.45 731.14 767.22 725.54 767.22 728.15 772.36 728.9 780.54 724.79 780.54 731.14 786.68 731.14 793.44 628.9 793.44"/><polygon class="cls-2" points="632.51 750.54 726.29 754.63 721.81 756.67 636.13 758.04 632.51 750.54"/><polygon class="cls-2" points="728.15 772.36 628.9 770.31 630.95 774.07 728.15 777.36 728.15 772.36"/><polygon class="cls-2" points="725.54 767.22 648.55 764.63 731.14 761.45 731.14 767.22 725.54 767.22"/><polygon class="cls-2" points="630.76 779.86 724.79 780.54 629.92 786.01 630.76 779.86"/><polygon class="cls-1" points="629.57 896.13 631.43 880.47 634.79 880.47 629.57 869.46 629.57 855.3 636.79 855.3 633.18 846.65 633.18 835.64 726.95 835.64 726.95 851.37 722.47 853.73 731.8 859.24 731.8 865.89 726.21 865.89 728.82 871.82 729.56 881.26 725.46 881.26 731.8 888.34 731.8 896.13 629.57 896.13"/><polygon class="cls-2" points="633.18 846.65 726.95 851.37 722.47 853.73 636.79 855.3 633.18 846.65"/><polygon class="cls-2" points="728.82 871.82 629.57 869.46 631.62 873.79 728.82 877.59 728.82 871.82"/><polygon class="cls-2" points="726.21 865.89 649.22 862.91 731.8 859.24 731.8 865.89 726.21 865.89"/><polygon class="cls-2" points="631.43 880.47 725.46 881.26 630.59 887.57 631.43 880.47"/><polygon class="cls-3" points="731.8 731.96 722.47 727.97 726.95 726.26 726.95 714.85 633.18 714.85 633.18 722.84 636.79 729.11 629.57 729.11 629.57 739.37 632.51 743.88 632.51 747.36 631.43 747.36 630.59 752.5 630.59 752.5 629.67 758.04 628.9 758.04 628.9 770.31 630.95 774.07 630.95 774.07 634.12 779.86 630.76 779.86 629.92 786.01 629.92 786.01 628.9 793.44 633.18 793.44 633.18 793.9 636.79 802.55 629.57 802.55 629.57 816.71 634.79 827.72 631.43 827.72 630.59 834.81 630.59 834.81 629.57 843.38 633.18 843.38 633.18 846.65 636.79 855.3 629.57 855.3 629.57 869.46 634.79 880.47 631.43 880.47 630.59 887.57 630.59 887.57 629.57 896.13 731.8 896.13 731.8 888.34 725.46 881.26 729.56 881.26 728.82 871.82 726.21 865.89 731.8 865.89 731.8 859.24 722.47 853.73 726.95 851.37 726.95 843.38 731.8 843.38 731.8 835.58 725.46 828.5 729.56 828.5 728.82 819.07 726.21 813.13 731.8 813.13 731.8 806.48 722.47 800.98 726.95 798.62 726.95 793.44 731.14 793.44 731.14 786.68 724.79 780.54 728.9 780.54 728.15 772.36 725.54 767.22 731.14 767.22 731.14 761.45 725.79 758.71 731.8 758.71 731.8 753.06 726.29 748.6 726.29 747.93 729.56 747.93 728.82 741.09 726.21 736.78 731.8 736.78 731.8 731.96"/><rect class="cls-2" x="132.39" y="214.07" width="392.27" height="408.41" rx="10"/><rect class="cls-4" x="144.04" y="223.68" width="368.97" height="389.19" rx="10"/><rect class="cls-2" x="144.04" y="335.5" width="368.97" height="11.62"/><rect class="cls-2" x="144.04" y="482.67" width="368.97" height="11.62"/><rect class="cls-2" x="144.04" y="260.24" width="25.71" height="75.26" rx="6"/><rect class="cls-5" x="144.04" y="407.14" width="25.71" height="75.26" rx="6"/><rect class="cls-5" x="169.75" y="260.24" width="25.71" height="75.26" rx="6"/><rect class="cls-5" x="476.05" y="260.24" width="25.71" height="75.26" rx="6"/><rect class="cls-2" x="281.55" y="407.14" width="25.71" height="75.26" rx="6"/><rect class="cls-2" x="357.52" y="260.24" width="25.71" height="75.26" rx="6"/><rect class="cls-5" x="288.85" y="285.65" width="25.71" height="75.26" rx="6" transform="translate(624.98 21.58) rotate(90)"/><rect class="cls-1" x="281.55" y="285.02" width="75.26" height="25.71" rx="6"/><rect class="cls-2" x="216.92" y="262.97" width="25.71" height="75.26" rx="6" transform="translate(604.81 350.68) rotate(135)"/><rect class="cls-2" x="237.43" y="562.36" width="25.71" height="75.26" rx="6" transform="translate(850.27 349.7) rotate(90)"/><rect class="cls-1" x="230.13" y="561.72" width="75.26" height="25.71" rx="6"/><rect class="cls-5" x="165.51" y="539.67" width="25.71" height="75.26" rx="6" transform="translate(712.7 859.39) rotate(135)"/><rect class="cls-2" x="191.22" y="410.19" width="25.71" height="75.26" rx="6" transform="translate(665.03 620.18) rotate(135)"/><rect class="cls-1" x="227.93" y="410.19" width="25.71" height="75.26" rx="6" transform="translate(-246.13 301.42) rotate(-45)"/><path class="cls-1" d="M891.82,713.81c.34,2.38.59,3.91.59,3.91A24.67,24.67,0,0,0,891.82,713.81Z"/><path class="cls-6" d="M891.92,717.8s-.26-1.53-.59-3.92l1-.19a23.82,23.82,0,0,1,.6,4Z"/><path class="cls-7" d="M598.41,538.09a38.39,38.39,0,0,1-6.44-.47c-7.28-1.24-10.52-21.26-9.51-28.73,1.19-8.82,21.32-7.3,23.61-7.09l-.25,2.76c-7.63-.68-20,0-20.61,4.7-1,7.68,2.63,24.84,7.23,25.63,5.61,1,13.25,0,13.33,0l.35,2.75A66.3,66.3,0,0,1,598.41,538.09Z"/><path class="cls-8" d="M605.26,496.74H631a5,5,0,0,1,5,5v30.77a10,10,0,0,1-10,10H610.26a10,10,0,0,1-10-10V501.74A5,5,0,0,1,605.26,496.74Z"/><polygon class="cls-9" points="304.49 401.37 413.06 401.37 413.06 677.89 314.93 677.89 304.49 401.37"/><path class="cls-10" d="M564.61,520s7.21,2,12.58-.92,11.92-7.77,14.1-2.59,2.91,13.5.88,16.27-6.47,2.59-11.28,3.33-18.13,3-18.13,3Z"/><path class="cls-10" d="M522.44,600.45c4,1.3,37.18,15.3,42.17,30.84s-32.18,77.12-42.17,88.77-40,49.38-64.08,84.34-32.46,44.38-30.24,53.26,9.55,27.74,11.71,31.07,4.94,2.5,5.21,5.55-16.09,2.77-19.42-4.16-4.16-14.7-12.2-21.64S397.61,850.17,399,842.13s11.65-11.38,15.54-15.82S435.06,788,443.93,770s39.86-62,43.93-69,8.55-9.1,1.05-18.12-14.74-4.44-20.84-26.08S484.16,587.92,522.44,600.45Z"/><g class="cls-11"><path class="cls-12" d="M522.44,600.45c4,1.3,37.18,15.3,42.17,30.84s-32.18,77.12-42.17,88.77-40,49.38-64.08,84.34-32.46,44.38-30.24,53.26,9.55,27.74,11.71,31.07,4.94,2.5,5.21,5.55-16.09,2.77-19.42-4.16-4.16-14.7-12.2-21.64S397.61,850.17,399,842.13s11.65-11.38,15.54-15.82S435.06,788,443.93,770s39.86-62,43.93-69,8.55-9.1,1.05-18.12-14.74-4.44-20.84-26.08S484.16,587.92,522.44,600.45Z"/></g><path class="cls-13" d="M538,604.93a51.73,51.73,0,0,1-1.15,10.39c-.17.79-.37,1.58-.58,2.34-1.16,4-3,7.44-5.76,8.36-5.83,1.94-69.63-15.26-81-21.36-7.72-4.14-10.72-17.73-9.33-25.09a11.7,11.7,0,0,1,.6-2.15c.85-2.13,2.29-3.21,4.28-2.45L505,590C517.17,593,538,598.83,538,604.93Z"/><path class="cls-14" d="M536.83,615.32c-.17.79-.37,1.58-.58,2.34-3.69-2.49-8.12-5.23-13.38-8.16-20-11.13-70-26.19-82.71-29.93a11.7,11.7,0,0,1,.6-2.15c12.66,3.73,63,18.9,83.26,30.16C529,610.35,533.24,613,536.83,615.32Z"/><path class="cls-10" d="M553,662.63c-3.61,6.66-3.33,11.66-4.16,22.2S536,740,531.32,766.11,515,827.7,513.84,845.45s-3.74,19.84.14,26.91,13.46,15.4,18.59,17.48,7.77-.42,10,.69,1.66,3.94.41,5.72-10.68,2.33-15.12,2.47S513,897.88,509.68,894a60.84,60.84,0,0,0-19.28-14.56c-8.6-3.89-12.48-13.74-8.74-21.5s8.74-11.1,9.85-14.85,6.56-32.73,7-36.2,1.53-12.11,1-29.13,2.4-44.57,6.47-63.43,2.22-25.9.37-28.12c-.68-.83-5.57-3.31-11.41-6.09l-1.31-.62c-9.55-4.5-20.94-9.53-20.94-9.53a27.77,27.77,0,0,1-9.64-10.24c-2.94-5.13-5.25-12.42-4.57-22.34a41.45,41.45,0,0,1,21.24-33.57c.17,0,2,.62,5,1.58l5.23,1.72,1.89.63c20.18,6.74,58.65,20.43,61.12,27.19C556.29,644.05,556.57,656,553,662.63Z"/><path class="cls-15" d="M400.79,339.3s-18.72-3.19-24.82-22.61-7.49-43.27-2.78-49.1l4.72-5.82s-5-1.48-5.83-4.72.74-3.14,2.68-2.13,5.28,2.41,5.28,2.41-.28.09-2.32-4.63-1.11-8.13.1-6.93S387,251,387,251s-2.13-5.18-1.39-8.6,1.85-5.83,3-3.88,6.29,6.28,8.51,6.28a17.42,17.42,0,0,0,3.74-.37s22.89-15.16,44.53-9.34,26.77,23.45,23.3,30.1a19.72,19.72,0,0,1-10,8.93s-13.5,48.73-17.38,59.46S400.79,339.3,400.79,339.3Z"/><path class="cls-10" d="M458.58,274.16c1-.72,4.13,10.72,3.94,20.71s-.91,9.8,0,13.87.55,15.54-1.12,22.38a25,25,0,0,1-8.51,12.95c-1.48.92-11.09.18-11.65,2.77s1.34,18.17,3.82,21.38-27.86,3.59-35.26-2.24-7.77-8.16-7.77-8.16-1.11-11.16-1.29-15.05.55-6.47,0-8.32,1.3-12.39-1.85-16.65-7.77-6.1-8.88-13.5,4.45-14.24,8.88-14.79,7.2,6.66,8.5,10.91.93,8.14,2.78,5.55,1.11-16.09,1.67-20.72-1.85-10.72,9.61-5.91S453,278,458.58,274.16Z"/><path class="cls-15" d="M454.34,300.6c0,2.46-1.23,4.44-2.75,4.44s-2.75-2-2.75-4.44,1.23-4.43,2.75-4.43S454.34,298.15,454.34,300.6Z"/><path class="cls-12" d="M441.3,317.25a.55.55,0,0,1-.23-1.06c1.43-.66,2.93-1.76,2.87-2.35s-1.09-1.52-2.17-2.44a28.39,28.39,0,0,1-2.26-2.09c-2.27-2.43,1.5-6.55,1.66-6.72a.55.55,0,0,1,.81.75s-3.2,3.56-1.66,5.21a26.32,26.32,0,0,0,2.17,2c1.36,1.16,2.44,2.08,2.55,3.18.17,1.69-2.89,3.19-3.51,3.47A.64.64,0,0,1,441.3,317.25Z"/><path class="cls-12" d="M448.79,331a10,10,0,0,1-7.59,2.58,12,12,0,0,1-5.41-1.86,13.67,13.67,0,0,1-5.24-6.47c-.23-.42.13-.77.91-1,3.56-1.27,15.91-1,20-.58a4.68,4.68,0,0,1,1.25.24C453.43,324.34,452,328.3,448.79,331Z"/><path class="cls-1" d="M451.59,324.6c-.59.83-15.49,1.11-18.34.69a2.18,2.18,0,0,1-1.79-1c3.56-1.27,15.91-1,20-.58C451.62,324.1,451.71,324.43,451.59,324.6Z"/><path class="cls-12" d="M443.29,345.39s-24.6-3.91-27.19-7.24-7.4-18.33-7-15.82.79,17.3,9.64,25.25,23.21,9,23.21,9Z"/><path class="cls-1" d="M421.46,369.13S402.32,363,408.7,388.26s8.17,79.19,29.75,107.15,26.43,8.82,28.72-7.83-7.58-87.36-10.75-102.09-10.89-18.67-14.32-20S428.59,369.52,421.46,369.13Z"/><path class="cls-8" d="M425.72,387.34s.47,59,7.07,80.8,19.78,37.29,21.41,37.93,4.3-1.29,4.28-2-14.72-72.86-18-83.59-6.62-33.11-6.62-33.11Z"/><path class="cls-7" d="M418.83,372.18s4,19.56,7.77,20.94,7.76,0,7.9-2.08,5.55-20.94,3.47-22.33-14.43-2.36-17.2-1A3.89,3.89,0,0,0,418.83,372.18Z"/><path class="cls-14" d="M483.79,542.51s3.7,32,3.33,37.91c-.1,1.46-1.2,2.61-2.86,3.49-5.1,2.72-15.55,3.06-18.66,2.71-4.14-.46-14.19-10.63-14.19-10.63l2.73-68.43h0l.06-1.48s.56-3.05,1.11-8.42a225.49,225.49,0,0,0,.37-40c-2.22-28.11-9.25-87.29-9.25-87.29v-4.86s2.34,1.27,5.94,3.25c11.39,6.25,35.49,19.6,39,22.69,4.62,4.07,17.2,112.45,22.75,118.37s45.13,1.84,50.49,3,7.59,29.78,7.59,29.78Z"/><path class="cls-14" d="M451.77,566.92c-2.64,15.71-5.53,28.38-7.56,28.46-5.18.21-96.54-12.74-95.43-20.5s15.54-67.69,15.54-67.69l-25-105.11s7.23-10.3,25.36-19.54,32.18-17.76,33.29-17,12.83,6.28,14.92,12.58,2.83,54,15.78,81.74c9.79,21,20.64,34.35,26.15,42a25.76,25.76,0,0,1,3.44,5.7C459.39,510.93,455.87,542.58,451.77,566.92Z"/><path class="cls-16" d="M371.36,418.27s17.74,45.64,21.44,44.53,11.1-4.44,6.1-11.46-2.33-17.24-2.33-17.24l43.9,64.27s-13.27-3-19,4.38-5.36,20-19.42,27.74-44.64,5.75-44.64,5.75l2.88-15.37s12.17-39.57,5.51-63.25S371.36,418.27,371.36,418.27Z"/><path class="cls-10" d="M464.88,394.93s9.29-10.36,11.7-14.24,4.81-9.81,3.7-14.24.37-15.54,3.33-18.87,3.88-1.48,3.51,0l-.37,1.48s3.7-3.14,4.62-2.59,1.11.37.93,2.59,1.11,18.85,2,21.26.74-7.39,3-10.53,2-.56,1.48,3.51-.92,11.1-1.85,15.17S491,382.91,488.41,389s-8.13,18.49-8.13,18.49S462.8,402.51,464.88,394.93Z"/><path class="cls-9" d="M458.27,507.56c-37-11.84-60.29-63.62-62.15-68.43s4.81-11.47,7.77-15.17S388,410.65,385,408.06s13-42.54,13-42.54c1.11.74,12.83,6.29,14.92,12.58s2.83,54,15.78,81.74S456.42,502,458.27,507.56Z"/><circle class="cls-9" cx="449.49" cy="523.93" r="3.05"/><path class="cls-9" d="M454.2,506.07s3.7-20.33,1.48-48.45-9.25-87.29-9.25-87.29v-4.85s2.34,1.26,5.94,3.24c6,13.91,14.34,34.36,14.8,40.63.72,9.81-9.64,13.14-7.05,16.09s8.32,10,10.45,18.5-16.19,62.91-16.43,63.61Z"/><path class="cls-14" d="M487.12,407.32c.19,3.88-62.88,85.54-69,94.41-3.89,5.66-9.69,14.25-18.13,19.81A31.51,31.51,0,0,1,382.9,527c-9.78.15-17-2.16-22.62-7.9-4.89-5-8.53-12.6-11.5-23.45-6.18-22.55-12.09-80.68-9.45-93.55,7.16-8.07,15.13-13.41,20.92-7,13.31,14.8,18.49,59.56,23.67,72.5s35.14-28.3,41.8-34.4,37.91-44.76,38.84-44.94,8.13,4.62,10,7.58a12.86,12.86,0,0,1,2,5.09s4.81-1.95,6.29-1.2S486.93,403.43,487.12,407.32Z"/><path class="cls-9" d="M400,521.54A31.51,31.51,0,0,1,382.9,527c-9.78.15-17-2.16-22.62-7.9A21.91,21.91,0,0,1,400,521.54Z"/><path class="cls-9" d="M469.46,412.06a2.32,2.32,0,1,1-2.29-2.71A2.52,2.52,0,0,1,469.46,412.06Z"/><circle class="cls-9" cx="472.09" cy="404.78" r="1.53"/><path class="cls-16" d="M483.79,542.51s-.74-84.89-.37-81.93,7,62.33,20,72.13,33.29,9.8,33.29,9.8Z"/><path class="cls-2" d="M398,365.52s2.94-14.34,5.85-12.12,26.51,12,26.65,13.65-12.21,13.17-13.73,12.34S398,365.52,398,365.52Z"/><path class="cls-2" d="M431.31,366.63s10.27-10.4,12.21-8.6,5.41,5.13,5.27,6.1-10.27,10.55-11.1,10S430.62,367.32,431.31,366.63Z"/><path class="cls-15" d="M430.48,300.6c0,2.46-1.23,4.44-2.75,4.44s-2.75-2-2.75-4.44,1.23-4.43,2.75-4.43S430.48,298.15,430.48,300.6Z"/><g class="cls-17"><path class="cls-10" d="M448.79,331a10,10,0,0,1-7.59,2.58,12,12,0,0,1-5.41-1.86c1.33-1.5,3.92-2.53,6.9-2.53A10.23,10.23,0,0,1,448.79,331Z"/></g><path class="cls-15" d="M422.56,294.72a3.69,3.69,0,0,1,2.86-2.94c1-.24.6-1.84-.44-1.61a5.33,5.33,0,0,0-4,4.11c-.21,1.05,1.4,1.5,1.61.44Z"/><path class="cls-15" d="M449.84,291.46c1.79-.38,2.94,1.51,3.74,2.8.56.91,2,.07,1.44-.84-1.25-2-3-4.12-5.62-3.56-1,.22-.61,1.82.44,1.6Z"/><path class="cls-2" d="M483.75,616.21c-.33.62-.69,1.27-1.06,1.95a46.83,46.83,0,0,0-4.63,11.18c-.62,2.41-1.26,5.49-1.9,8.88-.13.72-.27,1.45-.41,2.19-.79,4.38-1.56,9.12-2.23,13.49-.11.74-.22,1.48-.33,2.19-.59,3.88-1.09,7.35-1.44,9.85-.12.88-.22,1.63-.31,2.25-.05.34-.09.65-.12.9-.08.57-.12.88-.12.88l-88-4.28a78.47,78.47,0,0,1-25.89-31.45c-9.07-20.53-5.36-61.21-5.36-61.21l9.05,1,2.23.23,12.66,1.33,2.22.23,17.74,1.86,2.23.24,26.11,2.74,2.51.26,17.81,1.87s37.61,16.12,41.18,23a1.36,1.36,0,0,1,.15.33C487.13,609.52,485.78,612.48,483.75,616.21Z"/><path class="cls-9" d="M471.75,665.94c-.12.88-.22,1.63-.31,2.25-27.67-4-72.72-12.45-92-26.58-11.8-8.67-18.54-24.38-19.49-45.41A133,133,0,0,1,361,574l2.23.23c-1.88,14.87-3.72,50,17.58,65.62C399.41,653.5,444.23,661.89,471.75,665.94Z"/><path class="cls-9" d="M473.52,653.9q-.16,1.13-.33,2.19c-19.75-3.48-53.75-11.14-75-25.17-13.1-8.67-20.87-22.51-22.47-40a79.39,79.39,0,0,1,.12-15.34l2.22.24a78,78,0,0,0-.13,15c1.58,17,8.8,29.93,21.48,38.32C420.34,642.88,454,650.45,473.52,653.9Z"/><path class="cls-9" d="M476.16,638.22c-.13.72-.27,1.45-.41,2.19C456.19,635,430.44,626,415,613.09,400.58,601,396.69,588.4,396,580c-.07-.8-.11-1.58-.13-2.34l2.23.24c0,.65.06,1.33.12,2,.72,8,4.46,19.94,18.26,31.5C431.54,624,456.83,632.89,476.16,638.22Z"/><path class="cls-9" d="M483.75,616.21l-1.06,2c-8-3.65-15.7-6.3-22.5-8.64-9.46-3.25-17.63-6.06-23.39-10.27-6.23-4.55-10.17-11.9-12.63-18.65l2.51.26c2.36,6.15,6,12.62,11.43,16.6s13.51,6.77,22.8,10C467.81,609.8,475.63,612.5,483.75,616.21Z"/><polygon class="cls-16" points="486.19 409.35 470.57 443.94 467.17 435.72 486.19 409.35"/><path class="cls-16" d="M484.26,583.91c-5.1,2.72-15.55,3.06-18.66,2.71-4.14-.46-14.19-10.63-14.19-10.63l.36-9.07c4.1-24.34,7.62-56,6.5-59.36a25.76,25.76,0,0,0-3.44-5.7c.15-1.18.31-2.59.48-4.21C460.19,485,464.88,473,464.88,473s-6.07,47.56-6.3,69.36C458.39,561.57,472.25,582.21,484.26,583.91Z"/><g class="cls-18"><path class="cls-12" d="M494.94,680.12l-1.31-.62c-9.55-4.5-20.94-9.53-20.94-9.53a15,15,0,0,1-1.37-.88c0-.25.07-.56.12-.9.09-.62.19-1.37.31-2.25.35-2.5.85-6,1.44-9.85.11-.71.22-1.45.33-2.19.67-4.37,1.44-9.11,2.23-13.49.14-.74.28-1.47.41-2.19.64-3.39,1.28-6.47,1.9-8.88a46.83,46.83,0,0,1,4.63-11.18c.37-.68.73-1.33,1.06-1.95,2-3.73,3.38-6.69,2.07-10.17a1.36,1.36,0,0,0-.15-.33l4.28,1.41Z"/></g><path class="cls-14" d="M891.57,445.08l-33.93,97.43H662.82l3.83-6.1h66.43l36.71-95.29a5.73,5.73,0,0,1,5.36-3.68h111A5.75,5.75,0,0,1,891.57,445.08Z"/><path class="cls-9" d="M891.57,445.08l-33.93,97.43H739l35.86-93.61a29.54,29.54,0,0,1,7.88-11.46H886.14A5.75,5.75,0,0,1,891.57,445.08Z"/><circle class="cls-1" cx="819.65" cy="485.18" r="7.84"/><g class="cls-19"><path class="cls-9" d="M975.9,907H111.16a5.39,5.39,0,0,1-5.4-5.39h0a5.4,5.4,0,0,1,5.4-5.4H975.9a5.39,5.39,0,0,1,5.39,5.4h0A5.39,5.39,0,0,1,975.9,907Z"/><path class="cls-9" d="M601.89,929.94h-427a5.39,5.39,0,0,1-5.39-5.39h0a5.39,5.39,0,0,1,5.39-5.4h427a5.39,5.39,0,0,1,5.39,5.4h0A5.39,5.39,0,0,1,601.89,929.94Z"/><path class="cls-9" d="M881.33,929.94h-247a5.39,5.39,0,0,1-5.4-5.39h0a5.4,5.4,0,0,1,5.4-5.4h247a5.4,5.4,0,0,1,5.4,5.4h0A5.39,5.39,0,0,1,881.33,929.94Z"/></g><rect class="cls-8" x="672.8" y="782.39" width="52.89" height="113.75" rx="11"/><rect class="cls-7" x="691.95" y="799.13" width="12.21" height="52.43" rx="5"/><circle class="cls-7" cx="698.05" cy="865.85" r="6.1"/><rect class="cls-9" x="725.7" y="782.39" width="52.89" height="113.75" rx="11"/><rect class="cls-14" x="744.84" y="799.13" width="12.21" height="52.43" rx="5"/><path class="cls-14" d="M757.05,865.85a6.11,6.11,0,1,1-6.11-6.11A6.11,6.11,0,0,1,757.05,865.85Z"/><path class="cls-9" d="M945.79,142.55H567.19a5.41,5.41,0,0,0-5.41,5.4V417.22a5.41,5.41,0,0,0,5.41,5.41h120l28.28,29.63a3,3,0,0,0,5.18-2.07V422.63h225.1a5.41,5.41,0,0,0,5.41-5.41V148A5.41,5.41,0,0,0,945.79,142.55Z"/><rect class="cls-2" x="569.93" y="153.36" width="373.12" height="258.45" rx="9"/><rect class="cls-1" x="581.87" y="163.21" width="170.17" height="115.73" rx="8"/><rect class="cls-1" x="762.07" y="163.21" width="170.17" height="115.73" rx="8"/><rect class="cls-1" x="581.87" y="289.07" width="170.17" height="115.73" rx="8"/><rect class="cls-1" x="762.07" y="289.07" width="170.17" height="115.73" rx="8"/><path class="cls-14" d="M681.29,241.46s22.71,4,25.24,9,6.31,28.43,6.31,28.43h-89s5.84-26.7,10.09-29.85,22.19-3.31,22.19-3.31,7.14,4.72,10.59,3.7S681.29,241.46,681.29,241.46Z"/><path class="cls-15" d="M641.63,198.07c-.48-.56-4.89-1-2.78-8.46s10.06-11.43,12.16-11.24a9.87,9.87,0,0,1,4.12,1.58s10-7.71,14.46-5.3,5.17,5.2,5.17,5.2,5-4.27,8.33.38a34.16,34.16,0,0,1,4.22,7s5.74-2.7,7.56,4.27-1.43,11.24-1.43,11.24,3.5,3.07,2,6.51a24.48,24.48,0,0,1-2.47,4.64s1.91,5.16-.29,7.5a14.82,14.82,0,0,1-4.31,3.28s-.48,1.3-2.87,2.51a48.64,48.64,0,0,0-4.6,2.69s.67,2.23-2.2,2-9.58.09-12.07-7S645,208.7,645,208.7s-1.05.05-1.34-2,1.43-4.18,1.43-4.18-2.87-.84-2.77-2.05A4.58,4.58,0,0,0,641.63,198.07Z"/><path class="cls-12" d="M646.89,201.5s-3.54,10-1.91,14-.43,9.75.74,13.28,6.15,12.83,8.74,12.73,4.21,0,4.21,0l-1.78,5.56s5.81,1.41,8.2,2.06S676.58,245.92,678,245a11.93,11.93,0,0,0,2.77-3.07s-2-11.42-1.34-13.19,5.27-5,5.18-7.81-.2-6.69-2.69-7.15a3.8,3.8,0,0,0-3.73,1.21s-1.25,3-1.25.18-.76-8.08-2.29-9.57-1.15,0-5.85-.37a9.76,9.76,0,0,1-7-3.72s-.76,2.61-2.58.93a26.34,26.34,0,0,1-3.35-3.9s-.77,2.51-2.59,2.23a10.18,10.18,0,0,1-3.83-1.86Z"/><path class="cls-20" d="M658.67,241.55s9.7-1,13.65-2.78a9,9,0,0,0,4.88-5.65s-1.58,7.53-5.45,10.24-13.84,2.37-13.84,2.37Z"/><ellipse class="cls-15" cx="651.74" cy="215.28" rx="1.54" ry="2.37"/><path class="cls-15" d="M667,215.28c0,1.31-.69,2.37-1.54,2.37s-1.55-1.06-1.55-2.37.7-2.37,1.55-2.37S667,214,667,215.28Z"/><path class="cls-20" d="M657,224.8a.66.66,0,0,1-.35-.11,10,10,0,0,1-2.1-1.95c-.56-.9.62-1.71,1.77-2.5a11.87,11.87,0,0,0,1-.72,7.56,7.56,0,0,0-.35-1.69.6.6,0,0,1,1.15-.36,6.55,6.55,0,0,1,.37,2.35c-.09.45-.53.77-1.45,1.41a8.91,8.91,0,0,0-1.32,1,10.23,10.23,0,0,0,1.67,1.46.6.6,0,0,1-.35,1.09Z"/><path class="cls-20" d="M664,228.8a12.8,12.8,0,0,1-1.3,2.58,6,6,0,0,1-2.78,2.51c-1.43.43-3.55-.37-5.18-1.62a7.53,7.53,0,0,1-1.76-1.87c-1.28-2-.73-2.87.15-2.87l.2,0a34.32,34.32,0,0,0,6.59.41,25.21,25.21,0,0,1,3.59-.06C664,228,664.14,228.24,664,228.8Z"/><path class="cls-1" d="M663.46,227.9a1.73,1.73,0,0,1-.33.6c-.56.54-8,.46-9.2,0a1.61,1.61,0,0,1-.85-1l.2,0a34.32,34.32,0,0,0,6.59.41A25.21,25.21,0,0,1,663.46,227.9Z"/><g class="cls-21"><path class="cls-12" d="M662.65,231.38a6,6,0,0,1-2.78,2.51c-1.43.43-3.55-.37-5.18-1.62a12,12,0,0,1,5.33-1.13A14.61,14.61,0,0,1,662.65,231.38Z"/></g><path class="cls-15" d="M664.31,210.71a2.91,2.91,0,0,1,3.53.85c.5.64,1.62,0,1.12-.64a4.23,4.23,0,0,0-5-1.42c-.75.31-.42,1.52.35,1.21Z"/><path class="cls-15" d="M649,211.08a2.91,2.91,0,0,1,3.63-1.38.63.63,0,0,0,.34-1.21,4.21,4.21,0,0,0-5.09,2c-.34.73.78,1.37,1.12.63Z"/><path class="cls-1" d="M656.17,245.78s7.6,2.79,12.19,1.73a27.61,27.61,0,0,0,9-4.42s4.42,15.62,0,23.5a36.87,36.87,0,0,1-12,12.35h-16Z"/><path class="cls-9" d="M660.46,247s-5.45,17.21-6,23.67-.81,8.25-.81,8.25h-8.58s-5.87-10.93-3.62-13.61a30.94,30.94,0,0,1,3.62-3.78s-3.09-2.84-1.83-5.84,12.88-9.93,12.88-9.93Z"/><path class="cls-9" d="M677.35,243.09s.95,13.09-2.84,21.14a83.52,83.52,0,0,1-9.12,14.71H675s11.67-7.46,11.51-9.67-4.26-3.47-3.31-4.57,6.15-5.05,6.62-8-8.52-15.2-8.52-15.2Z"/><polygon class="cls-16" points="694.38 278.94 696.12 270.85 697.77 278.94 694.38 278.94"/><polygon class="cls-16" points="632.88 278.94 636.03 271.64 637.45 278.94 632.88 278.94"/><path class="cls-14" d="M857.59,367.32s22.71,4,25.23,9.05,6.31,28.43,6.31,28.43H800.19S806,378.1,810.28,375s22.18-3.32,22.18-3.32,7.15,4.73,10.6,3.71S857.59,367.32,857.59,367.32Z"/><path class="cls-15" d="M821.31,337s-.94-9.88,3-15.59S840,312.55,853.62,318s12.56,22.94,10.45,30.78-9.31,13.08-9.31,13.08Z"/><path class="cls-12" d="M855.87,356.54c.67-1.76,5.27-5,5.17-7.8s-.19-6.69-2.68-7.16a3.8,3.8,0,0,0-3.73,1.21s-1.25,3-1.25.19a28,28,0,0,0-.73-6s-3.91.41-13.74-2.74-13-7.54-13-7.54l-2.59,3.63s.19-.64.59-1.62l-.59.59s-3.54,10-1.91,14-.43,9.75.74,13.28,6.15,12.83,8.74,12.73,4.21,0,4.21,0l-.76,4.18a44.7,44.7,0,0,0,7.18,3.43c2.39.65,11.49-3.25,12.93-4.18a12,12,0,0,0,2.77-3.06S855.2,358.31,855.87,356.54Z"/><path class="cls-20" d="M835.09,369.37s9.7-1.05,13.65-2.79a9,9,0,0,0,4.88-5.65s-1.58,7.53-5.46,10.25-13.83,2.37-13.83,2.37Z"/><path class="cls-15" d="M829.7,343.09c0,1.31-.69,2.37-1.54,2.37s-1.54-1.06-1.54-2.37.69-2.37,1.54-2.37S829.7,341.78,829.7,343.09Z"/><path class="cls-15" d="M843.46,343.09c0,1.31-.69,2.37-1.54,2.37s-1.55-1.06-1.55-2.37.69-2.37,1.55-2.37S843.46,341.78,843.46,343.09Z"/><path class="cls-20" d="M833.37,352.61a.56.56,0,0,1-.35-.11,9.78,9.78,0,0,1-2.1-1.95c-.56-.9.62-1.71,1.76-2.5a7.88,7.88,0,0,0,1-.72,7.56,7.56,0,0,0-.35-1.69.6.6,0,0,1,1.14-.36,6.58,6.58,0,0,1,.38,2.35c-.09.45-.53.78-1.45,1.41a8.3,8.3,0,0,0-1.32,1,10.67,10.67,0,0,0,1.67,1.45.61.61,0,0,1,.14.84A.6.6,0,0,1,833.37,352.61Zm.31-5.32Z"/><path class="cls-20" d="M840.37,356.61a12.82,12.82,0,0,1-1.3,2.59,6,6,0,0,1-2.78,2.5c-1.43.43-3.55-.37-5.18-1.62a7.53,7.53,0,0,1-1.76-1.87c-1.28-2-.73-2.87.15-2.87l.2,0a34.32,34.32,0,0,0,6.59.41,24.7,24.7,0,0,1,3.59,0C840.42,355.81,840.56,356.06,840.37,356.61Z"/><path class="cls-1" d="M839.88,355.72a1.76,1.76,0,0,1-.34.59c-.55.54-8,.47-9.19,0a1.61,1.61,0,0,1-.85-1l.2,0a34.32,34.32,0,0,0,6.59.41A24.7,24.7,0,0,1,839.88,355.72Z"/><g class="cls-22"><path class="cls-12" d="M839.07,359.2a6,6,0,0,1-2.78,2.5c-1.43.43-3.55-.37-5.18-1.62a12.09,12.09,0,0,1,5.33-1.12A13.75,13.75,0,0,1,839.07,359.2Z"/></g><path class="cls-15" d="M840.73,338.53a2.89,2.89,0,0,1,3.53.84c.49.64,1.62,0,1.12-.63a4.2,4.2,0,0,0-5-1.42c-.75.3-.42,1.52.35,1.21Z"/><path class="cls-15" d="M825.45,338.89a2.91,2.91,0,0,1,3.63-1.38.63.63,0,0,0,.34-1.21,4.22,4.22,0,0,0-5.09,2c-.34.73.77,1.37,1.12.63Z"/><path class="cls-1" d="M832.46,371.63s7.6,2.8,12.2,1.74a27.83,27.83,0,0,0,9-4.42s4.41,15.62,0,23.5a37,37,0,0,1-12,12.35h-16Z"/><path class="cls-9" d="M836.76,374s-5.45,16.09-6,22.55-.82,8.25-.82,8.25h-8.57s-5.88-10.93-3.62-13.61a31.71,31.71,0,0,1,3.62-3.79s-3.1-2.83-1.84-5.83,12.88-9.94,12.88-9.94Z"/><path class="cls-9" d="M853.65,369s.94,13.09-2.84,21.14a83.52,83.52,0,0,1-9.12,14.71h9.59s11.67-7.46,11.52-9.67-4.26-3.47-3.32-4.57,6.15-5.05,6.63-8-8.52-15.2-8.52-15.2Z"/><polygon class="cls-16" points="870.68 404.8 872.41 396.71 874.07 404.8 870.68 404.8"/><polygon class="cls-16" points="809.18 404.8 812.33 397.5 813.75 404.8 809.18 404.8"/><path class="cls-8" d="M847.12,376a65.42,65.42,0,0,1-1.8,7.06,3,3,0,0,1-1.88,1.58L840,404.8l-6.31-.6s7.06-19.68,6.72-21-.81-1-1.47-2.55-.1-6.08,1.47-6.38,6.42-1.36,6.72-.39A4.28,4.28,0,0,1,847.12,376Z"/><path class="cls-2" d="M835.24,372.51A17.41,17.41,0,0,1,842,374a1,1,0,0,1,.62.45.93.93,0,0,1,0,.57c-.52,2-1.35,4.74-3,6.08-.18.14-2-3.41-2.21-3.79A26.89,26.89,0,0,1,835.24,372.51Z"/><path class="cls-2" d="M843.41,373.56,853.65,369s-1.57,9.41-3.14,10.53S841.43,376.05,843.41,373.56Z"/><path class="cls-1" d="M854.41,342.43H847c-.73-3.25-3.13-5.63-6-5.63s-5.15,2.3-5.94,5.45a3.48,3.48,0,0,0-1.87-.66,2.89,2.89,0,0,0-1.6.54c-.5-3.44-2.61-6-5.13-6-2.89,0-5.24,3.4-5.24,7.58s2.35,7.58,5.24,7.58,5.24-3.4,5.24-7.58c0,0,0-.06,0-.1a2.45,2.45,0,0,1,1.5-.8,2.91,2.91,0,0,1,1.65.81c0,.31-.05.62-.05.94,0,4.26,2.78,7.73,6.21,7.73s6.2-3.47,6.2-7.73a8.72,8.72,0,0,0-.05-.9h7.27Zm-28,7.63c-2.23,0-4-2.86-4-6.38s1.81-6.38,4-6.38,4,2.86,4,6.38S828.68,350.06,826.45,350.06Zm14.54,1c-2.77,0-5-2.93-5-6.53s2.24-6.54,5-6.54,5,2.94,5,6.54S843.75,351.06,841,351.06Z"/><path class="cls-15" d="M833.42,179.64s7.63-10.48,23.79-2.4,13.32,26,15.56,26,6.44-3.29,10.48,2.24S885.49,220,881.6,223s-10.17,1.05-12.27-2.1-3.74-3.29-6.13-.74-9.73,5.68-11.52,5.23-10.63-8.68-18.26-16.31-10.67-6.47-10.67-6.47-1.6-8.19.8-13.28S833.42,179.64,833.42,179.64Z"/><path class="cls-8" d="M830.63,239.16s-15.36,2-19,8.54-4.44,31.24-4.44,31.24h74.86s-7.83-26.58-11.84-31-19.33-6.13-19.33-6.13Z"/><polygon class="cls-7" points="867.23 278.94 865.73 272.73 863.02 278.94 867.23 278.94"/><path class="cls-10" d="M859.76,215.55c-.15,2.54-3,4-3,4l.15,1.64c.15,1.65-2.54,6.44-3.59,7.93s0,8.53,0,8.53a18.18,18.18,0,0,1-5.53,2.25c-1.91.47-6,.45-9.38.31-3-.12-5.44-.31-5.44-.31V234.4l-1.34-.3c-1.35-.3-2.85-2.39-6-7.48s-2.09-9.88-2.15-12.57a24.82,24.82,0,0,0-1-6.88c-.75-2.84,2.09-11.82,2.09-11.82l6.74-6a40.54,40.54,0,0,0,3.44,7.18c2.84,5.09,15,13.17,16.31,14.69s3.44-2.86,5.68-2S859.91,213,859.76,215.55Z"/><path class="cls-15" d="M853.05,210.31h-7.46c-.73-3.25-3.12-5.64-6-5.64s-5.15,2.3-5.93,5.46a3.43,3.43,0,0,0-1.87-.67,2.9,2.9,0,0,0-1.61.55c-.5-3.44-2.61-6-5.13-6-2.89,0-5.23,3.4-5.23,7.58s2.34,7.58,5.23,7.58,5.24-3.4,5.24-7.58v-.1a2.39,2.39,0,0,1,1.5-.8,2.91,2.91,0,0,1,1.64.81c0,.3-.05.62-.05.94,0,4.26,2.79,7.73,6.21,7.73s6.2-3.47,6.2-7.73a9.1,9.1,0,0,0,0-.91h7.26Zm-28,7.63c-2.22,0-4-2.86-4-6.38s1.82-6.39,4-6.39,4,2.87,4,6.39S827.32,217.94,825.09,217.94Zm14.54,1c-2.76,0-5-2.93-5-6.53s2.25-6.54,5-6.54,5,2.93,5,6.54S842.39,218.94,839.63,218.94Z"/><path class="cls-12" d="M831.48,222.23a.62.62,0,0,1-.4-.15,14.89,14.89,0,0,1-1.51-1.57,1.05,1.05,0,0,1-.25-.81c.07-.68.75-1.22,1.4-1.73a5.05,5.05,0,0,0,.68-.61,7.54,7.54,0,0,0-.9-2.48.59.59,0,0,1,.25-.81.6.6,0,0,1,.81.25c.52,1,1.33,2.8.89,3.61a3.66,3.66,0,0,1-1,1,5.08,5.08,0,0,0-.94.89,13.9,13.9,0,0,0,1.35,1.39.61.61,0,0,1,.06.85A.62.62,0,0,1,831.48,222.23Z"/><path class="cls-12" d="M832.48,226.88a4.25,4.25,0,0,1-3.26-1.33.6.6,0,0,1,.92-.76,3.49,3.49,0,0,0,3.5.75,6.62,6.62,0,0,0,3.55-1.88.6.6,0,0,1,.95.73,7.56,7.56,0,0,1-4.23,2.31A6.42,6.42,0,0,1,832.48,226.88Z"/><ellipse class="cls-15" cx="838.64" cy="211.66" rx="1.1" ry="1.8"/><path class="cls-15" d="M827.51,211.08c0,1-.51,1.85-1.14,1.85s-1.14-.83-1.14-1.85.51-1.85,1.14-1.85S827.51,210.05,827.51,211.08Z"/><path class="cls-12" d="M849.43,229.32c-.08.14-2.49,4.88-4,6.35a55.1,55.1,0,0,1-7,4.58c-3-.12-5.44-.31-5.44-.31V234.4s5.77.45,9.88-1.5A59.61,59.61,0,0,0,849.43,229.32Z"/><polygon class="cls-7" points="815.69 278.94 818.12 266.52 818.88 278.94 815.69 278.94"/><path class="cls-23" d="M834.39,239.16s-6.25,14.46-7.4,23.56a83.26,83.26,0,0,0-.5,16.22h26.2l-5.15-37.59Z"/><path class="cls-24" d="M875.23,264.54c-1.73.78-7.6,1.21-13.4-.71l-.8-.29a21,21,0,0,1-5.08-2.71,11.08,11.08,0,0,1-1.6-1.43c-.16-.16-.3-.33-.44-.5-4.51-5.52-2.58-13.9-2.58-13.9l7.19-5.84s-.77,7.58,7.58,10.4l.6.19.7.2a31.55,31.55,0,0,0,5.37.89l.67,0c5,.25,6.83-1.12,7.07.82C880.83,254.28,877.55,263.48,875.23,264.54Z"/><path class="cls-25" d="M866.7,249.75a11.12,11.12,0,0,1-5.37,6.36,75.82,75.82,0,0,1-7,3.29c-.16-.16-.3-.33-.44-.5a74.58,74.58,0,0,0,7.12-3.35,10.51,10.51,0,0,0,5.07-6Z"/><path class="cls-25" d="M873.44,250.88a20.61,20.61,0,0,1-3.46,6.67,27.29,27.29,0,0,1-8.15,6.28l-.8-.29a27.15,27.15,0,0,0,8.45-6.39,19.82,19.82,0,0,0,3.29-6.31Z"/><path class="cls-25" d="M862.54,250.9c-.78,1.37-3.42,2.57-6.59,3.44l-.63.17a42.67,42.67,0,0,1-9.8,1.32c-.3,0-.6,0-.89,0l-.91-.05a103.27,103.27,0,0,1-11-1.91l-.69-.17c-2.49-.57-5-1.24-7.19-2l-.68-.23c-3.11-1.11-5.41-2.35-5.83-3.64-1.18-3.64,2.31-14.54,7.48-14a3.34,3.34,0,0,1,.66.13,3.69,3.69,0,0,1,.5.17,54,54,0,0,0,8.24,2.07l.68.12a45.55,45.55,0,0,0,7.35.65h.68a23.55,23.55,0,0,0,3.85-.4c3.53-.71,5.5-1.4,6.81-1.74a6.7,6.7,0,0,1,.92-.18c1-.12,1.61.22,2.68,1.39C860.64,238.63,864.34,247.73,862.54,250.9Z"/><path class="cls-26" d="M824,244.21c.28,3,.59,5.48.91,7.49l-.68-.23c-.3-2-.59-4.35-.87-7.21-.48-5.08.82-8.36,2.52-10.47a3.34,3.34,0,0,1,.66.13C824.8,235.9,823.46,239.09,824,244.21Z"/><path class="cls-26" d="M835.91,236.28c-2,3.59-4.26,8.44-4,12.16a30.31,30.31,0,0,0,.86,5.41l-.69-.17a30.27,30.27,0,0,1-.81-5.2c-.23-3.84,2-8.7,4-12.32Z"/><path class="cls-26" d="M845.52,255.83c-.3,0-.6,0-.89,0a19.76,19.76,0,0,1-1.92-2.52c-2.34-3.68-.91-11.13.55-16.36h.68c-1.44,5.13-2.91,12.54-.69,16A17.84,17.84,0,0,0,845.52,255.83Z"/><path class="cls-26" d="M856,254.34l-.63.17a25.88,25.88,0,0,1-3.56-10.57,14.24,14.24,0,0,1,2.84-9.16,6.7,6.7,0,0,1,.92-.18,13.94,13.94,0,0,0-3.13,9.29A25.32,25.32,0,0,0,856,254.34Z"/><path class="cls-15" d="M651.29,304s4-8.46,16.08,1,4.71,16.8,16.08,19.58,4.83,15.23,3.86,22.24-6.48,7.62,2.74,12.82,4.64,20.31-1.29,22.48-21.27,7.14-25.5-3.5-6.41-41.23-14.75-40.74-13.65.6-13.65.6a43.58,43.58,0,0,1-3.64-18.37C631.58,310,646,301.69,651.29,304Z"/><path class="cls-10" d="M637.75,319.22s-5.56,6.17-4.11,11a28.89,28.89,0,0,1,1.21,10.16c0,2.66,2.9,12.81,4.71,13.29s8.1,0,8.1,0,.61,6.29,0,9.68a31.9,31.9,0,0,0-.6,4.35l8.7,3.38,12.69-6S666,357.42,665.67,353s-1-8.58.25-9.19,6.28-3.38,6.52-6.29-1.81-7-4.47-6.64a25.18,25.18,0,0,0-4.11.84s-9.43-3.38-12.81-7.86a38.9,38.9,0,0,1-5.2-10Z"/><path class="cls-12" d="M647.66,353.67a31.53,31.53,0,0,0,8.45-4.67l3.52-2.94s-2.54,5.2-4.72,8.7-7,6.52-7,6.52Z"/><path class="cls-12" d="M642.89,341.44a.62.62,0,0,1-.4-.15,15.41,15.41,0,0,1-1.51-1.56,1.1,1.1,0,0,1-.24-.81c.07-.67.74-1.21,1.39-1.72a5.05,5.05,0,0,0,.68-.61,7.51,7.51,0,0,0-.9-2.47.59.59,0,0,1,.25-.8.6.6,0,0,1,.81.25c.51,1,1.32,2.78.89,3.59a3.81,3.81,0,0,1-1,1,4.67,4.67,0,0,0-.93.88,13.19,13.19,0,0,0,1.34,1.39.6.6,0,0,1,.05.84A.59.59,0,0,1,642.89,341.44Z"/><path class="cls-12" d="M643.88,346.06a4.24,4.24,0,0,1-3.24-1.32.59.59,0,1,1,.92-.75,3.45,3.45,0,0,0,3.47.74,6.45,6.45,0,0,0,3.53-1.87.61.61,0,0,1,.84-.11.59.59,0,0,1,.11.83,7.44,7.44,0,0,1-4.21,2.31A6.29,6.29,0,0,1,643.88,346.06Z"/><path class="cls-15" d="M651.11,330.92c0,1-.49,1.79-1.1,1.79s-1.1-.8-1.1-1.79.49-1.78,1.1-1.78S651.11,329.94,651.11,330.92Z"/><path class="cls-15" d="M638.94,330.35c0,1-.51,1.84-1.13,1.84s-1.14-.83-1.14-1.84.51-1.85,1.14-1.85S638.94,329.33,638.94,330.35Z"/><path class="cls-15" d="M635.65,327.44c.29-.5.37-1.1.9-1.43a3.81,3.81,0,0,1,1.92-.36.54.54,0,0,0,0-1.08,4.78,4.78,0,0,0-2.47.5c-.75.46-.88,1.12-1.29,1.82a.54.54,0,0,0,.94.55Z"/><path class="cls-15" d="M648.33,325.5a2.8,2.8,0,0,1,2.3,1.55c.33.62,1.26.07.94-.55a3.91,3.91,0,0,0-3.24-2.09c-.7-.05-.7,1,0,1.09Z"/><path class="cls-26" d="M647.88,361.28s-16.06,4.32-18.69,7.78-6.76,35.74-6.76,35.74h75.11s-9.22-35.91-15.65-40.19S667,359.93,667,359.93s-5,6.82-9,7.32S648.79,365.69,647.88,361.28Z"/><path class="cls-1" d="M647.88,361.28s-5,8.7-2.81,9.8,5,4.4,6.57,3.58a35.84,35.84,0,0,0,4.89-3.94s.93,3,3.1,3.11,12.71-3,12-5.79-4.67-8.11-4.67-8.11-5.9,5.27-10.65,5.67S647.88,361.28,647.88,361.28Z"/><polygon class="cls-25" points="634.79 404.8 634.79 388.99 631.2 404.8 634.79 404.8"/><polygon class="cls-25" points="684.37 404.8 680.91 392.78 687.66 404.8 684.37 404.8"/><path class="cls-2" d="M380.46,179.75h-116a5.55,5.55,0,0,0-5.55,5.55v38.47a5.56,5.56,0,0,0,5.55,5.55h61.88l17.09,14.9a1.66,1.66,0,0,0,2.75-1.41l-1.28-13.49h35.54a5.55,5.55,0,0,0,5.54-5.55V185.3A5.54,5.54,0,0,0,380.46,179.75Z"/><circle class="cls-1" cx="299.36" cy="204.48" r="5.46"/><circle class="cls-1" cx="322.47" cy="204.48" r="5.46"/><circle class="cls-1" cx="345.58" cy="204.48" r="5.46"/><polygon class="cls-1" points="144.73 795.71 146.66 787.13 150.13 787.13 144.73 781.1 144.73 773.35 152.19 773.35 148.46 768.61 148.46 762.58 245.28 762.58 245.28 771.2 240.65 772.49 250.28 775.5 250.28 779.15 244.51 779.15 247.2 782.4 247.97 787.57 243.74 787.57 250.28 791.44 250.28 795.71 144.73 795.71"/><polygon class="cls-2" points="148.46 768.61 245.28 771.2 240.65 772.49 152.19 773.35 148.46 768.61"/><polygon class="cls-2" points="247.2 782.4 144.73 781.1 146.85 783.47 247.2 785.55 247.2 782.4"/><polygon class="cls-2" points="244.51 779.15 165.02 777.51 250.28 775.5 250.28 779.15 244.51 779.15"/><polygon class="cls-2" points="146.66 787.13 243.74 787.57 145.78 791.02 146.66 787.13"/><polygon class="cls-1" points="144.73 859.68 146.66 847.85 150.13 847.85 144.73 839.53 144.73 828.83 152.19 828.83 148.46 822.29 148.46 813.98 245.28 813.98 245.28 825.86 240.65 827.64 250.28 831.8 250.28 836.83 244.51 836.83 247.2 841.31 247.97 848.44 243.74 848.44 250.28 853.79 250.28 859.68 144.73 859.68"/><polygon class="cls-2" points="148.46 822.29 245.28 825.86 240.65 827.64 152.19 828.83 148.46 822.29"/><polygon class="cls-2" points="247.2 841.31 144.73 839.53 146.85 842.79 247.2 845.67 247.2 841.31"/><polygon class="cls-2" points="244.51 836.83 165.02 834.57 250.28 831.8 250.28 836.83 244.51 836.83"/><polygon class="cls-2" points="146.66 847.85 243.74 848.44 145.78 853.2 146.66 847.85"/><polygon class="cls-1" points="144.04 821.95 145.97 811.69 149.44 811.69 144.04 804.48 144.04 795.2 151.51 795.2 147.78 789.54 147.78 782.33 244.59 782.33 244.59 792.63 239.97 794.17 249.6 797.78 249.6 802.14 243.82 802.14 246.52 806.02 247.29 812.21 243.05 812.21 249.6 816.84 249.6 821.95 144.04 821.95"/><polygon class="cls-2" points="147.78 789.54 244.59 792.63 239.97 794.17 151.51 795.2 147.78 789.54"/><polygon class="cls-2" points="246.52 806.02 144.04 804.48 146.16 807.31 246.52 809.8 246.52 806.02"/><polygon class="cls-2" points="243.82 802.14 164.33 800.18 249.6 797.78 249.6 802.14 243.82 802.14"/><polygon class="cls-2" points="145.97 811.69 243.05 812.21 145.1 816.34 145.97 811.69"/><polygon class="cls-1" points="144.73 899.53 146.66 887.7 150.13 887.7 144.73 879.38 144.73 868.68 152.19 868.68 148.46 862.15 148.46 853.83 245.28 853.83 245.28 865.71 240.65 867.5 250.28 871.66 250.28 876.68 244.51 876.68 247.2 881.16 247.97 888.29 243.74 888.29 250.28 893.64 250.28 899.53 144.73 899.53"/><polygon class="cls-2" points="148.46 862.15 245.28 865.71 240.65 867.5 152.19 868.68 148.46 862.15"/><polygon class="cls-2" points="247.2 881.16 144.73 879.38 146.85 882.65 247.2 885.52 247.2 881.16"/><polygon class="cls-2" points="244.51 876.68 165.02 874.43 250.28 871.66 250.28 876.68 244.51 876.68"/><polygon class="cls-2" points="146.66 887.7 243.74 888.29 145.78 893.06 146.66 887.7"/><polygon class="cls-1" points="582.06 896.48 583.93 884.6 587.28 884.6 582.06 876.24 582.06 865.49 589.29 865.49 585.67 858.93 585.67 850.57 679.45 850.57 679.45 862.51 674.97 864.3 684.3 868.48 684.3 873.53 678.7 873.53 681.31 878.03 682.06 885.19 677.96 885.19 684.3 890.56 684.3 896.48 582.06 896.48"/><polygon class="cls-2" points="585.67 858.93 679.45 862.51 674.97 864.3 589.29 865.49 585.67 858.93"/><polygon class="cls-2" points="681.31 878.03 582.06 876.24 584.11 879.52 681.31 882.41 681.31 878.03"/><polygon class="cls-2" points="678.7 873.53 601.71 871.26 684.3 868.48 684.3 873.53 678.7 873.53"/><polygon class="cls-2" points="583.93 884.6 677.96 885.19 583.08 889.98 583.93 884.6"/><polygon class="cls-9" points="344.43 682.55 340.52 706.75 309.94 896.25 300.51 896.25 322.47 706.75 325.54 680.23 344.43 682.55"/><polygon class="cls-9" points="498.54 896.25 489.1 896.25 458.52 706.75 454.62 682.55 473.5 680.23 476.57 706.75 498.54 896.25"/><polygon class="cls-14" points="325.54 680.23 344.43 682.55 340.52 706.75 322.47 706.75 325.54 680.23"/><polygon class="cls-14" points="476.57 706.75 458.52 706.75 454.62 682.55 473.5 680.23 476.57 706.75"/><path class="cls-2" d="M304.49,401.37a5.6,5.6,0,0,1,3,5.1c-.43,28-2.85,250.42,28.34,255.1,28.13,4.22,119.83,7.84,147.56,8.86a8.32,8.32,0,0,1,8,8.32v1.85a8.32,8.32,0,0,1-8.44,8.32c-35.57-.54-171.74-3.41-180.42-15.7-10-14.15-15-241.34-8.32-258C299.37,402.28,301.4,399.78,304.49,401.37Z"/><path class="cls-8" d="M384.47,816.45l-9.75,72.47a8.34,8.34,0,0,1-8.25,7.22H263a8.33,8.33,0,0,1-8.31-8.77l4.1-77.49a8.33,8.33,0,0,1,7.64-7.86,9.11,9.11,0,0,1,1.05,0l109.17,5a9.09,9.09,0,0,1,1.59.23A8.34,8.34,0,0,1,384.47,816.45Z"/><path class="cls-7" d="M378.19,807.26c-2.26,18.17-7.82,56.75-15,63.74-9.44,9.21-66.59,9.1-83.79-5.16-13.64-11.3-13.63-48.79-13-63.82a9.11,9.11,0,0,1,1.05,0l109.17,5A9.09,9.09,0,0,1,378.19,807.26Z"/><path class="cls-7" d="M341.44,804.21l-4.18-1.48s1.7-5,.06-8.72c-.29-.53-2.93-2.08-11.47-2.72a113.21,113.21,0,0,0-17.91.15c-7.05.7-6.89,10.09-6.88,10.49l-4.43.13c-.15-4.81,1.93-14.14,10.87-15a118.87,118.87,0,0,1,18.91-.14c11.71.92,14.15,3.49,15,5.34C343.74,797.59,341.53,804,341.44,804.21Z"/><path class="cls-23" d="M271.66,802s-8.88,38.75,5,44.57,76,11.1,82.39,5.28,18.59-42.73,14.15-46.33S275.82,796,271.66,802Z"/><path class="cls-1" d="M319.54,839.54a4.49,4.49,0,1,1-4.48-4.49A4.49,4.49,0,0,1,319.54,839.54Z"/><path class="cls-2" d="M914.16,555.83H215.06a6.66,6.66,0,0,1-6.65-6.66h0a6.66,6.66,0,0,1,6.65-6.66h699.1a6.66,6.66,0,0,1,6.66,6.66h0A6.66,6.66,0,0,1,914.16,555.83Z"/><polygon class="cls-9" points="266.73 555.83 258.84 587.46 181.84 896.25 171.02 896.25 236.7 587.46 243.43 555.83 266.73 555.83"/><polygon class="cls-9" points="958.24 896.25 947.42 896.25 870.41 587.46 862.53 555.83 885.83 555.83 892.56 587.46 958.24 896.25"/><polygon class="cls-14" points="243.43 555.83 266.73 555.83 258.84 587.46 236.7 587.46 243.43 555.83"/><polygon class="cls-14" points="892.56 587.46 870.41 587.46 862.53 555.83 885.83 555.83 892.56 587.46"/><path class="cls-2" d="M883.49,634.94H633.6A22.75,22.75,0,0,1,612,619.24l-20.68-63.41H862.53L880,621.62Z"/><g class="cls-19"><path class="cls-9" d="M880,621.62H645.25a22.75,22.75,0,0,1-21.63-15.69l-16.34-50.1H862.53Z"/></g><rect class="cls-9" x="651.17" y="564.71" width="184.21" height="43.83" rx="5"/><circle class="cls-14" cx="733.36" cy="588.09" r="7.29" transform="translate(-35.44 1129.03) rotate(-73.86)"/><path class="cls-26" d="M824,701s-15-16.71-10.53-32.84,15.59-18.41,23.61-9.72S833.39,696,824,701Z"/><path class="cls-27" d="M827.7,715.88a.31.31,0,0,1-.33-.23c0-.15-4.63-15.21-4.14-28.17s8.06-25.34,8.13-25.46a.31.31,0,0,1,.44-.1.32.32,0,0,1,.11.44c-.08.12-7.56,12.33-8,25.14s4.06,27.82,4.11,28a.33.33,0,0,1-.21.4Z"/><path class="cls-24" d="M843,750.3S819.84,719,830.1,691.76s30-29.34,42.45-13S860.1,743.08,843,750.3Z"/><path class="cls-27" d="M847,776.65a.54.54,0,0,1-.54-.44c-.06-.27-5.53-27.08-2.6-49.43s18.06-42.55,18.21-42.75a.55.55,0,0,1,.78-.1.54.54,0,0,1,.1.77c-.15.2-15.08,20.12-18,42.22s2.53,48.8,2.59,49.07a.55.55,0,0,1-.43.65Z"/><path class="cls-25" d="M872.55,815.68c.37-.37,1.48-14.8,13.31-37.73s43.82-36.62,43.82-36.62-29.76,23.3-33.83,41.06a65.83,65.83,0,0,0,.37,31.72Z"/><path class="cls-24" d="M849.61,812.35s-4.07-35.88,5.55-48.09,34-8.87,34.73,11.84S857,815.68,857,815.68Z"/><path class="cls-26" d="M873.29,759.12s27-8.62,26.61-16.29c-.31-5.73-10.33-4.07-15.41-2.85-1.57.45-2.63.72-2.86.77.22-.07,1.31-.4,2.86-.77,6.82-2,23.33-7.44,23.35-14.63,0-3.75-2.9-4.79-6.34-4.71,6.64-2.06,14.07-5.61,15.15-11.26.63-3.34-.86-5-3.19-5.59,6.35-1.44,12.94-4.1,15.21-9,4.83-10.4-9.28-9.57-9.28-9.57a13.53,13.53,0,0,0,1.07-13.61c-3.63-7.45-13-9.69-17.39,2.43s.5,27.86.5,27.86-7.32-19.39-11.36-14.19c-3,3.92-1.39,18.89-.39,26.1a24.67,24.67,0,0,1,.59,3.91s-.25-1.53-.59-3.91c-1-4.25-3.58-10-10.24-6.25-9.82,5.48-.51,29.31-.1,30.36-.3-.71-5-11.14-9.49-6C867.32,737.19,873.29,759.12,873.29,759.12Z"/><path class="cls-27" d="M851.94,814.1a.64.64,0,0,0,.52-.43c.15-.46,15.18-46,34-82.74S928,680.12,928.27,680a.67.67,0,0,0,.22-.9.65.65,0,0,0-.89-.23c-.23.14-23.39,14.57-42.3,51.47s-33.91,82.46-34.06,82.92a.66.66,0,0,0,.41.83A.48.48,0,0,0,851.94,814.1Z"/><path class="cls-25" d="M813.28,762.58s-24.14-4.05-24.7-10.52c-.41-4.83,8.35-4.61,12.84-4.18,1.39.2,2.33.3,2.54.31-.2,0-1.17-.18-2.54-.31-6.06-.84-20.83-3.49-21.72-9.51-.46-3.13,1.92-4.34,4.87-4.68-5.92-.94-12.7-3-14.3-7.65-.93-2.71.15-4.23,2.06-5-5.6-.47-11.56-1.92-14.08-5.75-5.37-8.13,6.8-9.09,6.8-9.09a11.25,11.25,0,0,1-2.54-11.25c2.21-6.66,10-9.62,15.16,0s2.89,23.36,2.89,23.36,4-17.07,8-13.19c3.06,2.92,3.44,15.63,3.45,21.77a20.82,20.82,0,0,0,0,3.34s0-1.31,0-3.34c.34-3.66,1.87-8.76,8-6.42,9,3.44,3.92,24.45,3.7,25.38.17-.63,2.93-9.9,7.39-6.15C815.77,743.55,813.28,762.58,813.28,762.58Z"/><path class="cls-1" d="M792,726.85c0,2,0,3.34,0,3.34A20.82,20.82,0,0,1,792,726.85Z"/><path class="cls-6" d="M791.49,730.24a22.25,22.25,0,0,1,0-3.43l1,0c0,2,0,3.36,0,3.36Z"/><path class="cls-1" d="M804,748.19c-.21,0-1.15-.11-2.54-.31C802.79,748,803.76,748.16,804,748.19Z"/><path class="cls-6" d="M803.92,748.69c-.24,0-1.21-.12-2.57-.31l.12-1c1.39.14,2.38.29,2.57.32Z"/><path class="cls-25" d="M830,825.34c0-1.52,0-54.3-17-99.3s-26.26-55-26.26-55,32.55,15.17,50.68,62.51,13.31,86.19,13.31,86.19Z"/><path class="cls-24" d="M821.87,819.75s-7.77-18.13-17-26.63-16.28-10.73-16.28-10.73,22.93,5.55,28.85,11.46l5.92,5.92s-4.07-11.09-6.66-17.38l-2.59-6.29s11.47,7.58,20.35,23,10,18,10,18Z"/><path class="cls-2" d="M803.06,809.76h98.65a6.1,6.1,0,0,1,6,7l-11.11,74.17a6.11,6.11,0,0,1-6,5.19H814.18a6.09,6.09,0,0,1-6-5.19L797,816.77A6.1,6.1,0,0,1,803.06,809.76Z"/><path class="cls-27" d="M838.09,806.07a.55.55,0,0,1-.49-.31c-.19-.36-18.48-36.73-38.93-65.22S757,702.91,756.83,702.82a.56.56,0,0,1-.29-.73.55.55,0,0,1,.72-.29c.22.09,21.75,9.45,42.31,38.1s38.84,65,39,65.36a.55.55,0,0,1-.25.75A.54.54,0,0,1,838.09,806.07Z"/><path class="cls-24" d="M341.7,523.3v16.3h3.58v2.72H238.76c-4.91,0-8.89-3.22-8.89-7.19v-7.36c0-4,4-7.19,8.89-7.19H345.28v2.72Z"/><path class="cls-1" d="M341.7,523.3v16.3H238.17c-2.62,0-4.74-1.72-4.74-3.83v-8.63a3.23,3.23,0,0,1,.5-1.72,4.94,4.94,0,0,1,4.24-2.12Z"/><rect class="cls-28" x="233.42" y="526.89" width="108.28" height="0.8"/><rect class="cls-28" x="233.42" y="531.21" width="108.28" height="0.8"/><rect class="cls-28" x="233.42" y="534.01" width="108.28" height="0.8"/><path class="cls-29" d="M341.7,536.87v2.73H238.17c-2.62,0-4.74-1.72-4.74-3.83v-8.63a3.23,3.23,0,0,1,.5-1.72c4.25,5.82,16,11.45,45.56,11.45Z"/><polygon class="cls-8" points="250.76 532.01 250.76 543.8 255.06 540.63 258.5 543.59 258.5 532.01 250.76 532.01"/><path class="cls-24" d="M333.4,468.68v11.87h2.89v2H250.38c-4,0-7.18-2.34-7.18-5.24v-5.35c0-2.89,3.21-5.24,7.18-5.24h85.91v2Z"/><path class="cls-1" d="M333.4,468.68v11.87H249.9c-2.12,0-3.83-1.25-3.83-2.79v-6.28a2.17,2.17,0,0,1,.41-1.25,4.13,4.13,0,0,1,3.42-1.55Z"/><rect class="cls-28" x="246.07" y="471.3" width="87.33" height="0.58"/><rect class="cls-28" x="246.07" y="474.44" width="87.33" height="0.58"/><rect class="cls-28" x="246.07" y="476.48" width="87.33" height="0.58"/><path class="cls-29" d="M333.4,478.56v2H249.9c-2.12,0-3.83-1.25-3.83-2.79v-6.28a2.17,2.17,0,0,1,.41-1.25c3.43,4.23,12.91,8.33,36.75,8.33Z"/><polygon class="cls-8" points="260.06 475.02 260.06 483.61 263.52 481.3 266.29 483.45 266.29 475.02 260.06 475.02"/><path class="cls-8" d="M253.32,518.22V506.65h-2.54v-1.93h75.53c3.48,0,6.31,2.29,6.31,5.11V515c0,2.82-2.83,5.11-6.31,5.11H250.78v-1.93Z"/><path class="cls-1" d="M330.1,509.37v6.13c0,1.5-1.51,2.72-3.37,2.72H253.32V506.65h73.41C328.59,506.65,330.1,507.87,330.1,509.37Z"/><rect class="cls-28" x="253.32" y="515.1" width="76.78" height="0.57"/><rect class="cls-28" x="253.32" y="512.04" width="76.78" height="0.57"/><rect class="cls-28" x="253.32" y="510.05" width="76.78" height="0.57"/><path class="cls-29" d="M330.1,515.38v.12c0,1.5-1.51,2.72-3.37,2.72H253.32V507.47c6.26,4.28,17.67,7.91,38.39,7.91Z"/><path class="cls-8" d="M243.83,501.58V485.3h-3v-2.71h90.35a7.37,7.37,0,0,1,7.54,7.18v7.34a7.36,7.36,0,0,1-7.54,7.18H240.79v-2.71Z"/><path class="cls-1" d="M335.67,489.13v8.62a3.93,3.93,0,0,1-4,3.82H243.83V485.3h87.81A3.93,3.93,0,0,1,335.67,489.13Z"/><rect class="cls-28" x="243.83" y="497.19" width="91.84" height="0.8"/><rect class="cls-28" x="243.83" y="492.88" width="91.84" height="0.8"/><rect class="cls-28" x="243.83" y="490.09" width="91.84" height="0.8"/><path class="cls-29" d="M335.67,497.59v.16a3.93,3.93,0,0,1-4,3.82H243.83V486.46c7.49,6,21.14,11.13,45.92,11.13Z"/></g></svg>